<?xml version="1.0" encoding="utf-8"?>
<!-- Generator: Adobe Illustrator 20.1.0, SVG Export Plug-In . SVG Version: 6.00 Build 0)  -->
<svg version="1.1" id="Layer_1" xmlns="http://www.w3.org/2000/svg" xmlns:xlink="http://www.w3.org/1999/xlink" x="0px" y="0px"
	 viewBox="0 0 289 68" style="enable-background:new 0 0 289 68;" xml:space="preserve">
<style type="text/css">
	.st0{fill:#155EF5;}
</style>
<path class="st0" d="M11,11.4V24h7.3c5.6,0,8.3-3,8.2-6.4c0.1-3.5-2.8-6.2-8.2-6.2L11,11.4L11,11.4z M18.5,2
	c10.8,0,17.9,6.5,17.9,15.6c0,8.7-4.9,14-10.4,15.1l11.5,20.5H26.1L15.6,34H11v19.2H0.7V2H18.5z M52.3,32.2H68
	c-0.9-4.5-3.6-7.1-7.7-7.1C55.8,25.1,53.1,27.8,52.3,32.2 M77.6,35.5c0,1.1-0.1,2.4-0.2,3.2H52.2c1,5.1,4.6,7.4,9.1,7.4
	c3.1,0,6.4-1.2,9-3.4l5.6,6.2c-4,3.7-9.2,5.4-15.2,5.4c-10.9,0-18.5-7.4-18.5-18.6c0-11.2,7.3-18.8,18-18.8
	C70.6,16.8,77.6,24.4,77.6,35.5 M95.1,35.5c0,5.6,3.7,9.8,9.1,9.8c5.7,0,9.2-4.4,9.2-9.8c0-5.4-3.5-9.8-9.2-9.8
	C98.8,25.7,95.1,29.9,95.1,35.5 M123.2,35.5c0,10.7-7.4,18.7-17.2,18.7c-4.8,0-8.1-1.9-10.5-4.6v18.4H86V17.8h9.4v3.9
	c2.3-2.9,5.7-4.9,10.6-4.9C115.8,16.8,123.2,24.8,123.2,35.5 M164.1,38.1c0,11.2-7.9,16-16.8,16c-8.9,0-16.8-4.8-16.8-16V17.8h9.6
	v19.5c0,5.7,3.1,8,7.3,8c4.1,0,7.3-2.3,7.3-8V17.8h9.5V38.1z M182.7,35.5c0,5.6,3.7,9.8,9.1,9.8c5.7,0,9.2-4.4,9.2-9.8
	c0-5.4-3.5-9.8-9.2-9.8C186.4,25.7,182.7,29.9,182.7,35.5 M210.8,35.5c0,10.7-7.4,18.7-17.2,18.7c-4.9,0-8.3-2-10.6-4.8v3.9h-9.4
	V0.5h9.5v21c2.3-2.8,5.7-4.7,10.4-4.7C203.4,16.8,210.8,24.8,210.8,35.5"/>
<polygon class="st0" points="218.6,53.3 228.2,53.3 228.2,0.5 218.6,0.5 "/>
<path class="st0" d="M238.2,53.3h9.6V17.8h-9.6V53.3z M249.1,6.2c0,3.4-2.7,6.1-6.1,6.1c-3.4,0-6.1-2.6-6.1-6.1
	c0-3.4,2.6-6.2,6.1-6.2C246.4,0,249.1,2.7,249.1,6.2L249.1,6.2z M288.8,23.5l-6.9,5.8c-2.2-2.3-4.5-3.6-7.6-3.6
	c-5,0-8.9,3.9-8.9,9.8c0,5.9,3.9,9.8,8.9,9.8c3.1,0,5.7-1.4,7.7-3.6l6.8,5.8c-3.3,4.3-8.3,6.7-14.3,6.7c-11.3,0-18.9-7.9-18.9-18.7
	c0-10.7,7.6-18.7,18.9-18.7C280.5,16.8,285.6,19.2,288.8,23.5"/>
</svg>
