<svg xmlns="http://www.w3.org/2000/svg" xmlns:xlink="http://www.w3.org/1999/xlink" width="1133" height="288" viewBox="0 0 1133 288">
  <defs>
    <polygon id="logo-republic-a" points=".088 .145 13.982 .145 13.982 14.04 .088 14.04 .088 .145"/>
    <polygon id="logo-republic-c" points=".125 .021 15.641 .021 15.641 15.537 .125 15.537 .125 .021"/>
    <polygon id="logo-republic-e" points="0 4.569 0 .021 1.011 .021 1.011 4.569"/>
    <polygon id="logo-republic-g" points="1.083 .021 1.083 4.569 .072 4.569 .072 .021 1.083 .021"/>
    <polygon id="logo-republic-i" points="0 20.58 15.592 20.58 15.592 0 0 0"/>
    <polygon id="logo-republic-k" points="4.21 .067 4.21 4.789 .124 4.789 .124 .067 4.21 .067"/>
    <polygon id="logo-republic-m" points="4.269 .068 4.269 4.856 .126 4.856 .126 .068 4.269 .068"/>
  </defs>
  <g fill="none" fill-rule="evenodd" transform="translate(0 -.732)">
    <g fill="#155EF5" transform="translate(3 21)">
      <path d="M40.5874739 45.3932025L40.5874739 94.6472177 69.3340473 94.6472177C91.1970127 94.6472177 101.869355 83.0807708 101.579541 69.6580327 101.869355 55.7706938 90.6216158 45.3910906 69.3340473 45.3910906L40.5874739 45.3910906 40.5874739 45.3932025zM70.0532934 8.48911997C112.520543 8.48911997 140.389214 34.141417 140.389214 69.6601445 140.389214 103.839977 121.200151 124.451356 99.4619963 128.966431L144.400068 209.528201 99.8343119 209.528201 58.5918956 134.06648 40.5874739 134.06648 40.5874739 209.528201.455658069 209.528201.455658069 8.48911997 70.0532934 8.48911997zM202.574383 126.814484L264.279351 126.814484C260.829085 109.007605 250.040394 98.9574456 233.929282 98.9574456 216.237944 98.9574456 205.8808 109.579908 202.574383 126.814484M301.967845 139.730385C301.967845 144.040613 301.680147 149.216688 301.248599 152.369638L202.428419 152.369638C206.456197 172.476291 220.55342 181.229792 238.244758 181.229792 250.328092 181.229792 263.416255 176.34726 273.483585 167.883079L295.492515 192.004305C279.671217 206.508296 259.532327 213.107739 236.08702 213.107739 193.368034 213.107739 163.735095 184.106093 163.735095 140.313248 163.735095 96.5119562 192.500707 66.6465751 234.212749 66.6465751 274.34668 66.6465751 301.826111 96.3683523 301.967845 139.730385M370.296223 139.876101C370.296223 161.847493 384.820763 178.218334 406.112562 178.218334 428.263226 178.218334 442.070635 161.129474 442.070635 139.876101 442.070635 118.626952 428.263226 101.538092 406.112562 101.538092 384.820763 101.538092 370.296223 117.911044 370.296223 139.876101M480.62011 139.876101C480.62011 181.666939 451.562568 213.10985 413.161174 213.10985 394.45866 213.10985 381.226648 205.790277 372.166263 195.019987L372.166263 266.963413 334.765466 266.963413 334.765466 70.376052 371.444901 70.376052 371.444901 85.7458896C380.503171 74.3969603 393.881148 66.6465751 413.015209 66.6465751 451.562568 66.6465751 480.62011 98.0894869 480.62011 139.876101M640.954869 150.219803C640.954869 194.156252 609.885553 213.107739 575.076159 213.107739 540.122915 213.107739 509.053599 194.15414 509.053599 150.219803L509.053599 70.376052 546.594014 70.376052 546.594014 146.914802C546.594014 169.173402 558.823313 178.218334 575.076159 178.218334 591.185155 178.218334 603.556188 169.173402 603.556188 146.914802L603.556188 70.376052 640.954869 70.376052 640.954869 150.219803zM713.278552 139.876101C713.278552 161.847493 727.805207 178.218334 749.097007 178.218334 771.24767 178.218334 785.057195 161.129474 785.057195 139.876101 785.057195 118.626952 771.24767 101.538092 749.097007 101.538092 727.805207 101.538092 713.278552 117.911044 713.278552 139.876101M823.604554 139.876101C823.604554 181.666939 794.549128 213.10985 756.141387 213.10985 736.865592 213.10985 723.487615 205.361577 714.42723 194.156252L714.42723 209.526089 677.749911 209.526089 677.749911 2.74707704 715.146476 2.74707704 715.146476 84.8842664C724.211092 73.9682606 737.29714 66.6465751 755.999654 66.6465751 794.549128 66.6465751 823.604554 98.0894869 823.604554 139.876101M931.570478 209.526089L969.113008 209.526089 969.113008 70.376052 931.570478 70.376052 931.570478 209.526089zM974.14773 24.8557374C974.14773 38.3545011 963.644622 48.6982033 950.127027 48.6982033 936.6052 48.6982033 926.248057 38.3545011 926.248057 24.8557374 926.248057 11.3633092 936.6052.732399227 950.127027.732399227 963.644622.732399227 974.14773 11.3633092 974.14773 24.8557374L974.14773 24.8557374zM1102.86739 78.82493C1094.3824 69.7778863 1085.31779 64.8953548 1073.09272 64.8953548 1053.67308 64.8953548 1038.13736 80.115253 1038.13736 103.233364 1038.13736 126.503526 1053.52923 141.575597 1072.95099 141.575597 1085.03221 141.575597 1095.38723 136.122874 1103.30106 127.506642L1130.05278 150.337545C1116.96462 167.134974 1097.40112 176.467114 1074.09967 176.467114 1029.65237 176.467114 999.877701 145.455013 999.877701 103.233364 999.877701 61.1616542 1029.65237 30.0038382 1074.09967 30.0038382 1097.40112 30.0059501 1117.10847 39.4838054 1129.90681 56.2791226L1102.86739 78.82493z"/>
    </g>
    <polygon fill="#E5A085" points="634.415 76.057 641.007 76.13 641.043 72.904 634.451 72.83"/>
    <polygon fill="#E5A085" points="634.415 76.057 643.219 76.13 643.274 72.397 634.47 72.324"/>
    <g transform="translate(598.279 40)">
      <path fill="#E5A085" d="M45.900357,36.6421891 C45.8351505,37.2754167 44.5032474,37.6569954 42.9257331,37.4944622 C41.3479773,37.331929 40.1218536,36.6871091 40.1870601,36.0538816 C40.2522666,35.420654 41.5841697,35.0390752 43.161684,35.2016084 C44.7394398,35.3641417 45.9655635,36.0089615 45.900357,36.6421891 Z"/>
      <polygon fill="#A59E93" points="46.574 38.159 41.779 38.159 41.245 29.845 47.183 29.845"/>
      <polygon fill="#332616" points="41.083 30.115 47.346 30.115 47.346 28.279 41.083 28.279"/>
      <polygon fill="#332616" points="42.325 28.387 43.567 28.387 43.567 27.901 42.325 27.901"/>
      <path fill="#E5A085" d="M45.889441 33.5207539L47.345478 33.5067466C47.7852596 33.5052976 48.1438954 33.1444883 48.1424463 32.7047066 48.1409973 32.264925 47.7799465 31.9062893 47.3401649 31.9077383L45.8841279 31.9217456C45.4443462 31.9231947 45.085952 32.2842455 45.087401 32.7240271L45.087401 32.7240271C45.0888501 33.1635672 45.4496594 33.522203 45.889441 33.5207539M41.0313877 32.8144951L42.3922715 33.332283C42.8023479 33.4914351 43.2677291 33.2859139 43.4266398 32.876079L43.4268813 32.876079C43.5857919 32.4660026 43.3802707 32.0006213 42.9704358 31.8414692L41.6093104 31.3236813C41.1994755 31.1647706 40.7338528 31.3700503 40.5749421 31.7801268L40.5749421 31.7801268C40.4160315 32.1899617 40.6213112 32.6555844 41.0313877 32.8144951"/>
      <path fill="#E5A085" d="M46.1053952,34.8164312 L47.5614323,34.8024239 C48.0012139,34.8009749 48.3598496,34.4401656 48.3584006,34.000384 L48.3584006,34.000384 C48.3569516,33.5606023 47.9959007,33.2019666 47.5561191,33.2034156 L46.1000821,33.2174229 C45.6603005,33.218872 45.3019063,33.5799228 45.3033553,34.0197044 L45.3033553,34.0197044 C45.3048043,34.4592445 45.6656136,34.8178803 46.1053952,34.8164312"/>
      <path fill="#E5A085" d="M45.8354645,36.0041314 L47.2915015,35.9901241 C47.7312831,35.9886751 48.0899189,35.6278658 48.0884698,35.1880841 L48.0884698,35.1880841 C48.0870208,34.7483025 47.72597,34.3896668 47.2861884,34.3911158 L45.8301514,34.4051231 C45.3903697,34.4065722 45.0319755,34.767623 45.0334245,35.2074046 L45.0334245,35.2074046 C45.0348736,35.6469447 45.3956829,36.0055804 45.8354645,36.0041314"/>
      <path fill="#E5A085" d="M45.4766355,37.3537852 L46.9326725,37.3397779 C47.3724542,37.3383289 47.7310899,36.9775196 47.7296409,36.5377379 L47.7296409,36.5377379 C47.7281918,36.0979563 47.367141,35.7393206 46.9273594,35.7407696 L45.4713224,35.7547769 C45.0315408,35.756226 44.6731465,36.1172768 44.6745956,36.5570584 L44.6745956,36.5570584 C44.6760446,36.9965985 45.0368539,37.3552342 45.4766355,37.3537852"/>
      <polygon fill="#B5A991" points="3.059 25.285 .644 31.564 0 34.301 6.279 34.624 7.728 30.276"/>
      <polygon fill="#212121" points="45.823 52.213 58.462 59.4 62.466 52.571 45.823 44.438 20.707 44.438 17.661 50.622"/>
      <path fill="#AFAFAF" d="M17.4115468,15.5084991 L17.4115468,9.07659793 C15.2332613,8.74502197 13.975176,8.57923399 13.6372907,8.57923399 C12.2825795,8.57923399 13.5098539,4.64225255 10.0346496,3.31313423 C9.75218981,3.20510532 9.28970895,5.12625989 8.64720705,9.07659793 C4.69021438,9.07659793 2.526792,11.220565 2.1569399,15.5084991" transform="scale(-1 1) rotate(52 -70.937 -42.718)"/>
      <polygon fill="#4B4B4C" points="37.308 77.637 45.476 76.15 41.633 52.953 27.346 44.123 20.976 49.976 34.115 58.13"/>
      <path fill="#D8D8D8" d="M40.4428711,70.9594727 L40.4428711,70.9594727 L40.4428711,70.9594727 C42.6520101,70.9594727 44.4428711,72.7503337 44.4428711,74.9594727 L44.4428711,77.9594727 L36.4428711,77.9594727 L36.4428711,74.9594727 L36.4428711,74.9594727 C36.4428711,72.7503337 38.2337321,70.9594727 40.4428711,70.9594727 Z" transform="rotate(-22 40.443 74.46)"/>
      <path fill="#BABABA" d="M47.6861423,80.8323619 C47.6861423,77.9282137 45.3318283,75.5737231 42.4275035,75.5737231 C39.5233553,75.5737231 37.1690413,77.9282137 37.1690413,80.8323619 L47.6861423,80.8323619 Z" transform="rotate(-8 42.428 78.203)"/>
      <path fill="#E5A085" d="M12.8299103 13.001983L12.8299103 13.001983C12.5265793 13.001983 12.2783116 12.7537152 12.2783116 12.4503843L12.2783116 8.59015945C12.2783116 8.28682847 12.5265793 8.03856076 12.8299103 8.03856076L12.8299103 8.03856076C13.1332412 8.03856076 13.3815089 8.28682847 13.3815089 8.59015945L13.3815089 12.4503843C13.3815089 12.7537152 13.1332412 13.001983 12.8299103 13.001983M28.7441121 13.001983L28.7441121 13.001983C28.4407811 13.001983 28.1925134 12.7537152 28.1925134 12.4503843L28.1925134 8.59015945C28.1925134 8.28682847 28.4407811 8.03856076 28.7441121 8.03856076L28.7441121 8.03856076C29.0474431 8.03856076 29.2957108 8.28682847 29.2957108 8.59015945L29.2957108 12.4503843C29.2957108 12.7537152 29.0474431 13.001983 28.7441121 13.001983"/>
      <path fill="#493219" d="M12.6993282,7.04819477 C12.6993282,10.9364342 16.014958,14.0888063 20.1048546,14.0888063 C24.1949927,14.0888063 27.5106225,10.9364342 27.5106225,7.04819477 C27.5106225,3.15995531 24.1949927,0.00758327448 20.1048546,0.00758327448 C16.014958,0.00758327448 12.6993282,3.15995531 12.6993282,7.04819477"/>
      <path fill="#493219" d="M18.553761,11.9187339 L23.7036255,11.9187339 C26.4497852,11.9187339 28.6965114,9.67200774 28.6965114,6.92584806 L28.6965114,6.92584806 C28.6965114,4.17968837 26.4497852,1.93296218 23.7036255,1.93296218 L18.553761,1.93296218 C15.8076013,1.93296218 13.5608751,4.17968837 13.5608751,6.92584806 L13.5608751,6.92584806 C13.5608751,9.67200774 15.8076013,11.9187339 18.553761,11.9187339"/>
      <polygon fill="#E5A085" points="18.619 21.303 22.942 21.303 22.942 16.468 18.619 16.468"/>
      <path fill="#E5A085" d="M28.845472,11.1112601 C28.845472,15.5653471 25.2347224,19.1763382 20.7803939,19.1763382 C16.3263069,19.1763382 12.7153159,15.5653471 12.7153159,11.1112601 C12.7153159,6.65717312 16.3263069,3.04618204 20.7803939,3.04618204 C25.2347224,3.04618204 28.845472,6.65717312 28.845472,11.1112601"/>
      <path fill="#493219" d="M20.7981687,19.2550341 C20.8061598,19.2550573 20.8141537,19.255069 20.8221502,19.255069 C25.2541674,19.2291201 28.8392653,15.6283205 28.8392653,11.1899909 C28.8392653,11.1899909 27.8623339,13.0495054 25.4199882,14.0737305 C25.0338208,14.2355392 24.2955798,16.4053034 24.2955798,15.3458185 C24.2955798,14.8809203 24.3151417,14.2428627 24.3151417,13.8489671 C24.3151417,12.5293807 23.2909166,12.5095773 22.0304991,12.5095773 L20.7500367,12.5095773 L20.7500852,12.5231361 L20.7499401,12.5095773 L19.5658383,12.5095773 C18.3054208,12.5095773 17.2811958,12.5293807 17.2811958,13.8489671 C17.2811958,14.2428627 17.3007577,14.8809203 17.3007577,15.3458185 C17.3007577,16.4053034 16.431888,14.0107758 16.0457206,13.8489671 C13.6033749,12.824742 12.7570722,11.1899909 12.7570722,11.1899909 C12.7570722,15.6283198 16.342169,19.229119 20.7741867,19.2549294 C20.7821838,19.255069 20.7901776,19.2550573 20.7981687,19.2550341 Z"/>
      <path fill="#E5A085" d="M22.7542913,14.8092898 L18.7363634,14.8092898 C18.2813669,14.8092898 17.9092068,14.4371297 17.9092068,13.9821333 L17.9092068,13.9821333 C17.9092068,13.5271368 18.2813669,13.1547352 18.7363634,13.1547352 L22.7542913,13.1547352 C23.2092878,13.1547352 23.5814478,13.5271368 23.5814478,13.9821333 L23.5814478,13.9821333 C23.5814478,14.4371297 23.2092878,14.8092898 22.7542913,14.8092898"/>
      <path fill="#996B5E" d="M22.3905115,12.5060271 L21.7360314,12.0749397 C21.1168112,11.6670368 20.3135637,11.6670368 19.6943434,12.0749397 L19.0401049,12.5060271 L22.3905115,12.5060271 Z"/>
      <path fill="#493219" d="M24.553073 3.14727627C24.553073 3.14727627 15.1343563 5.44157905 14.4098396 5.32082628 13.6853229 5.2000735 18.032423 2.18125404 18.032423 2.18125404L24.553073 3.14727627zM12.9608063 12.8074985C12.8400535 12.9886277 12.7193007 14.9206722 12.7193007 14.9206722L14.2287104 15.524436 12.9608063 12.8074985zM28.5984601 12.612193C28.7192129 12.7933222 28.8399657 14.7253666 28.8399657 14.7253666L27.3305559 15.3291305 28.5984601 12.612193z"/>
      <polygon fill="#98A931" points="28.659 38.488 38.698 38.488 38.698 32.047 28.659 32.047"/>
      <path fill="#B2C639" d="M32.1487479,44.3853632 L16.1760917,51.2099609 C16.1760917,51.2099609 8.8551152,40.5806859 11.2600275,22.7066181 C11.3822293,21.7975912 12.0033816,21.0457844 12.9206197,21.0457844 L22.6255205,21.0457844 C26.035579,21.0457844 28.9529661,23.4946507 29.5441717,26.8527855 L32.1487479,44.3853632 Z"/>
      <path fill="#B2C639" d="M21.7055051,21.7345582 C20.093214,25.9029441 15.3906178,28.0178083 11.2222319,26.4055172 C7.053846,24.7932261 4.98583392,20.0961845 6.59812502,15.9280401 L21.7055051,21.7345582 Z"/>
      <path fill="#DBCEB2" d="M11.2846611,51.4864972 L5.35932226,51.9393201 C3.97670295,52.044858 2.77014119,51.0097652 2.66460326,49.6271459 L2.82592897,26.8210517 C2.72039104,25.4384324 3.75548386,24.2318706 5.13810317,24.1263327 L9.35889579,23.6735097 C10.7415151,23.5679718 11.9480769,24.6030646 12.0536148,25.9856839 L13.5968353,48.7917782 C13.7023732,50.1743975 12.6672804,51.3809593 11.2846611,51.4864972"/>
      <path fill="#B2C639" d="M21.6398639,49.7861328 L15.2449584,49.7861328 L8.0836895,38.8213289 L8.0836895,38.8213289 C7.87844923,38.5070802 7.86646017,38.1043657 8.05264279,37.7784642 L14.3058232,26.8326439 L21.6398639,27.8641142 L21.6398639,49.7861328 Z"/>
      <path fill="#E5A085" d="M21.5974417,54.132266 C19.5099076,54.0971218 17.8427453,52.1524732 17.8737838,49.7887971 C17.9048222,47.4251209 19.6222826,45.5376043 21.7098168,45.5727485 L21.5974417,54.132266 Z" transform="rotate(90 19.792 49.852)"/>
      <path fill="#DBCEB2" d="M10.2438687,24.520518 C11.0038867,24.2164625 18.6354623,21.5142569 21.0512424,25.0035292 C22.6814049,27.3582083 20.6363359,34.3807069 21.0512424,34.5429986 C21.0512424,34.5429986 21.4738771,27.0563264 20.1455966,25.7280458 C18.3925077,23.974957 13.6449915,24.3393889 11.3306438,28.0223486 L10.2438687,24.520518 Z"/>
    </g>
    <polygon fill="#D1BE51" points="530.279 277.75 521.026 279.317 513.436 239.919 524.449 238.5" transform="matrix(-1 0 0 1 1043.715 0)"/>
    <polygon fill="#111297" points="514.629 278.237 521.629 278.237 521.396 281.768 514.396 281.768" transform="rotate(10 518.012 280.002)"/>
    <polygon fill="#1518F5" points="514.094 278.155 519.786 278.375 519.786 281.56 514.094 281.34" transform="rotate(10 516.94 279.858)"/>
    <polygon fill="#EFD851" points="528.422 277.75 519.169 279.317 511.578 239.919 522.592 238.5" transform="matrix(-1 0 0 1 1040 0)"/>
    <g transform="translate(499 190.125)">
      <path fill="#004BB7" d="M23.70515,39.2605164 L23.70515,33.4710793 L23.70515,39.2605164 Z"/>
      <path fill="#003B82" d="M21.7470539,28.5404186 L25.8406285,24.4468441"/>
      <g transform="translate(0 .048)">
        <g transform="rotate(-9 25.018 -65.263)">
          <path fill="#E59F80" d="M1.49681681 14.4925622L1.49681681 14.4925622C1.21854715 14.5516125.942400199 14.3723389.883349909 14.0940693L.130555194 10.5524027C.0715049033 10.274133.250778497 9.99817904.529048166 9.93893577L.529048166 9.93893577C.807317835 9.87988548 1.08346478 10.0591591 1.14251507 10.3374287L1.89530979 13.8790953C1.95436008 14.157365 1.77508648 14.433512 1.49681681 14.4925622M16.0971555 11.3895467L16.0971555 11.3895467C15.8188858 11.448597 15.5427389 11.2693234 15.4836886 10.9910537L14.7308939 7.44938711C14.6718436 7.17111744 14.8511172 6.89516347 15.1293868 6.8359202L15.1293868 6.8359202C15.4076565 6.77686991 15.6838035 6.95614351 15.7428538 7.23441317L16.4956485 10.7760798C16.5546988 11.0543494 16.3754252 11.3304964 16.0971555 11.3895467"/>
          <g transform="translate(.771)">
            <mask id="logo-republic-b" fill="#fff">
              <use xlink:href="#logo-republic-a"/>
            </mask>
            <path fill="#232121" d="M0.240793962,8.53645278 C1.03835883,12.2888479 4.72668628,14.6842441 8.47908137,13.8866793 C12.2312835,13.0893074 14.6266797,9.40078693 13.8293078,5.64858482 C13.031743,1.89618973 9.34341552,-0.499206524 5.59102044,0.298165372 C1.83862535,1.09573024 -0.556770908,4.78405769 0.240793962,8.53645278" mask="url(#logo-republic-b)"/>
          </g>
          <path fill="#232121" d="M5.77929439,12.5436711 L11.4712792,11.333912 C13.9905653,10.7985999 15.6138694,8.29919026 15.0783643,5.7797112 L15.0783643,5.7797112 C14.5430522,3.26042512 12.0436425,1.63712106 9.52416346,2.17262614 L3.83217861,3.3823852 C1.31289253,3.91769731 -0.310411534,6.41710698 0.225093551,8.93658604 L0.225093551,8.93658604 C0.760598635,11.4558721 3.26000831,13.0791762 5.77929439,12.5436711"/>
          <path fill="#E59F80" d="M9.99479042,18.6069395 C5.90835594,19.4753261 1.89158537,16.8666927 1.02300578,12.7802582 C0.154619152,8.69382373 2.76325257,4.67705316 6.84968704,3.80847357 C10.9361215,2.94008694 14.9528921,5.54872036 15.8214717,9.63515483 C16.6900513,13.7215893 14.0812249,17.7383599 9.99479042,18.6069395 Z"/>
          <path fill="#AA715B" d="M10.484464,13.6464449 L9.79998235,13.3785959 C9.15235891,13.125027 8.41538813,13.2817225 7.92696889,13.7767029 L7.41056831,14.2996646 L10.484464,13.6464449 Z"/>
          <path fill="#232121" d="M11.2746958,4.18020093 C11.2746958,4.18020093 10.5645485,2.97140675 7.26738101,7.18481865 C7.26738101,7.18481865 2.10260332,7.94263071 1.80291345,6.53314273 C1.50341655,5.12365476 6.00011546,1.22189717 8.53020813,1.93050065 C11.0604938,2.63929711 11.2746958,4.18020093 11.2746958,4.18020093"/>
          <path stroke="#232121" stroke-width=".5" d="M8.65625928 8.565399C8.70701165 8.52622512 10.5053439 6.99226839 12.5817528 7.78404401 12.5817528 7.78404401 13.6969542 10.3994315 11.3577136 11.0034427 9.04452458 11.6006997 8.62480438 8.58971383 8.65625928 8.565399zM7.24192862 8.88300949C7.17959776 8.86795746 4.9129157 8.19775596 3.33804831 9.76548328 3.33804831 9.76548328 3.38281846 12.6085811 5.76547838 12.2089303 8.12170076 11.8139108 7.28071655 8.89246526 7.24192862 8.88300949z"/>
          <path stroke="#232121" stroke-width=".6" d="M7.23120117 9.02221061C7.62719727 8.96561984 7.97094727 8.89565779 8.26245117 8.81232445 8.55395508 8.72899112 8.21020508 8.79895317 7.23120117 9.02221061zM.866210938 10.2338805C2.12670898 10.0425557 2.90270996 9.90522656 3.19421387 9.82189322 3.48571777 9.73855989 2.7097168 9.87588899.866210938 10.2338805zM12.6430664 7.89501334C13.7848307 7.54922884 14.5014648 7.33466992 14.7929688 7.25133658 15.0844727 7.16800325 14.3678385 7.38256217 12.6430664 7.89501334z"/>
        </g>
        <path fill="#96C9F0" d="M32.6784784,53.0079973 L15.3952689,53.0079973 L15.3952689,28.817048 C15.3952689,25.6578575 17.9801664,23.07296 21.139357,23.07296 L26.9343904,23.07296 C30.0935809,23.07296 32.6784784,25.6578575 32.6784784,28.817048 L32.6784784,53.0079973 Z"/>
        <polygon fill="#E59F80" points="26.263 21.729 21.584 22.724 20.484 17.544 25.162 16.55"/>
        <polygon fill="#ADADAD" points="20.419 23.024 27.139 23.024 27.139 21.416 20.419 21.416"/>
        <g fill="#E59F80" transform="rotate(-3 155.203 -1.99)">
          <polygon points="3.659 15.085 3.384 9.022 7.024 8.857 7.299 14.92"/>
          <path d="M5.40817013,12.8899345 C4.4403174,12.9338607 3.61036732,11.9759335 3.55482613,10.7504373 C3.49928494,9.52472983 4.2388486,8.49563397 5.20691251,8.45170786 C6.17476524,8.40778175 7.00450414,9.36570887 7.06004533,10.5914163 C7.1157977,11.8169126 6.37602286,12.8460084 5.40817013,12.8899345"/>
          <path d="M5.32319 12.1164971C4.88350652 12.5979949 3.79274516 12.3175435 2.8869803 11.4903388 1.98100426 10.662923 1.60298628 9.60214961 2.04266976 9.12065185 2.48214205 8.63915409 3.57290342 8.91960542 4.47887946 9.74681012 5.3848555 10.574226 5.76287348 11.6349993 5.32319 12.1164971M5.56148915 1.21766867L5.56148915 1.21766867C5.90043823 1.19274905 6.1954612 1.44722484 6.220592 1.78617392L6.78424003 9.44029878C6.80915965 9.77924786 6.55468387 10.0742708 6.21573479 10.0991904L6.21573479 10.0991904C5.87657453 10.1243213 5.58155156 9.86963428 5.55663194 9.5306852L4.99298391 1.87677152C4.9678531 1.53761126 5.22254007 1.24258829 5.56148915 1.21766867"/>
          <path d="M3.02600222,0.386240312 L3.02600222,0.386240312 C3.34657835,0.272834919 3.69819843,0.440936767 3.81139263,0.761301722 L6.34854792,7.93730776 C6.46174213,8.2578839 6.29385146,8.60950397 5.97327532,8.72269818 L5.97327532,8.72269818 C5.65291037,8.83610357 5.3012903,8.6682129 5.18788491,8.34763677 L2.65094081,1.17163073 C2.53753541,0.851265776 2.70542608,0.499645704 3.02600222,0.386240312"/>
          <path d="M7.24970898,2.88935286 L7.24970898,2.88935286 C7.58717978,2.92947767 7.82835102,3.23569335 7.78822621,3.57316415 L6.86472196,11.3311912 C6.82459715,11.6688731 6.51838147,11.9098332 6.18091067,11.8697084 L6.18091067,11.8697084 C5.84322869,11.8295836 5.60226863,11.5233679 5.64239345,11.1858971 L6.56589769,3.4276589 C6.60602251,3.09018811 6.91223819,2.84922805 7.24970898,2.88935286"/>
          <path d="M1.56488883 8.2578839L5.27580048 9.80944706C5.64917243 9.96572265 5.82719989 10.3990706 5.6709243 10.7726538L5.6709243 10.7726538C5.51464871 11.1462369 5.08130073 11.3240532 4.7077176 11.1677776L.997017131 9.61621441C.623434003 9.45993882.445617726 9.02659084.601682131 8.65300771L.601682131 8.65300771C.757957718 8.27942458 1.1913057 8.10160831 1.56488883 8.2578839M1.44744983 4.7596971L2.27613282 4.4777675C2.65964155 4.34746745 3.07989618 4.55442701 3.21019623 4.93772456L3.21019623 4.93772456C3.34049628 5.32102212 3.13353671 5.74127674 2.75023916 5.87157679L1.92155618 6.1535064C1.53825862 6.28380645 1.118004 6.07705807.987492767 5.69376051L.987492767 5.69376051C.857192716 5.31046296 1.06415228 4.88999715 1.44744983 4.7596971"/>
          <path d="M2.93798105,4.56849181 L5.24811436,5.56464309 C5.62000802,5.72493116 5.79296709,6.16039097 5.63267902,6.53207345 L5.63267902,6.53207345 C5.47239095,6.90396711 5.03693113,7.07692617 4.66524866,6.91663811 L2.35490416,5.92048683 C1.98322168,5.75998757 1.81026262,5.32473894 1.97055069,4.95305647 L1.97055069,4.95305647 C2.13083876,4.5811628 2.56629857,4.40820374 2.93798105,4.56849181"/>
          <path d="M.377152124 5.88431114L.992540046 5.09828717C1.24215862 4.77961168 1.70718408 4.72301458 2.02607076 4.97263315L2.02607076 4.97263315C2.34474625 5.22225172 2.40134335 5.68727719 2.15172478 6.00616386L1.53633685 6.79197665C1.28671828 7.11086332.821692816 7.16746042.502806144 6.91763067L.502806144 6.91763067C.184130655 6.66801209.12753355 6.20298663.377152124 5.88431114M1.40381938 7.59614126L1.8304095 8.51795604C2.00041199 8.88520367 1.83885683 9.32509833 1.47139801 9.49510083L1.47139801 9.49510083C1.1039392 9.66510333.664255721 9.50354816.494253223 9.13608934L.0676631058 8.21448574C-.102339392 7.84702693.0592157767 7.40734345.426674591 7.23712977L.426674591 7.23712977C.794133405 7.06712727 1.23381688 7.22868244 1.40381938 7.59614126M5.53948386 6.49125173L5.79670503 8.24850736C5.85541397 8.64912194 5.57559619 9.0248169 5.17498161 9.08352584L5.17498161 9.08352584C4.77436703 9.14223477 4.39867207 8.862417 4.33996313 8.46180242L4.08274196 6.70454679C4.02403303 6.30393221 4.3038508 5.92823725 4.70446538 5.86952831L4.70446538 5.86952831C5.10507996 5.81081938 5.48077492 6.09063715 5.53948386 6.49125173"/>
          <path d="M2.3365101,8.9331845 C2.50418958,8.88313407 3.92650861,9.3285195 4.4857218,7.60357491 C5.0447238,5.87841913 5.85207727,8.68863432 5.85207727,8.68863432 L5.6225211,10.1863458 L4.5007158,10.7470372 L2.94535134,10.1802215 L2.16122802,8.81365479"/>
        </g>
        <g fill="#3E3D4D" transform="translate(17 20)">
          <path d="M0.00480237361,6.83032801 C0.00480237361,6.83032801 0.421939434,9.31872977 2.40816501,8.24418301 C3.38155551,7.71761904 9.05309265,5.13378683 12.4584749,6.52537473 C13.6768036,7.0230975 14.5744859,8.13984573 15.0121935,9.68942402 L15.1676391,34.4697406 L20.2572626,38.2869582 C20.2572626,38.2869582 23.650345,22.4879186 23.014142,13.0509083 C22.6602011,7.79968922 17.9599338,1.45801832 12.446175,0.468298609 C5.86401938,-0.71313025 0.959106783,6.51222654 0.00480237361,6.83032801"/>
          <polygon points="19.303 34.682 23.12 34.682 23.12 13.263 19.303 13.263"/>
        </g>
        <path fill="#E59F80" d="M20.8124383,27.5594698 L20.8124383,27.5594698 C21.1495653,27.634151 21.3624165,27.9678045 21.2879283,28.3051244 L20.5878157,31.4687534 C20.5131344,31.8058804 20.179288,32.0187316 19.842161,31.9440503 L19.842161,31.9440503 C19.505034,31.8695621 19.2921828,31.5357157 19.3668641,31.1985887 L20.0667837,28.0349597 C20.1414649,27.6976398 20.4753114,27.4847885 20.8124383,27.5594698"/>
        <polygon fill="#E59F80" points="18.755 34.935 16.764 29.099 19.621 28.124 21.612 33.96"/>
        <path fill="#E59F80" d="M19.1083164,29.3959531 L18.0035357,25.6310147 C17.8877508,25.2363812 18.11604,24.8187837 18.5106735,24.7029988 L18.5106735,24.7029988 C18.9053069,24.587214 19.3229044,24.8153102 19.4386893,25.2099436 L20.5434701,28.9748821 C20.6592549,29.3695156 20.4311587,29.7871131 20.0365252,29.9028979 L20.0365252,29.9028979 C19.6416988,30.0188758 19.2241013,29.7905866 19.1083164,29.3959531"/>
        <path fill="#E59F80" d="M19.5408309 29.3062777L19.080393 27.9568049C18.9476263 27.5675747 19.1573899 27.1403285 19.5466201 27.0075619L19.5466201 27.0075619C19.9358503 26.8747952 20.3630965 27.0845588 20.4958632 27.473789L20.9563011 28.8232618C21.0892607 29.212492 20.8793041 29.6397382 20.4900739 29.7725049L20.4900739 29.7725049C20.1008438 29.9054645 19.6735975 29.6955079 19.5408309 29.3062777M17.085844 30.7522186L15.8187714 27.0388045C15.6860048 26.6495743 15.8957684 26.2223281 16.2849985 26.0895614L16.2849985 26.0895614C16.6744217 25.9567947 17.101475 26.1665584 17.2342416 26.5557885L18.5013142 30.2692027C18.6342738 30.6584329 18.4243172 31.0856791 18.0350871 31.2184458L18.0350871 31.2184458C17.6458569 31.3514054 17.2186107 31.1414488 17.085844 30.7522186"/>
        <path fill="#E59F80" d="M21.8993496,27.9952455 L21.8993496,27.9952455 C22.1984606,28.167765 22.3013162,28.5500481 22.1287967,28.849159 L20.6338209,31.4427404 C20.4613014,31.7418513 20.0790183,31.8447069 19.7799074,31.6721874 L19.7799074,31.6721874 C19.4806034,31.499668 19.3779408,31.1173849 19.5504603,30.8182739 L21.0454361,28.2246925 C21.2177626,27.9255816 21.6002387,27.822726 21.8993496,27.9952455"/>
        <path fill="#E59F80" d="M17.882637,25.6284674 L17.882637,25.6284674 C18.0860324,25.3494258 18.4771923,25.2882528 18.7562339,25.4916483 L22.0290866,27.8783607 C22.3079352,28.0817561 22.3693012,28.472916 22.1657128,28.7519576 L22.1657128,28.7519576 C21.9623173,29.0309992 21.5711574,29.0921722 21.2921158,28.8887767 L18.0194561,26.5020643 C17.7404145,26.2986689 17.6792415,25.907509 17.882637,25.6284674"/>
        <polygon fill="#E59F80" points="18.755 34.935 16.764 29.099 20.364 27.809 22.356 33.646"/>
        <path fill="#E59F80" d="M18.0321345,29.8393127 L16.765062,26.1258986 C16.6322953,25.7366684 16.8420589,25.3094222 17.2312891,25.1766555 L17.2312891,25.1766555 C17.6207123,25.0438888 18.0477655,25.2536524 18.1805322,25.6428826 L19.4476047,29.3562968 C19.5805644,29.745527 19.3706078,30.1727732 18.9813776,30.3055399 L18.9813776,30.3055399 C18.5921474,30.4384995 18.1649012,30.2285429 18.0321345,29.8393127"/>
        <path fill="#E59F80" d="M17.9936747,31.0499981 L15.2887468,28.2078651 C15.0052668,27.909912 15.0170383,27.4340362 15.3149914,27.1505562 L15.3149914,27.1505562 C15.6129445,26.8670762 16.0886274,26.8788477 16.3721074,27.1766078 L19.0770352,30.0189337 C19.3607082,30.3168868 19.3489367,30.7925697 19.0509836,31.0762426 C18.7530305,31.3597226 18.2771547,31.3479512 17.9936747,31.0499981"/>
        <path fill="#E59F80" d="M15.3541074,27.7203143 C14.851601,28.0396876 15.089153,29.3135143 15.8847881,30.5657278 C16.6802302,31.8179413 17.7327148,32.5742096 18.2352212,32.2548363 C18.7377276,31.9356559 18.5001756,30.6616363 17.7045405,29.4094228 C16.9089054,28.1572093 15.8566138,27.400941 15.3541074,27.7203143"/>
      </g>
    </g>
    <polygon fill="#000" fill-opacity=".08" points="414.542 286.155 1121.691 286.155 1121.691 286.966 414.542 286.966"/>
    <polygon fill="#000" fill-opacity=".08" points="0 286.717 297.955 286.717 297.955 287.103 0 287.103"/>
    <g transform="translate(551.779 149.858)">
      <polygon fill="#FFB069" points="7.052 21.36 12.17 21.36 12.17 14.535 7.052 14.535"/>
      <polygon fill="#33487B" points="41.622 31.177 13.868 42.127 24.78 50.285 37.897 42.127 39.69 46.94 46.496 42.935"/>
      <polygon fill="#405891" points="15.501 48.256 30.856 54.641 25.289 68.368 34.068 71.635 42.818 49.57 18.816 40.283"/>
      <g transform="translate(0 .038)">
        <path fill="#E29E66" d="M21.0696765,10.6940056 L17.2859255,5.95409187 C16.4461546,5.04757879 14.9298054,5.54794145 14.7942863,6.77615985 L14.4442969,9.94905737 C14.3570031,10.7408065 14.9279741,11.4536046 15.7197232,11.5408984 L19.8534636,13.1077111 C21.2233055,13.2434338 21.948516,11.7899606 21.0696765,10.6940056"/>
        <path stroke="#000" stroke-width=".529" d="M17.3939542,8.09460224 L17.7195257,6.95693341 C17.7811808,6.74164927 18.0076564,6.61589729 18.2227371,6.67755239 L20.4486286,7.31465507 C20.6639127,7.37610669 20.7894612,7.60258235 20.7280096,7.81786649 L20.283808,9.36982502 C20.1816599,9.72632579 19.8101015,9.93245323 19.4536007,9.83050866 L18.1502974,9.45752584 C17.5650827,9.29006001 17.2264883,8.67981697 17.3939542,8.09460224 Z"/>
        <path fill="#FFB069" d="M15.6457371,17.9446655 C11.8316672,20.0614906 7.02379044,18.6855441 4.9069654,14.8714743 C2.79034383,11.0574044 4.16629029,6.24952764 7.98036014,4.13270259 C11.79443,2.01587754 16.6023068,3.391824 18.7189283,7.20589385 C20.8357534,11.0199637 19.4598069,15.8278405 15.6457371,17.9446655"/>
        <polygon fill="#000" points="19.221 6.6 12.534 4.707 12.313 5.835 12.755 5.496 19.775 7.501"/>
        <path fill="#543E36" d="M16.0845667,6.03513882 C15.9319551,6.74732642 15.5475773,8.47489007 15.4499058,9.06763364 L14.8128032,11.580028 C14.7493167,11.9658302 14.3850836,12.2268979 13.9992814,12.1634114 L13.3625857,12.0584146 C12.9767835,11.9947247 12.7155124,11.6304916 12.7792023,11.2448929 L12.896815,10.5318914 C13.3375574,8.98563033 12.5744993,7.6629962 10.4379364,7.86647838 C9.55807952,7.95031303 8.17806342,9.62782007 7.43657438,11.0204521 C7.26157971,11.3492793 6.78075134,11.9469064 6.45314504,12.139604 C5.75825342,12.5481962 4.4309392,12.6780178 4.045137,12.6143279 L3.87563635,10.918711 C3.87563635,10.918711 3.58445336,8.3934972 4.24861917,4.98374643 C4.47326349,3.83163036 7.69967683,1.38638509 8.86094959,1.55853101 L15.6590855,1.19755363 C15.6590855,1.19755363 13.946783,3.68451275 15.0671559,2.88116513 C15.0671559,2.88116513 16.9524182,1.98564009 16.0845667,6.03513882"/>
        <path fill="#3A271F" d="M18.2526693,1.49946013 C18.4435356,1.78311428 18.2781046,2.8558723 17.3245871,4.6536373 C16.3246757,6.53889963 14.3419454,7.69752713 12.2086383,7.6442148 C11.6040928,7.62895364 10.5490377,7.60229747 9.7511841,8.0698995 C9.01356122,8.50229912 9.31329046,14.6832736 9.26791394,14.6830701 C6.16643866,14.6743204 4.45210135,14.6830701 2.95996657,14.581329 C1.92200401,14.5107207 1.19699702,3.45614471 6.21568134,1.15150562 C9.6073222,-0.405743453 17.2501126,0.00936017996 18.2526693,1.49946013"/>
        <path fill="#C78B7F" d="M25.9710136,38.728064 L18.3053784,49.7275757 C18.3053784,49.7275757 8.4061996,46.0477074 4.97101355,41.978064 C-1.26897077,34.5847427 0.221013553,28.978064 0.346013553,27.103064 C0.579446665,23.6015673 3.56106012,20.1780787 7.36515935,20.1780787 L12.3854316,20.1961886 C16.4944511,21.3437866 16.7385917,24.2822632 18.3053784,27.9116577 C19.3499029,30.3312541 21.9051146,33.9367228 25.9710136,38.728064 Z"/>
      </g>
    </g>
    <path fill="#AFAFAF" d="M16.6661335,10.0950125 L16.6661335,3.66311133 L7.90179382,3.66311133 C3.94480116,3.66311133 1.78137877,5.80707839 1.41152667,10.0950125" transform="scale(-1 1) rotate(-29 132.522 1259.01)"/>
    <path fill="#2F1B1B" d="M16.6661335,10.0950125 L16.6661335,3.66311133 L7.90179382,3.66311133 C3.94480116,3.66311133 1.78137877,5.80707839 1.41152667,10.0950125" transform="translate(505.224 276.568)"/>
    <path fill="#532727" d="M16.6661335,10.0950125 L16.6661335,3.66311133 L7.90179382,3.66311133 C3.94480116,3.66311133 1.78137877,5.80707839 1.41152667,10.0950125" transform="translate(503.224 276.568)"/>
    <g transform="rotate(-20 777.667 -1536.914)">
      <path fill="#AFAFAF" d="M15.1832087,15.6886468 L22.1904143,15.6886468 L28.5735936,0.290409677 C28.5735936,0.235874751 26.2701264,0.186500219 21.663192,0.142286083 C21.6275515,0.142286083 19.4675571,5.32440633 15.1832087,15.6886468 Z"/>
      <polygon fill="#AFAFAF" points=".455 15.696 22.161 15.706 22.161 13.878 .455 13.868"/>
      <polygon fill="#7C7C7C" points=".347 15.696 5.918 15.896 5.918 14.068 .347 13.868"/>
      <polygon fill="#000" points="22.25 1.205 26.843 1.28 21.691 13.705 17.041 13.616"/>
    </g>
    <g fill="#FFBC85" transform="rotate(-26 670.194 -1123.54)">
      <g transform="translate(.919 .905)">
        <polygon points="1.646 14.711 17.645 14.456 17.645 10.673 5.234 9.618"/>
        <polygon points="-2.579 10.417 10.493 10.417 10.493 5.383 -2.356 4.864" transform="rotate(86 3.957 7.64)"/>
        <path d="M15.6161024,12.5881063 C15.6161024,13.6326662 16.6882086,14.4794151 18.0107475,14.4794151 C19.3332864,14.4794151 20.4054383,13.6326662 20.4054383,12.5881063 C20.4054383,11.5435463 19.3332864,10.6967974 18.0107475,10.6967974 C16.6882086,10.6967974 15.6161024,11.5435463 15.6161024,12.5881063"/>
        <path d="M19.8223807 9.91156836L15.7429776 11.2655886C15.3952181 11.3809899 15.2068788 11.7565245 15.3222801 12.1042841 15.4377271 12.4520894 15.8132617 12.6404287 16.1610213 12.5249817L20.2403785 11.1709614C20.5881381 11.0555601 20.7765232 10.6800255 20.6610761 10.3322659 20.5456291 9.98450636 20.1701402 9.79612133 19.8223807 9.91156836zM18.8711529 13.7125303L23.0346131 13.7125303C23.4710972 13.7125303 23.8281913 13.3554361 23.8281913 12.9189521L23.8281913 12.9189521C23.8281913 12.4825138 23.4710972 12.1254196 23.0346131 12.1254196L18.8711529 12.1254196C18.4347147 12.1254196 18.0775747 12.4825138 18.0775747 12.9189521L18.0775747 12.9189521C18.0775747 13.3554361 18.4347147 13.7125303 18.8711529 13.7125303"/>
        <path d="M19.8236893,11.4088152 L25.0925674,13.5426864 C25.4971125,13.7064995 25.9621494,13.5095577 26.1260083,13.1050126 L26.1260083,13.1050126 C26.2898213,12.7004676 26.0928796,12.2354306 25.6883345,12.0716176 L20.4194564,9.93774642 C20.0149114,9.77393335 19.5498744,9.9708751 19.3860613,10.3754202 L19.3860613,10.3754202 C19.2222025,10.7799652 19.4191443,11.2450022 19.8236893,11.4088152"/>
      </g>
      <path d="M18.619761,13.2706537 L22.6460778,13.2706537 C22.7167521,13.2706537 22.7745766,13.2303056 22.7745766,13.1809913 L22.7745766,11.8360552 C22.7745766,11.7867409 22.7167521,11.7463928 22.6460778,11.7463928 L18.619761,11.7463928 C18.5490866,11.7463928 18.4912622,11.7867409 18.4912622,11.8360552 L18.4912622,13.1809913 C18.4912622,13.2303056 18.5490866,13.2706537 18.619761,13.2706537"/>
    </g>
    <polygon fill="#41BB00" points="594.25 169.438 594.25 170.313 597.563 169.375 597.563 168.375"/>
    <polygon fill="#41BB00" points="594.25 167.5 594.25 168.375 597.563 167.438 597.563 166.438"/>
    <g transform="translate(686.04 196.443)">
      <g fill="#283A72" transform="translate(5.863 56)">
        <polygon points="2.031 31.682 8.068 31.682 8.068 .109 .504 .109"/>
        <polygon points="9.108 31.682 15.144 31.682 16.671 .109 9.108 .109"/>
      </g>
      <g transform="translate(0 .051)">
        <path fill="#74603A" d="M7.94285373 5.36756546C7.94285373 5.36756546 7.54507764 5.50021038 7.41243273 7.35676323 7.27978781 9.21315742 12.3190254 18.7610529 12.3190254 18.7610529L12.3190254 23.8969181 11.7884457 23.8969181C11.7884457 23.8969181 9.71864551 23.496286 8.56165179 23.1012073 4.93708181 21.8634525 4.18563883 16.2857019 4.76016903 11.8654211 4.98515766 10.1358012 6.58308466 4.88125365 6.58308466 4.88125365 6.58308466 4.88125365 7.73230372 4.17407853 7.94285373 5.36756546zM19.9469649 5.36756546C19.9469649 5.36756546 20.344741 5.50021038 20.477386 7.35676323 20.6100309 9.21315742 15.5707933 18.7610529 15.5707933 18.7610529L15.5707933 22.2088687 16.101373 22.2088687C16.101373 22.2088687 18.8813629 22.0657518 19.9660049 21.5016936 22.1762246 20.3523159 24.9958811 18.8573632 24.8283297 12.6609733 24.7399526 9.3900702 22.9719355 5.41183332 22.9719355 5.41183332 22.9719355 5.41183332 21.7341807 2.40590273 19.9469649 5.36756546"/>
        <path fill="#74603A" d="M23.5023089,8.41757351 C23.5023089,13.0071511 19.7817459,16.7277142 15.1921682,16.7277142 C10.6025906,16.7277142 6.88202759,13.0071511 6.88202759,8.41757351 C6.88202759,3.82799588 10.6025906,0.107432864 15.1921682,0.107432864 C19.7817459,0.107432864 23.5023089,3.82799588 23.5023089,8.41757351"/>
        <path fill="#74603A" d="M19.0064078,13.7334773 L8.07843397,13.7334773 C6.51239888,13.7334773 5.11391526,12.8127375 5.11391526,11.2465437 L5.56643117,7.3566839 C5.92009807,4.35091198 8.23313349,2.22922795 9.79932725,2.22922795 L19.0064078,2.52799635 C20.5726015,2.52799635 21.8539895,3.80938434 21.8539895,5.3755781 L21.8539895,10.8858955 C21.8539895,12.4520893 20.5726015,13.7334773 19.0064078,13.7334773"/>
        <polygon fill="#DDA88F" points="11.664 23.332 16.515 23.332 16.515 17.435 11.664 17.435"/>
        <path fill="#DDA88F" d="M5.56995356,11.4234406 C5.56995356,16.1286859 9.38428829,19.9431793 14.0896922,19.9431793 C18.7949375,19.9431793 22.6092722,16.1286859 22.6092722,11.4234406 C22.6092722,6.71819536 18.7949375,2.90370197 14.0896922,2.90370197 C9.38428829,2.90370197 5.56995356,6.71819536 5.56995356,11.4234406"/>
        <path fill="#A0674A" d="M12.1425092,14.6214842 L12.8768163,14.1377111 C13.5717741,13.6799592 14.472998,13.6799592 15.1679558,14.1377111 L15.9022628,14.6214842 L12.1425092,14.6214842 Z"/>
        <path fill="#DDA88F" d="M5.62401113 14.4239924L5.62401113 14.4239924C5.96435006 14.4239924 6.24280919 14.1455333 6.24280919 13.8051944L6.24280919 9.4732906C6.24280919 9.13295167 5.96435006 8.85449254 5.62401113 8.85449254L5.62401113 8.85449254C5.28367219 8.85449254 5.00521306 9.13295167 5.00521306 9.4732906L5.00521306 13.8051944C5.00521306 14.1455333 5.28367219 14.4239924 5.62401113 14.4239924M22.6182527 14.6111868L22.6182527 14.6111868C22.9585916 14.6111868 23.2370508 14.3327277 23.2370508 13.9923887L23.2370508 9.66048495C23.2370508 9.32014602 22.9585916 9.04168689 22.6182527 9.04168689 22.2779138 9.04168689 21.9994547 9.32014602 21.9994547 9.66048495L21.9994547 13.9923887C21.9994547 14.3327277 22.2779138 14.6111868 22.6182527 14.6111868"/>
        <path fill="#74603A" d="M10.15301,3.37843116 C10.15301,3.37843116 13.5124488,8.32913299 19.9660366,8.32913299 C23.266769,8.32913299 23.1487213,11.1581508 23.4138525,13.0147036 C23.6791423,14.8712565 22.8834315,16.1972297 22.3530105,16.8161864 C21.8225895,17.4349845 23.7675194,16.8161864 23.7675194,16.8161864 L24.5632302,12.9263266 L22.8834315,7.71033492 C22.8834315,7.71033492 19.1704844,3.90885216 19.0819487,3.64372099 C18.9935717,3.37843116 15.5457558,2.49434326 15.5457558,2.49434326 L12.6283609,2.14067636 L10.15301,3.37843116 Z"/>
        <path fill="#74603A" d="M7.52292785,4.53877272 C6.37370878,5.33448356 4.93698661,7.97548196 5.82107451,8.85956986 C6.89667247,9.93516782 9.74964887,7.86203565 10.0977625,5.13551619 C10.2967298,3.5774144 11.3244106,2.68221987 11.3244106,2.68221987 L8.67214692,3.74306188 L7.52292785,4.53877272 Z"/>
        <path fill="#BF4F4F" d="M23.8810128,56.9349022 L4.49005893,56.9349022 L2.51018168,32.4792823 C2.51018168,27.4189421 6.1363193,23.316787 10.6092298,23.316787 L17.7616964,23.316787 C22.2347524,23.316787 25.8607446,27.4189421 25.8607446,32.4792823 L23.8810128,56.9349022 Z"/>
        <path fill="#232323" d="M8.97415857 22.9664836C5.80416716 24.3575099 2.24163565 26.986767 2.24163565 30.7820618L4.18767622 53.8005564 12.8996583 53.8005564 13.6425677 29.1484579 8.97415857 22.9664836zM19.4294529 22.9664836C22.5994443 24.3575099 26.4418629 26.775265 26.4418629 30.5704012L24.4958224 53.5890544 15.7838403 53.5890544 14.0375872 29.0366415 19.4294529 22.9664836z"/>
        <path fill="#232323" d="M2.21520186,29.6943672 L0.0243393905,43.6365222 C-0.184147957,44.9632887 0.981255061,46.0977519 2.30183359,45.8537233 L21.4295164,43.8408843 L20.160187,38.6049007 L7.14956108,38.922233 L8.1648659,28.9803695 L2.21520186,29.6943672 Z"/>
        <polygon fill="#DDA88F" points="14.682 37.429 6.229 36.035 6.308 38.693 9.045 39.843"/>
        <path fill="#DDA88F" d="M1.894896,38.5911032 C2.19731372,36.8170567 3.9618402,35.6378497 5.83616366,35.9572447 C7.71032846,36.2767984 8.98473514,37.9738918 8.68247608,39.7479382 C8.68247608,39.7479382 7.11421966,38.8298958 5.35794383,38.4587756 C3.42983253,38.0511622 1.894896,38.5911032 1.894896,38.5911032"/>
        <path fill="#232323" d="M26.2989206,29.5022131 L28.4897831,43.4443681 C28.6982704,44.7711346 27.5328674,45.9055977 26.2122889,45.6615692 L7.02193295,42.1155389 L8.44992848,35.2138779 L21.3012536,37.1178719 L20.3492566,28.7882153 L26.2989206,29.5022131 Z"/>
        <path fill="#DDA88F" d="M18.8829655,36.5976214 C18.8829655,36.5976214 19.0770142,35.8979036 19.2593216,35.5648633 C20.1719694,33.8969645 22.1917898,33.2450052 23.7703595,34.1089425 C23.7703595,34.1089425 22.3915505,35.2925922 21.4684307,36.8319713 C21.4092482,36.930503 21.3013552,37.1266144 21.3013552,37.1266144 L18.8829655,36.5976214 Z"/>
        <path fill="#282828" d="M15.1815217,90.4397168 C15.1815217,87.8291823 13.0652324,85.7127343 10.4545392,85.7127343 C7.84400471,85.7127343 5.72771533,87.8291823 5.72771533,90.4397168 L15.1815217,90.4397168 Z"/>
        <path fill="#282828" d="M22.7971171,90.4397168 C22.7971171,87.8291823 20.6808277,85.7127343 18.0701346,85.7127343 C15.4596001,85.7127343 13.3433107,87.8291823 13.3433107,90.4397168 L22.7971171,90.4397168 Z"/>
        <path fill="#74603A" d="M16.780131,19.5071012 C15.616632,19.7715977 14.8320208,20.6572469 14.8320208,22.6318563 C14.8320208,26.0268758 19.192086,26.5189366 20.4614154,26.4131063 L20.8526156,20.9350967 L16.780131,19.5071012 Z"/>
      </g>
    </g>
    <g transform="translate(635.812 199.25)">
      <path fill="#42454C" d="M10.1764227 84.3471088L16.8161025 84.8795375M28.7151906 84.8245915L22.0755108 85.3570201"/>
      <polygon fill="#9E614D" points="17.381 63.027 15.05 84.304 11.61 84.075 11.465 62.632"/>
      <polygon fill="#9E614D" points="21.801 63.027 24.133 84.304 27.572 84.075 27.717 62.632"/>
      <path fill="#42454C" d="M19.3481231 52.5028613L11.0287065 51.8356144M19.543713 52.9803599L27.8631296 52.313113"/>
      <g transform="translate(0 .138)">
        <path fill="#23282A" d="M24.8373113 4.93172189C26.5705297 3.32233889 26.6322883 4.31270394 26.6322883 4.31270394 26.6322883 4.31270394 28.3413126 12.9730659 28.5512598 14.5878607 29.0876678 18.7143818 27.5608948 18.838058 26.2402489 19.3332405 25.1717306 19.7340344 21.2471982 20.6537273 21.2471982 20.6537273L20.7520157 20.6537273 20.7520157 17.4351204C20.7520157 17.4351204 25.4563293 8.52183499 25.3324938 6.78861657 25.2086584 5.05555732 24.8373113 4.93172189 24.8373113 4.93172189zM13.6310013 4.93172189C13.6310013 4.93172189 13.2596542 5.05555732 13.1358187 6.78861657 13.0119833 8.52183499 17.7162969 17.4351204 17.7162969 17.4351204L17.7162969 20.6537273 17.2211144 20.6537273C17.2211144 20.6537273 14.6258231 20.5200232 13.6131741 19.9934839 11.549834 18.920668 8.91761492 17.5248932 9.07392133 11.7404418 9.15653134 8.68689584 10.8071398 4.97294731 10.8071398 4.97294731 10.8071398 4.97294731 11.9625656 2.166913 13.6310013 4.93172189"/>
        <g transform="translate(10.187)">
          <mask id="logo-republic-d" fill="#fff">
            <use xlink:href="#logo-republic-c"/>
          </mask>
          <path fill="#23282A" d="M0.124981459,7.77901345 C0.124981459,12.0635918 3.59826268,15.536873 7.88284102,15.536873 C12.1674194,15.536873 15.6407006,12.0635918 15.6407006,7.77901345 C15.6407006,3.49443511 12.1674194,0.0211538919 7.88284102,0.0211538919 C3.59826268,0.0211538919 0.124981459,3.49443511 0.124981459,7.77901345" mask="url(#logo-republic-d)"/>
        </g>
        <path fill="#23282A" d="M14.509039,12.7416146 L24.7106585,12.7416146 C26.1728079,12.7416146 27.3689817,11.5452817 27.3689817,10.0832915 L26.6942537,4.93918704 C26.6942537,3.47719684 25.4979208,2.28086387 24.0359306,2.28086387 L14.509039,2.28086387 C13.0468896,2.28086387 11.8507158,3.47719684 11.8507158,4.93918704 L11.8507158,10.0832915 C11.8507158,11.5452817 13.0468896,12.7416146 14.509039,12.7416146"/>
        <polygon fill="#9E614D" points="16.834 21.862 21.364 21.862 21.364 16.197 16.834 16.197"/>
        <path fill="#9E614D" d="M27.052501,10.5851114 C27.052501,14.977608 23.4916755,18.5385928 19.0990197,18.5385928 C14.7065231,18.5385928 11.1455384,14.977608 11.1455384,10.5851114 C11.1455384,6.19261482 14.7065231,2.6316301 19.0990197,2.6316301 C23.4916755,2.6316301 27.052501,6.19261482 27.052501,10.5851114"/>
        <path fill="#7F4E41" d="M20.9167741,12.0025336 L20.2312225,11.5509641 C19.5825986,11.1235886 18.7410589,11.1235886 18.0924351,11.5509641 L17.4068834,12.0025336 L20.9167741,12.0025336 Z"/>
        <path fill="#23282A" d="M13.4481132 19.7459404C13.6956249 19.9110012 14.616432 20.9343148 18.0698168 20.4887938 19.3490781 20.3235738 20.2568332 19.3333679 20.2568332 19.3333679 20.2568332 19.3333679 15.4288433 18.7555753 14.2734174 15.4543585 12.9012 11.5339646 13.6776385 7.07254668 14.4384783 5.55070801 15.1811725 4.06516043 16.7493301 2.66222286 18.977731 2.49700285L16.4192084 1.17651612 12.3751382 2.82712453 10.9722006 7.53143811C10.9722006 7.53143811 9.98183554 13.3911776 10.0642864 13.8037501 10.1468964 14.2163226 11.8799556 17.6826003 11.8799556 17.6826003L13.4481132 19.7459404zM25.270592 7.34573272C26.2426524 13.4216271 25.8276923 15.2686531 23.7231267 17.2493832 21.4874039 19.3536304 26.4467102 18.0746874 26.4467102 18.0746874L27.767197 14.5257998C27.767197 14.5257998 26.5291611 4.1271259 26.3641002 3.79684504 26.1990394 3.46672336 22.3884737 3.13373659 23.1041088 3.69370191 24.5278978 4.80790239 25.0230804 5.79826744 25.270592 7.34573272"/>
        <path fill="#9E614D" d="M25.7038728,11.9468077 C25.7038728,11.9468077 25.8070159,12.6277433 25.7038728,13.5149652 C25.6263562,14.1822122 25.4356688,14.9385951 24.9817117,15.7225147 C24.6032019,16.3763912 24.4658369,16.6304289 23.7024504,17.0430015 C23.1913507,17.3193232 22.3407382,16.5065935 22.2582874,16.4241427 C22.1756774,16.3415327 22.3614305,15.0210459 22.3614305,15.0210459 L23.4549387,13.2053767 L24.383386,12.0087254 L25.1674648,11.6373783 L25.7038728,11.9468077 Z"/>
        <path fill="#9E614D" d="M25.5567346,12.2033603 L25.5567346,12.2033603 C25.8981575,12.2033603 26.1775035,11.9240143 26.1775035,11.5825914 L26.1775035,7.8051335 C26.1775035,7.46371064 25.8981575,7.18436466 25.5567346,7.18436466 C25.2153118,7.18436466 24.9359658,7.46371064 24.9359658,7.8051335 L24.9359658,11.5825914 C24.9359658,11.9240143 25.2153118,12.2033603 25.5567346,12.2033603"/>
        <path fill="#515356" d="M13.9541512,28.799822 L10.0286187,24.4618518 L0.475675521,37.6903892 L0.475675521,37.6903892 C0.19856075,38.0741267 0.228445969,38.5995902 0.547282438,38.9494336 L9.28517374,48.5370876 L12.2562689,44.3986287 L7.95863849,37.8714831 L13.9541512,28.799822 Z"/>
        <polygon fill="#42454C" points="28.454 64.033 10.543 64.033 10.824 50.981 28.174 50.981"/>
        <path fill="#515356" d="M29.4158603,54.6906417 L9.94658223,54.6906417 L7.95884498,30.2756442 C7.95884498,25.325729 11.5996341,21.3130156 16.0906199,21.3130156 L23.2718226,21.3130156 C27.7629582,21.3130156 31.4035976,25.325729 31.4035976,30.2756442 L29.4158603,54.6906417 Z"/>
        <polygon fill="#9E614D" points="16.872 21.159 19.085 27.885 21.401 21.159"/>
        <path fill="#282828" d="M17.8340361 87.3851515C17.8340361 84.7663029 15.7110066 82.6431143 13.0919988 82.6431143 10.4731502 82.6431143 8.35012078 84.7663029 8.35012078 87.3851515L17.8340361 87.3851515zM30.9787047 87.3851515C30.9787047 84.7663029 28.8556753 82.6431143 26.2366675 82.6431143 23.6178189 82.6431143 21.4947895 84.7663029 21.4947895 87.3851515L30.9787047 87.3851515z"/>
        <polygon fill="#9E614D" points="9.966 48.112 11.982 45.565 14.909 48.112"/>
        <path fill="#9E614D" d="M44.960329,23.0287354 C42.8727948,22.9935911 41.2056325,21.0489426 41.236671,18.6852664 C41.2677094,16.3215902 42.9851699,14.4340736 45.0727041,14.4692179 L44.960329,23.0287354 Z"/>
        <polygon fill="#9E614D" points="43.666 22.644 41.862 26.252 38.573 24.342 41.331 19.248"/>
        <path fill="#515356" d="M28.8015679,23.7667835 L34.1688199,29.9129401 L38.2542747,23.0155617 L42.7110766,26.5173346 L35.7283311,39.5999366 L35.7283311,39.5999366 C35.4682771,40.0871638 34.8624859,40.271324 34.3752587,40.01127 C34.3169909,39.9801699 34.2619475,39.9433737 34.210935,39.9014203 L26.8445366,33.8431995 L28.8015679,23.7667835 Z"/>
      </g>
    </g>
    <g transform="translate(1051 193)">
      <polygon fill="#E09F81" points="21.726 62.395 16.028 90.471 10.33 89.272 14 62"/>
      <path fill="#282828" d="M17.8600328,93.7269825 C17.8600328,90.7281386 15.4289515,88.296875 12.4299253,88.296875 C9.43108131,88.296875 7,90.7281386 7,93.7269825 L17.8600328,93.7269825 Z"/>
      <g transform="matrix(-1 0 0 1 43 62)">
        <polygon fill="#E09F81" points="14.726 .395 9.028 28.471 3.33 27.272 7 0"/>
        <path fill="#282828" d="M10.8600328,31.7269825 C10.8600328,28.7281386 8.42895149,26.296875 5.42992527,26.296875 C2.43108131,26.296875 0,28.7281386 0,31.7269825 L10.8600328,31.7269825 Z"/>
      </g>
      <polygon fill="#000" points="13.074 53.098 25.978 54.279 24.908 68.406 13.075 68.534" transform="rotate(4 19.526 60.816)"/>
      <polygon fill="#000" points="24.736 53.088 37.342 53.273 36.569 68.395 24.737 68.524" transform="scale(-1 1) rotate(4 0 -828.032)"/>
      <path fill="#606060" d="M12.9652403,56.9745292 L37.1585476,56.9745292 L37.1585476,34.0194915 C37.1585476,30.0009788 33.8705396,26.7129708 29.8520269,26.7129708 L20.2717609,26.7129708 C16.2532482,26.7129708 12.9652403,30.0009788 12.9652403,34.0194915 L12.9652403,56.9745292 Z"/>
      <g transform="translate(.25 .844)">
        <g transform="translate(30)">
          <path fill="#E09F81" d="M10.587279,24.4957832 C8.14421101,24.9602421 6.89180744,25.4056581 6.83006825,25.8320313 C6.41641888,28.6887092 9.93498334,30.9666102 10.587279,31.0898438 C11.3856121,31.2406672 13.3076579,30.1631932 16.3534164,27.8574219 L16.3534164,4.37850522 L11.5699756,4.37850522 L10.587279,24.4957832 Z"/>
          <path fill="#E09F81" d="M18.8116015,1.11805293 C18.8116015,3.55131374 16.8390615,5.71132288 14.4058007,5.71132288 C11.9725399,5.71132288 10,3.55131374 10,1.11805293 L18.8116015,1.11805293 Z" transform="rotate(-14 14.406 3.415)"/>
          <polygon fill="#606060" points=".884 26.252 5.312 37.159 11.963 34.866 10.435 23.647"/>
        </g>
        <g transform="matrix(-1 0 0 1 20 0)">
          <path fill="#E09F81" d="M10.587279,24.4957832 C8.14421101,24.9602421 6.89180744,25.4056581 6.83006825,25.8320313 C6.41641888,28.6887092 9.93498334,30.9666102 10.587279,31.0898438 C11.3856121,31.2406672 13.3076579,30.1631932 16.3534164,27.8574219 L16.3534164,4.37850522 L11.5699756,4.37850522 L10.587279,24.4957832 Z"/>
          <path fill="#E09F81" d="M18.8116015,1.11805293 C18.8116015,3.55131374 16.8390615,5.71132288 14.4058007,5.71132288 C11.9725399,5.71132288 10,3.55131374 10,1.11805293 L18.8116015,1.11805293 Z" transform="rotate(-14 14.406 3.415)"/>
          <polygon fill="#606060" points=".884 26.252 5.312 37.159 11.963 34.866 10.435 23.647"/>
        </g>
        <polygon fill="#E09F81" points="20.985 27.036 28.448 27.036 28.448 23.001 20.985 23.001"/>
        <g transform="translate(12.72 3.72)">
          <path fill="#E09F81" d="M3.76517272 14.8725635L3.76517272 14.8725635C3.45175986 14.8725635 3.19545989 14.6162635 3.19545989 14.3028507L3.19545989 10.3143888C3.19545989 10.000976 3.45175986 9.74467599 3.76517272 9.74467599L3.76517272 9.74467599C4.07858558 9.74467599 4.33488556 10.000976 4.33488556 10.3143888L4.33488556 14.3028507C4.33488556 14.6162635 4.07858558 14.8725635 3.76517272 14.8725635M20.2071465 14.8725635L20.2071465 14.8725635C19.8937337 14.8725635 19.6374337 14.6162635 19.6374337 14.3028507L19.6374337 10.3143888C19.6374337 10.000976 19.8937337 9.74467599 20.2071465 9.74467599L20.2071465 9.74467599C20.5205594 9.74467599 20.7768594 10.000976 20.7768594 10.3143888L20.7768594 14.3028507C20.7768594 14.6162635 20.5205594 14.8725635 20.2071465 14.8725635"/>
          <path fill="#6D4F33" d="M15.2892315,13.7533634 L8.69812124,13.7533634 C5.910682,13.7533634 3.63017863,11.47286 3.63017863,8.68542076 L3.63017863,8.50440595 C3.63017863,5.71696672 5.910682,3.43646334 8.69812124,3.43646334 L15.2892315,3.43646334 C18.0766707,3.43646334 20.3571741,5.71696672 20.3571741,8.50440595 L20.3571741,8.68542076 C20.3571741,11.47286 18.0766707,13.7533634 15.2892315,13.7533634"/>
          <path fill="#E09F81" d="M20.3118614,12.919114 C20.3118614,17.5209494 16.5813515,21.2516953 11.9792801,21.2516953 C7.37744475,21.2516953 3.64693489,17.5209494 3.64693489,12.919114 C3.64693489,8.31727865 7.37744475,4.58653278 11.9792801,4.58653278 C16.5813515,4.58653278 20.3118614,8.31727865 20.3118614,12.919114"/>
          <path fill="#6D4F33" d="M17.5996264,7.67854468 C18.1346495,3.94357413 16.6687599,1.24218744 10.5003815,1.24218744 C4.33200299,1.24218744 1.54467188,8.66698282 1.65356204,11.3137079 C1.7624522,13.960433 3.09340709,7.52071763 8.51681028,6.23996792 C11.4242368,5.55337216 14.4518422,6.03289774 17.5996264,7.67854468 Z" transform="rotate(-9 9.676 6.594)"/>
          <path fill="#B0765C" d="M14.3336762,12.0252974 L13.4382784,11.4352882 C12.5907892,10.8771396 11.4917202,10.8771396 10.644231,11.4352882 L9.74883313,12.0252974 L14.3336762,12.0252974 Z"/>
        </g>
      </g>
      <polygon fill="#E09F81" points="20.529 26.54 25.157 33.439 30 26.54"/>
    </g>
    <polygon fill="#155EF5" points="857.632 230.526 895.175 230.526 895.175 23.747 857.632 23.747"/>
    <path fill="#6DA0C6" d="M502.925293,211.210449 L508.546875,210.554688 L509.597168,221.383301 L514.373535,219.475586 L514.373535,226.469238 L506.857643,228.558065 L506.857643,228.558065 C505.79341,228.853838 504.690908,228.230878 504.395134,227.166645 C504.362753,227.050133 504.341006,226.930925 504.33016,226.810485 L502.925293,211.210449 Z"/>
    <g transform="translate(713.45 189.755)">
      <polygon fill="#3D485D" points="23.55 56.52 32.97 56.52 32.97 93.963 23.55 93.963"/>
      <polygon fill="#58657F" points="14.13 56.52 23.55 56.52 23.55 94.093 14.13 94.093"/>
      <g transform="translate(9.863 .809)">
        <path fill="#C8D9F2" d="M0.93349143,52.9290311 L7.35289504,57.9942408 L23.976768,57.9942408 L27.4189072,56.579261 L27.4189072,31.8834961 C27.4189072,28.1773419 24.5302039,25.1449664 20.9995036,25.1449664 L7.35289504,25.1449664 C3.82219476,25.1449664 0.93349143,28.1773419 0.93349143,31.8834961 L0.93349143,52.9290311 Z"/>
        <polygon fill="#E5AC93" points="18.625 25.473 15.609 27.156 14.37 34.074 13.59 27.075 10.532 25.473 10.532 19.247 18.625 19.247"/>
        <g transform="translate(4.732 .765)">
          <path fill="#E5AC93" d="M1.33062068 14.1332199L.833547018 14.1332199C.634687401 14.1332199.472162255 13.9705439.472162255 13.7718351L.472162255 9.00538566C.472162255 8.80652604.634687401 8.6440009.833547018 8.6440009L1.33062068 8.6440009C1.52932953 8.6440009 1.69200544 8.80652604 1.69200544 9.00538566L1.69200544 13.7718351C1.69200544 13.9705439 1.52932953 14.1332199 1.33062068 14.1332199M18.9310085 14.1332199L18.4339348 14.1332199C18.2350752 14.1332199 18.07255 13.9705439 18.07255 13.7718351L18.07255 9.00538566C18.07255 8.80652604 18.2350752 8.6440009 18.4339348 8.6440009L18.9310085 8.6440009C19.1297173 8.6440009 19.2923932 8.80652604 19.2923932 9.00538566L19.2923932 13.7718351C19.2923932 13.9705439 19.1297173 14.1332199 18.9310085 14.1332199"/>
          <path fill="#473E36" d="M1.33748051,7.66755344 C1.33748051,11.9022532 4.77040961,15.3350315 9.00495856,15.3350315 C13.2396583,15.3350315 16.6724366,11.9022532 16.6724366,7.66755344 C16.6724366,3.43285372 13.2396583,7.53827207e-05 9.00495856,7.53827207e-05 C4.77040961,7.53827207e-05 1.33748051,3.43285372 1.33748051,7.66755344"/>
          <path fill="#473E36" d="M4.02624647,12.8289179 L17.0579589,13.0307928 C18.1164831,13.0472262 18.9957472,12.1946477 19.0121806,11.1362743 L19.0474597,8.86438982 C19.1035444,5.24240085 16.1859316,2.23312264 12.5639427,2.1770379 L4.19329458,2.04722885 C3.13492118,2.03094619 2.25550636,2.88337399 2.23907292,3.94189816 L2.13172793,10.8746962 C2.1152945,11.9330696 2.96787307,12.8124844 4.02624647,12.8289179"/>
          <path fill="#E5AC93" d="M18.7945356,12.0421484 C18.7945356,16.9682584 14.8010606,20.9617335 9.87495054,20.9617335 C4.94884051,20.9617335 0.955365495,16.9682584 0.955365495,12.0421484 C0.955365495,7.11603838 4.94884051,3.12256336 9.87495054,3.12256336 C14.8010606,3.12256336 18.7945356,7.11603838 18.7945356,12.0421484"/>
          <path fill="#56514E" d="M8.92957326,9.0404754 C8.93841263,9.04050113 8.94725503,9.04051401 8.95610044,9.04051401 C13.8577965,9.01181004 17.8226311,5.02934268 17.8226311,0.120928961 C17.8226311,0.120928961 16.478708,4.47744716 13.7775943,5.61014792 C13.3504758,5.78925726 12.7974682,5.88876246 12.7974682,4.71701344 C12.7974682,4.20290329 12.8191784,3.49717026 12.8191784,3.0616089 C12.8191784,1.60219942 11.6864777,1.58033843 10.2923496,1.58033843 L8.87620983,1.58033843 L8.87621746,1.5824578 L8.87619475,1.58033843 L7.5667969,1.58033843 C6.17266886,1.58033843 5.0399681,1.60219942 5.0399681,3.0616089 C5.0399681,3.49717026 5.06167832,4.20290329 5.06167832,4.71701344 C5.06167832,5.88876246 4.50867068,5.78925726 4.08155218,5.61014792 C1.38043854,4.47744716 0.0365153899,0.120928961 0.0365153899,0.120928961 C0.0365153899,5.02934194 4.00134882,9.01180885 8.90304552,9.04035953 C8.91189149,9.04051401 8.92073388,9.04050113 8.92957326,9.0404754 Z" transform="translate(.965 12.008)"/>
          <path fill="#E5AC93" d="M12.4308017,16.1320078 L7.24145519,16.1320078 C6.94339192,16.1320078 6.69945343,15.8880693 6.69945343,15.590006 L6.69945343,14.8443201 C6.69945343,14.5462569 6.94339192,14.3023184 7.24145519,14.3023184 L12.4308017,14.3023184 C12.728865,14.3023184 12.9728035,14.5462569 12.9728035,14.8443201 L12.9728035,15.590006 C12.9728035,15.8880693 12.728865,16.1320078 12.4308017,16.1320078"/>
          <path fill="#997252" d="M11.6556562,13.5846749 L10.9319821,13.1079545 C10.2470547,12.6567136 9.35874475,12.6567136 8.67381735,13.1079545 L7.95014323,13.5846749 L11.6556562,13.5846749 Z"/>
          <path fill="#473E36" d="M14.8875246,4.63597702 C14.8875246,4.63597702 6.52305787,0.58445731 3.38623209,6.98852097 C3.38623209,6.98852097 2.47138739,7.24994824 2.47138739,5.55082172 C2.47138739,3.85184596 9.52901924,-0.0691108784 12.2735533,1.36858837 C15.0182382,2.80628762 14.8875246,4.63597702 14.8875246,4.63597702"/>
          <path stroke="#000" stroke-width=".5" d="M7.84680881 11.5412604L5.02039347 11.5412604 5.02039347 11.5412604C4.47509485 11.5412604 4.03032648 11.1043926 4.02055407 10.5591816L4.01026802 9.98531398 4.01026802 9.98531398C4.00037041 9.43311792 4.43999016 8.97745098 4.99218621 8.96755337 4.99815935 8.9674463 5.00413332 8.96739277 5.01010742 8.96739277L7.92906362 8.96739277 7.92906362 8.96739277C8.48134837 8.96739277 8.92906362 9.41510802 8.92906362 9.96739277 8.92906362 10.0148676 8.92568283 10.0622822 8.9189469 10.1092768L8.8366921 10.6831444 8.8366921 10.6831444C8.76610863 11.1755845 8.34428169 11.5412604 7.84680881 11.5412604zM11.9088817 11.5412604L14.735297 11.5412604 14.735297 11.5412604C15.2805956 11.5412604 15.725364 11.1043926 15.7351364 10.5591816L15.7454225 9.98531398 15.7454225 9.98531398C15.7553201 9.43311792 15.3157003 8.97745098 14.7635043 8.96755337 14.7575311 8.9674463 14.7515572 8.96739277 14.7455831 8.96739277L11.8266269 8.96739277 11.8266269 8.96739277C11.2743421 8.96739277 10.8266269 9.41510802 10.8266269 9.96739277 10.8266269 10.0148676 10.8300076 10.0622822 10.8367436 10.1092768L10.9189984 10.6831444 10.9189984 10.6831444C10.9895818 11.1755845 11.4114088 11.5412604 11.9088817 11.5412604z"/>
        </g>
        <polygon fill="#000" points="13.554 10.329 15.714 10.329 15.714 9.878 13.554 9.878"/>
        <polygon fill="#000" points="5.569 9.631 8.514 10.013 8.563 9.621 5.618 9.239"/>
        <polygon fill="#000" points="23.565 9.667 20.498 9.89 20.449 9.498 23.516 9.275"/>
        <polygon fill="#AAA" points="13.668 27.002 11.424 31.743 8.791 25.569 10.468 21.875"/>
        <polygon fill="#AAA" points="15.454 27.154 17.697 31.895 20.331 25.721 18.654 22.028"/>
      </g>
      <path fill="#C8D9F2" d="M21.0444431,33.332783 L16.4366728,29.1703105 L5.43090854,39.9667902 L5.43090854,39.9667902 C5.24924141,40.1450027 5.14235312,40.3857727 5.13202005,40.6400479 L4.51173543,55.9039668 L10.6377581,53.4735929 L11.3793644,42.1072497 L21.0444431,33.332783 Z" transform="rotate(-18 12.778 42.537)"/>
      <polygon fill="#E5AC93" points="9.673 56.667 13.174 54.971 13.835 56.582 10.191 58.24" transform="rotate(-15 11.754 56.606)"/>
      <path fill="#C8D9F2" d="M42.7099241,33.3327293 L36.7306068,29.1724532 L27.0532924,39.9765456 L27.0532924,39.9765456 C26.8983371,40.1495431 26.8084289,40.3710816 26.7989987,40.6031384 L26.1772164,55.9039131 L32.303239,53.4735391 L33.0448453,42.107196 L42.7099241,33.3327293 Z" transform="scale(-1 1) rotate(-18 0 260.006)"/>
      <polygon fill="#E5AC93" points="33.57 56.692 37.314 54.968 37.5 56.488 33.989 58.556" transform="scale(-1 1) rotate(-15 0 326.676)"/>
      <polygon fill="#58657F" points="15.334 55.833 11.59 57.557 12.873 66.347 17.456 61.232 17.165 59.033" transform="rotate(-18 14.523 61.09)"/>
      <polygon fill="#3D485D" points="33.675 55.833 29.931 57.557 31.213 66.347 35.796 61.232 35.462 59.655" transform="scale(-1 1) rotate(-18 0 268.583)"/>
    </g>
    <path fill="#282828" d="M736.860033 286.430108C736.860033 283.431264 734.428951 281 731.429925 281 728.431081 281 726 283.431264 726 286.430108L736.860033 286.430108zM747.860033 286.430108C747.860033 283.431264 745.428951 281 742.429925 281 739.431081 281 737 283.431264 737 286.430108L747.860033 286.430108z"/>
    <g transform="scale(-1 1) rotate(10 -617.213 -4279.418)">
      <polygon fill="#394767" points="33.944 36.625 24.691 38.192 13.436 2.243 30.773 3.698" transform="matrix(-1 0 0 1 47.38 0)"/>
      <polygon fill="#000" points="20.885 38.039 27.885 38.039 27.652 41.571 20.652 41.571" transform="rotate(10 24.268 39.805)"/>
      <polygon fill="#262626" points="14.094 37.03 19.786 37.25 19.786 40.435 14.094 40.215" transform="rotate(10 16.94 38.733)"/>
      <polygon fill="#405891" points="34.712 38.349 25.459 39.917 20.038 .894 30.704 .626" transform="matrix(-1 0 0 1 54.75 0)"/>
      <path fill="#2F1B1B" d="M16.0030553,10.5280426 L16.0030553,4.09614144 L7.23871561,4.09614144 C3.28172294,4.09614144 1.11830056,6.2401085 0.748448459,10.5280426" transform="translate(2.863 34.973)"/>
      <path fill="#3E3E3E" d="M16.6661335,10.0950125 L16.6661335,3.66311133 L7.90179382,3.66311133 C3.94480116,3.66311133 1.78137877,5.80707839 1.41152667,10.0950125" transform="rotate(15 -121.5 66.502)"/>
    </g>
    <g transform="rotate(5 356.466 8255.161)">
      <g transform="translate(0 8.02)">
        <mask id="logo-republic-f" fill="#fff">
          <use xlink:href="#logo-republic-e"/>
        </mask>
        <path fill="#EFA47B" d="M0.505290459,4.56877121 L0.505290459,4.56877121 C0.2273466,4.56877121 -3.2482726e-05,4.34139213 -3.2482726e-05,4.06344827 L-3.2482726e-05,0.526512506 C-3.2482726e-05,0.248568647 0.2273466,0.0211895649 0.505290459,0.0211895649 L0.505290459,0.0211895649 C0.783234318,0.0211895649 1.0106134,0.248568647 1.0106134,0.526512506 L1.0106134,4.06344827 C1.0106134,4.34139213 0.783234318,4.56877121 0.505290459,4.56877121" mask="url(#logo-republic-f)"/>
      </g>
      <g transform="translate(14.509 8.02)">
        <mask id="logo-republic-h" fill="#fff">
          <use xlink:href="#logo-republic-g"/>
        </mask>
        <path fill="#EFA47B" d="M0.577477903,4.56877121 L0.577477903,4.56877121 C0.299534044,4.56877121 0.0721549621,4.34139213 0.0721549621,4.06344827 L0.0721549621,0.526512506 C0.0721549621,0.248568647 0.299534044,0.0211895649 0.577477903,0.0211895649 C0.855421763,0.0211895649 1.08280084,0.248568647 1.08280084,0.526512506 L1.08280084,4.06344827 C1.08280084,4.34139213 0.855421763,4.56877121 0.577477903,4.56877121" mask="url(#logo-republic-h)"/>
      </g>
      <path fill="#111" d="M11.9723532,11.5959001 L3.63273815,11.5959001 C1.84683787,11.5959001 0.385656579,10.1347188 0.385656579,8.34881852 L0.385656579,5.69368049 C0.385656579,3.90778022 1.84683787,2.44659892 3.63273815,2.44659892 L11.9723532,2.44659892 C13.7582535,2.44659892 15.2194348,3.90778022 15.2194348,5.69368049 L15.2194348,8.34881852 C15.2194348,10.1347188 13.7582535,11.5959001 11.9723532,11.5959001"/>
      <mask id="logo-republic-j" fill="#fff">
        <use xlink:href="#logo-republic-i"/>
      </mask>
      <polygon fill="#EFA47B" points="5.159 20.58 9.771 20.58 9.771 15.765 5.159 15.765" mask="url(#logo-republic-j)"/>
      <path fill="#EFA47B" d="M15.1792862,10.8560735 C15.1792862,14.9372032 11.8709205,18.2455689 7.78979081,18.2455689 C3.70876938,18.2455689 0.400403736,14.9372032 0.400403736,10.8560735 C0.400403736,6.77494382 3.70876938,3.46657818 7.78979081,3.46657818 C11.8709205,3.46657818 15.1792862,6.77494382 15.1792862,10.8560735" mask="url(#logo-republic-j)"/>
      <path fill="#111" d="M13.9521646,5.01678379 C13.9521646,2.24611554 11.1931901,-6.49654521e-05 7.7898666,-6.49654521e-05 C4.38643484,-6.49654521e-05 1.62746037,2.24611554 1.62746037,5.01678379 L13.9521646,5.01678379 Z" mask="url(#logo-republic-j)"/>
      <path fill="#EFA47B" d="M9.59833154,14.2443467 L5.91695593,14.2443467 C5.50009428,14.2443467 5.15902565,13.9032781 5.15902565,13.4864164 L5.15902565,13.4864164 C5.15902565,13.0695548 5.50009428,12.7284861 5.91695593,12.7284861 L9.59833154,12.7284861 C10.0151932,12.7284861 10.3562618,13.0695548 10.3562618,13.4864164 L10.3562618,13.4864164 C10.3562618,13.9032781 10.0151932,14.2443467 9.59833154,14.2443467" mask="url(#logo-republic-j)"/>
      <path fill="#111" d="M13.1202061,4.22268942 C12.7881244,4.845275 11.2114129,6.04930138 9.79971362,5.6754252 C6.76799252,4.87234394 6.49546245,5.67477555 5.10780039,5.88288155 C4.38592594,5.9911573 3.14865891,6.09456064 2.94228532,5.77460579 C2.22041088,4.65579243 3.24188433,4.11896125 3.24188433,4.11896125 L13.1202061,4.22268942 Z" mask="url(#logo-republic-j)"/>
      <path fill="#BC7F61" d="M9.37966866,12.5925243 L8.78003754,12.1975343 C8.21267259,11.8237664 7.47672229,11.8237664 6.90935734,12.1975343 L6.3098345,12.5925243 L9.37966866,12.5925243 Z" mask="url(#logo-republic-j)"/>
    </g>
    <polygon fill="#303030" points="722.98 21.25 729.903 21.911 730.502 19.2 722.98 19.2"/>
    <path fill="#181818" d="M736.426758,38.4331055 L741.565918,51.1616211 L721.611572,52.844732 L720.8479,50.344732 L727.645508,21.1484375 L732.083496,21.1484375 C730.7708,22.7787923 730.243619,24.023584 730.501953,24.8828125 C731.61986,28.60101 733.594795,33.1177744 736.426758,38.4331055 Z"/>
    <path fill="#BEBEBE" d="M734.98877,39.046875 C736.506022,43.8190104 737.542155,48.3221029 738.097168,52.5561523 L719.552734,53.7236328 L718.789062,51.2236328 L729.028809,21.4467773 C731.484863,28.4080404 733.471517,34.2747396 734.98877,39.046875 Z"/>
    <g transform="rotate(-9 500.104 -4513.847)">
      <path fill="#004BB7" d="M11.70515,16.2605164 L11.70515,10.4710793 L11.70515,16.2605164 Z"/>
      <path fill="#003B82" d="M9.74705392,5.54041862 L13.8406285,1.44684408"/>
      <path fill="#303030" d="M16.6585219,35.0395014 L8.30262217,30.6050007 L0.369516403,30.3624916 L2.95999384,8.56526663 C2.95999384,5.40607609 5.16338083,0.0952227784 9.70465549,0.162494442 L14.9343904,0.0729599523 C15.5885158,0.0729599523 16.4942282,0.302223752 17.6515276,0.760751351 L16.6585219,35.0395014 Z" transform="translate(0 .048)"/>
    </g>
    <g fill="#EFA47B" transform="rotate(-180 354.44 26.868)">
      <path d="M5.81350919,7.91562268 L5.81350919,7.91562268 C6.03650987,8.09335697 6.3643483,8.05632083 6.54208258,7.83332015 L8.92768035,4.83946745 C9.10541464,4.61646677 9.0683785,4.28862834 8.84537782,4.11089406 C8.62237714,3.93315977 8.29453871,3.97019591 8.11680442,4.19319659 L5.73120665,7.18704929 C5.55347237,7.41004997 5.59050851,7.7378884 5.81350919,7.91562268"/>
      <path d="M0.812258556,4.45335099 L1.19006638,3.97932758 C1.41306706,4.15706186 1.36309767,4.59404913 1.54083195,4.37104845 L4.30423755,0.903172344 C4.48197183,0.680171666 4.44493569,0.352333234 4.22193501,0.17459895 C3.99893433,-0.00313533467 3.6710959,0.0339008061 3.49336162,0.256901485 L0.72995602,3.72477759 C0.552221736,3.94777827 0.589257877,4.2756167 0.812258556,4.45335099" transform="translate(4.712 1.764)"/>
      <path d="M4.57119161 5.30420243L5.25214711 4.44962778C5.47514779 4.62736206 5.12203072 5.44490058 5.29976501 5.2218999L8.36631827 1.37347255C8.54405256 1.15047187 8.50701642.822633435 8.28401574.644899151 8.06101506.467360825 7.73317663.504396965 7.55544235.727397644L4.48888908 4.57562904C4.31115479 4.79862972 4.34819093 5.12646815 4.57119161 5.30420243M3.11253594 5.04947609L3.11253594 5.04947609C3.33553662 5.22721037 3.5689231 5.30853311 3.74665738 5.08553244L6.98232276 1.02527403C7.15986109.802273355 7.12282495.474434924 6.89982427.296700639L6.89982427.296700639C6.67682359.118966355 6.34898516.156002496 6.17144683.379003174L2.93578145 4.43945753C2.75804717 4.66245821 2.88953526 4.8717418 3.11253594 5.04947609M1.44083428 6.16943723L1.44083428 6.16943723C1.71909523 6.23155605 1.99755215 6.05480155 2.05986692 5.7765406L2.89484574 2.04059338C2.95716051 1.76233243 2.78040602 1.48387552 2.50214507 1.42156074 2.22388412 1.35944192 1.94523125 1.53619641 1.88311243 1.81445737L1.04793766 5.55040459C.985818838 5.82866554 1.16257333 6.10731841 1.44083428 6.16943723"/>
      <path d="M1.32596346,4.67658681 C1.15724326,4.88822191 1.01301787,5.0428331 0.894854941,5.27249636 C0.296789852,6.43433382 0.362827839,8.11624491 1.56620848,9.0752654 C2.87187941,10.1156086 4.88515619,9.88810092 5.92549942,8.58242998 C6.36013519,8.03688175 6.93233377,7.31889011 7.33561619,6.81272952"/>
      <path d="M6.34553629,7.48061459 C6.34553629,7.48061459 7.26752064,5.54082222 5.12079618,3.93709854 C4.66793628,3.59887431 3.82649084,3.34099303 3.82649084,3.34099303 L2.65681505,4.80872158 L1.9002196,4.21594736 L1.56728625,7.89722219 L5.01497864,7.8707678 L6.34553629,7.48061459 Z"/>
    </g>
    <polygon fill="#303030" points="712.3 48.775 726.213 27.49 720.256 22.9 704.471 44.765" transform="rotate(-175 715.342 35.838)"/>
    <g transform="rotate(119 359.16 373.264)">
      <polygon fill="#BF7A41" points="17.426 14.814 20.897 9.002 17.66 7.069 14.189 12.882"/>
      <polygon fill="#BCBCBC" points="6.312 36.922 20.535 13.321 14.729 10.502 .939 29.652"/>
      <g transform="rotate(-3 32.685 -275.06)">
        <path fill="#BF7A41" d="M6.25136638,8.51180517 L6.25136638,8.51180517 C6.49116285,8.7029259 6.84369315,8.6631003 7.03481388,8.42330383 L9.60008818,5.20396256 C9.79120891,4.96416609 9.75138331,4.61163579 9.51158685,4.42051506 C9.27179038,4.22939433 8.91926008,4.26921993 8.72813935,4.50901639 L6.16286505,7.72835767 C5.97174432,7.96815413 6.01156992,8.32068443 6.25136638,8.51180517"/>
        <g transform="translate(5.607 1.896)">
          <mask id="logo-republic-l" fill="#fff">
            <use xlink:href="#logo-republic-k"/>
          </mask>
          <path fill="#BF7A41" d="M0.333902879,4.78876488 L0.740166133,4.27903936 C0.979962596,4.47016009 0.926229645,4.94006002 1.11735038,4.70026355 L4.08888793,0.97119675 C4.28000866,0.731400286 4.24018306,0.378869984 4.0003866,0.187749252 C3.76059013,-0.00337147928 3.40805983,0.0364541197 3.2169391,0.276250584 L0.245401548,4.00531739 C0.0542808164,4.24511385 0.0941064154,4.59764415 0.333902879,4.78876488" mask="url(#logo-republic-l)"/>
        </g>
        <path fill="#BF7A41" d="M4.91548093 5.70370007L5.64772409 4.78476125C5.88752055 4.97588198 5.5078077 5.85499521 5.69892843 5.61519874L8.99644589 1.47691864C9.18756662 1.23712218 9.14774102.884591876 8.90794455.693471144 8.66814809.50256113 8.31561779.542386729 8.12449706.782183193L4.8269796 4.92025257C4.63585887 5.16004904 4.67568447 5.51257934 4.91548093 5.70370007M3.34696341 5.42978845L3.34696341 5.42978845C3.58675988 5.62090918 3.83772437 5.70835693 4.0288451 5.46856046L7.50821172 1.1024948C7.69912173.862698333 7.65929613.51016803 7.41949967.319047299L7.41949967.319047299C7.1797032.127926567 6.8271729.167752166 6.63626289.40754863L3.15689627 4.77382502C2.96577554 5.01362148 3.10716695 5.23866772 3.34696341 5.42978845"/>
        <path fill="#BF7A41" d="M2.66888652,6.18860163 L3.33835561,3.05153547 C3.40536376,2.75231668 3.21529661,2.45288718 2.91607783,2.38587903 C2.61685904,2.31908159 2.31721882,2.50914874 2.25042139,2.80836752 L1.58074158,5.94543368 C1.51394414,6.24465247 1.70401129,6.54429269 2.00323008,6.61109012 C2.30244886,6.67788756 2.60187837,6.48782041 2.66888652,6.18860163 Z" transform="rotate(24 2.46 4.498)"/>
        <path fill="#BF7A41" d="M1.4258313,5.02881421 C1.24440358,5.25638906 1.08931553,5.42264513 0.962252904,5.66960599 C0.319143231,6.91894978 0.390155013,8.7275377 1.6841709,9.75878892 C3.08818131,10.8774879 5.25309244,10.6328449 6.37179141,9.22883452 C6.83916272,8.64219713 7.45445769,7.87012837 7.88811422,7.32584518"/>
        <path fill="#BF7A41" d="M6.82346427,8.04403349 C6.82346427,8.04403349 7.8148899,5.9581414 5.50648018,4.23362975 C5.01951214,3.86993142 4.11469139,3.59262725 4.11469139,3.59262725 L2.8569189,5.17090099 L2.04333881,4.53348069 L1.68532985,8.4920188 L5.39269275,8.46357194 L6.82346427,8.04403349 Z"/>
      </g>
    </g>
    <g transform="translate(819.898 196.884)">
      <polygon fill="#BF7A41" points="10.555 21.943 5.653 21.24 5.886 18.477 10.788 19.179"/>
      <path fill="#BF7A41" d="M1.36495299 13.2954961L1.24131417 13.2895598C.969881927 13.2764589.758426796 13.0435103.771732298 12.7720781L.965583226 8.76057158C.978684028 8.48913934 1.21163266 8.27788891 1.4830649 8.29098971L1.60649902 8.29692601C1.87813596 8.31002682 2.08938639 8.54297545 2.07628559 8.81440769L1.88243466 12.8257095C1.86933386 13.0971417 1.63638523 13.3085969 1.36495299 13.2954961M17.3922489 14.0703061L17.2686101 14.0643698C16.9971778 14.051269 16.7857227 13.8183204 16.7990282 13.5468882L16.9928791 9.53538167C17.0059799 9.26394943 17.2389286 9.052699 17.5103608 9.0657998L17.6337949 9.0717361C17.9054319 9.0848369 18.1166823 9.31778554 18.1035815 9.58921778L17.9097306 13.6005196C17.8966298 13.8719518 17.6636811 14.0834069 17.3922489 14.0703061"/>
      <path fill="#000" d="M5.61489407,12.407405 C3.20004782,12.290726 1.31987804,10.2193663 1.43655706,7.80472479 L2.38154561,3.33268392 C2.49822463,0.917837666 3.86288244,0.905528749 6.2777287,1.02220777 L13.7819362,1.96256673 C16.1967825,2.07924575 18.1357979,2.70856971 18.0191189,5.12321127 L17.7415286,8.59281991 C17.6248495,11.0076662 15.5536946,12.8878359 13.1388484,12.7711569 L5.61489407,12.407405 Z"/>
      <path fill="#BF7A41" d="M17.5245875,12.1680697 C17.3078101,16.6538662 13.4954768,20.1145249 9.00968031,19.8977475 C4.52367915,19.6809702 1.06302044,15.8686368 1.28000247,11.3828404 C1.4967798,6.89683922 5.30911317,3.43618051 9.79490963,3.65316254 C14.2807061,3.86993987 17.7413648,7.68227323 17.5245875,12.1680697"/>
      <polygon fill="#AAA" points="11.34 23.938 8.685 24.294 4.172 19.103 5.861 17.635" transform="rotate(-49 7.756 20.964)"/>
      <path fill="#000" d="M13.814477,6.8012111 C15.7424555,4.64636339 11.3051997,0.30051146 7.28035637,0.30051146 C3.25551308,0.30051146 0.33707954,1.92344736 0.187648518,4.64636339 C2.74899528,4.06994812 4.86190946,3.83266713 6.52639106,3.93452041 C9.3461339,4.10706666 11.7754959,5.06263022 13.814477,6.8012111 Z" transform="translate(3.55 .984)"/>
      <path fill="#93613D" d="M11.6608118,12.6387774 L10.8158101,12.0216068 C10.0160471,11.4375976 8.94464711,11.3858085 8.09227619,11.8899847 L7.19159605,12.4228189 L11.6608118,12.6387774 Z"/>
    </g>
    <polygon fill="#BF7A41" points="830.09 278.541 835.627 278.48 835.747 282.54 830.055 282.321" transform="scale(-1 1) rotate(10 0 -9239.59)"/>
    <g transform="translate(802 270)">
      <polygon fill="#BF7A41" points="7.383 4.007 13.205 3.991 13.157 7.2 7.305 6.996" transform="scale(1 -1) rotate(-55 -.494 0)"/>
      <path fill="#2F1B1B" d="M13.4125515,13.3201174 L13.5339738,7.28701709 L3.91177146,7.57043865 C1.89316553,4.70496003 -0.475071767,4.154723 -3.19294043,5.91972754 L1.90635738,13.7719576" transform="scale(-1 1) rotate(-57 -.633 24.325)"/>
    </g>
    <polygon fill="#2A3449" points="824.907 278.742 815.54 275.036 819.926 260.146 814.489 236.487 825.503 235.068 830.742 259.557" transform="rotate(26 822.616 256.905)"/>
    <polygon fill="#4C5A75" points="838.231 277.596 828.978 279.163 821.476 240.894 832.489 239.475"/>
    <g transform="matrix(-1 0 0 1 836.898 219.1)">
      <path fill="#004BB7" d="M9.70514997,16.2605164 L9.70514997,10.4710793 L9.70514997,16.2605164 Z"/>
      <path fill="#003B82" d="M7.74705392,5.54041862 L11.8406285,1.44684408"/>
      <path fill="#D1D1D1" d="M19.6784784,31.0079973 L0.395268912,31.0079973 L1.39526891,5.817048 C1.39526891,2.65785747 3.98016643,0.0729599523 7.13935696,0.0729599523 L12.9343904,0.0729599523 C16.0935809,0.0729599523 18.6784784,2.65785747 18.6784784,5.817048 L19.6784784,31.0079973 Z" transform="translate(0 .048)"/>
    </g>
    <path fill="#714F3C" d="M16.6661335,10.0950125 L16.6661335,3.66311133 L7.90179382,3.66311133 C3.94480116,3.66311133 1.78137877,5.80707839 1.41152667,10.0950125" transform="matrix(-1 0 0 1 846.674 276.544)"/>
    <g transform="scale(-1 1) rotate(10 -1494.757 -4595.069)">
      <polygon fill="#BF7A41" points="17.671 17.051 21.191 11.156 17.908 9.197 14.389 15.091"/>
      <polygon fill="#D1D1D1" points="6.401 39.469 20.824 15.537 14.936 12.677 .952 32.097"/>
      <g transform="rotate(-20 19.017 -34.261)">
        <path fill="#BF7A41" d="M6.33928328,8.63151204 L6.33928328,8.63151204 C6.58245216,8.82532062 6.93994031,8.78493493 7.1337489,8.54176606 L9.73510026,5.27714916 C9.92890884,5.03398029 9.88852315,4.67649213 9.64535428,4.48268354 C9.40218541,4.28887496 9.04469725,4.32926065 8.85088867,4.57242953 L6.2495373,7.83704643 C6.05572872,8.0802153 6.09611441,8.43770346 6.33928328,8.63151204"/>
        <g transform="translate(5.686 1.923)">
          <mask id="logo-republic-n" fill="#fff">
            <use xlink:href="#logo-republic-m"/>
          </mask>
          <path fill="#BF7A41" d="M0.338598766,4.8561123 L0.750575555,4.33921818 C0.993744427,4.53302677 0.939255796,5.00953519 1.13306438,4.76636632 L4.14639253,0.984855301 C4.34020112,0.741686429 4.29981542,0.384198271 4.05664655,0.190389688 C3.81347768,-0.00341889452 3.45598952,0.036966797 3.26218094,0.280135669 L0.248852785,4.06164668 C0.0550442017,4.30481556 0.0954298932,4.66230372 0.338598766,4.8561123" mask="url(#logo-republic-n)"/>
        </g>
        <path fill="#BF7A41" d="M4.98461044 5.7839148L5.72715159 4.85205236C5.97032046 5.04586094 5.58526747 5.93733769 5.77907605 5.69416882L9.12296857 1.49768948C9.31677715 1.25452061 9.27639146.897032449 9.03322259.703223866 8.79005371.509628964 8.43256556.550014655 8.23875697.793183528L4.89486446 4.98944918C4.70105587 5.23261806 4.74144156 5.59010621 4.98461044 5.7839148M3.39403387 5.50615099L3.39403387 5.50615099C3.63720274 5.69995957 3.8916967 5.78863715 4.08550528 5.54546827L7.61380442 1.11799987C7.80739933.874831002 7.76701363.517342845 7.52384476.323534262L7.52384476.323534262C7.28067589.129725679 6.92318773.17011137 6.72959283.413280243L3.20129369 4.84096232C3.00748511 5.08413119 3.15086499 5.3123424 3.39403387 5.50615099M1.57114342 6.72740147L1.57114342 6.72740147C1.8745703 6.79513832 2.17821087 6.60239814 2.2461614 6.29897126L3.15665575 2.22514476C3.22460628 1.92171787 3.0318661 1.6180773 2.72843921 1.55012677 2.42501232 1.48238993 2.12115807 1.6751301 2.05342122 1.97855699L1.1427132 6.05238349C1.07497635 6.35581038 1.26771653 6.65966463 1.57114342 6.72740147"/>
        <path fill="#BF7A41" d="M1.44588367,5.09953759 C1.26190441,5.33031297 1.10463526,5.4989072 0.975785672,5.74934123 C0.323631543,7.01625533 0.395642009,8.85027855 1.70785646,9.89603291 C3.13161235,11.0304648 5.32696999,10.7823813 6.46140192,9.35862543 C6.93534617,8.76373778 7.55929442,7.98081094 7.99904973,7.42887316"/>
        <path fill="#BF7A41" d="M6.91942695,8.15716179 C6.91942695,8.15716179 7.92479562,6.04193449 5.58392128,4.29316995 C5.0901047,3.9243567 4.17255888,3.64315263 4.17255888,3.64315263 L2.89709755,5.24362262 L2.07207557,4.59723788 L1.70903171,8.6114474 L5.46853359,8.58260048 L6.91942695,8.15716179 Z"/>
      </g>
    </g>
  </g>
</svg>
