<svg xmlns="http://www.w3.org/2000/svg" width="335" height="512" viewBox="0 0 335 512">
  <g fill="none" fill-rule="evenodd">
    <rect width="50" height="9.024" x="252.047" y="503.039" fill="#D8D8D8"/>
    <rect width="4" height="502" x="275.047" y="9.438" fill="#D8D8D8"/>
    <rect width="2" height="502" x="277.047" y="9.438" fill="#9E9E9E"/>
    <path stroke="#979797" d="M274.920898,10.2314453 L177.421875,439.957031"/>
    <polygon fill="#000" points="280.047 8.438 281.047 8.438 281.047 511.438 280.047 511.438" opacity=".2"/>
    <rect width="25" height="8.953" x="277.047" y="502.947" fill="#9E9E9E"/>
    <polygon fill="#DC467E" points="305.48 58.369 300.766 60.421 280.047 69.438 280.047 22.438 305.48 33.684"/>
    <polygon fill="#EF558E" points="334.709 48.685 305.047 61.594 305.047 35.777"/>
    <circle cx="277.266" cy="5.219" r="5.219" fill="#D8D8D8"/>
    <path fill="#A82E04" d="M48.8200541,453.625065 L56.623063,462.638789 C57.5895949,463.755714 57.4846157,465.440645 56.3871068,466.428568 L48.4909659,473.534897 L42.5673794,467.446766 L48.8200541,453.625065 Z" transform="matrix(-1 0 0 1 99.852 0)"/>
    <polygon fill="#CE3F00" points="79.482 455.545 85.376 460.664 77.525 470.787 62.857 470.78 60.307 463.787 72.541 463.767" transform="matrix(-1 0 0 1 145.683 0)"/>
    <polygon fill="#FCD486" points="114.729 461.614 114.673 464.864 110.61 464.794 110.666 461.544" transform="matrix(-1 0 0 1 225.339 0)"/>
    <path fill="#FCD486" d="M118.27961,461.470295 C119.357373,462.656658 119.269178,464.491983 118.083144,465.569417 C116.896781,466.647181 115.061457,466.559314 113.983693,465.372952 C112.905929,464.186589 112.994125,462.351264 114.180488,461.27383 C115.366522,460.196066 117.201846,460.283933 118.27961,461.470295" transform="matrix(-1 0 0 1 232.263 0)"/>
    <path fill="#225696" d="M111.012542,469.477076 L111.012542,469.477076 C110.660747,471.068217 109.090997,472.07753 107.497223,471.737582 L87.3198414,467.456475 L88.6006525,461.663536 L108.734923,465.935429 C110.34581,466.278997 111.368286,467.868822 111.012542,469.477076" transform="matrix(-1 0 0 1 198.403 0)"/>
    <polygon fill="#1D365B" points="9.561 31.396 19.091 30.276 9.346 14.914 8.753 0 .032 .823 .903 15.78" transform="matrix(-1 0 0 1 55.417 475.452)"/>
    <polygon fill="#494949" points="153.937 506.074 163.076 506.074 153.331 490.301 158.497 475.387 149.776 476.21 144.888 491.168" transform="matrix(-1 0 0 1 307.963 0)"/>
    <polygon fill="#253244" points="123.843 506.826 132.609 505.664 122.864 490.301 123.355 474.141 115.29 476.105 115.077 492.309" transform="matrix(-1 0 0 1 247.685 0)"/>
    <polygon fill="#A5A5A5" points="149.976 461.327 149.136 468.297 125.127 465.583 125.968 458.613" transform="matrix(-1 0 0 1 275.104 0)"/>
    <polygon fill="#D1D1D1" points="153.96 451.849 156.027 458.558 132.991 465.847 130.923 459.137" transform="matrix(-1 0 0 1 286.95 0)"/>
    <polygon fill="#508E57" points="168.635 458.409 165.16 464.509 145.018 453.241 148.493 447.141" transform="matrix(-1 0 0 1 313.654 0)"/>
    <polygon fill="#CE8A41" points="177.134 443.553 174.429 446.431 170.833 443.049 173.538 440.172" transform="matrix(-1 0 0 1 347.967 0)"/>
    <path fill="#FCD486" d="M104.36843,483.549477 C104.362835,484.247802 104.325155,506.298257 104.325155,506.298257 L107.468275,506.322939 L110.740563,487.441602 L104.36843,483.549477 Z" transform="matrix(-1 0 0 1 215.066 0)"/>
    <path fill="#E0B363" d="M94.1956873,483.709875 C94.1900928,484.4082 101.529126,506.28087 101.529126,506.28087 L105.137907,506.309172 L102.546628,487.617796 L94.1956873,483.709875 Z" transform="matrix(-1 0 0 1 199.334 0)"/>
    <polygon fill="#384860" points="136.886 506.193 128.24 506.193 141.183 472.277 148.735 475.387" transform="matrix(-1 0 0 1 276.975 0)"/>
    <polygon fill="#727272" points="165.259 505.664 156.426 506.803 158.64 492.878 166.768 471.928 174.553 475.039 166.974 493.821" transform="matrix(-1 0 0 1 330.978 0)"/>
    <polygon fill="#274575" points="58.898 505.728 50.717 505.728 52.279 492.942 60.407 471.993 68.192 475.104 60.614 493.886" transform="matrix(-1 0 0 1 118.909 0)"/>
    <path fill="#E29E66" d="M128.06437,438.234896 L132.931583,434.964089 C133.969198,434.372059 135.222366,435.274419 134.99003,436.446302 L134.390431,439.474242 C134.241025,440.229499 133.507158,440.720827 132.751572,440.571092 L128.484286,440.814288 C127.181426,440.541145 126.935268,438.989824 128.06437,438.234896" transform="matrix(-1 0 0 1 262.363 0)"/>
    <path stroke="#000" stroke-width="2" d="M132.891527,436.795036 L132.9014,436.419218 C132.911272,436.05755 132.622991,435.753472 132.260994,435.743929 L130.709673,435.702464 C130.348005,435.69292 130.043927,435.980872 130.034384,436.342869 L130.024182,436.718688 C130.00312,437.510474 130.62773,438.169308 131.419516,438.19037 L131.419516,438.19037 C132.211302,438.211432 132.870465,437.586822 132.891527,436.795036 Z" transform="matrix(-1 0 0 1 262.925 0)"/>
    <path fill="#FFB069" d="M120.723292,446.311837 C123.474139,449.213737 128.056692,449.335828 130.958591,446.584652 C133.860161,443.833804 133.982582,439.251251 131.231405,436.349681 C128.480557,433.447782 123.898005,433.32569 120.996106,436.076538 C118.094536,438.827715 117.972444,443.409938 120.723292,446.311837" transform="matrix(-1 0 0 1 251.955 0)"/>
    <polygon fill="#FFB069" points="123.31 451.827 127.915 451.669 127.704 445.53 123.1 445.688" transform="matrix(-1 0 0 1 251.015 0)"/>
    <polygon fill="#EFEFEF" points="121.08 451.367 130.005 453.01 130.625 449.638 121.7 447.996" transform="matrix(-1 0 0 1 251.705 0)"/>
    <polygon fill="#000" points="125.595 435.409 131.963 435.596 131.846 436.643 131.553 436.226 124.863 436.044" transform="matrix(-1 0 0 1 256.826 0)"/>
    <path fill="#997239" d="M125.595621,431.835349 C125.594633,431.835349 125.593646,431.83502 125.59233,431.83502 L120.555965,431.700752 C119.497288,431.655338 118.601181,432.352346 118.5403,433.410365 L119.090864,434.556579 C119.090535,434.569742 118.925004,434.813926 118.938497,434.814255 C119.478859,434.828735 119.486099,435.56655 119.471619,436.107242 L119.369931,439.925981 C119.360059,440.291269 119.64834,440.595017 120.013299,440.604561 L120.546092,440.61904 C120.911051,440.628584 121.214799,440.340632 121.224672,439.975344 L121.241455,439.349418 C121.273706,438.137716 122.447234,437.213965 123.718502,437.666791 C124.477379,437.936972 124.952582,438.696178 124.931192,439.501457 L124.915725,440.07407 C124.906181,440.439029 125.194133,440.742778 125.559421,440.75265 L129.233361,440.850718 C129.246195,440.851048 129.257384,440.840846 129.258043,440.827682 L129.503542,435.503365 C129.542046,434.049783 128.43598,432.216762 125.595621,431.835349" transform="matrix(-1 0 0 1 248.045 0)"/>
    <path fill="#997239" d="M132.226465,431.739518 C132.226465,431.739518 129.150478,431.424581 127.656747,433.974685 C127.656747,433.974685 130.911758,434.373869 131.325751,436.051231" transform="matrix(-1 0 0 1 259.883 0)"/>
    <path fill="#682E15" d="M62.8072471,443.002527 L66.9461886,438.848448 C67.8492065,438.066205 69.2534256,438.707598 69.2534256,439.902517 L69.2537547,442.989035 C69.2537547,443.759101 68.6291454,444.383381 67.8590791,444.38371 L63.7201376,445.451272 C62.3893051,445.436463 61.8463097,443.962477 62.8072471,443.002527" transform="matrix(-1 0 0 1 131.574 0)"/>
    <path fill="#823C19" d="M64.3983596,438.736821 C67.6606103,441.048665 68.4313348,445.567703 66.1191615,448.829954 C63.8073173,452.092205 59.288608,452.862929 56.0260282,450.550756 C52.7637774,448.238912 51.9933821,443.720203 54.3052263,440.457623 C56.6170705,437.195372 61.1361089,436.424977 64.3983596,438.736821" transform="matrix(-1 0 0 1 120.425 0)"/>
    <path fill="#000" d="M61.9596842,431.541012 L54.9231216,432.740868 C53.875634,432.901792 53.1322239,433.759725 53.2776809,434.809516 L53.9970676,439.027768 L54.0444562,439.01954 C54.5644155,438.931016 55.0577186,439.280507 55.1465724,439.800467 L55.7965215,443.61394 C55.8557574,443.960799 56.1848455,444.194122 56.5320335,444.134887 L57.1046469,444.037147 C57.4515058,443.978241 57.6848293,443.648823 57.6255934,443.301964 L57.5163361,442.660901 C57.3116433,441.461374 58.292326,440.322729 59.6356638,440.531371 C60.4218553,440.653463 61.0286939,441.292223 61.1626327,442.07644 L61.2656373,442.681304 C61.3248732,443.028163 61.6539613,443.261487 62.0008202,443.202251 L65.6708112,442.576654 L64.1649039,433.126888 C63.9848926,432.085653 63.00421,431.380417 61.9596842,431.541012" transform="matrix(-1 0 0 1 118.93 0)"/>
    <polygon fill="#823C19" points="61.799 454.067 57.257 454.842 56.224 448.786 60.766 448.012" transform="matrix(-1 0 0 1 118.023 0)"/>
    <path fill="#CE3F00" d="M48.8001035,482.755552 L44.594028,460.317006 C44.0664997,457.224236 46.1654238,454.262442 49.2581942,453.735243 L57.0111817,452.542628 C60.103623,452.0151 63.0654163,454.114024 63.5929445,457.206794 L67.7720349,479.532463 L48.8001035,482.755552 Z" transform="matrix(-1 0 0 1 112.285 0)"/>
    <path fill="#682E15" d="M148.092808,440.23687 L153.900226,439.424681 C155.092513,439.346358 155.824734,440.705821 155.103044,441.658202 L153.239417,444.118465 C152.774416,444.732543 151.8997,444.853319 151.28595,444.388317 L147.342158,442.739915 C146.290063,441.924763 146.747167,440.421818 148.092808,440.23687" transform="matrix(-1 0 0 1 302.152 0)"/>
    <path fill="#CE8A41" d="M155.134652,444.529694 C156.339115,448.342509 154.224724,452.409709 150.411908,453.614172 C146.599093,454.818634 142.531893,452.704243 141.32743,448.891428 C140.122968,445.078613 142.237359,441.011412 146.050174,439.80695 C149.862989,438.602487 153.93019,440.716878 155.134652,444.529694" transform="matrix(-1 0 0 1 296.462 0)"/>
    <polygon fill="#CE8A41" points="150.152 458.108 145.857 456.443 148.077 450.715 152.372 452.38" transform="matrix(-1 0 0 1 298.229 0)"/>
    <path fill="#59AA66" d="M160.361736,482.188566 L167.139965,464.854506 C168.273673,461.929242 166.808244,458.608413 163.882979,457.474376 L157.179454,454.927892 C154.25419,453.793854 150.933032,455.259612 149.798994,458.184877 L142.991477,475.541315 L160.361736,482.188566 Z" transform="matrix(-1 0 0 1 310.515 0)"/>
    <polygon fill="#89CC91" points="151.803 457.436 146.28 455.295 146.875 453.761 152.398 455.901" transform="matrix(-1 0 0 1 298.678 0)"/>
    <path fill="#000" d="M154.948409,445.801915 C155.306786,445.089769 155.558209,444.660309 155.558209,444.660309 C155.354503,444.379267 153.818978,444.001803 153.818978,444.001803 C153.818978,444.001803 153.534646,444.624109 152.965323,444.918643 C152.051446,445.390555 150.415219,445.630131 149.282498,442.911205 C149.282498,442.911205 146.452998,446.921144 149.630015,451.151572 C150.5123,452.326417 151.563737,452.906599 152.46478,453.292949 C152.46478,453.292949 152.427923,450.808004 154.948409,445.801915" transform="matrix(-1 0 0 1 303.68 0)"/>
    <path fill="#000" d="M150.868189,447.363537 C150.868189,447.363537 151.082096,451.005556 150.281096,451.95333 C150.281096,451.95333 154.88109,452.630593 156.118132,448.757884" transform="matrix(-1 0 0 1 306.4 0)"/>
    <path fill="#000" d="M146.456314,438.534827 L144.009215,437.262572 C143.076908,436.758738 141.966235,436.993378 141.44858,437.918115 L140.619936,439.512547 L140.662388,439.534925 C141.130351,439.778122 141.312666,440.354684 141.06947,440.822647 L139.285154,444.255037 C139.122585,444.567341 139.244347,444.952045 139.556652,445.114286 L140.072004,445.382163 C140.384309,445.544404 140.526475,445.753375 140.818376,445.260072 L141.231382,444.533445 C141.792477,443.454036 143.261855,443.138441 144.206667,444.116161 C144.759535,444.688117 144.857604,445.56382 144.49067,446.269385 L144.207655,446.814026 C144.045085,447.126331 144.166848,447.511035 144.478823,447.673275 L147.78221,449.390457 L149.156482,446.971988 C149.641558,446.0331 151.961959,441.397235 146.456314,438.534827" transform="matrix(-1 0 0 1 289.268 0)"/>
    <path fill="#000" d="M145.351487,438.386112 C145.720066,439.604067 147.006142,440.292519 148.224098,439.92394 C149.442053,439.555362 150.130505,438.269285 149.761926,437.05133 C149.393348,435.833375 148.107271,435.144922 146.889316,435.513501 C145.671361,435.88208 144.982908,437.168156 145.351487,438.386112" transform="matrix(-1 0 0 1 295.113 0)"/>
    <polygon fill="#000" points="88.918 459.484 80.838 455 83.099 445.627 91.19 450.062" transform="matrix(-1 0 0 1 172.028 0)"/>
    <polygon fill="#FCD486" points="89.186 462.171 85.254 461.223 86.782 454.885 90.714 455.834" transform="matrix(-1 0 0 1 175.968 0)"/>
    <path fill="#D6A651" d="M88.3703242,446.553289 L92.6580136,444.748241 C93.5560951,444.44548 94.3942826,445.338954 94.0349184,446.215974 L93.1068898,448.481746 C92.8752118,449.047448 92.2292117,449.317959 91.6638383,449.086281 L88.3041775,448.625557 C87.331722,448.214526 87.3761489,446.969257 88.3703242,446.553289" transform="matrix(-1 0 0 1 181.72 0)"/>
    <path fill="#FCD486" d="M93.1243694,452.283734 C92.1298651,456.408854 87.9794054,458.946782 83.8542856,457.952277 C79.7291657,456.957444 77.191238,452.807313 78.1860714,448.682194 C79.1805758,444.557074 83.3307063,442.019146 87.4558262,443.01365 C91.580946,444.008155 94.1188738,448.158614 93.1243694,452.283734" transform="matrix(-1 0 0 1 171.31 0)"/>
    <path fill="#000" d="M85.9462839,457.012862 C89.5665826,454.799086 90.7065439,450.07009 88.493097,446.449791 C86.2793211,442.829493 81.5499954,441.689531 77.9300259,443.902978 L85.9462839,457.012862 Z" transform="matrix(-1 0 0 1 167.552 0)"/>
    <path fill="#0954D8" d="M81.5283369,477.797049 C81.5283369,477.797049 80.2234049,471.961987 80.1145931,467.863853 C80.1002829,467.323161 80.2209749,466.246714 80.2563455,465.707667 C80.4747792,462.389142 82.8813297,459.891363 85.6043256,460.157596 L90.260824,460.977354 C92.9838199,461.243587 95.0328844,464.176749 94.8144507,467.495603 C94.7790801,468.03432 94.7561297,469.120311 94.6726983,469.65146 C94.1486195,472.987097 91.0435672,479.180865 91.0435672,479.180865 L81.5283369,477.797049 Z" transform="matrix(-1 0 0 1 174.944 0)"/>
    <polygon fill="#000" points="88.19 467.709 77.956 467.663 78.035 445.418 88.247 450.413" transform="matrix(-1 0 0 1 166.203 0)"/>
    <path fill="#000" d="M87.4087347,443.903077 L86.756482,446.60884 C86.6143159,447.197907 86.9865146,447.792899 87.5877586,447.938027 L90.3050394,448.593241 C90.3050394,448.593241 88.1070597,445.019673 87.4087347,443.903077" transform="matrix(-1 0 0 1 177.031 0)"/>
    <path fill="#FCD486" d="M87.3176065,448.193991 L87.3176065,448.193991 C87.9408995,448.161741 88.4773132,448.6455 88.5095638,449.269122 L88.5556361,450.158318 C88.5878868,450.781611 88.1041272,451.318025 87.4805052,451.350276" transform="matrix(-1 0 0 1 175.875 0)"/>
    <path fill="#0954D8" d="M111.215123,478.900218 C112.247801,483.887549 109.059266,486.839799 109.059266,486.839799 L99.3333953,494.074802 L83.7086619,483.754864 L101.453038,475.262807 L111.215123,478.900218 Z" transform="matrix(-1 0 0 1 195.13 0)"/>
    <polygon fill="#59AA66" points="176.287 457.775 171.468 462.881 153.774 446.428 158.593 441.322" transform="matrix(-1 0 0 1 330.061 0)"/>
    <path fill="#3272CE" d="M113.126787,463.841684 C113.133698,465.471329 111.824585,466.550166 110.194941,466.569253 L89.5696707,466.831207 L89.5453182,461.149414 L110.125832,460.887789" transform="matrix(-1 0 0 1 202.672 0)"/>
    <path fill="#D1D1D1" d="M116.833054,476.531113 L136.32692,480.270212 L140.12328,459.639019 C140.690957,456.553488 138.630866,453.564381 135.545335,452.996704 L127.271401,451.321974 C124.185871,450.754297 121.197092,452.814389 120.629415,455.899919 L116.833054,476.531113 Z" transform="matrix(-1 0 0 1 257.05 0)"/>
    <path fill="#686868" d="M66.5616885,505.529102 L71.6297258,505.529102 L71.6297258,512.041016 L60.0497744,512.041016 L60.0497744,512.041016 L60.0497744,512.041016 C60.0497744,508.444585 62.9652576,505.529102 66.5616885,505.529102 Z" transform="matrix(-1 0 0 1 131.68 0)"/>
    <path fill="#202020" d="M152,506 L158,506 L158,512 L146,512 L146,512 L146,512 C146,508.686292 148.686292,506 152,506 Z" transform="matrix(-1 0 0 1 304 0)"/>
    <path fill="#464646" d="M172,506 L177.579951,506 L177.579951,512 L166,512 L166,512 L166,512 C166,508.686292 168.686292,506 172,506 Z" transform="matrix(-1 0 0 1 343.58 0)"/>
    <path fill="#464646" d="M43.5412109,505.529102 L47.9806055,505.529102 L47.9806055,511.984863 L37.0854492,511.984863 L37.0854492,511.984863 L37.0854492,511.984863 C37.0854492,508.419445 39.9757922,505.529102 43.5412109,505.529102 Z" transform="matrix(-1 0 0 1 85.066 0)"/>
    <path fill="#8B8B8B" d="M99.8285172,506.205174 L104.418118,506.205174 L104.418118,512.007324 L94.0263672,512.007324 L94.0263672,512.007324 L94.0263672,512.007324 C94.0263672,508.802885 96.6240782,506.205174 99.8285172,506.205174 Z" transform="matrix(-1 0 0 1 198.444 0)"/>
    <path fill="#B5B5B5" d="M112.781642,506.205174 L118.100476,506.205174 L118.100476,512.004395 L106.982422,512.004395 L106.982422,512.004395 L106.982422,512.004395 C106.982422,508.801574 109.578821,506.205174 112.781642,506.205174 Z" transform="matrix(-1 0 0 1 225.083 0)"/>
    <path fill="#163D6C" d="M121.440625,505.529102 L127.040619,505.529102 L127.040619,511.986816 L114.98291,511.986816 L114.98291,511.986816 L114.98291,511.986816 C114.98291,508.420319 117.874128,505.529102 121.440625,505.529102 Z" transform="matrix(-1 0 0 1 242.024 0)"/>
    <path fill="#163D6C" d="M146.485547,505.529102 L151.451249,505.529102 L151.451249,511.959961 L140.054687,511.959961 L140.054687,511.959961 L140.054687,511.959961 C140.054687,508.408295 142.933881,505.529102 146.485547,505.529102 Z" transform="matrix(-1 0 0 1 291.506 0)"/>
    <path fill="#CE8A41" d="M181.045961,440.668601 C181.045961,442.615816 179.467654,444.194122 177.520439,444.194122 C175.573225,444.194122 173.994918,442.615816 173.994918,440.668601 C173.994918,438.721387 175.573225,437.14308 177.520439,437.14308 C179.467654,437.14308 181.045961,438.721387 181.045961,440.668601"/>
    <path stroke="#979797" d="M45.5195313,477.046875 C39.1879313,499.806087 24.2059043,511.246191 0.573450356,511.367188"/>
  </g>
</svg>
