<?xml version="1.0" encoding="UTF-8"?>
<svg width="79px" height="26px" viewBox="0 0 79 26" version="1.1" xmlns="http://www.w3.org/2000/svg" xmlns:xlink="http://www.w3.org/1999/xlink">
    <!-- Generator: Sketch 46.2 (44496) - http://www.bohemiancoding.com/sketch -->
    <title>icon-angel-list-small</title>
    <desc>Created with Sketch.</desc>
    <defs></defs>
    <g id="Last" stroke="none" stroke-width="1" fill="none" fill-rule="evenodd">
        <g id="Mobile-Copy" transform="translate(-19.000000, -3676.000000)" fill="#231F20">
            <g id="Group-20" transform="translate(19.242188, 3676.386719)">
                <g id="icon-angel-list-small">
                    <path d="M13.2573765,10.8584107 C14.0183476,8.79070199 14.6120989,7.08409104 15.0381458,5.73809314 C15.4641927,4.39161054 15.6769738,3.56520564 15.6769738,3.25839373 C15.6769738,2.92928585 15.6062083,2.67336691 15.4641927,2.4916063 C15.3216923,2.31033039 15.1258756,2.21920774 14.8762577,2.21920774 C14.5582978,2.21920774 14.2345216,2.48336649 13.904929,3.011684 C13.5753364,3.53951681 13.2118152,4.38918707 12.8143653,5.55875601 L11.1101778,10.4837415 L13.2573765,10.8584107 Z M10.9909429,15.4421709 C10.5023704,15.4193903 10.0394867,15.3684973 9.60229183,15.2890073 C9.16509698,15.2095173 8.74728992,15.095614 8.34984006,14.9482668 C8.53111597,15.311788 8.69300409,15.6753092 8.83550441,16.0388304 C8.97752003,16.4023516 9.09384682,16.7600565 9.18496947,17.111945 C9.45736804,16.7712045 9.74430746,16.4619691 10.045303,16.1832695 C10.3462986,15.9050546 10.6613503,15.6578602 10.9909429,15.4421709 L10.9909429,15.4421709 Z M9.06573451,10.2792002 L7.22534775,4.96258121 C6.74792322,3.61076696 6.37907036,2.72765275 6.11781977,2.31275386 C5.85608449,1.89833967 5.57253794,1.69089023 5.26572603,1.69089023 C5.02725611,1.69089023 4.83386283,1.78201288 4.68603086,1.9632888 C4.5386836,2.14504941 4.46452527,2.38933567 4.46452527,2.69614758 C4.46452527,3.21864874 4.6632502,4.12745179 5.06118476,5.42255672 C5.45863463,6.71766165 6.05529412,8.41603279 6.85019386,10.5176701 C6.91853584,10.3926188 7.01499014,10.3044043 7.14004144,10.2535114 C7.26509274,10.2026184 7.43522067,10.1769296 7.65139462,10.1769296 C7.71925192,10.1769296 7.8554512,10.1827459 8.05999247,10.1938939 C8.26453375,10.2050419 8.59945796,10.2336389 9.06573451,10.2792002 L9.06573451,10.2792002 Z M7.39547568,18.5093206 C7.58886897,18.5093206 7.76432855,18.4215908 7.92379319,18.2451619 C8.08277314,18.0692176 8.16226311,17.8787325 8.16226311,17.6746759 C8.16226311,17.4589866 8.00619133,16.956358 7.69356308,16.1663052 C7.38093484,15.3767371 6.99220948,14.6017099 6.52641762,13.8402541 C6.18567707,13.2721916 5.85075285,12.8437212 5.52116028,12.5538737 C5.19156771,12.2640261 4.87942415,12.119587 4.58376023,12.119587 C4.34529031,12.119587 4.08113155,12.2703271 3.79176866,12.570838 C3.50192108,12.8718335 3.35699729,13.1529566 3.35699729,13.4142072 C3.35699729,13.6870905 3.49901291,14.096173 3.78304415,14.6414548 C4.0670754,15.1867367 4.44756094,15.7659471 4.92498548,16.379571 C5.42470598,17.0499041 5.89582948,17.5724053 6.33932537,17.9470745 C6.78233656,18.3217437 7.1342251,18.5093206 7.39547568,18.5093206 L7.39547568,18.5093206 Z M2.28339795,18.1002381 C2.44286259,18.2936314 2.66436819,18.5776626 2.94791474,18.9523318 C3.69773784,19.9861862 4.39085163,20.502871 5.02725611,20.502871 C5.24246068,20.502871 5.43585397,20.4350137 5.60646659,20.2988144 C5.77659452,20.1621304 5.86190083,20.0201148 5.86190083,19.8727675 C5.86190083,19.7021549 5.74848221,19.4186084 5.52116028,19.0206738 C5.29383834,18.6232239 4.98169479,18.1743964 4.58376023,17.6746759 C4.12960105,17.0949807 3.75153898,16.671842 3.45102811,16.4047751 C3.14954784,16.1381929 2.90816975,16.0044171 2.72640914,16.0044171 C2.32895928,16.0044171 1.96252989,16.2176828 1.62760567,16.6437297 C1.29219676,17.0692919 1.124977,17.5724053 1.124977,18.1516157 C1.124977,18.6174076 1.24130379,19.1374853 1.47395737,19.7108794 C1.70661095,20.2842736 2.04492803,20.8610606 2.48793922,21.440271 C3.15827235,22.3379261 3.9900089,23.027647 4.98460296,23.5104032 C5.97822762,23.9936441 7.07751579,24.2345375 8.28149807,24.2345375 C10.4970387,24.2345375 12.3514816,23.4081326 13.8453115,21.7553228 C15.3386567,20.1025129 16.0860563,18.0323808 16.0860563,15.5444416 C16.0860563,14.7834705 16.0288623,14.1785712 15.9154437,13.7297436 C15.8020251,13.2809161 15.6144481,12.9542317 15.3531975,12.7496904 C14.8874057,12.3638732 13.9815108,12.0173163 12.6355129,11.7105044 C11.2890303,11.4036925 9.88341491,11.2505289 8.41818205,11.2505289 C8.0090995,11.2505289 7.71925192,11.3183862 7.54912399,11.4545855 C7.37851136,11.5912695 7.29320505,11.823923 7.29320505,12.1535156 C7.29320505,12.9261194 7.72506826,13.4854574 8.58830998,13.8320143 C9.4515517,14.1785712 10.8489273,14.3516073 12.7804367,14.3516073 L13.4788821,14.3516073 C13.6378621,14.3516073 13.7658215,14.4112247 13.8622758,14.5304597 C13.9587301,14.6496947 14.0241639,14.8285471 14.0580926,15.0675017 C13.8646993,15.2492623 13.4677341,15.4567118 12.8652583,15.6893653 C12.2632672,15.9220189 11.8028069,16.152249 11.4853317,16.379571 C10.8038506,16.8792915 10.2556606,17.4730428 9.84076175,18.1598555 C9.42586287,18.8476377 9.21889812,19.4976136 9.21889812,20.1112375 C9.21889812,20.4859067 9.30662791,20.9376424 9.48305687,21.4659599 C9.65900114,21.9942774 9.74721563,22.3204771 9.74721563,22.4455284 L9.74721563,22.5647633 L9.71328698,22.7184116 C9.21308178,22.6839983 8.81854008,22.3917272 8.5286925,21.8406291 C8.23884491,21.2900156 8.09440582,20.5542486 8.09440582,19.6338129 L8.09440582,19.4806493 C8.00328316,19.5601393 7.91555338,19.6168486 7.83024706,19.6512619 C7.74494075,19.6851906 7.65139462,19.7021549 7.54912399,19.7021549 C7.44685335,19.7021549 7.34991436,19.6939151 7.2592764,19.6764661 C7.16815375,19.6595018 7.06588311,19.6338129 6.95246449,19.5998843 C6.98639314,19.7249356 7.01208197,19.8470787 7.0290463,19.9663137 C7.04649531,20.0855486 7.05473513,20.1790947 7.05473513,20.2474367 C7.05473513,20.6676673 6.88993884,21.028765 6.56083096,21.3297606 C6.2307537,21.6307562 5.83912017,21.7810116 5.38496099,21.7810116 C4.66906654,21.7810116 3.9420241,21.4315465 3.20383368,20.7331011 C2.46515856,20.0346557 2.0963057,19.3502664 2.0963057,18.6799332 C2.0963057,18.5548819 2.11036185,18.4438868 2.13895885,18.3474325 C2.16707116,18.2509782 2.21554066,18.1685801 2.28339795,18.1002381 L2.28339795,18.1002381 Z M14.4841395,11.1482583 C15.5068458,11.3416516 16.2280719,11.7730301 16.6483025,12.4433632 C17.068533,13.1136963 17.2788906,14.1703313 17.2788906,15.6127835 C17.2788906,18.475392 16.4180723,20.8184074 14.6974052,22.6418298 C12.9762534,24.4647676 10.7752536,25.3764788 8.09440582,25.3764788 C7.0377708,25.3764788 6.01264097,25.1859937 5.01853161,24.8055081 C4.02442224,24.4250226 3.16990503,23.8937969 2.45401058,23.2123158 C1.63584549,22.4624927 1.02270636,21.6705011 0.613623818,20.8353717 C0.204541273,20.0002423 0,19.1457251 0,18.2708507 C0,17.2937057 0.210357612,16.5385509 0.630588142,16.0044171 C1.05081867,15.4707679 1.71533546,15.1072467 2.6246232,14.9138534 C2.45401058,14.5164035 2.32895928,14.1809946 2.2494693,13.9085961 C2.16997933,13.6357128 2.13023434,13.4258399 2.13023434,13.2780079 C2.13023434,12.7671394 2.40020944,12.2446383 2.93967493,11.7105044 C3.47914042,11.1763706 3.98758543,10.9093037 4.46452527,10.9093037 C4.66906654,10.9093037 4.8847558,10.9466252 5.11207773,11.0202988 C5.33939967,11.0944571 5.60065025,11.2161156 5.89582948,11.3867282 C5.02095508,8.90993695 4.38503529,6.99878473 3.98758543,5.65278683 C3.58965087,4.30630423 3.39141063,3.37762869 3.39141063,2.8667602 C3.39141063,2.16249843 3.57268654,1.60316044 3.93669246,1.18826156 C4.30021368,0.773362675 4.79411784,0.566397928 5.41888964,0.566397928 C6.48667264,0.566397928 7.83848688,2.95206652 9.47433236,7.722919 C9.75836361,8.54108409 9.97453756,9.17167223 10.1218848,9.61468342 C10.2469361,9.26279488 10.4228804,8.76258968 10.6502023,8.11503722 C12.2860478,3.38926137 13.6945714,1.02637344 14.8762577,1.02637344 C15.4554682,1.02637344 15.9183518,1.22219021 16.2649087,1.61430843 C16.6114656,2.00594196 16.7845017,2.53183599 16.7845017,3.19053644 C16.7845017,3.69025694 16.5945013,4.60487633 16.2140158,5.9339099 C15.8330455,7.26294348 15.2567432,9.0010596 14.4841395,11.1482583 L14.4841395,11.1482583 Z" id="Fill-15"></path>
                    <g id="Group-3" transform="translate(23.415022, 9.655896)">
                        <path d="M3.37002217,0.179655218 L0.00710476433,9.41721816 L1.97503421,9.41721816 L2.67252819,7.3601138 L5.99807985,7.3601138 L6.67066333,9.41721816 L8.70086903,9.41721816 L5.37531737,0.179655218 L3.37002217,0.179655218 Z M4.34153165,2.45688124 L4.36644215,2.45688124 L5.48741461,5.84639551 L3.18319343,5.84639551 L4.34153165,2.45688124 Z" id="Fill-1"></path>
                        <path d="M10.9539891,2.72844848 L10.9539891,3.65996743 L10.9913548,3.65996743 C11.2155493,3.27183453 11.5061718,2.98953973 11.8632223,2.81254394 C12.2200998,2.63590753 12.5856268,2.54731979 12.9592843,2.54731979 C13.4325838,2.54731979 13.8205994,2.6141649 14.1238501,2.74785512 C14.4269279,2.88172504 14.6656535,3.06698662 14.840027,3.30417894 C15.0144005,3.54155096 15.1368771,3.83031465 15.2074569,4.17100908 C15.2778636,4.5118832 15.3133265,4.88905494 15.3133265,5.30306336 L15.3133265,9.41727206 L13.544681,9.41727206 L13.544681,5.6394452 C13.544681,5.08761366 13.461646,4.67558184 13.295576,4.40388882 C13.129333,4.13219579 12.8347318,3.99634927 12.4112533,3.99634927 C11.9296503,3.99634927 11.5809033,4.14513355 11.3650123,4.44270211 C11.1491213,4.74027066 11.0411758,5.22992906 11.0411758,5.91113823 L11.0411758,9.41727206 L9.27253039,9.41727206 L9.27253039,2.72844848 L10.9539891,2.72844848 Z" id="Fill-2"></path>
                        <path d="M20.1545436,7.68362976 C20.3455241,7.58012766 20.5032906,7.44230454 20.6278431,7.26962134 C20.7523956,7.09711783 20.84581,6.90089509 20.9080862,6.68095311 C20.9703625,6.46101114 21.0015006,6.23028769 21.0015006,5.98878278 C21.0015006,5.71277716 20.9765901,5.45186561 20.9267691,5.2060481 C20.8769481,4.9602306 20.7937401,4.74244492 20.6776641,4.55269106 C20.5612421,4.36311689 20.4076274,4.21199663 20.2168199,4.09986935 C20.0256664,3.98792176 19.7848649,3.93167843 19.4944154,3.93167843 C19.2453104,3.93167843 19.0313223,3.98342948 18.85297,4.08693159 C18.6742718,4.19043369 18.5248088,4.33077248 18.404581,4.50740889 C18.2840073,4.68422499 18.1969936,4.8870963 18.1430208,5.11548376 C18.0888751,5.34405091 18.0620617,5.58339953 18.0620617,5.83352962 C18.0620617,6.07503453 18.0848963,6.31438315 18.1305656,6.55157548 C18.1760618,6.7889475 18.2551181,7.00242059 18.3672153,7.19199476 C18.4793125,7.38174862 18.6265267,7.53700178 18.8093767,7.65775423 C18.9918807,7.77868638 19.2203999,7.83888292 19.4944154,7.83888292 C19.7435204,7.83888292 19.9633901,7.78713187 20.1545436,7.68362976 M22.5770897,9.90892503 C22.5065099,10.2539321 22.3547981,10.5752198 22.1224731,10.8727884 C21.8898021,11.1701773 21.5535103,11.4226433 21.1135978,11.6296475 C20.6733394,11.8366518 20.0837909,11.9403336 19.3449524,11.9403336 C19.0292464,11.9403336 18.7074858,11.8991843 18.3796705,11.8172451 C18.0515093,11.7353059 17.7525833,11.6079049 17.4828926,11.4355811 C17.2130288,11.2628979 16.9888343,11.041159 16.8103091,10.7692863 C16.6316109,10.4975933 16.530066,10.1719929 16.5051555,9.79230547 L18.2613457,9.79230547 C18.3442077,10.1373125 18.5061259,10.3766611 18.7471004,10.510531 C18.9877289,10.6442212 19.2658962,10.711246 19.5816021,10.711246 C20.0798121,10.711246 20.4429173,10.5556335 20.6714365,10.2453069 C20.8997827,9.93480056 21.0096311,9.54217539 21.0015006,9.06797043 L21.0015006,8.18820253 L20.9765901,8.18820253 C20.7854366,8.54201441 20.51367,8.80274628 20.1607712,8.9709372 C19.8076995,9.13930781 19.4362909,9.22304389 19.0460264,9.22304389 C18.5644234,9.22304389 18.1492484,9.13481554 17.8005014,8.95799944 C17.4517544,8.78118334 17.1652837,8.53967843 16.9410892,8.2334847 C16.7168947,7.92747066 16.5529006,7.56934619 16.4491069,7.15965035 C16.3451401,6.75013421 16.2934162,6.31671914 16.2934162,5.85940515 C16.2934162,5.42814637 16.3534436,5.01198166 16.4740173,4.610911 C16.5942451,4.20984034 16.7706945,3.85620814 17.0033655,3.55001441 C17.2356905,3.24400037 17.5242371,3.00015948 17.8690053,2.81903079 C18.2134276,2.63790211 18.6100927,2.54733776 19.0584817,2.54733776 C19.4819601,2.54733776 19.8533688,2.62945662 20.1732265,2.79315526 C20.4927383,2.9570336 20.7605261,3.23303921 20.9765901,3.62117211 L21.0015006,3.62117211 L21.0015006,2.72846645 L22.6829593,2.72846645 L22.6829593,8.99052354 C22.6829593,9.25790398 22.6474964,9.56391802 22.5770897,9.90892503" id="Fill-4"></path>
                        <path d="M27.8430308,4.29389986 C27.6311186,4.05257464 27.309358,3.93164249 26.877749,3.93164249 C26.595257,3.93164249 26.3608561,3.98141694 26.1740274,4.08042677 C25.9870257,4.17979598 25.8377357,4.30252504 25.7256384,4.44915302 C25.6133682,4.59596069 25.5344849,4.75121385 25.4889887,4.91491249 C25.4431464,5.07897052 25.41616,5.22541881 25.4080295,5.35479644 L28.2851922,5.35479644 C28.2021572,4.88903697 28.0547701,4.53558446 27.8430308,4.29389986 M25.8437903,7.81297146 C26.1095023,8.08053159 26.4916363,8.21404211 26.9898462,8.21404211 C27.3467237,8.21404211 27.6539532,8.12150117 27.9115347,7.93588021 C28.1687702,7.75061862 28.3265367,7.55421619 28.3848342,7.34721198 L29.9417404,7.34721198 C29.6924624,8.1493533 29.3105014,8.72292747 28.7958574,9.06793449 C28.2808675,9.41294151 27.658278,9.58544502 26.92757,9.58544502 C26.4208835,9.58544502 25.964191,9.50134956 25.5574925,9.33333832 C25.150621,9.16496771 24.8058528,8.92561909 24.5237068,8.61529247 C24.2412148,8.30460646 24.023248,7.9339036 23.8698062,7.50246514 C23.7160185,7.07120636 23.6393841,6.59682171 23.6393841,6.07931118 C23.6393841,5.5792307 23.7180943,5.11347122 23.8760338,4.68203276 C24.0336273,4.25095367 24.2578218,3.87791483 24.5486173,3.56291624 C24.8390668,3.24827702 25.1857379,3.00012354 25.5886307,2.81899485 C25.9911774,2.63786617 26.4374905,2.54730182 26.92757,2.54730182 C27.475601,2.54730182 27.9528792,2.65727281 28.3599237,2.87721479 C28.7666222,3.09715676 29.1008381,3.39274871 29.3623983,3.76345157 C29.6241315,4.1345138 29.8128632,4.5571474 29.9294582,5.03135236 C30.0453612,5.50591671 30.0868787,6.0016846 30.0536647,6.51919513 L25.4080295,6.51919513 C25.43294,7.11433224 25.5780783,7.54577071 25.8437903,7.81297146" id="Fill-7"></path>
                        <polygon id="Fill-9" points="30.9951086 9.41720019 32.763754 9.41720019 32.763754 0.179637248 30.9951086 0.179637248"></polygon>
                        <polygon id="Fill-11" points="36.1293009 0.179691156 36.1293009 7.70946935 40.4635548 7.70946935 40.4635548 9.41725409 34.1736537 9.41725409 34.1736537 0.179691156"></polygon>
                        <path d="M41.195612,9.41720019 L42.9644305,9.41720019 L42.9644305,2.7283766 L41.195612,2.7283766 L41.195612,9.41720019 Z M41.195612,1.69335555 L42.9644305,1.69335555 L42.9644305,0.179637248 L41.195612,0.179637248 L41.195612,1.69335555 Z" id="Fill-12"></path>
                        <path d="M45.7231299,7.75478746 C45.8018402,7.89710285 45.903904,8.01354272 46.0282835,8.10410707 C46.152836,8.19467141 46.2962444,8.26151652 46.4579896,8.3046424 C46.6199079,8.34794796 46.7880537,8.36933121 46.9624272,8.36933121 C47.0871527,8.36933121 47.2179328,8.35441685 47.3547676,8.32404904 C47.4919483,8.29386093 47.6161549,8.24642246 47.7284251,8.18173365 C47.8405223,8.11704483 47.9341097,8.03097277 48.0088412,7.92297838 C48.0835727,7.81534338 48.1205925,7.67949686 48.1205925,7.51543884 C48.1205925,7.23943322 47.9443161,7.03242901 47.5915903,6.8944262 C47.2385186,6.75660309 46.7465362,6.61842059 46.1152973,6.48041778 C45.8578888,6.42022124 45.6068809,6.34906355 45.3619277,6.26694469 C45.1169744,6.18500552 44.8990075,6.07737052 44.7082,5.94350061 C44.5168736,5.80981039 44.3636048,5.64161947 44.2473558,5.43892784 C44.1307608,5.23641591 44.0729823,4.98826242 44.0729823,4.69500646 C44.0729823,4.26374768 44.1537684,3.91011549 44.3158597,3.63410987 C44.4777779,3.35810426 44.6912471,3.14049827 44.957132,2.98075283 C45.222671,2.82118708 45.52177,2.7090598 45.85391,2.64437099 C46.18605,2.57968217 46.5266665,2.54733776 46.8752405,2.54733776 C47.2239875,2.54733776 47.5621821,2.58183847 47.8901703,2.65083987 C48.2183316,2.71984127 48.510857,2.83646083 48.7682655,3.00015948 C49.0258469,3.16403781 49.2396621,3.38182349 49.4098838,3.65351652 C49.5799326,3.92520955 49.6819964,4.26806027 49.7150374,4.68206869 L48.0334057,4.68206869 C48.0088412,4.3284365 47.879791,4.08908788 47.647639,3.96402284 C47.414795,3.83895779 47.1407795,3.77642527 46.8255925,3.77642527 C46.7259505,3.77642527 46.617832,3.78289415 46.501583,3.79583191 C46.385334,3.80876968 46.2792914,3.8368015 46.1839741,3.87992737 C46.0883109,3.92323294 46.0076978,3.98558577 45.9410968,4.06752494 C45.8744958,4.1496438 45.8414548,4.25961479 45.8414548,4.3974379 C45.8414548,4.56149593 45.8995793,4.69500646 46.0156553,4.79850856 C46.1319043,4.90201067 46.2836161,4.98610613 46.4704449,5.05079495 C46.6572736,5.11548376 46.8709158,5.1737037 47.1117172,5.22545475 C47.3526917,5.2772058 47.597645,5.33344913 47.846577,5.39364567 C48.1041585,5.4540219 48.3555123,5.52733589 48.6004656,5.61358765 C48.8450728,5.6998394 49.0630397,5.81412298 49.2541932,5.95643837 C49.4451737,6.09875377 49.5987884,6.27574956 49.7150374,6.48688666 C49.8312864,6.69838315 49.8894109,6.95911502 49.8894109,7.26962134 C49.8894109,7.70950529 49.8043,8.07823154 49.6339053,8.37580009 C49.4636836,8.67336865 49.2417379,8.91271727 48.9677224,9.09402564 C48.6937069,9.27497464 48.3800768,9.40237567 48.0273511,9.47550997 C47.6742794,9.54882396 47.315153,9.58548095 46.949972,9.58548095 C46.5763145,9.58548095 46.2109605,9.54666766 45.85391,9.46922078 C45.4966865,9.39141451 45.1790777,9.26203687 44.9010834,9.08090819 C44.6227432,8.89995919 44.3945699,8.66061058 44.2162177,8.36286233 C44.0375194,8.06529378 43.9397803,7.69225494 43.9233463,7.24374581 L45.604805,7.24374581 C45.604805,7.44230454 45.6440737,7.61247206 45.7231299,7.75478746" id="Fill-13"></path>
                        <path d="M54.3719342,2.72844848 L54.3719342,3.95753598 L53.0765882,3.95753598 L53.0765882,7.26960337 C53.0765882,7.58010969 53.1265822,7.7871139 53.2262242,7.890616 C53.3258662,7.99411811 53.5251502,8.04586916 53.8239032,8.04586916 C53.9235452,8.04586916 54.0188624,8.04155657 54.1103739,8.0329314 C54.2017124,8.02448591 54.2888992,8.01154815 54.3719342,7.99411811 L54.3719342,9.41727206 C54.2226442,9.44314759 54.0564012,9.46039794 53.8738972,9.46920281 C53.6910472,9.47764829 53.5126949,9.48196088 53.3383214,9.48196088 C53.0643059,9.48196088 52.8044756,9.46255423 52.5598683,9.42392064 C52.3145691,9.38492766 52.0990241,9.30945737 51.9121954,9.19733009 C51.7253666,9.0853825 51.5778065,8.92563706 51.470034,8.71863285 C51.3619155,8.51162864 51.3081157,8.23993561 51.3081157,7.90355377 L51.3081157,3.95753598 L50.2367913,3.95753598 L50.2367913,2.72844848 L51.3081157,2.72844848 L51.3081157,0.72309518 L53.0765882,0.72309518 L53.0765882,2.72844848 L54.3719342,2.72844848 Z" id="Fill-14"></path>
                    </g>
                </g>
            </g>
        </g>
    </g>
</svg>