<svg xmlns="http://www.w3.org/2000/svg" width="722" height="376" viewBox="0 0 722 376">
  <g fill="none" fill-rule="evenodd" transform="translate(-1)">
    <path fill="#FAFAFA" fill-rule="nonzero" d="M455.53582,207.531067 C460.057299,207.531067 463.722392,211.621428 463.722392,216.536049 C463.722392,221.450671 460.057299,225.401119 455.53582,225.401119 L442.4417,225.401119 L415.430042,225.401119 C412.266766,225.401119 409.701273,222.642238 409.701273,219.206367 C409.701273,215.764942 412.266766,212.871701 415.430042,212.865355 C416.356755,212.865355 417.214605,213.126357 417.986011,213.549197 C418.491491,209.162134 421.897251,205.750855 426.07222,205.750855 C427.478771,205.750855 428.779099,206.171315 429.935842,206.849605 C431.595866,201.056777 436.567881,196.852178 442.4417,196.852178 C448.556539,196.852178 453.677267,201.413772 455.118983,207.573906 C455.258905,207.568353 455.392967,207.531067 455.53582,207.531067 Z"/>
    <g fill-rule="nonzero" transform="translate(1 10)">
      <polygon fill="#00BDFF" points="360.197 111.919 360.197 36.647 277.219 111.919"/>
      <polygon fill="#F83A5C" points="0 35 0 0 20 17.5" transform="translate(360)"/>
      <polygon fill="#0A9DFF" points="360 37 360 112.272 443 112.272"/>
      <polygon fill="#1599FF" points="361 36 0 366 361 366 361 111.794 278.087 111.794"/>
      <polygon fill="#1560FA" points="443.027 112 360 112 360 366 721.5 366"/>
    </g>
    <path fill="#FAFAFA" fill-rule="nonzero" d="M616.380706,103.06272 C621.732197,103.06272 626.57601,105.403809 630.09239,109.190328 C632.428585,106.349447 635.828485,104.559716 639.62178,104.559716 C646.665528,104.559716 652.373785,110.73175 652.373785,118.349215 C652.373785,121.227382 651.555494,123.897699 650.165059,126.107891 C652.244118,128.079292 653.557633,130.972533 653.557633,134.202141 C653.557633,134.486943 653.57668,134.429395 653.557633,134.713403 L584.3648,134.713403 C584.330369,134.319123 584.283484,134.26164 584.283484,133.858633 C584.277623,126.064258 590.118477,119.748633 597.326323,119.748633 C599.209784,110.222439 607.023473,103.06272 616.380706,103.06272 Z"/>
    <g fill-rule="nonzero" transform="translate(155.367 292.78)">
      <polygon fill="#358847" points="248.673 .22 248.673 83.22 274.903 83.22"/>
      <path fill="#358847" d="M20.6656381,64.1279846 C20.6656381,70.2729413 16.0390212,75.2553026 10.3322,75.2553026 C4.62537887,75.2553026 0,70.2729413 0,64.1279846 C0,57.9830279 4.62537887,53 10.3322,53 C16.0390212,53 20.6656381,57.9830279 20.6656381,64.1279846 Z"/>
      <polygon fill="#358847" points="42.017 42.22 42.017 83.22 55.017 83.22"/>
      <polygon fill="#358847" points="286.825 41.126 286.825 83.126 299.542 83.126"/>
      <polygon fill="#358847" points="345.643 34.973 345.643 82.973 367.898 82.973"/>
      <polygon fill="#358847" points="114.347 35.22 114.347 83.22 136.602 83.22"/>
      <polygon fill="#358847" points="461.633 36.22 461.633 83.22 483.633 83.22"/>
      <path fill="#358847" d="M426.126433,63.9075795 C426.126433,70.1868974 421.425581,75.2781995 415.625788,75.2781995 C409.827253,75.2781995 405.125772,70.1868974 405.125772,63.9075795 C405.125772,57.6282615 409.827253,52.5362783 415.625788,52.5362783 C421.425581,52.5362783 426.126433,57.6282615 426.126433,63.9075795 Z"/>
      <path fill="#4CA440" d="M439.633,83.2199612 L461.633,36.2199612 L461.633,83.2199612 L439.633,83.2199612 Z M404.868276,64.5431018 C404.868276,58.2678608 409.566279,53.1805452 415.360526,53.1805452 L415.360526,75.9070199 C409.566279,75.9070199 404.868276,70.8190235 404.868276,64.5431018 Z M323.633,83.2199612 L345.633,37.2199612 L345.633,83.2199612 L323.633,83.2199612 Z M91.6329996,83.2199612 L114.633,35.2199612 L114.633,83.2199612 L91.6329996,83.2199612 Z M274.107865,83.1261086 L286.82518,43.1261086 L286.82518,83.1261086 L274.107865,83.1261086 Z M29.6329996,83.2199612 L42.6329996,43.2199612 L42.6329996,83.2199612 L29.6329996,83.2199612 Z M0.0436460656,64.1269846 C0.0436460656,57.9818438 4.66930206,53 10.3764652,53 L10.3764652,75.2553026 C4.66930206,75.2553026 0.0436460656,70.2727921 0.0436460656,64.1269846 Z M222.443769,83 L248.674395,1 L248.674395,83 L222.443769,83 Z"/>
    </g>
    <path fill="#FAFAFA" fill-rule="nonzero" d="M254.56798 188.353096C255.359165 185.480482 255.794317 182.432544 255.794317 179.290201 255.794317 161.69911 242.519983 147.437585 226.147572 147.437585 209.777358 147.437585 196.494233 161.693557 196.494233 179.283062 196.140397 179.297341 195.782166 179.283062 195.426133 179.283062 184.879923 179.283062 175.830373 186.142112 171.924994 195.930895 168.14049 196.161751 164.986737 198.57221 163.859297 202.294471L275.982001 202.294471C275.982001 193.495752 269.341903 186.671256 261.160459 186.671256 258.78617 186.671256 256.552537 187.284493 254.56798 188.353096zM293.628064 21.474723C294.042829 19.9688059 294.27095 18.3709785 294.27095 16.7236608 294.27095 7.50184243 287.312115.0254904672 278.729168.0254904672 270.147374.0254904672 263.183931 7.49893124 263.183931 16.7199178 262.998438 16.7274037 262.810642 16.7199178 262.623998 16.7199178 257.095334 16.7199178 252.351268 20.3156534 250.303942 25.4472497 248.319983 25.5682721 246.666683 27.1798347 246.075643 29.1311638L304.853986 29.1311638C304.853986 24.5185911 301.373032 20.5930483 297.084055 20.5930483 295.839376 20.5930483 294.668433 20.9145268 293.628064 21.474723z"/>
    <polygon fill="#358847" fill-rule="nonzero" points="163.859 375.335 166.636 375.335 166.636 367.004 163.859 367.004"/>
    <polygon fill="#4CA440" fill-rule="nonzero" points="569.296 375.335 572.072 375.335 572.072 367.93 569.296 367.93"/>
  </g>
</svg>
