<?xml version="1.0" encoding="UTF-8"?>
<svg width="279px" height="126px" viewBox="0 0 279 126" version="1.1" xmlns="http://www.w3.org/2000/svg" xmlns:xlink="http://www.w3.org/1999/xlink">
    <defs>
        <polygon id="path-1" points="0 127.608241 65.9521635 127.608241 65.9521635 0 0 0"></polygon>
        <polygon id="path-3" points="0.000170783114 0.000426957785 36.7060647 0.000426957785 36.7060647 39.1582625 0.000170783114 39.1582625 0.000170783114 0.000426957785"></polygon>
    </defs>
    <g id="Last" stroke="none" stroke-width="1" fill="none" fill-rule="evenodd">
        <g id="Desktop-HD-Copy-24" transform="translate(-625.000000, -418.000000)">
            <g id="header_people" transform="translate(623.750977, 416.859375)">
                <g id="Group-15" transform="translate(42.133679, 0.673171)">
                    <g id="Page-1" transform="translate(204.974508, 64.584686) scale(-1, 1) translate(-204.974508, -64.584686) translate(171.974508, 0.584686)">
                        <path d="M32.7560845,4.24074579 C35.8407457,3.71387444 37.8868259,6.69695179 36.1424648,9.21835338 L28.6229873,15.5749235 C27.5972938,17.0228721 25.5921503,17.36477 24.1442017,16.3383184 L18.3433103,12.2272057 C16.0978528,10.6359785 16.7626962,7.14194961 19.4357155,6.48620325 L32.7560845,4.24074579 Z" id="Fill-1" fill="#E29E66"></path>
                        <path d="M22.7759282,8.02625958 L22.731201,7.98153237 C22.1414083,7.39173969 22.1414083,6.42669332 22.731201,5.83765874 L25.2594254,3.30943435 C25.8492181,2.71964167 26.8135064,2.71964167 27.403299,3.30943435 L27.4480262,3.35416156 C29.0453182,4.95069546 29.6123683,6.9967757 28.0158344,8.59406769 L28.0158344,8.59406769 C26.4185424,10.1906016 24.3732202,9.62355156 22.7759282,8.02625958 Z" id="Stroke-3" stroke="#000000" stroke-width="2"></path>
                        <path d="M40.4288475,22.6050551 C40.4288475,31.8158276 32.9616781,39.2829971 23.7509056,39.2829971 C14.540133,39.2829971 7.07296357,31.8158276 7.07296357,22.6050551 C7.07296357,13.3942826 14.540133,5.92711315 23.7509056,5.92711315 C32.9616781,5.92711315 40.4288475,13.3942826 40.4288475,22.6050551" id="Fill-5" fill="#FFB069"></path>
                        <mask id="mask-2" fill="white">
                            <use xlink:href="#path-1"></use>
                        </mask>
                        <g id="Clip-8"></g>
                        <polygon id="Fill-7" fill="#FFB069" mask="url(#mask-2)" points="17.8591644 46.8827688 27.8591644 46.8827688 27.8591644 32.8827688 17.8591644 32.8827688"></polygon>
                        <path d="M48.8591644,126.882769 L0.859164422,126.882769 L0.859164422,60.9203073 C0.859164422,53.7494355 6.6747254,48.8827688 13.7831303,48.8827688 L35.9359441,48.8827688 C43.0436034,48.8827688 48.8591644,53.7494355 48.8591644,60.9203073 L48.8591644,126.882769 Z" id="Fill-9" fill="#303030" mask="url(#mask-2)"></path>
                        <polygon id="Fill-10" fill="#AFAFAF" mask="url(#mask-2)" points="12.8591644 48.8827688 32.8591644 48.8827688 32.8591644 41.8827688 12.8591644 41.8827688"></polygon>
                        <polygon id="Fill-11" fill="#000000" mask="url(#mask-2)" points="23.1469366 4.37894528 12.7990317 14.785223 14.6548318 16.3491591 14.4835039 15.1870098 25.3779904 4.27963572"></polygon>
                        <path d="M2.80341043,12.3231797 C2.80492661,12.3216635 2.80644278,12.3193893 2.80795896,12.3178731 L11.0150226,4.11080946 C12.7131403,2.35735129 15.3156574,2.10187554 17.0941324,3.77421827 L17.9901928,6.56322502 C18.0121773,6.58445149 18.6755046,6.73076253 18.65352,6.75274709 C17.7733795,7.63288757 18.9302222,8.8784266 19.8111208,9.75856709 L26.0342674,15.9817137 C26.6286086,16.576813 26.6286086,17.5411013 26.0342674,18.1362006 L25.1662564,19.0034536 C24.5711571,19.5985529 23.6068688,19.5985529 23.0117695,19.0034536 L21.9913827,17.9830667 C20.0173208,16.009763 16.5915199,16.3251277 15.18375,19.0966984 C14.3430301,20.7516051 14.7516397,22.7734265 16.0638905,24.0856773 L16.9970971,25.018884 C17.5921964,25.6132252 17.5921964,26.5782716 16.9970971,27.1726128 L11.0104741,33.1592359 C10.9892476,33.1812204 10.9543755,33.1812204 10.932391,33.1599939 L2.08398466,24.6489369 C-0.284283102,22.2799111 -1.34030006,17.4622601 2.80341043,12.3231797" id="Fill-12" fill="#997239" mask="url(#mask-2)"></path>
                        <path d="M11.3572236,3.90953703 C11.3572236,3.90953703 16.0005143,-1.49184191 22.5390256,0.403378769 C22.5390256,0.403378769 17.7297136,6.22928714 19.6961946,9.6899601" id="Fill-13" fill="#997239" mask="url(#mask-2)"></path>
                        <path d="M29.6952962,126.974707 L65.7124436,126.974707 L65.7124436,118.881131 C65.7124436,117.650228 64.6678428,116.651981 63.3797808,116.651981 L29.6952962,116.651981 L29.6952962,126.974707 Z" id="Fill-14" fill="#AFAFAF" mask="url(#mask-2)"></path>
                        <path d="M24.349542,126.939244 L31.0252673,126.939244 L31.0252673,118.849323 C31.0252673,117.64093 30.0458173,116.66148 28.8381827,116.66148 L26.5373848,116.66148 C25.3289921,116.66148 24.349542,117.64093 24.349542,118.849323 L24.349542,126.939244 Z" id="Fill-15" fill="#777777" mask="url(#mask-2)"></path>
                        <path d="M53.0833118,109.211106 C53.0833118,110.555197 51.993939,111.645328 50.6490904,111.645328 C49.3049999,111.645328 48.215627,110.555197 48.215627,109.211106 C48.215627,107.867016 49.3049999,106.776885 50.6490904,106.776885 C51.993939,106.776885 53.0833118,107.867016 53.0833118,109.211106" id="Fill-16" fill="#E5AC51" mask="url(#mask-2)"></path>
                        <path d="M38.7674014,116.63542 L38.7674014,110.713683 C38.7674014,109.879786 39.4496808,109.197506 40.2835779,109.197506 L51.2084338,109.197506 C52.0423309,109.197506 52.7246103,109.879786 52.7246103,110.713683 L52.7246103,116.63542" id="Stroke-17" stroke="#777777" stroke-width="3" mask="url(#mask-2)"></path>
                        <path d="M39.2776905,112.421079 C40.115378,113.68178 49.7120175,113.886464 50.6437079,112.552987 C52.2099183,110.309803 52.2455485,107.244853 50.7316462,104.966797 C48.0222387,100.88904 42.1690392,100.821571 39.3656287,104.83489 C37.7994184,107.078073 37.7637882,110.143024 39.2776905,112.421079" id="Fill-18" fill="#FFB069" mask="url(#mask-2)"></path>
                        <path d="M47.14695,115.169225 L47.14695,115.169225 C46.1500639,115.195758 45.3123764,114.40204 45.2858433,113.404396 L45.0144477,105.301948 C44.9992859,104.733382 45.4518646,104.255786 46.0211889,104.240625 L47.5790603,104.19893 C48.1476265,104.183768 48.6252221,104.637105 48.6403839,105.205671 L48.9117795,113.308118 C48.9383126,114.305004 48.1438361,115.142692 47.14695,115.169225" id="Fill-19" fill="#FFB069" mask="url(#mask-2)"></path>
                        <path d="M41.8222896,115.13966 L41.8222896,115.13966 C40.8254035,115.166193 39.987716,114.372474 39.9611829,113.37483 L39.6897873,105.272383 C39.6746255,104.703816 40.1272042,104.226221 40.6965285,104.211059 L42.2543999,104.169364 C42.8229661,104.154202 43.3005617,104.606781 43.3157235,105.176105 L43.5871191,113.278553 C43.6136522,114.275439 42.8191757,115.113127 41.8222896,115.13966" id="Fill-20" fill="#FFB069" mask="url(#mask-2)"></path>
                        <path d="M49.7669789,114.831194 L49.7669789,114.831194 C48.7700928,114.857727 47.9324052,114.064008 47.9058721,113.066364 L47.7148339,107.978834 C47.6996721,107.410267 48.1522508,106.931914 48.7215751,106.916752 L50.2794465,106.875815 C50.8480127,106.860653 51.3256083,107.313232 51.3407701,107.881798 L51.5318084,112.970087 C51.5583414,113.966973 50.7638649,114.80466 49.7669789,114.831194" id="Fill-21" fill="#FFB069" mask="url(#mask-2)"></path>
                        <path d="M44.3214792,115.138598 L44.3214792,115.138598 C43.3245931,115.165131 42.4869056,114.371413 42.4603725,113.373769 L42.1889769,105.271321 C42.1738151,104.702755 42.6263938,104.22516 43.1957181,104.209998 L44.7535895,104.168303 C45.3221557,104.153141 45.7997513,104.606478 45.8149131,105.175044 L46.0863087,113.277492 C46.1128418,114.274378 45.3183653,115.112065 44.3214792,115.138598" id="Fill-22" fill="#FFB069" mask="url(#mask-2)"></path>
                        <polygon id="Fill-23" fill="#303030" mask="url(#mask-2)" points="37.6738161 105.591918 52.4205666 105.591918 52.4205666 100.430556 37.6738161 100.430556"></polygon>
                    </g>
                    <g id="Group-12" transform="translate(96.624139, 66.048145) scale(-1, 1) translate(-96.624139, -66.048145) translate(0.124139, 4.048145)">
                        <path d="M20.7734479,71.4212848 L1.72870463,93.4210115 C-0.630302201,96.147082 -0.374080486,100.259481 2.30460109,102.670696 L21.5766508,120.015059 L36.0343024,105.155805 L20.7734479,71.4212848 Z" id="Fill-1-Copy" fill="#141414"></path>
                        <path d="M47.6154188,18.7042692 L33.5023412,21.0833561 C30.6702479,21.7781266 29.9658389,25.4800886 32.3449258,27.1660115 L38.4910342,31.5217806 C40.0251517,32.6093173 42.1496233,32.2470728 43.2363568,30.7129553 L51.203326,23.9780993 C53.0514959,21.3066465 50.8836513,18.1460432 47.6154188,18.7042692" id="Fill-3-Copy" fill="#E29E66"></path>
                        <path d="M55.7447957,38.1614572 C55.7447957,47.920372 47.8332474,55.8319203 38.0743326,55.8319203 C28.3154177,55.8319203 20.4038694,47.920372 20.4038694,38.1614572 C20.4038694,28.4025423 28.3154177,20.490994 38.0743326,20.490994 C47.8332474,20.490994 55.7447957,28.4025423 55.7447957,38.1614572" id="Fill-5-Copy" fill="#FFB069"></path>
                        <polygon id="Fill-7-Copy" fill="#FFB069" points="31.0087946 63.4193092 42.0087946 63.4193092 42.0087946 48.4193092 31.0087946 48.4193092"></polygon>
                        <path d="M67.0087946,123.419309 L15.0087946,123.419309 L15.0087946,82.1576182 C15.0087946,74.6016672 21.3089857,68.4193092 29.0097577,68.4193092 L53.0086393,68.4193092 C60.7086036,68.4193092 67.0087946,74.6016672 67.0087946,82.1576182 L67.0087946,123.419309 Z" id="Fill-9-Copy" fill="#303030"></path>
                        <polygon id="Fill-10-Copy" fill="#303030" points="26.0087946 68.4193092 50.0087946 68.4193092 50.0087946 59.4193092 26.0087946 59.4193092"></polygon>
                        <path d="M30.9589993,21.1880135 C30.5734619,22.4506484 31.4730491,24.7076484 32.4915104,25.5469954 L39.7331875,31.5131864 C40.3958298,32.0593643 40.4906078,33.0392718 39.9444298,33.7019142 L39.0432362,34.7966797 C38.4970582,35.4593221 37.5163475,35.5541 36.8537052,35.007922 L35.6280176,33.998296 C33.3364798,32.1099661 29.7349181,32.8047366 28.5469811,35.9034932 C27.8522106,37.7163221 28.4682672,39.7765375 29.9670437,41.0110603 L31.1228527,41.9636589 C31.7862982,42.5098369 31.880273,43.4897444 31.334095,44.1531899 L25.5566568,51.1659542 L7.37053738,36.5115178 C5.38421668,34.8673615 5.080606,31.9340647 6.68781494,29.9172223 L17.7663921,16.470803 C17.7663921,16.470803 23.2546774,9.45964513 22.9639179,6.44442156 C22.9639179,6.44442156 33.856152,11.6981715 30.9589993,21.1880135" id="Fill-11-Copy" fill="#000000"></path>
                        <path d="M42.869534,55.0895199 C42.869534,55.0895199 51.7633994,52.8349294 54.7834422,44.2462811 C59.0677263,32.0641032 49.0943563,24.4336759 49.0943563,24.4336759 C49.0951595,32.8801573 40.4599254,32.332373 40.4599254,32.332373 C40.4599254,32.332373 38.3177834,34.6078467 38.0503168,35.4110496 C38.0503168,35.4110496 48.4919541,41.9708074 42.869534,55.0895199" id="Fill-12-Copy" fill="#BC9377"></path>
                        <path d="M41.7200704,16.6105603 C44.5344933,18.984828 45.9850776,21.894832 44.9601908,23.1100779 C43.9345007,24.3245207 40.8220896,23.3855765 38.0076667,21.0113088 L41.7200704,16.6105603 Z" id="Fill-13-Copy" fill="#000000"></path>
                        <polygon id="Fill-14-Copy" fill="#FFB069" points="61.2272176 111.421832 54.2224853 118.426564 49.6787667 113.882846 56.6834989 106.878113"></polygon>
                        <path d="M69.0087946,122.419309 L63.0087946,122.419309 L63.0087946,111.419309 L64.6396802,111.419309 C67.052358,111.419309 69.0087946,113.367177 69.0087946,115.770067 L69.0087946,122.419309 Z" id="Fill-15-Copy" fill="#303030"></path>
                        <rect id="Rectangle-Copy" fill="#E5A948" transform="translate(135.531966, 19.896625) rotate(-42.000000) translate(-135.531966, -19.896625) " x="131.230032" y="14.7880791" width="8.60386742" height="10.2170926"></rect>
                        <polygon id="Fill-40-Copy" fill="#7C7C7C" transform="translate(111.853600, 42.410086) scale(-1, 1) translate(-111.853600, -42.410086) " points="142.016684 58.2547561 129.0305 71.2409401 81.6905159 26.565416 94.6775031 13.5792319"></polygon>
                        <g id="Group-Copy-2" transform="translate(141.511254, 11.042011) scale(-1, 1) translate(-141.511254, -11.042011) translate(133.011254, 0.042011)" fill="#E5A948">
                            <path d="M13.7744492,19.6677856 C10.7279007,22.714334 5.78820302,22.714334 2.74165453,19.6677856 C-0.304893963,16.6212371 -0.304893963,11.6815394 2.74165453,8.63499092 C5.78820302,5.58844243 10.7279007,5.58844243 13.7744492,8.63499092 C16.8209976,11.6815394 16.8209976,16.6212371 13.7744492,19.6677856" id="Fill-41"></path>
                            <path d="M13.3555789,13.5305124 L13.3555789,13.5305124 C14.1611913,12.7240967 14.1603881,11.4052376 13.3547757,10.6004283 L3.73963409,0.991712404 C2.93321841,0.185296722 1.6143593,0.186099925 0.808746818,0.992515607 C0.00313433827,1.79893129 0.00393754114,3.1169872 0.809550021,3.92259968 L10.4246916,13.5313156 C11.2311073,14.3377313 12.5499664,14.3369281 13.3555789,13.5305124" id="Fill-43"></path>
                        </g>
                        <path d="M114.138844,10.2706391 L100.025766,12.649726 C97.1936731,13.3444965 96.4892642,17.0464585 98.8683511,18.7323813 L105.014459,23.0881505 C106.548577,24.1756872 108.673049,23.8134427 109.759782,22.2793252 L117.726751,15.5444691 C119.574921,12.8730164 117.407077,9.71241308 114.138844,10.2706391" id="Fill-74-Copy" fill="#CE8E32"></path>
                        <path d="M124.175828,29.5270263 C124.175828,39.2859412 116.26428,47.1974895 106.505365,47.1974895 C96.7464497,47.1974895 88.8349015,39.2859412 88.8349015,29.5270263 C88.8349015,19.7681114 96.7464497,11.8565631 106.505365,11.8565631 C116.26428,11.8565631 124.175828,19.7681114 124.175828,29.5270263" id="Fill-75-Copy" fill="#E5A948"></path>
                        <g id="Page-1" transform="translate(92.791329, 22.840823) scale(-1, 1) translate(-92.791329, -22.840823) translate(74.291329, 2.840823)">
                            <mask id="mask-4" fill="white">
                                <use xlink:href="#path-3"></use>
                            </mask>
                            <g id="Clip-2"></g>
                            <path d="M18.4599622,5.18461814 C16.5480453,3.20951143 13.6165531,2.92174188 11.6124133,4.80547963 L7.49327991,9.11922055 L7.58208713,9.20802777 C8.54957347,10.1755141 8.54957347,11.7450109 7.58208713,12.7124973 L0.484340911,19.8102435 C-0.16121926,20.4558037 -0.16121926,21.5027041 0.484340911,22.1482643 L1.55002754,23.2139509 C2.19558771,23.8595111 3.2424882,23.8595111 3.88804837,23.2139509 L5.08182234,22.0210309 C7.31481156,19.7880417 11.1967117,20.1560793 12.7696242,23.3130052 C13.6909991,25.1608784 13.2486709,27.4041146 11.7893291,28.8634564 L10.6638684,29.9889171 C10.0174543,30.6353312 10.0174543,31.6822317 10.6638684,32.3277918 L17.4943391,39.1582625 L31.508646,25.3301943 C33.4427648,23.3866824 33.4641127,20.2519584 31.5573192,18.2819752 L18.4599622,5.18461814 Z" id="Fill-1" fill="#44230C" mask="url(#mask-4)"></path>
                        </g>
                        <circle id="Oval" fill="#44230C" cx="99.094115" cy="7.51440394" r="6.74536154"></circle>
                        <polygon id="Fill-76-Copy" fill="#E5A948" points="100.008795 54.4193092 111.008795 54.4193092 111.008795 39.4193092 100.008795 39.4193092"></polygon>
                        <path d="M132.008795,121.419309 L80.0087946,121.419309 L80.0087946,63.6149051 C80.0087946,56.9074467 85.5820406,51.4193092 92.3943241,51.4193092 L119.624073,51.4193092 C126.435549,51.4193092 132.008795,56.9074467 132.008795,63.6149051 L132.008795,121.419309 Z" id="Fill-77-Copy" fill="#A8A8A8"></path>
                        <path d="M80.0053767,94.7354007 C81.1714938,94.7354007 92.4257988,97.485859 92.4257988,72.4193092 L105.100739,72.4193092 C105.100739,72.4193092 103.780169,94.7354007 120.152231,94.7354007 L130.395168,94.7354007 L130.395168,123.419309 L80.0053767,123.419309 L80.0053767,94.7354007 Z" id="Fill-87-Copy" fill="#2B3F61"></path>
                        <polygon id="Fill-88-Copy" fill="#704528" points="91.8533906 72.3783256 105.079968 72.3783256 105.079968 63.2949601 98.4669782 57.9400066 91.8533906 63.2949601"></polygon>
                        <path d="M104.77453,64.2949601 C104.77453,64.2949601 105.507064,51.6750269 120.633783,51.6750269 L110.995349,51.540892 C110.995349,51.540892 102.06613,52.286274 98.4669782,58.9400066 L104.77453,64.2949601 Z" id="Fill-89-Copy" fill="#2B3F61"></path>
                        <path d="M99.4670585,57.9403279 C99.4670585,57.9403279 98.7649743,51.7586169 96.4895006,51.7586169 L91.2686819,51.7586169 C91.093585,51.7586169 92.9233647,55.1684747 92.9233647,63.2952814 L99.4670585,57.9403279 Z" id="Fill-90-Copy" fill="#2B3F61"></path>
                        <path d="M131.187786,113.663197 L114.875818,113.663197 L112.017011,64.108535 C112.017011,58.899345 116.308057,54.6761945 121.601994,54.6761945 L121.601994,54.6761945 C126.895931,54.6761945 131.187786,58.899345 131.187786,64.108535 L131.187786,113.663197 Z" id="Fill-91-Copy" fill="#A8A8A8"></path>
                        <polygon id="Fill-92-Copy" fill="#A86639" points="170.686977 116.329241 166.568956 112.21122 177.928654 100.852325 182.045872 104.970346"></polygon>
                        <polygon id="Fill-93-Copy" fill="#A86639" points="113.156366 105.371867 117.274387 101.253846 128.633282 112.613544 124.515261 116.730762"></polygon>
                        <path d="M134.56606,120.385897 C132.132355,122.819602 128.187023,122.819602 125.753318,120.385897 C123.320417,117.952193 123.320417,114.00686 125.753318,111.573155 C128.187023,109.140254 132.132355,109.140254 134.56606,111.573155 C136.999765,114.00686 136.999765,117.952193 134.56606,120.385897" id="Fill-94-Copy" fill="#A86639"></path>
                        <path d="M169.103784,120.385897 C166.670079,122.819602 162.724746,122.819602 160.291042,120.385897 C157.85814,117.952193 157.85814,114.00686 160.291042,111.573155 C162.724746,109.140254 166.670079,109.140254 169.103784,111.573155 C171.537488,114.00686 171.537488,117.952193 169.103784,120.385897" id="Fill-95-Copy" fill="#A86639"></path>
                        <path d="M135.218502,76.518089 L104.497598,96.5226597 C102.511278,97.8158163 102.184374,100.593292 103.814876,102.312949 L118.083775,120.907096 L127.989676,109.851008 L120.76085,101.818979 L138.431313,90.9757406 L135.218502,76.518089 Z" id="Fill-96-Copy" fill="#CB8B2C"></path>
                        <path d="M164.850423,54.0575649 C164.850423,63.5947957 157.118792,71.3264266 147.581561,71.3264266 C138.04433,71.3264266 130.312699,63.5947957 130.312699,54.0575649 C130.312699,44.520334 138.04433,36.7887031 147.581561,36.7887031 C157.118792,36.7887031 164.850423,44.520334 164.850423,54.0575649" id="Fill-97-Copy" fill="#8D5128"></path>
                        <polygon id="Fill-98-Copy" fill="#8D5128" points="144.008795 76.7869073 153.008795 76.7869073 153.008795 62.7869073 144.008795 62.7869073"></polygon>
                        <path d="M134.073777,123.414671 C133.190254,123.414671 132.467371,122.425125 132.467371,121.541601 C132.467371,121.541601 127.856184,104.598797 126.798365,95.2278287 C126.658608,93.9916995 126.798365,91.4969514 126.798365,90.2535934 C126.798365,82.5958572 133.063348,76.3308748 140.720281,76.3308748 L156.818876,76.3308748 C164.475809,76.3308748 170.740791,82.5958572 170.740791,90.2535934 C170.740791,91.4969514 170.876533,93.9916995 170.740791,95.2278287 C169.890199,102.992391 165.071785,121.541601 165.071785,121.541601 C165.071785,122.425125 164.348903,123.414671 163.46538,123.414671 L134.073777,123.414671 Z" id="Fill-99-Copy" fill="#FAA321"></path>
                        <path d="M161.108943,49.1706376 C161.108943,58.8315618 153.277715,66.6627897 143.616791,66.6627897 C133.955867,66.6627897 126.124639,58.8315618 126.124639,49.1706376 C126.124639,39.5097135 133.955867,31.6784855 143.616791,31.6784855 C153.277715,31.6784855 161.108943,39.5097135 161.108943,49.1706376" id="Fill-100-Copy" fill="#000000"></path>
                        <path d="M144.476218,39.9905107 C144.476218,44.8804098 140.512412,48.844216 135.622513,48.844216 C130.731811,48.844216 126.768004,44.8804098 126.768004,39.9905107 C126.768004,35.1006117 130.731811,31.1368055 135.622513,31.1368055 C140.512412,31.1368055 144.476218,35.1006117 144.476218,39.9905107" id="Fill-101-Copy" fill="#00BDFF"></path>
                        <path d="M133.80125,112.225115 C133.80125,113.888548 132.452673,115.237126 130.78924,115.237126 C129.125806,115.237126 127.777229,113.888548 127.777229,112.225115 C127.777229,110.561682 129.125806,109.213104 130.78924,109.213104 C132.452673,109.213104 133.80125,110.561682 133.80125,112.225115" id="Fill-102-Copy" fill="#A86639"></path>
                        <path d="M169.689238,112.929926 C169.689238,114.593359 168.340661,115.941936 166.677227,115.941936 C165.013794,115.941936 163.665217,114.593359 163.665217,112.929926 C163.665217,111.266493 165.013794,109.917915 166.677227,109.917915 C168.340661,109.917915 169.689238,111.266493 169.689238,112.929926" id="Fill-103-Copy" fill="#A86639"></path>
                        <path d="M162.259612,76.3841951 L190.778936,95.9470042 C192.813449,97.3429708 193.118666,100.226469 191.421498,102.016808 L177.520466,119.032661 L167.346295,109.449648 L174.575121,101.417619 L156.904658,90.5743802 L162.259612,76.3841951 Z" id="Fill-104-Copy" fill="#FAA321"></path>
                        <polygon id="Fill-105-Copy" fill="#000000" points="38.0079077 21.0109072 27.3285223 32.3119716 29.3365295 33.9183774 28.9349281 32.5127723 40.1797682 20.66553"></polygon>
                        <path d="M141.008795,68.4193092 L124.008795,68.4193092 L124.008795,45.1589001 C124.008795,40.9023653 127.565451,37.4193092 131.91193,37.4193092 L133.104841,37.4193092 C137.452138,37.4193092 141.008795,40.9023653 141.008795,45.1589001 L141.008795,68.4193092 Z" id="Fill-106-Copy" fill="#000000"></path>
                    </g>
                </g>
                <g id="Group-10" transform="translate(39.542595, 78.175001) scale(-1, 1) translate(-39.542595, -78.175001) translate(0.042595, 27.175001)">
                    <g id="Page-1" transform="translate(0.179599, 0.150574)">
                        <path d="M54.7634996,13.4321413 C57.4511475,12.9725632 59.2355477,15.5727145 57.7145211,17.7698512 L51.1611145,23.3104184 C50.2675887,24.5716066 48.5194244,24.8703324 47.2582362,23.9759228 L42.2019936,20.3929814 C40.2452516,19.0054092 40.825027,15.9607045 43.1547343,15.3897671 L54.7634996,13.4321413 Z" id="Fill-1" fill="#DB8F52"></path>
                        <g id="Group-5" transform="translate(0.000000, 48.253930)" fill="#376472">
                            <path d="M23.0686096,0.15988014 L0.774654189,29.6497676 C-0.666830103,31.5561327 -0.0260722174,34.3029955 2.1091982,35.3759335 L22.0080448,48.129225 L27.6202001,34.2517349 L18.0141346,29.1071119 L31.0643842,12.7744144 L23.0686096,0.15988014 Z" id="Fill-3"></path>
                        </g>
                        <path d="M57.500287,24.6249 C57.500287,35.1191885 48.9927899,43.6266856 38.4985014,43.6266856 C28.0042129,43.6266856 19.4967158,35.1191885 19.4967158,24.6249 C19.4967158,14.1306116 28.0042129,5.62311445 38.4985014,5.62311445 C48.9927899,5.62311445 57.500287,14.1306116 57.500287,24.6249" id="Fill-6" fill="#FFB069"></path>
                        <polygon id="Fill-8" fill="#FFB069" points="34.0273371 48.8672897 44.2644386 48.8672897 44.2644386 34.2412176 34.0273371 34.2412176"></polygon>
                        <path d="M23.6067623,100.81505 C22.6443378,100.81505 21.8568995,99.7338015 21.8568995,98.7684006 C21.8568995,98.7684006 16.8339184,79.7026116 15.6816338,69.4632192 C15.5293957,68.1125357 15.6816338,65.3865947 15.6816338,64.0280125 C15.6816338,55.6606201 22.5060986,48.8150504 30.8468196,48.8150504 L48.3830695,48.8150504 C56.7237905,48.8150504 63.5482553,55.6606201 63.5482553,64.0280125 C63.5482553,65.3865947 63.6961187,68.1125357 63.5482553,69.4632192 C62.621703,77.9473374 57.3729896,98.7684006 57.3729896,98.7684006 C57.3729896,99.7338015 56.5855513,100.81505 55.6231268,100.81505 L23.6067623,100.81505 Z" id="Fill-10" fill="#3D7991"></path>
                        <path d="M54.672818,52.8150504 L54.672818,52.8150504 L54.672818,52.8150504 C58.886421,52.8150504 62.6254088,55.5162371 63.9490385,59.5165439 L77.6139724,100.81505 L63.4963389,100.81505 L49.831405,59.5165439 L49.831405,59.5165439 C48.9466799,56.8427053 50.3970429,53.9579195 53.0708814,53.0731943 C53.5876607,52.9022014 54.1284841,52.8150504 54.672818,52.8150504 Z" id="Rectangle-3" fill="#3D7991"></path>
                        <path d="M53.3832629,19.2475715 C53.3832629,29.8779657 44.7661741,38.4950546 34.1357798,38.4950546 C23.5053855,38.4950546 14.8882967,29.8779657 14.8882967,19.2475715 C14.8882967,8.61717719 23.5053855,8.8380398e-05 34.1357798,8.8380398e-05 C44.7661741,8.8380398e-05 53.3832629,8.61717719 53.3832629,19.2475715" id="Fill-11" fill="#C1842B"></path>
                        <path d="M25.5140952,31.3400427 C19.1834073,22.7971934 20.9766456,10.7403395 29.5194948,4.41053538 C38.0623441,-1.92015253 50.119198,-0.126914252 56.4490021,8.41593502 L25.5140952,31.3400427 Z" id="Fill-12" fill="#C1842B"></path>
                        <path d="M32.1325893,59.1866013 L32.1325893,59.1866013 C22.4659943,59.1866013 14.6301541,51.2725408 14.6301541,41.5094501 L14.6301541,18.9710823 C14.6301541,9.20799173 22.4659943,1.29393113 32.1325893,1.29393113 L32.1325893,19.4130111 C41.7991842,19.4130111 49.6350245,9.20799173 49.6350245,18.9710823 L49.6350245,41.5094501 C49.6350245,51.2725408 41.7991842,59.1866013 32.1325893,59.1866013" id="Fill-13" fill="#C1842B"></path>
                    </g>
                </g>
            </g>
        </g>
    </g>
</svg>