<svg xmlns="http://www.w3.org/2000/svg" width="366" height="219" viewBox="0 0 366 219">
  <g fill="none" fill-rule="evenodd" transform="translate(0 -5)">
    <rect width="342.66" height="1.565" x="23.336" y="224" fill="#000" opacity=".1" transform="rotate(180 194.666 224.783)"/>
    <g transform="translate(.46 11.324)">
      <rect width="21" height="76" x="133.533" y="121.114" fill="#172235"/>
      <rect width="21" height="78" x="115.533" y="121.114" fill="#20314F"/>
      <path fill="#B47735" d="M206.39946,7.69468532 L221.55919,10.2899979 C224.601316,11.0479133 225.357966,15.0863318 222.802441,16.9254814 L216.200526,21.677129 C214.552635,22.8635075 212.270609,22.4683401 211.103281,20.7947928 L202.545466,13.4478327 C200.560233,10.5335823 202.888849,7.0857244 206.39946,7.69468532"/>
      <path fill="#CE8A41" d="M234.83696,28.804688 C234.83696,39.4505515 226.338676,48.0811487 215.856022,48.0811487 C205.373367,48.0811487 196.875084,39.4505515 196.875084,28.804688 C196.875084,18.1588244 205.373367,9.52822722 215.856022,9.52822722 C226.338676,9.52822722 234.83696,18.1588244 234.83696,28.804688"/>
      <polygon fill="#CE8A41" points="208.983 56.246 220.558 56.246 220.558 39.65 208.983 39.65"/>
      <rect width="21" height="75" x="215.533" y="122.114" fill="#565656"/>
      <rect width="20" height="76" x="196.533" y="121.114" fill="#7D7D7D"/>
      <path fill="#59AA66" d="M242.532685,137.04693 L191.532685,137.04693 L191.532685,68.3149235 C191.532685,59.9541048 198.217228,53.1808077 206.387797,53.1808077 L227.678431,53.1808077 C235.848142,53.1808077 242.532685,59.9541048 242.532685,68.3149235 L242.532685,137.04693 Z"/>
      <path fill="#1F1F1F" d="M217.532685,197.113913 L236.532685,197.113913 L236.532685,213.113913 L201.532685,213.113913 L201.532685,213.113913 C201.532685,204.277357 208.696129,197.113913 217.532685,197.113913 Z"/>
      <path fill="#686868" d="M197.532685,197.113913 L216.532685,197.113913 L216.532685,213.113913 L181.532685,213.113913 L181.532685,213.113913 C181.532685,204.277357 188.696129,197.113913 197.532685,197.113913 Z"/>
      <polygon fill="#CECECE" points="207.533 53.114 224.533 53.114 224.533 49.114 207.533 49.114"/>
      <path fill="#000" d="M208.905202,46.6321722 C208.905202,46.6321722 201.045368,44.781632 197.801354,35.4123958 C193.200202,22.1239048 203.44128,14.21267 203.44128,14.21267 C204.124594,22.0248939 208.404796,22.7284847 211.062127,22.263221 C212.717783,21.9723217 213.919621,20.6203408 213.919621,20.6203408 C213.919621,20.6203408 217.461291,22.8108477 217.748594,23.6870505 C217.748594,23.6870505 216.790919,24.5860345 215.321622,26.0966081 C211.824816,29.6899156 206.748278,35.0224856 208.905202,46.6321722"/>
      <path fill="#000" d="M197.091035 24.6075015C197.091035 24.6075015 194.749478 34.025805 191.998104 35.7896011 191.998104 35.7896011 203.625654 41.6706741 209.776341 32.8315406M235.860119 12.3940236L230.747344 7.20164603C228.81474 5.17411284 225.85285 4.87970871 223.828792 6.8117358L220.496775 10.1956309 220.586503 10.2858797C221.564021 11.2786175 221.564021 12.8890782 220.586503 13.8818159L213.415159 21.1648132C212.762905 21.8272225 212.762905 22.9014471 213.415159 23.5638564L214.491896 24.6582336C215.14415 25.3206429 215.335685 25.964652 216.454698 24.9465043L218.060313 23.4333022C220.316456 21.142032 224.238608 21.5196753 225.82783 24.758997 226.758759 26.6550997 226.311844 28.9568844 224.83737 30.4543149L223.70024 31.6100263C223.047123 32.2724356 223.047123 33.3466602 223.70024 34.0090695L230.601536 41.0186916 235.947258 35.9805257C237.901432 33.9862882 247.36343 24.076435 235.860119 12.3940236"/>
      <path fill="#000" d="M218.603254,6.44232872 C218.562704,9.82972859 221.234702,12.60992 224.57017,12.6511015 C227.905639,12.6914068 230.643208,9.97868306 230.682895,6.59128319 C230.723445,3.20300711 228.05231,0.42369195 224.716841,0.38251042 C221.38051,0.341328891 218.643804,3.05492884 218.603254,6.44232872"/>
      <g transform="translate(.528 .697)">
        <polygon fill="#823C19" points="101.027 42.96 94.157 49.937 72.618 28.062 79.488 21.085"/>
        <path fill="#682E15" d="M123.034132,7.14401187 L138.16873,9.73502191 C141.205813,10.4916808 141.961208,14.5234044 139.40992,16.359505 L132.81895,21.1032753 C131.173791,22.287687 128.895548,21.8931747 127.730155,20.2224018 L119.186528,12.8876216 C117.204586,9.97820246 119.529341,6.53606049 123.034132,7.14401187"/>
        <path fill="#823C19" d="M151.424488,28.2190181 C151.424488,38.8472328 142.940293,47.4635221 132.475017,47.4635221 C122.009741,47.4635221 113.525546,38.8472328 113.525546,28.2190181 C113.525546,17.5908034 122.009741,8.9745141 132.475017,8.9745141 C142.940293,8.9745141 151.424488,17.5908034 151.424488,28.2190181"/>
        <path fill="#000" d="M165.361738,15.1114115 L152.150511,1.69449319 C150.221972,-0.328803983 147.264993,-0.623594795 145.243429,1.30610411 L137.323411,9.34855728 L137.412991,9.4395313 C138.388888,10.4306233 138.388888,12.0384141 137.412991,13.029506 L130.253536,20.3004296 C129.602363,20.9617407 129.602363,22.0341844 130.253536,22.6954955 L131.328488,23.7871838 C131.97966,24.4484949 133.035663,24.4484949 133.686836,23.7871838 L134.890988,22.5651578 C137.143391,20.277686 141.059041,20.6547034 142.645629,23.8886548 C143.575014,25.7816142 143.12884,28.0795829 141.656811,29.574531 L140.521565,30.7274517 C139.869531,31.3896376 139.869531,32.4620813 140.521565,33.1233925 L147.411421,40.1205192 L165.312642,22.3315995 C167.263576,20.3406681 167.285109,17.1294601 165.361738,15.1114115"/>
        <polygon fill="#823C19" points="125.004 54.417 137.004 54.417 137.004 38.417 125.004 38.417"/>
        <path fill="#0048CE" d="M158.004439,120.416638 L104.713071,120.363953 C103.773323,120.363953 103.004439,119.573677 103.004439,118.607784 L103.004439,67.636476 C103.004439,59.2656968 109.668103,52.4166379 117.81315,52.4166379 L143.196583,52.4166379 C151.340776,52.4166379 158.004439,59.2656968 158.004439,67.636476 L158.004439,120.416638 Z"/>
        <polygon fill="#0048CE" points="119.865 57.225 105.889 71.419 87.918 53.17 101.895 38.976"/>
        <path fill="#823C19" d="M76.8591282,25.9819822 C73.5803351,29.3118244 68.2640741,29.3118244 64.985281,25.9819822 C61.7064878,22.6521401 61.7064878,17.2531078 64.985281,13.9232657 C68.2640741,10.5934235 73.5803351,10.5934235 76.8591282,13.9232657 C80.1379214,17.2531078 80.1379214,22.6521401 76.8591282,25.9819822"/>
        <path fill="#823C19" d="M76.4083266,19.2740139 L76.4083266,19.2740139 C77.2753526,18.3926109 77.2744881,16.9511132 76.4074621,16.071466 L66.0593386,5.56925096 C65.1914482,4.68784798 63.7720497,4.68872587 62.9050237,5.57012885 C62.0379978,6.45153183 62.0388622,7.89215165 62.9058882,8.77267674 L73.2540117,19.2748918 C74.1219022,20.1562948 75.5413006,20.1554169 76.4083266,19.2740139"/>
        <polygon fill="#000" points="101.574 54.182 79.61 48.008 79.61 23.856 101.574 29.907"/>
        <polygon fill="#FCD486" points="84.348 62.881 94.325 62.881 94.325 46.552 84.348 46.552"/>
        <path fill="#D6A651" d="M75.2737987,20.5730017 L86.5874943,22.5105734 C88.8579855,23.075662 89.4230243,26.0891764 87.5160184,27.4625341 L82.5882946,31.0087714 C81.359163,31.8940186 79.6554332,31.598353 78.7846189,30.3500845 L72.3977858,24.8662756 C70.9154203,22.6916466 72.654465,20.1181316 75.2737987,20.5730017"/>
        <path fill="#FCD486" d="M109.218848,33.7590734 C109.218848,44.3872881 100.734653,53.0035774 90.2693766,53.0035774 C79.8041005,53.0035774 71.3199054,44.3872881 71.3199054,33.7590734 C71.3199054,23.1308587 79.8041005,14.5145694 90.2693766,14.5145694 C100.734653,14.5145694 109.218848,23.1308587 109.218848,33.7590734"/>
        <path fill="#000" d="M103.752098,47.2822739 C111.152727,39.7664203 111.152727,27.582025 103.752098,20.0661715 C96.3514677,12.5511926 84.3538685,12.5511926 76.9532387,20.0661715 L103.752098,47.2822739 Z"/>
        <path fill="#EFEFEF" d="M105.526611,114.055317 L74.1772543,114.055317 C73.2348803,114.055317 72.463847,113.2089 72.463847,112.239047 C72.463847,112.239047 67.5455113,93.0853285 66.4172326,82.7987132 C66.2681662,81.4418004 66.4172326,78.7032878 66.4172326,77.3384399 C66.4172326,68.932458 73.0995211,62.0553174 81.266477,62.0553174 L98.4373884,62.0553174 C106.604344,62.0553174 113.286633,68.932458 113.286633,77.3384399 C113.286633,78.7032878 113.431416,81.4418004 113.286633,82.7987132 C112.379384,91.3219591 107.240018,112.239047 107.240018,112.239047 C107.240018,113.2089 106.468985,114.055317 105.526611,114.055317"/>
        <path fill="#CE8A41" d="M37.6473896,94.4166379 C37.6473896,98.8156456 34.0654292,102.381858 29.6469961,102.381858 C25.228563,102.381858 21.6473896,98.8156456 21.6473896,94.4166379 L37.6473896,94.4166379 Z"/>
        <polygon fill="#CE8A41" points="33.004 101.417 60.425 101.417 60.425 94.417 33.004 94.417"/>
        <rect width="32" height="15" x="45.004" y="95.417" fill="#EFEFEF"/>
        <g transform="translate(0 49.426)">
          <path fill="#AFAFAF" d="M26.0044392,44.9904846 L0.00443923169,44.9904846 L0.00443923169,3.45163723 C0.00443923169,2.09244685 1.13939798,0.990484611 2.54008755,0.990484611 L23.4695913,0.990484611 C24.8694805,0.990484611 26.0044392,2.09244685 26.0044392,3.45163723 L26.0044392,44.9904846 Z"/>
          <polygon fill="#FFF" points="2.993 45.481 23.043 45.481 23.043 4.015 2.993 4.015"/>
          <polygon fill="#AFAFAF" points=".004 45.99 60.004 45.99 60.004 40.99 .004 40.99"/>
          <polygon fill="#7C7C7C" points="39.004 45.99 61.004 45.99 61.004 40.99 39.004 40.99"/>
          <polygon fill="#CCC" points="3.667 7.077 22.465 7.077 22.465 4.667 3.667 4.667"/>
        </g>
        <g transform="translate(4.125 62.244)">
          <polygon fill="#00BDFF" points="9.012 13.173 9.012 9.173 6.942 13.173"/>
          <polygon fill="#ED588E" points="0 8.48 0 .48 6 4.48" transform="translate(8.88 .173)"/>
          <polygon fill="#0A9DFF" points="9.012 9.173 9.012 13.173 11.083 13.173"/>
          <polygon fill="#1599FF" points="9 9.173 0 26.173 9 26.173 9 13.077 6.933 13.077"/>
          <polygon fill="#1560FA" points="10.946 13.173 8.879 13.173 8.879 26.173 17.879 26.173"/>
        </g>
        <polygon fill="#000" points="108.9 57.417 81.004 57.417 81.004 23.417 108.9 32.137"/>
        <path fill="#000" d="M77.3438074,26.3466897 C77.3438074,27.8643813 78.1895194,29.0951548 79.7149518,29.0951548 L86.609114,29.7866579 C86.609114,29.7866579 79.6642563,21.6842713 77.3438074,19.3749308 L77.3438074,26.3466897 Z"/>
        <path fill="#FCD486" d="M85.454316,30.3694165 L85.454316,30.3694165 C86.9943912,30.3694165 88.2536696,31.6483012 88.2536696,33.2123546 L88.2536696,35.4429675 C88.2536696,37.0061461 86.9943912,38.2859056 85.454316,38.2859056"/>
      </g>
      <polygon fill="#FCD486" points="90.033 143.348 106.022 143.348 102.546 201.943 93.509 201.943"/>
      <polygon fill="#FCD486" points="75.435 143.348 91.424 143.348 87.948 201.943 78.911 201.943"/>
      <polygon fill="#373737" points="71.952 114.114 108.086 114.114 110.022 157.114 69.371 157.114"/>
      <path fill="#B5B5B5" d="M136.532685,197.113913 L154.532685,197.113913 L154.532685,213.113913 L120.532685,213.113913 L120.532685,213.113913 C120.532685,204.277357 127.696129,197.113913 136.532685,197.113913 Z"/>
      <path fill="#D8D8D8" d="M117.532685,197.113913 L136.532685,197.113913 L136.532685,213.113913 L101.532685,213.113913 L101.532685,213.113913 C101.532685,204.277357 108.696129,197.113913 117.532685,197.113913 Z"/>
      <path fill="#B5B5B5" d="M89.5326852,200.113913 L103.532685,200.113913 L103.532685,213.113913 L76.5326852,213.113913 L76.5326852,213.113913 C76.5326852,205.934211 82.3529835,200.113913 89.5326852,200.113913 Z"/>
      <path fill="#D8D8D8" d="M76.2401253,200.382492 L90.5326852,200.382492 L90.5326852,213.089932 L63.5326852,213.089932 L63.5326852,213.089932 C63.5326852,206.071807 69.2219999,200.382492 76.2401253,200.382492 Z"/>
      <g transform="translate(169.28 73.412)">
        <rect width="47.91" height="33.451" x="4.017" y="7.865" fill="#C1C1C1" rx="4" transform="rotate(17 27.972 24.59)"/>
        <rect width="47.91" height="33.451" x="4.367" y="6.554" fill="#D8D8D8" rx="4" transform="rotate(17 28.322 23.28)"/>
        <ellipse cx="29.046" cy="23.416" fill="#FFF" rx="3.294" ry="3.345"/>
      </g>
      <ellipse cx="183.878" cy="110.724" fill="#CE8A41" rx="9.181" ry="9.324"/>
      <polygon fill="#59AA66" points="195.59 68.062 209.25 89.616 186.049 101.103 194.209 116.972 229.748 99.313 217.67 68.062"/>
    </g>
    <g transform="translate(258.807 .324)">
      <polygon fill="#FFB069" points="33.601 66.036 45.442 66.036 45.442 50.001 33.601 50.001" transform="scale(-1 1) rotate(-7 0 704.187)"/>
      <polygon fill="#2A2A2A" points="50.315 123.179 73.788 125.367 70.231 156.612 82.21 197.386 62.388 204.178 50.315 159.912" transform="rotate(-25 66.263 163.678)"/>
      <polygon fill="#565656" points="16.968 133.622 40.095 123.652 38.223 172.664 51.902 204.89 33.524 212.812 17.35 174.331" transform="rotate(23 34.435 168.232)"/>
      <path fill="#303030" d="M68.0664746,137.429294 L16.551224,137.429294 L17.2289597,84.2831213 C17.2289597,76.1134848 23.8073083,69.4297041 31.8480745,69.4297041 L54.125939,69.4297041 C62.1658617,69.4297041 68.7442103,76.1134848 68.7442103,84.2831213 L68.0664746,137.429294 Z" transform="scale(-1 1) rotate(7 0 -593.855)"/>
      <polygon fill="#AFAFAF" points="29.634 67.249 49.085 72.332 50.502 60.4 30.735 57.971" transform="scale(-1 1) rotate(-7 0 720.257)"/>
      <g transform="scale(-1 1) rotate(16 -27.624 -187.009)">
        <path fill="#E29E66" d="M36.5467041,8.33500721 C39.9883304,7.73801256 42.2711884,11.118119 40.3249652,13.9751035 L31.9353141,21.1776937 C30.7909247,22.8183553 28.5537408,23.2057576 26.9382318,22.0426918 L20.4660461,17.3844155 C17.9607384,15.5814057 18.7025192,11.6223433 21.6848672,10.8793211 L36.5467041,8.33500721 Z"/>
        <path stroke="#000" stroke-width="2" d="M25.4116181,12.6243494 L25.361715,12.5736693 C24.7036699,11.9053789 24.7036699,10.8118908 25.361715,10.1444594 L28.1825121,7.279744 C28.8405571,6.61145357 29.9164353,6.61145357 30.5744804,7.279744 L30.6243835,7.33042412 C32.4065183,9.13944678 33.0391888,11.4578476 31.2578999,13.2677293 C29.4757651,15.0767519 27.1937529,14.4342311 25.4116181,12.6243494 Z"/>
        <path fill="#FFB069" d="M45.1073793,29.1434922 C45.1073793,39.5801614 36.7760895,48.0411649 26.4994224,48.0411649 C16.2227552,48.0411649 7.89146539,39.5801614 7.89146539,29.1434922 C7.89146539,18.706823 16.2227552,10.2458196 26.4994224,10.2458196 C36.7760895,10.2458196 45.1073793,18.706823 45.1073793,29.1434922"/>
        <polygon fill="#000" points="25.826 8.492 14.28 20.283 16.351 22.055 16.16 20.738 28.315 8.379"/>
        <path fill="#000" d="M3.1278284,17.493163 C3.12952004,17.491445 3.13121167,17.488868 3.1329033,17.4871501 L12.2897098,8.18777717 C14.1843381,6.20094458 17.0880252,5.9114666 19.0723101,7.80638777 L20.0720649,10.966594 C20.0965935,10.9906456 20.8366827,11.1564297 20.8121541,11.1813403 C19.8301614,12.178622 21.120877,13.5899346 22.1037154,14.5872163 L29.0470208,21.6386252 C29.7101408,22.3129285 29.7101408,23.4055575 29.0470208,24.0798609 L28.0785613,25.0625398 C27.4145955,25.7368432 26.3387173,25.7368432 25.6747515,25.0625398 L24.5362829,23.9063459 C22.3337774,21.6704076 18.5115339,22.0277454 16.9408532,25.168195 C16.002843,27.0433595 16.4587379,29.3342728 17.9228458,30.8211761 L18.9640456,31.8785868 C19.6280113,32.5520311 19.6280113,33.6455192 18.9640456,34.3189635 L12.2846349,41.102369 C12.260952,41.1272795 12.2220445,41.1272795 12.1975158,41.103228 L2.32514881,31.459402 C-0.317181085,28.7750735 -1.49540309,23.3162231 3.1278284,17.493163"/>
        <path fill="#000" d="M8.71226857,7.15412686 C8.71226857,7.15412686 13.892893,1.03385788 21.1880579,3.18132068 C21.1880579,3.18132068 14.555539,11.0127045 16.7495863,14.9339716" transform="scale(-1 1) rotate(-50 0 40.89)"/>
      </g>
      <path fill="#6B370A" d="M17.1870506,208.113913 L36.1870506,208.113913 L36.1870506,224.113913 L1.18705057,224.113913 L1.18705057,224.113913 C1.18705057,215.277357 8.35049458,208.113913 17.1870506,208.113913 Z"/>
      <path fill="#384F6C" d="M68.6769209,69.958284 C73.4694652,70.5607337 77.2680973,74.1558202 77.9242785,78.7023266 C79.0349531,81.0191554 79.6570323,83.6147599 79.6570323,86.3556588 L79.6570323,119.011762 C79.6570323,121.220901 77.8661713,123.011762 75.6570323,123.011762 L48.2045939,123.011762 C45.9954549,123.011762 44.2045939,121.220901 44.2045939,119.011762 L44.2045939,86.3556588 C44.2045939,76.5657383 52.1408925,68.6294396 61.9308131,68.6294396 C64.3192931,68.6294396 66.59744,69.101832 68.6769209,69.958284 Z" transform="rotate(-8 61.93 95.82)"/>
      <g transform="rotate(79 6.343 79.557)">
        <rect width="37.426" height="24.858" x="3.138" y="6.05" fill="#C1C1C1" rx="4" transform="rotate(17 21.851 18.48)"/>
        <rect width="37.426" height="24.858" x="3.412" y="5.077" fill="#D8D8D8" rx="4" transform="rotate(17 22.125 17.505)"/>
        <ellipse cx="20.643" cy="17.143" fill="#FFF" rx="2.573" ry="2.486"/>
      </g>
      <path fill="#384F6C" d="M54.9222325,83.8167527 L86.8391068,83.7298441 L85.8977937,122.817806 C85.845594,124.985397 84.0759231,126.71675 81.907709,126.721496 L58.5809822,126.772558 C56.3718485,126.777394 54.5770717,124.990457 54.572236,122.781324 C54.5722033,122.76642 54.572254,122.751517 54.572388,122.736614 L54.9222325,83.8167527 Z" transform="rotate(-8 70.706 105.251)"/>
      <path fill="#798DA7" d="M71.5733526,82.3203307 L71.5733526,82.3203307 C78.9933801,82.3203307 85.0085009,88.3354515 85.0085009,95.755479 C85.0085009,95.7934341 85.0083401,95.831389 85.0080184,95.8693427 L84.959444,101.600588 L57.8604468,101.600588 L57.9090212,95.8693427 C57.9725984,88.3679268 64.0716673,82.3203307 71.5733526,82.3203307 Z" transform="rotate(170 71.434 91.96)"/>
      <path fill="#384F6C" d="M48.8010647 124.260172L59.171239 128.428733C71.2566325 121.648283 72.5496185 118.258058 63.0501969 118.258058 53.5507754 118.258058 48.8010647 120.258763 48.8010647 124.260172zM29.3369808 70.8929582C42.0795112 71.5970886 48.9146595 72.6555823 49.8424257 74.0684393 50.770192 75.4812963 49.4962105 79.3645848 46.0204813 85.7183049L29.3369808 70.8929582z"/>
      <polygon fill="#384F6C" points="16.128 92.424 50.193 112.545 50.193 124.9"/>
      <g transform="rotate(11 -386.131 132.151)">
        <g fill="#FFB069" transform="scale(1 -1) rotate(-86 -26.464 -33.99)">
          <rect width="13.494" height="3.373" x="17.214" y="2.926" rx="1.687"/>
          <rect width="13.494" height="3.373" x="8.834" y=".715" rx="1.687"/>
          <rect width="15.672" height="3.373" x="18.818" y="5.573" rx="1.687"/>
          <rect width="15.672" height="3.373" x="17.442" y="8.498" rx="1.687"/>
          <rect width="15.672" height="3.586" x="14.965" y="11.187" rx="1.793"/>
          <rect width="20.617" height="11.653" x=".511" y="3.12"/>
        </g>
        <polygon fill="#303030" points="-19.845 25.444 48.914 26.147 48.66 45.899 -20.099 45.195" transform="rotate(-96 14.407 35.671)"/>
      </g>
      <path stroke="#979797"/>
      <path fill="#6B370A" d="M86.5191786,196.603854 L104.96757,196.603854 L104.96757,212.880171 L70.2428622,212.880171 L70.2428622,212.880171 C70.2428622,203.89101 77.5300172,196.603854 86.5191786,196.603854 Z" transform="rotate(-44 87.605 204.742)"/>
    </g>
  </g>
</svg>
