<svg xmlns="http://www.w3.org/2000/svg" xmlns:xlink="http://www.w3.org/1999/xlink" width="112" height="12" viewBox="0 0 112 12">
  <defs>
    <polygon id="logo-coinlist-white-a" points="11.167 .165 .144 .165 .144 11.52 11.167 11.52 11.167 .165"/>
    <polygon id="logo-coinlist-white-c" points="0 11.61 110.523 11.61 110.523 .207 0 .207"/>
  </defs>
  <g fill="none" fill-rule="evenodd" transform="translate(.567 .035)">
    <g transform="translate(16.114 .041)">
      <mask id="logo-coinlist-white-b" fill="#fff">
        <use xlink:href="#logo-coinlist-white-a"/>
      </mask>
      <path fill="#FFF" d="M1.86979569,1.48260659 C1.64461368,1.48260659 1.46157583,1.66585103 1.46157583,1.89082645 L1.46157583,9.79430167 C1.46157583,10.0194837 1.64461368,10.2025215 1.86979569,10.2025215 L9.44107581,10.2025215 C9.66625781,10.2025215 9.84929566,10.0194837 9.84929566,9.79430167 L9.84929566,1.89082645 C9.84929566,1.66585103 9.66625781,1.48260659 9.44107581,1.48260659 L1.86979569,1.48260659 Z M9.44107581,11.5199396 L1.86979569,11.5199396 C0.91824677,11.5199396 0.144157802,10.7458506 0.144157802,9.79430167 L0.144157802,1.89082645 C0.144157802,0.93927753 0.91824677,0.165188561 1.86979569,0.165188561 L9.44107581,0.165188561 C10.3926247,0.165188561 11.1667137,0.93927753 11.1667137,1.89082645 L11.1667137,9.79430167 C11.1667137,10.7458506 10.3926247,11.5199396 9.44107581,11.5199396 L9.44107581,11.5199396 Z" mask="url(#logo-coinlist-white-b)"/>
    </g>
    <path fill="#FFF" d="M92.594283,11.5812552 L84.6381276,11.5812552 L84.6381276,10.2638371 L92.594283,10.2638371 C92.819465,10.2638371 93.0025028,10.0807993 93.0025028,9.85561729 L93.0025028,6.88961907 C93.0025028,6.66443706 92.819465,6.48139921 92.1569341,6.48139921 L85.9053445,6.48139921 C85.3911445,6.48139921 84.6170555,5.70710365 84.6170555,4.75555474 L84.6170555,1.95214206 C84.6170555,1.00059314 85.3911445,0.226504175 86.3426934,0.226504175 L93.973058,0.226504175 L93.973058,1.5439222 L86.3426934,1.5439222 C86.1175114,1.5439222 85.9344735,1.72696005 85.9344735,1.95214206 L85.9344735,4.75555474 C85.9344735,4.98073674 86.1175114,5.16398118 86.3426934,5.16398118 L92.594283,5.16398118 C93.5458319,5.16398118 94.3199209,5.93807015 94.3199209,6.88961907 L94.3199209,9.85561729 C94.3199209,10.8071662 93.5458319,11.5812552 92.594283,11.5812552"/>
    <polygon fill="#FFF" points="69.633 11.579 60.949 11.579 60.949 .226 62.266 .226 62.266 10.262 69.633 10.262"/>
    <polygon fill="#FFF" points="52.499 11.577 44.329 2.216 44.329 11.589 43.011 11.589 43.011 .225 44.34 .225 52.716 9.821 52.715 .226 54.033 .226 54.034 11.577"/>
    <mask id="logo-coinlist-white-d" fill="#fff">
      <use xlink:href="#logo-coinlist-white-c"/>
    </mask>
    <polygon fill="#FFF" points="34.485 11.581 35.808 11.581 35.808 .226 34.485 .226" mask="url(#logo-coinlist-white-d)"/>
    <polygon fill="#FFF" points="75.961 11.58 77.284 11.58 77.284 .225 75.961 .225" mask="url(#logo-coinlist-white-d)"/>
    <polygon fill="#FFF" points="110.523 .227 105.884 .227 105.884 .225 104.561 .225 104.561 .227 99.923 .227 99.923 1.55 104.561 1.55 104.561 11.581 105.884 11.581 105.884 1.55 110.523 1.55" mask="url(#logo-coinlist-white-d)"/>
    <path fill="#FFF" d="M9.71234782,11.561402 L1.72561723,11.561402 C0.77406831,11.561402 -2.06588996e-05,10.7871064 -2.06588996e-05,9.83576408 L-2.06588996e-05,1.93228886 C-2.06588996e-05,0.980739941 0.77406831,0.206650973 1.72561723,0.206650973 L9.71234782,0.206650973 L9.71234782,1.524069 L1.72561723,1.524069 C1.50064181,1.524069 1.31739737,1.70710685 1.31739737,1.93228886 L1.31739737,9.83576408 C1.31739737,10.0607395 1.50064181,10.2439839 1.72561723,10.2439839 L9.71234782,10.2439839 L9.71234782,11.561402 Z" mask="url(#logo-coinlist-white-d)"/>
  </g>
</svg>
