<svg xmlns="http://www.w3.org/2000/svg" width="101" height="11" viewBox="0 0 101 11">
  <g fill="none" fill-rule="evenodd" transform="translate(1 .125)">
    <path fill="#000" d="M16.2082532,1.58585096 C16.0070371,1.58585096 15.8429915,1.74989659 15.8429915,1.95111267 L15.8429915,9.01994285 C15.8429915,9.22115894 16.0070371,9.38470896 16.2082532,9.38470896 L22.9797197,9.38470896 C23.1814314,9.38470896 23.3449814,9.22115894 23.3449814,9.01994285 L23.3449814,1.95111267 C23.3449814,1.74989659 23.1814314,1.58585096 22.9797197,1.58585096 L16.2082532,1.58585096 Z M22.9797197,10.5632603 L16.2082532,10.5632603 C15.3572975,10.5632603 14.6649357,9.87089857 14.6649357,9.01994285 L14.6649357,1.95111267 C14.6649357,1.10015696 15.3572975,0.407795198 16.2082532,0.407795198 L22.9797197,0.407795198 C23.831171,0.407795198 24.5235328,1.10015696 24.5235328,1.95111267 L24.5235328,9.01994285 C24.5235328,9.87089857 23.831171,10.5632603 22.9797197,10.5632603 Z"/>
    <path stroke="#000" stroke-width=".5" d="M16.2082532,1.58585096 C16.0070371,1.58585096 15.8429915,1.74989659 15.8429915,1.95111267 L15.8429915,9.01994285 C15.8429915,9.22115894 16.0070371,9.38470896 16.2082532,9.38470896 L22.9797197,9.38470896 C23.1814314,9.38470896 23.3449814,9.22115894 23.3449814,9.01994285 L23.3449814,1.95111267 C23.3449814,1.74989659 23.1814314,1.58585096 22.9797197,1.58585096 L16.2082532,1.58585096 Z M22.9797197,10.5632603 L16.2082532,10.5632603 C15.3572975,10.5632603 14.6649357,9.87089857 14.6649357,9.01994285 L14.6649357,1.95111267 C14.6649357,1.10015696 15.3572975,0.407795198 16.2082532,0.407795198 L22.9797197,0.407795198 C23.831171,0.407795198 24.5235328,1.10015696 24.5235328,1.95111267 L24.5235328,9.01994285 C24.5235328,9.87089857 23.831171,10.5632603 22.9797197,10.5632603 Z"/>
    <path fill="#000" d="M82.9388427,10.5809535 L75.8229299,10.5809535 L75.8229299,9.4028977 L82.9388427,9.4028977 C83.1400587,9.4028977 83.3041044,9.23885208 83.3041044,9.03763599 L83.3041044,6.3846564 C83.3041044,6.18344031 83.1400587,6.01989029 82.5478094,6.01989029 L76.9563811,6.01989029 C76.4964586,6.01989029 75.8040969,5.32752853 75.8040969,4.4760772 L75.8040969,1.96880581 C75.8040969,1.11785009 76.4964586,0.425488337 77.3474143,0.425488337 L84.1719107,0.425488337 L84.1719107,1.6035441 L77.3474143,1.6035441 C77.1461983,1.6035441 76.9821526,1.76758973 76.9821526,1.96880581 L76.9821526,4.4760772 C76.9821526,4.6777889 77.1461983,4.84133892 77.3474143,4.84133892 L82.9388427,4.84133892 C83.7897984,4.84133892 84.4821601,5.53370068 84.4821601,6.3846564 L84.4821601,9.03763599 C84.4821601,9.88859171 83.7897984,10.5809535 82.9388427,10.5809535"/>
    <path stroke="#000" stroke-width=".5" d="M82.9388427,10.5809535 L75.8229299,10.5809535 L75.8229299,9.4028977 L82.9388427,9.4028977 C83.1400587,9.4028977 83.3041044,9.23885208 83.3041044,9.03763599 L83.3041044,6.3846564 C83.3041044,6.18344031 83.1400587,6.01989029 82.5478094,6.01989029 L76.9563811,6.01989029 C76.4964586,6.01989029 75.8040969,5.32752853 75.8040969,4.4760772 L75.8040969,1.96880581 C75.8040969,1.11785009 76.4964586,0.425488337 77.3474143,0.425488337 L84.1719107,0.425488337 L84.1719107,1.6035441 L77.3474143,1.6035441 C77.1461983,1.6035441 76.9821526,1.76758973 76.9821526,1.96880581 L76.9821526,4.4760772 C76.9821526,4.6777889 77.1461983,4.84133892 77.3474143,4.84133892 L82.9388427,4.84133892 C83.7897984,4.84133892 84.4821601,5.53370068 84.4821601,6.3846564 L84.4821601,9.03763599 C84.4821601,9.88859171 83.7897984,10.5809535 82.9388427,10.5809535 Z"/>
    <polygon fill="#000" points="62.403 10.579 54.635 10.579 54.635 .425 55.813 .425 55.813 9.401 62.403 9.401"/>
    <polygon stroke="#000" stroke-width=".5" points="62.403 10.579 54.635 10.579 54.635 .425 55.813 .425 55.813 9.401 62.403 9.401"/>
    <polygon fill="#000" points="47.078 10.577 39.771 2.204 39.771 10.588 38.593 10.588 38.593 .424 39.781 .424 47.273 9.007 47.272 .425 48.45 .425 48.451 10.577"/>
    <polygon stroke="#000" stroke-width=".5" points="47.078 10.577 39.771 2.204 39.771 10.588 38.593 10.588 38.593 .424 39.781 .424 47.273 9.007 47.272 .425 48.45 .425 48.451 10.577"/>
    <polygon fill="#000" points="30.967 10.581 32.15 10.581 32.15 .425 30.967 .425"/>
    <polygon stroke="#000" stroke-width=".5" points="30.967 10.581 32.15 10.581 32.15 .425 30.967 .425"/>
    <polygon fill="#000" points="68.063 10.58 69.246 10.58 69.246 .424 68.063 .424"/>
    <polygon stroke="#000" stroke-width=".5" points="68.063 10.58 69.246 10.58 69.246 .424 68.063 .424"/>
    <polygon fill="#000" points="98.974 .426 94.825 .426 94.825 .424 93.642 .424 93.642 .426 89.493 .426 89.493 1.609 93.642 1.609 93.642 10.581 94.825 10.581 94.825 1.609 98.974 1.609"/>
    <polygon stroke="#000" stroke-width=".5" points="98.974 .426 94.825 .426 94.825 .424 93.642 .424 93.642 .426 89.493 .426 89.493 1.609 93.642 1.609 93.642 10.581 94.825 10.581 94.825 1.609 98.974 1.609"/>
    <path fill="#000" d="M8.81048922,10.5632108 L1.66731813,10.5632108 C0.816362411,10.5632108 0.124000653,9.87084901 0.124000653,9.01989329 L0.124000653,1.95106311 C0.124000653,1.1001074 0.816362411,0.407745638 1.66731813,0.407745638 L8.81048922,0.407745638 L8.81048922,1.5858014 L1.66731813,1.5858014 C1.46610204,1.5858014 1.30205641,1.74984703 1.30205641,1.95106311 L1.30205641,9.01989329 C1.30205641,9.22110938 1.46610204,9.3846594 1.66731813,9.3846594 L8.81048922,9.3846594 L8.81048922,10.5632108 Z"/>
    <path stroke="#000" stroke-width=".5" d="M8.81048922,10.5632108 L1.66731813,10.5632108 C0.816362411,10.5632108 0.124000653,9.87084901 0.124000653,9.01989329 L0.124000653,1.95106311 C0.124000653,1.1001074 0.816362411,0.407745638 1.66731813,0.407745638 L8.81048922,0.407745638 L8.81048922,1.5858014 L1.66731813,1.5858014 C1.46610204,1.5858014 1.30205641,1.74984703 1.30205641,1.95106311 L1.30205641,9.01989329 C1.30205641,9.22110938 1.46610204,9.3846594 1.66731813,9.3846594 L8.81048922,9.3846594 L8.81048922,10.5632108 Z"/>
  </g>
</svg>
