<?xml version="1.0" encoding="UTF-8" standalone="no"?>
<svg width="87px" height="58px" viewBox="0 0 87 58" version="1.1" xmlns="http://www.w3.org/2000/svg" xmlns:xlink="http://www.w3.org/1999/xlink">
    <!-- Generator: Sketch 3.8.3 (29802) - http://www.bohemiancoding.com/sketch -->
    <title>crowd_safe/illustration-investor-right</title>
    <desc>Created with Sketch.</desc>
    <defs>
        <path d="M360.241002,1680.91073 C359.488134,1680.62388 358.642102,1681.00425 358.347501,1681.75866 L353.985148,1693.2556 C353.69936,1694.02139 354.078312,1694.86552 354.83118,1695.15111 C355.39646,1695.36847 356.005805,1695.21051 356.399865,1694.80613 C356.532057,1694.66713 356.645365,1694.49527 356.719645,1694.30192 L361.087034,1682.80625 C361.371563,1682.04552 360.992611,1681.20138 360.241002,1680.91073 L360.241002,1680.91073 Z M362.320831,1672.81435 C361.505014,1672.71579 360.69801,1672.9483 360.053414,1673.46136 C358.726453,1674.52285 358.538866,1676.46259 359.576262,1677.74649 C360.078594,1678.38717 360.791174,1678.78776 361.603214,1678.88632 C362.413995,1678.97478 363.220999,1678.74858 363.855523,1678.22921 C363.953723,1678.15086 364.041852,1678.06746 364.131239,1677.98279 C365.202628,1676.88213 365.286979,1675.14457 364.332675,1673.94534 C363.845451,1673.30845 363.127835,1672.90407 362.320831,1672.81435 L362.320831,1672.81435 Z M362.926398,1676.79873 L362.808055,1676.9074 C362.517231,1677.1336 362.163459,1677.24228 361.799615,1677.19805 C361.445842,1677.15382 361.126062,1676.9807 360.89441,1676.685 C360.471394,1676.16689 360.50161,1675.40616 361.09207,1674.80844 C361.095847,1674.80465 361.100883,1674.79959 361.105919,1674.79454 C361.396742,1674.56707 361.75555,1674.4584 362.119395,1674.50263 C362.473167,1674.53801 362.787911,1674.71492 363.004455,1674.99672 C363.442579,1675.53 363.402292,1676.30969 362.926398,1676.79873 L362.926398,1676.79873 Z M418.267226,1677.43941 C419.274408,1676.40825 419.348687,1674.77937 418.458591,1673.65344 C417.996547,1673.05698 417.317958,1672.68672 416.56509,1672.597 C415.80341,1672.50854 415.045506,1672.7259 414.444974,1673.20483 C413.191033,1674.19682 413.024849,1676.01398 413.993001,1677.21321 C414.465118,1677.81472 415.133634,1678.20015 415.891538,1678.28355 C416.653219,1678.37832 417.401051,1678.16097 418.010395,1677.67698 C418.099783,1677.59737 418.187911,1677.51902 418.267226,1677.43941 L418.267226,1677.43941 Z M417.05735,1676.25535 L416.954114,1676.34886 C416.707355,1676.54599 416.397646,1676.63571 416.082902,1676.60033 C415.77823,1676.56621 415.512586,1676.41331 415.316186,1676.16183 C414.952341,1675.71197 414.976262,1675.06117 415.478594,1674.54686 C415.48363,1674.54306 415.488665,1674.53801 415.492442,1674.53295 C415.744238,1674.33077 416.053946,1674.24105 416.373726,1674.28022 C416.673362,1674.32066 416.939006,1674.46851 417.135407,1674.70481 C417.499251,1675.16479 417.470294,1675.83075 417.05735,1676.25535 L417.05735,1676.25535 Z M431.564536,1692.77667 L422.274549,1670.46012 C421.704232,1669.0726 420.617736,1667.99722 419.235379,1667.42477 C417.853023,1666.85611 416.329662,1666.85611 414.952341,1667.43867 L410.722181,1669.21666 C408.401887,1670.17832 407.098846,1672.68167 407.359454,1675.09024 C405.190238,1676.35391 401.0545,1674.23094 399.638152,1673.28823 C394.553146,1670.19854 390.544565,1671.32448 389.447996,1671.73896 L370.199505,1673.28318 C370.115154,1672.75496 369.982961,1672.24191 369.75131,1671.74907 C369.113009,1670.41084 367.986225,1669.40369 366.59002,1668.91464 L362.310759,1667.41971 C359.518349,1666.44163 356.227385,1668.00227 355.244124,1670.79121 L347.321385,1693.08753 C346.82409,1694.47505 346.908441,1695.96619 347.542965,1697.29305 C348.177489,1698.63128 349.303014,1699.64349 350.705514,1700.13632 L354.97848,1701.63252 C357.019281,1702.34776 359.301805,1701.81069 360.806282,1700.26522 C361.312391,1699.74711 361.686307,1699.13423 361.951951,1698.45816 C362.71489,1698.75512 363.713259,1699.36169 364.273503,1700.63042 C364.317567,1700.74415 364.40066,1700.8225 364.469904,1700.91727 C364.131239,1701.73614 363.987716,1702.61945 364.106059,1703.52803 C364.283575,1704.87511 364.967199,1706.07561 366.04866,1706.90458 C367.548101,1708.06463 369.510845,1708.2466 371.15381,1707.53136 C370.80885,1709.64423 371.39931,1711.65853 372.934002,1712.82743 C373.922299,1713.57806 375.161132,1713.83459 376.425144,1713.64251 C376.365972,1714.1505 376.365972,1714.65471 376.435216,1715.14249 C376.612732,1716.39732 377.237184,1717.45376 378.200301,1718.12477 C379.729957,1719.19131 381.868958,1719.10159 383.885838,1718.07549 C383.875767,1718.33707 383.84681,1718.60876 383.870731,1718.87034 C383.989075,1720.14792 384.554355,1721.25869 385.454523,1722.00931 C387.50036,1723.70264 390.790065,1723.17948 393.111618,1720.78987 C393.26899,1720.62685 393.421326,1720.45499 393.573662,1720.27681 L394.979939,1718.55947 C395.791979,1717.57633 396.34341,1716.45166 396.598983,1715.30045 C397.941052,1716.24442 399.254164,1716.56918 400.523212,1716.23936 C401.359173,1716.01696 402.047833,1715.55319 402.603041,1714.97569 C403.389902,1714.16567 403.906082,1713.16357 404.235934,1712.37883 C404.60985,1712.39399 404.988802,1712.38894 405.362718,1712.29416 C406.266663,1712.07302 407.004423,1711.56881 407.594883,1710.95719 C408.317536,1710.21162 408.809795,1709.32831 409.134611,1708.62697 C409.616799,1708.72554 410.0587,1708.73059 410.466608,1708.63708 C411.046996,1708.51324 411.475048,1708.21248 411.750764,1707.8814 C412.138529,1707.59076 412.468381,1707.29885 412.754169,1707.01325 C414.026994,1705.70535 414.346774,1704.35195 414.366917,1703.35996 C414.376989,1702.89114 414.322853,1702.44253 414.219617,1702.00277 L418.079639,1700.53185 C418.626035,1701.12452 419.279444,1701.60724 420.042383,1701.91937 C421.42348,1702.48676 422.943065,1702.48171 424.320385,1701.90421 L428.554323,1700.13253 C429.253055,1699.84062 429.877507,1699.41097 430.403759,1698.87264 C431.97748,1697.24882 432.434488,1694.86047 431.564536,1692.77667 L431.564536,1692.77667 Z M359.291733,1697.27915 C358.819617,1698.59716 357.264781,1699.31746 355.947892,1698.85369 L351.668631,1697.3575 C351.00515,1697.13003 350.478898,1696.65742 350.179262,1696.02558 C349.888438,1695.40259 349.84941,1694.71136 350.076026,1694.07573 L358.002542,1671.77814 C358.130957,1671.42304 358.322322,1671.10713 358.58293,1670.84049 C359.296769,1670.11008 360.383266,1669.85735 361.347642,1670.19854 L365.625644,1671.69474 C366.289125,1671.92599 366.815377,1672.39481 367.116272,1673.02665 C367.410873,1673.64838 367.444865,1674.33961 367.219508,1674.98156 L359.291733,1697.27915 Z M371.802182,1702.91136 L370.839065,1704.18009 C370.081162,1705.13669 368.757977,1705.29086 367.828853,1704.57436 C367.371844,1704.22432 367.081021,1703.71506 367.008,1703.14767 C366.938756,1702.58027 367.081021,1702.01288 367.431016,1701.55796 L368.399169,1700.28923 C368.453305,1700.22099 368.512477,1700.15654 368.571649,1700.09715 C369.329553,1699.32251 370.543206,1699.23406 371.409382,1699.90001 C371.86639,1700.25005 372.152178,1700.75426 372.230234,1701.32671 C372.304514,1701.88399 372.157214,1702.45138 371.802182,1702.91136 L371.802182,1702.91136 Z M378.362709,1709.26892 C378.343824,1709.29798 378.323681,1709.32831 378.303537,1709.35738 C377.138984,1710.64127 375.565263,1711.13916 374.699087,1710.48331 C373.764927,1709.77186 373.641547,1707.68932 374.944588,1705.82793 L376.272808,1703.92356 C376.450324,1703.67588 376.641688,1703.44463 376.843124,1703.23739 C377.988793,1702.06217 379.474385,1701.65274 380.310345,1702.29342 C381.352778,1703.08322 381.23947,1705.25548 380.059809,1706.9387 L378.81594,1708.71164 L378.362709,1709.26892 Z M384.706691,1713.68168 C383.064986,1715.74527 380.777426,1716.33793 379.868445,1715.70609 C379.572585,1715.49885 379.396328,1715.16776 379.327085,1714.7179 C379.179784,1713.68168 379.685893,1712.29922 380.635161,1711.11515 L381.024185,1710.63622 C381.053141,1710.59199 381.09217,1710.55787 381.117349,1710.51743 L381.131198,1710.49848 L382.237838,1709.12107 C382.381362,1708.94289 382.533698,1708.77482 382.686034,1708.61181 C384.323962,1706.92859 386.246419,1706.51916 387.087416,1707.11182 C387.373203,1707.30895 387.54946,1707.63498 387.618704,1708.08359 C387.766004,1709.12612 387.269967,1710.50732 386.310627,1711.6876 L384.706691,1713.68168 Z M383.934939,1704.38228 C383.939974,1704.3469 383.939974,1704.31783 383.939974,1704.28371 L384.018031,1704.3469 C383.989075,1704.357 383.960118,1704.36711 383.934939,1704.38228 L383.934939,1704.38228 Z M392.723853,1716.67786 L391.316318,1718.40152 C390.077485,1719.88128 388.223012,1720.48406 387.322844,1719.73343 C386.940115,1719.41751 386.821772,1718.93352 386.787779,1718.58348 C386.698392,1717.62562 387.111336,1716.49083 387.889384,1715.54308 L389.29566,1713.82448 C389.39386,1713.70695 389.497097,1713.59828 389.595297,1713.49466 C390.805173,1712.24993 392.461986,1711.79627 393.289134,1712.48245 C393.815386,1712.92221 393.854414,1713.67157 393.829235,1714.07721 C393.780134,1714.9403 393.377262,1715.88806 392.723853,1716.67786 L392.723853,1716.67786 Z M409.872371,1705.61057 C409.8132,1705.65101 409.759064,1705.69524 409.704928,1705.74452 C409.291983,1705.65606 407.963763,1705.17713 405.136102,1702.555 L394.783539,1693.51718 C394.169158,1692.98391 393.299205,1693.07742 392.718817,1693.65998 C392.192565,1694.27286 392.255514,1695.2004 392.866118,1695.73367 L403.18343,1704.74243 C404.403378,1705.87721 405.49491,1706.75673 406.469358,1707.39868 C406.080334,1708.2327 405.425667,1709.2487 404.669022,1709.43193 C403.788997,1709.64423 402.662213,1708.63708 401.973553,1707.92563 L390.461472,1697.90593 C389.850869,1697.37266 388.921744,1697.41689 388.395492,1698.05378 C387.864204,1698.66035 387.933448,1699.5942 388.542792,1700.12748 L399.962968,1710.05872 C400.469076,1710.58693 400.970149,1711.00142 401.477516,1711.35146 C401.098565,1712.21076 400.498033,1713.19769 399.790488,1713.38598 C399.166036,1713.54394 398.255796,1713.03973 397.125235,1711.87462 L385.439415,1701.69696 C384.864063,1701.19276 384.014254,1701.24204 383.488002,1701.76141 C383.173258,1701.04996 382.704919,1700.42823 382.080466,1699.9493 C380.152973,1698.47332 377.301392,1698.8777 375.117067,1700.86294 C374.925703,1699.54492 374.252151,1698.37476 373.199646,1697.56474 C371.084566,1695.9308 368.06554,1696.22271 366.29416,1698.27113 C365.3109,1696.8495 364.012895,1696.09887 362.955355,1695.69955 L369.869654,1676.2604 L384.58457,1675.07507 L380.82149,1677.75533 C380.694333,1677.84505 380.575989,1677.95878 380.482825,1678.08642 C380.384625,1678.22921 378.102101,1681.43895 378.618281,1685.65332 C378.195265,1686.54294 377.492756,1688.37401 377.964872,1689.90938 C378.220444,1690.71813 378.751732,1691.33986 379.582657,1691.75056 C379.724921,1691.80995 383.10905,1693.23159 386.133111,1691.38536 C388.28722,1690.0724 389.61544,1687.52988 390.102664,1683.82225 L391.911813,1683.71357 L408.288579,1698.582 C409.119504,1699.20878 411.480084,1701.41516 411.441056,1703.29172 C411.43602,1703.61143 411.420913,1704.54024 409.872371,1705.61057 L409.872371,1705.61057 Z M412.984561,1699.32757 C411.833857,1697.63424 410.3533,1696.47419 410.146828,1696.33139 L393.421326,1681.13188 C393.131762,1680.86524 392.742738,1680.73256 392.354973,1680.75277 L388.68128,1680.97392 C387.952332,1681.01436 387.363131,1681.6007 387.308995,1682.33237 C387.062236,1685.67859 386.143183,1687.93931 384.628635,1688.8719 C382.921463,1689.92834 380.802605,1689.08925 380.77239,1689.0842 C380.609982,1688.81251 380.880662,1687.60822 381.416986,1686.63646 C381.574358,1686.33949 381.638566,1685.99956 381.579394,1685.66848 C381.107277,1682.93894 382.34611,1680.63904 382.74017,1680.00721 L390.470285,1674.50263 C390.898337,1674.33077 393.918622,1673.25917 398.064431,1675.77641 C398.74302,1676.23007 404.220826,1679.76963 408.298651,1677.96763 L416.619226,1697.95521 L412.984561,1699.32757 Z M427.428798,1697.41689 L423.19486,1699.18477 C422.540193,1699.46025 421.81754,1699.46025 421.157836,1699.19362 C420.499392,1698.92193 419.983211,1698.40888 419.707496,1697.74797 L410.417508,1675.43143 C409.999528,1674.43439 410.221108,1673.29834 410.96894,1672.52876 C411.219476,1672.27224 411.519113,1672.06878 411.859036,1671.92599 L416.092974,1670.14926 C416.747642,1669.87251 417.47533,1669.87251 418.128739,1670.1442 C418.788443,1670.42095 419.309659,1670.934 419.580339,1671.5949 L428.874103,1693.91271 C429.410427,1695.23452 428.765831,1696.8495 427.428798,1697.41689 L427.428798,1697.41689 Z M420.140583,1681.06869 C419.835911,1680.31301 418.989879,1679.95287 418.231975,1680.25362 C417.480366,1680.55943 417.125335,1681.41368 417.42623,1682.16936 L422.299728,1694.23748 C422.609436,1694.9881 423.460504,1695.3533 424.207077,1695.04749 C424.399701,1694.96915 424.570922,1694.85541 424.709409,1694.71136 C425.097174,1694.30698 425.240697,1693.69536 425.014081,1693.13176 L420.140583,1681.06869 Z" id="path-1"></path>
        <mask id="mask-2" maskContentUnits="userSpaceOnUse" maskUnits="objectBoundingBox" x="0" y="0" width="85" height="56" fill="white">
            <use xlink:href="#path-1"></use>
        </mask>
    </defs>
    <g id="Page-1" stroke="none" stroke-width="1" fill="none" fill-rule="evenodd">
        <g id="Crowdsafe---HD" transform="translate(-346.000000, -1666.000000)" stroke="#FFFFFF" stroke-width="0.8" fill="#03A9F4">
            <use id="crowd_safe/illustration-investor-right" mask="url(#mask-2)" xlink:href="#path-1"></use>
        </g>
    </g>
</svg>