<?xml version="1.0" encoding="UTF-8" standalone="no"?>
<svg width="87px" height="42px" viewBox="0 0 87 42" version="1.1" xmlns="http://www.w3.org/2000/svg" xmlns:xlink="http://www.w3.org/1999/xlink">
    <!-- Generator: Sketch 3.8.3 (29802) - http://www.bohemiancoding.com/sketch -->
    <title>crowd_safe/illustration-fixed-price</title>
    <desc>Created with Sketch.</desc>
    <defs></defs>
    <g id="Page-1" stroke="none" stroke-width="1" fill="none" fill-rule="evenodd">
        <g id="Crowdsafe---HD" transform="translate(-346.000000, -1523.000000)">
            <g id="crowd_safe/illustration-fixed-price" transform="translate(347.000000, 1524.000000)">
                <g id="Group-18" transform="translate(0.000000, 0.448511)">
                    <g id="Group-15" stroke="#03A9F4" stroke-width="2">
                        <path d="M1.07341678,22.099175 L16.5212498,37.6444985 C17.8511115,38.9803561 20.0066785,38.9803561 21.3341584,37.6444985 C22.6648141,36.3086409 22.6648141,34.1394703 21.3341584,32.8012158 L11.694844,23.1010682 L44.399122,23.1010682 C46.2783953,23.1010682 47.8011863,21.568667 47.8011863,19.6775337 C47.8011863,17.7864003 46.2783953,16.2539991 44.399122,16.2539991 L11.694844,16.2539991 L21.3341584,6.5538515 C22.6648141,5.21799392 22.6648141,3.04882327 21.3341584,1.71056882 C20.6704185,1.04264003 19.7994582,0.70867564 18.9277041,0.70867564 C18.0559499,0.70867564 17.1849897,1.04264003 16.5212498,1.71056882 L1.07341678,17.2558923 C-0.254063142,18.5917499 -0.254063142,20.7601216 1.07341678,22.099175 L1.07341678,22.099175 Z" id="Fill-2"></path>
                    </g>
                    <path id="Fill-1" fill="#1397F1" transform="translate(67.558986, 10.729316) rotate(-180.000000) translate(-67.558986, -10.729316) "></path>
                    <g id="Group-14" transform="translate(35.727629, 0.000000)" stroke="#03A9F4" stroke-width="2">
                        <path d="M1.62796592,21.8930439 L17.0757989,37.4383673 C18.4056607,38.7742249 20.5612276,38.7742249 21.8887076,37.4383673 C23.2193633,36.1025098 23.2193633,33.9333391 21.8887076,32.5950847 L12.2493932,22.894937 L44.9536711,22.894937 C46.8329444,22.894937 48.3557354,21.3625358 48.3557354,19.4714025 C48.3557354,17.5802692 46.8329444,16.047868 44.9536711,16.047868 L12.2493932,16.047868 L21.8887076,6.34772036 C23.2193633,5.01186279 23.2193633,2.84269214 21.8887076,1.50443769 C21.2249676,0.836508901 20.3540074,0.502544507 19.4822532,0.502544507 C18.6104991,0.502544507 17.7395389,0.836508901 17.0757989,1.50443769 L1.62796592,17.0497612 C0.300486005,18.3856188 0.300486005,20.5539904 1.62796592,21.8930439 L1.62796592,21.8930439 Z" id="Fill-2" transform="translate(24.494046, 19.471403) rotate(-180.000000) translate(-24.494046, -19.471403) "></path>
                    </g>
                </g>
                <path d="M50.5095866,12.9463548 L50.5095866,9.06409472 C50.5095866,4.7829108 47.0480955,1.29957447 42.7937605,1.29957447 C38.5394255,1.29957447 35.0779344,4.7829108 35.0779344,9.06409472 L35.0779344,12.9463548 L33.6633663,12.9463548 L33.6633663,27.1813086 L51.9241547,27.1813086 L51.9241547,12.9463548 L50.5095866,12.9463548 Z M37.1354881,9.06409472 C37.1354881,5.92446782 39.6738234,3.3701132 42.7937605,3.3701132 C45.9136976,3.3701132 48.452033,5.92446782 48.452033,9.06409472 L48.452033,12.9463548 L37.1354881,12.9463548 L37.1354881,9.06409472 Z" id="Page-1" fill="#03A9F4"></path>
            </g>
        </g>
    </g>
</svg>