<?xml version="1.0" encoding="UTF-8" standalone="no"?>
<svg width="87px" height="45px" viewBox="0 0 87 45" version="1.1" xmlns="http://www.w3.org/2000/svg" xmlns:xlink="http://www.w3.org/1999/xlink">
    <!-- Generator: Sketch 3.8.3 (29802) - http://www.bohemiancoding.com/sketch -->
    <title>crowd_safe/illustration-extendability</title>
    <desc>Created with Sketch.</desc>
    <defs></defs>
    <g id="Page-1" stroke="none" stroke-width="1" fill="none" fill-rule="evenodd">
        <g id="Crowdsafe---HD" transform="translate(-345.000000, -1361.000000)" fill="#FFFFFF">
            <g id="crowd_safe/illustration-extendability" transform="translate(346.000000, 1354.000000)">
                <rect id="Rectangle-37" stroke="#03A9F4" stroke-width="2" x="0" y="40.030303" width="85" height="5.09090909" rx="2.54545455"></rect>
                <path d="M79.5699853,26.9431881 C79.5699853,26.9431881 79.5647319,26.9431881 79.5647319,26.9380121 L69.0840684,16.611762 C68.1200575,15.66066 66.5650318,15.66066 65.6010209,16.611762 C64.6409501,17.5615699 64.6356966,19.0923912 65.6010209,20.0434932 L71.8854788,26.2353612 L42.821995,26.2353612 C41.8054495,23.4195817 39.0867811,21.3983283 35.8808539,21.3983283 C31.8067915,21.3983283 28.5076152,24.6476032 28.5076152,28.6616418 C28.5076152,32.6756803 31.8067915,35.9249553 35.8808539,35.9249553 C39.0867811,35.9249553 41.8054495,33.9037018 42.821995,31.0879223 L71.8854788,31.0879223 L65.6010209,37.2797903 C64.6356966,38.2308923 64.6356966,39.7617136 65.6010209,40.7115216 C66.0830263,41.1877196 66.7134422,41.4245245 67.3399179,41.4245245 C67.9703338,41.4245245 68.602063,41.1877196 69.078815,40.7115216 L81.3141358,28.6616418 L79.5752388,26.9483642 L79.5699853,26.9431881 L79.5699853,26.9431881 Z" id="Fill-2" stroke="#FFFFFF" stroke-width="5.1" transform="translate(54.910876, 28.661480) rotate(-45.000000) translate(-54.910876, -28.661480) "></path>
                <path d="M79.5699853,26.9431881 C79.5699853,26.9431881 79.5647319,26.9431881 79.5647319,26.9380121 L69.0840684,16.611762 C68.1200575,15.66066 66.5650318,15.66066 65.6010209,16.611762 C64.6409501,17.5615699 64.6356966,19.0923912 65.6010209,20.0434932 L71.8854788,26.2353612 L42.821995,26.2353612 C41.8054495,23.4195817 39.0867811,21.3983283 35.8808539,21.3983283 C31.8067915,21.3983283 28.5076152,24.6476032 28.5076152,28.6616418 C28.5076152,32.6756803 31.8067915,35.9249553 35.8808539,35.9249553 C39.0867811,35.9249553 41.8054495,33.9037018 42.821995,31.0879223 L71.8854788,31.0879223 L65.6010209,37.2797903 C64.6356966,38.2308923 64.6356966,39.7617136 65.6010209,40.7115216 C66.0830263,41.1877196 66.7134422,41.4245245 67.3399179,41.4245245 C67.9703338,41.4245245 68.602063,41.1877196 69.078815,40.7115216 L81.3141358,28.6616418 L79.5752388,26.9483642 L79.5699853,26.9431881 L79.5699853,26.9431881 Z" id="Fill-2" stroke="#03A9F4" stroke-width="2" transform="translate(54.910876, 28.661480) rotate(-45.000000) translate(-54.910876, -28.661480) "></path>
            </g>
        </g>
    </g>
</svg>