<svg xmlns="http://www.w3.org/2000/svg" width="243" height="56" viewBox="0 0 243 56">
  <g fill="none" fill-rule="evenodd" transform="translate(.5 -.21)">
    <path fill="#FFF" d="M89.6651584,17.2685846 C92.4754359,19.5361878 94.0743629,22.5886849 94.4619874,26.4261673 L82.8914543,26.4261673 C82.775167,25.0694816 82.3778579,24.0229112 81.699515,23.2864246 C81.0211722,22.5499381 80.1393397,22.1817004 79.0539911,22.1817004 C77.658543,22.1817004 76.5732107,22.8115807 75.7979617,24.0713603 C75.0227127,25.3311399 74.635094,27.1238762 74.635094,29.4496232 C74.635094,31.8916574 75.0227127,33.7522271 75.7979617,35.0313879 C76.5732107,36.3105487 77.658543,36.9501195 79.0539911,36.9501195 C80.1781021,36.9501195 81.089006,36.5334294 81.7867301,35.7000368 C82.4844542,34.8666441 82.8526919,33.6940976 82.8914543,32.1823621 L94.4619874,32.1823621 C94.1518878,36.2524192 92.5917227,39.4502733 89.7814452,41.7760202 C86.9711676,44.1017671 83.3372426,45.2646232 78.879561,45.2646232 C75.6622777,45.2646232 72.8520423,44.6250524 70.4487705,43.3458915 C68.0454987,42.0667307 66.1849291,40.2352325 64.8670058,37.8513419 C63.5490826,35.4674513 62.8901308,32.6669064 62.8901308,29.4496232 C62.8901308,26.3098648 63.5393921,23.5674627 64.8379341,21.2223346 C66.1364762,18.8772064 67.9970458,17.0650891 70.4196988,15.7859283 C72.8423519,14.5067675 75.6622777,13.8671967 78.879561,13.8671967 C83.2597177,13.8671967 86.8548809,15.0009813 89.6651584,17.2685846 Z M118.584223,14.681204 L118.584223,24.2167187 C117.5764,23.9841441 116.452305,23.8678585 115.211907,23.8678585 C112.808635,23.8678585 110.967446,24.6043339 109.688286,26.077307 C108.409125,27.55028 107.769554,29.6628018 107.769554,32.4149357 L107.769554,44.334329 L96.6060247,44.334329 L96.6060247,14.7974908 L106.955547,14.7974908 L106.955547,18.8093842 L107.071833,18.8093842 C108.11842,17.2588862 109.349109,16.1251016 110.763938,15.4079963 C112.178768,14.690891 113.816457,14.3323437 115.677054,14.3323437 C116.762403,14.3323437 117.731449,14.4486294 118.584223,14.681204 Z M140.729584,50.4975276 C139.508567,52.2806002 138.035616,53.5597418 136.310687,54.3349908 C134.585758,55.1102398 132.424784,55.4978585 129.8277,55.4978585 C127.501953,55.4978585 125.563859,55.3040491 124.013362,54.9164246 L124.013362,46.8926379 C124.904898,47.1252126 125.815802,47.2414982 126.7461,47.2414982 C127.908974,47.2414982 128.810187,46.9992365 129.449768,46.5147059 C130.089348,46.0301753 130.409134,45.3033903 130.409134,44.334329 C130.409134,43.9079421 130.312229,43.365276 130.118417,42.7063143 C129.924604,42.0473527 129.401319,40.5744018 128.548545,38.2874173 L119.594464,14.7974908 L131.688288,14.7974908 L134.30474,24.6237224 C135.351326,28.6550171 136.26223,32.7443941 137.037479,36.8919761 L137.153766,36.8919761 C137.735203,33.170781 138.529821,29.0620231 139.537645,24.565579 L141.805237,14.7974908 L153.201339,14.7974908 L144.072828,43.0551746 C143.065005,46.2336954 141.950601,48.7144549 140.729584,50.4975276 Z M179.794669,15.8440717 C181.732791,17.1232325 183.234814,18.9450403 184.300781,21.3095496 C185.366748,23.674059 185.899724,26.4261516 185.899724,29.5659099 C185.899724,32.7056683 185.386129,35.4577608 184.358925,37.8222702 C183.33172,40.1867796 181.868459,42.0085874 179.969099,43.2877482 C178.069739,44.566909 175.860313,45.2064798 173.340754,45.2064798 C171.790256,45.2064798 170.326995,44.8963848 168.950928,44.2761857 C167.574861,43.6559865 166.460458,42.7450826 165.607684,41.5434467 L165.491397,41.5434467 L165.491397,55.0908548 L154.327868,55.0908548 L154.327868,14.7974908 L165.02625,14.7974908 L165.02625,18.169807 L165.142537,18.169807 C166.034073,16.7743588 167.167858,15.7180979 168.543925,15.0009926 C169.919991,14.2838873 171.422014,13.9253401 173.050037,13.9253401 C175.608358,13.9253401 177.856547,14.5649109 179.794669,15.8440717 Z M166.160046,24.3039338 C165.326653,25.6024759 164.909963,27.3564503 164.909963,29.5659099 C164.909963,31.7753695 165.326653,33.529344 166.160046,34.827886 C166.993438,36.1264281 168.107842,36.7756893 169.50329,36.7756893 C170.937501,36.7756893 172.080976,36.1264281 172.93375,34.827886 C173.786524,33.529344 174.212904,31.7753695 174.212904,29.5659099 C174.212904,27.3564503 173.786524,25.6024759 172.93375,24.3039338 C172.080976,23.0053918 170.937501,22.3561305 169.50329,22.3561305 C168.107842,22.3561305 166.993438,23.0053918 166.160046,24.3039338 Z M207.550866,35.8453952 L207.550866,44.1017555 C206.853142,44.3343302 205.990691,44.5184491 204.963486,44.6541176 C203.936281,44.7897862 202.996305,44.8576195 202.143532,44.8576195 C198.112237,44.8576195 195.185716,44.0630012 193.363881,42.4737408 C191.542046,40.8844804 190.631142,38.3261972 190.631142,34.7988143 L190.631142,22.7631342 L186.154101,22.7631342 L186.154101,14.7974908 L190.631142,14.7974908 L190.631142,6.54113051 L201.794671,6.54113051 L201.794671,14.7974908 L207.260149,14.7974908 L207.260149,22.7631342 L201.794671,22.7631342 L201.794671,31.7753585 C201.794671,33.3646189 202.075695,34.488713 202.63775,35.1476746 C203.199806,35.8066363 204.139781,36.1361121 205.457704,36.1361121 C206.271716,36.1361121 206.969429,36.0392075 207.550866,35.8453952 Z M234.202339,15.7859283 C236.683136,17.0650891 238.601848,18.8868969 239.958534,21.2514062 C241.31522,23.6159156 241.993552,26.3873891 241.993552,29.5659099 C241.993552,32.7444307 241.31522,35.5159042 239.958534,37.8804136 C238.601848,40.244923 236.683136,42.0667307 234.202339,43.3458915 C231.721542,44.6250524 228.814402,45.2646232 225.480832,45.2646232 C222.147261,45.2646232 219.240121,44.6250524 216.759324,43.3458915 C214.278528,42.0667307 212.359815,40.244923 211.00313,37.8804136 C209.646444,35.5159042 208.968111,32.7444307 208.968111,29.5659099 C208.968111,26.3873891 209.646444,23.6159156 211.00313,21.2514062 C212.359815,18.8868969 214.278528,17.0650891 216.759324,15.7859283 C219.240121,14.5067675 222.147261,13.8671967 225.480832,13.8671967 C228.814402,13.8671967 231.721542,14.5067675 234.202339,15.7859283 Z M221.963157,24.1295037 C221.129764,25.4280457 220.713074,27.240163 220.713074,29.5659099 C220.713074,31.8916568 221.129764,33.7037741 221.963157,35.0023162 C222.79655,36.3008582 223.969096,36.9501195 225.480832,36.9501195 C226.992567,36.9501195 228.165114,36.3008582 228.998506,35.0023162 C229.831899,33.7037741 230.248589,31.8916568 230.248589,29.5659099 C230.248589,27.240163 229.831899,25.4280457 228.998506,24.1295037 C228.165114,22.8309616 226.992567,22.1817004 225.480832,22.1817004 C223.969096,22.1817004 222.79655,22.8309616 221.963157,24.1295037 Z"/>
    <g transform="translate(.185 .46)">
      <path stroke="#D3D3D3" stroke-linecap="square" stroke-width=".5" d="M66.5263332,0.475928955 L44.2050792,36.8926369"/>
      <g fill="#FFF" opacity=".8" transform="translate(0 1.198)">
        <path d="M1.32590905,45.5043145 L40.0780318,45.5043145 L28.3916904,27.3583653 L28.951666,26.997718 L28.6641647,26.401059 C33.1899343,24.2203806 36.1144477,19.5611362 36.1144477,14.5313002 C36.1144477,7.91788686 31.181845,2.30597682 24.6413567,1.47750465 C23.8400656,1.37121094 22.4474192,1.326572 22.0279899,1.326572 L1.32590905,1.32590905 L1.32590905,45.5043145 Z M42.508865,46.8302236 L0.00287280293,46.8302236 L0,46.1672691 L0,-7.10542736e-15 L12.0025707,-7.10542736e-15 L12.0025707,0.589587556 L12.0025707,0.000220984841 L22.0279899,0.000662954523 C22.3722843,0.000662954523 23.8822737,0.0395562866 24.811515,0.162423858 C32.0096542,1.07420731 37.4403567,7.25161756 37.4403567,14.5313002 C37.4403567,19.8176996 34.5047941,24.7321814 29.9019008,27.2547234 L42.508865,46.8302236 Z"/>
        <polygon points=".602 27.662 28.949 27.662 28.949 26.337 .602 26.337"/>
        <polygon points="1.243 46.515 .117 45.814 20.084 13.704 21.21 14.404"/>
        <polygon points="19.976 46.191 21.302 46.191 21.302 14.176 19.976 14.176"/>
        <polygon points="40.682 46.449 11.437 .988 12.552 .271 41.797 45.731"/>
      </g>
    </g>
  </g>
</svg>
