<?xml version="1.0" encoding="UTF-8"?>
<svg width="96px" height="96px" viewBox="0 0 96 96" version="1.1" xmlns="http://www.w3.org/2000/svg" xmlns:xlink="http://www.w3.org/1999/xlink">
    <!-- Generator: Sketch 42 (36781) - http://www.bohemiancoding.com/sketch -->
    <title>small_2x</title>
    <desc>Created with Sketch.</desc>
    <defs></defs>
    <g id="Page-1" stroke="none" stroke-width="1" fill="none" fill-rule="evenodd">
        <g id="small_2x" fill-rule="nonzero">
            <g id="user/small">
                <g id="Page-1">
                    <g id="user/small">
                        <g id="Page-1">
                            <g id="user">
                                <rect id="Rectangle-1" fill="#EEEEEE" x="0" y="0" width="96" height="96"></rect>
                                <g id="Layer_1" transform="translate(14.400000, 16.800000)" fill="#FFFFFF">
                                    <g id="Group">
                                        <path d="M68.1565924,79.2 L0.00576028564,79.2 L0.00576028564,53.903617 L0.0661215892,53.903617 C0.144007142,53.3608786 0.312921434,52.3784098 0.65707822,51.026665 C2.11451162,45.2883092 12.2323317,43.5264736 15.2328726,42.1970798 C18.2343871,40.8657424 25.6646688,38.4892564 25.6646688,38.4892564 L25.6748914,38.4892564 L25.9207176,34.0904982 C25.9207176,34.0904982 24.278306,31.7849522 23.8061248,30.039151 C23.3339436,28.292378 23.1202452,26.9620122 23.1202452,26.9620122 C23.1202452,26.9620122 21.8346468,27.4182626 21.3634392,26.2540712 C20.8917448,25.0898798 19.2210997,20.350027 19.5209591,18.9778749 C19.8203317,17.6057227 20.5943194,17.9764564 20.5943194,17.9764564 C20.5943194,17.9764564 19.6129614,11.5962405 19.8704705,10.3494479 C20.1279796,9.103627 18.8326455,0.00923190182 34.2666414,0.00145766871 C49.5541152,0.00923190182 48.3790166,9.1128589 48.6370128,10.3601374 C48.8935484,11.6069301 47.9078092,17.9818012 47.9078092,17.9818012 C47.9078092,17.9818012 48.67985,17.6071804 48.9806828,18.9788466 C49.2810288,20.3509988 47.6089234,25.088422 47.1362554,26.2530994 C46.6650478,27.416805 45.3794494,26.9561816 45.3794494,26.9561816 C45.3794494,26.9561816 45.1652642,28.2807166 44.693083,30.0265178 C44.2223622,31.772319 42.5780034,33.769811 42.5780034,33.769811 L42.8311314,37.9241668 C43.8275798,38.5023754 50.3597438,40.5717792 53.1276014,41.799622 C56.1291158,43.1304736 66.242555,45.1401128 67.7004754,50.877983 C68.0548546,52.271028 68.1366346,53.3288098 68.1517248,53.9041032 L68.157566,53.9041032 L68.157566,79.2 L68.1565924,79.2 L68.1565924,79.2 Z" id="Shape"></path>
                                    </g>
                                </g>
                            </g>
                        </g>
                    </g>
                </g>
            </g>
        </g>
    </g>
</svg>