<svg xmlns="http://www.w3.org/2000/svg" width="80" height="73" viewBox="0 0 80 73">
  <g fill="#FFF" fill-rule="evenodd" transform="translate(.77 -.122)">
    <path d="M4.87193162 56.2500354L.0102711271 69.1064265 2.85524283 69.1064265 3.86358722 66.2434486 8.67122927 66.2434486 9.64356137 69.1064265 12.5785638 69.1064265 7.77092177 56.2500354 4.87193162 56.2500354zM6.27641132 59.4193679L6.31242362 59.4193679 7.93297712 64.1367291 4.60183937 64.1367291 6.27641132 59.4193679zM15.8358263 59.797322L15.8358263 61.0937648 15.8898448 61.0937648C16.2139555 60.5535803 16.634099 60.1606961 17.1502753 59.9143619 17.6662015 59.668528 18.194632 59.5452359 18.7348165 59.5452359 19.4190502 59.5452359 19.9799918 59.6382676 20.4183915 59.8243312 20.8565412 60.0106448 21.201659 60.2684829 21.4537451 60.5985956 21.7058312 60.9289585 21.8828917 61.3308457 21.9849266 61.8050077 22.0867113 62.2794197 22.1379788 62.804349 22.1379788 63.3805458L22.1379788 69.1065015 19.5811055 69.1065015 19.5811055 63.8487057C19.5811055 63.0806934 19.4610645 62.5072475 19.2209825 62.1291184 18.9806504 61.7509892 18.554755 61.5619247 17.9425459 61.5619247 17.2463081 61.5619247 16.7421359 61.7689954 16.4300293 62.1831368 16.1179227 62.5972783 15.9618694 63.2787611 15.9618694 64.2268349L15.9618694 69.1065015 13.4049961 69.1065015 13.4049961 59.797322 15.8358263 59.797322zM29.1367693 66.6937024C29.4128636 66.5496532 29.6409415 66.3578377 29.821003 66.1175056 30.0010645 65.8774236 30.1361106 65.6043304 30.2261413 65.2982258 30.3161721 64.9921213 30.3611875 64.6710116 30.3611875 64.3348968 30.3611875 63.9507656 30.3251752 63.5876416 30.2531506 63.2455247 30.181126 62.9034079 30.0608349 62.6003043 29.8930276 62.3362141 29.7247201 62.072374 29.5026442 61.8620522 29.2268 61.7059989 28.9504556 61.5501957 28.6023367 61.4719189 28.1824433 61.4719189 27.8223203 61.4719189 27.5129647 61.5439435 27.2551266 61.6879927 26.9967884 61.8320419 26.7807146 62.0273586 26.6069052 62.2731926 26.4325957 62.5192767 26.3068027 62.8016231 26.228776 63.1194817 26.1504993 63.4375903 26.1117361 63.7707041 26.1117361 64.118823 26.1117361 64.4549378 26.1447473 64.7880516 26.2107699 65.1181643 26.2765424 65.4485271 26.3908314 65.7456286 26.5528867 66.0094687 26.7149421 66.2735589 26.9277648 66.4896327 27.1921051 66.6576901 27.4559452 66.8259976 27.786308 66.9097762 28.1824433 66.9097762 28.5425663 66.9097762 28.8604249 66.8377516 29.1367693 66.6937024M32.6389654 69.7907602C32.5369306 70.2709242 32.3176057 70.7180769 31.981741 71.1322184 31.6453761 71.5461098 31.15921 71.8974798 30.5232428 72.1855782 29.8867754 72.4736766 29.0344843 72.6179759 27.9663695 72.6179759 27.5099636 72.6179759 27.0448048 72.5607063 26.5708929 72.4466673 26.0964809 72.3326284 25.6643333 72.1553178 25.2744501 71.9154859 24.8843168 71.6751538 24.5602061 71.3665484 24.302118 70.9881692 24.0437798 70.61004 23.8969796 70.1568853 23.8609673 69.6284548L26.3998345 69.6284548C26.5196254 70.1086188 26.7537053 70.4417326 27.1020743 70.6280462 27.4499431 70.8141097 27.8520805 70.9073916 28.3084864 70.9073916 29.0287324 70.9073916 29.5536616 70.6908176 29.8840245 70.2589201 30.2141372 69.8267725 30.3729415 69.2803359 30.3611875 68.6203605L30.3611875 67.3959423 30.3251752 67.3959423C30.0488308 67.8883605 29.6559466 68.2512344 29.1457723 68.4853143 28.635348 68.7196444 28.0984146 68.8361842 27.5342219 68.8361842 26.8379841 68.8361842 26.2377791 68.7133922 25.7336069 68.4673082 25.2294347 68.2212241 24.8152933 67.8851094 24.4911826 67.4589638 24.1670719 67.0330683 23.9299909 66.5346481 23.7799396 65.9644534 23.6296383 65.3945087 23.5548628 64.7913027 23.5548628 64.1548353 23.5548628 63.5546303 23.6416424 62.9754325 23.8159519 62.4172418 23.9897613 61.8590512 24.2448484 61.3668831 24.5812133 60.9407375 24.917078 60.514842 25.3342205 60.1754761 25.8326407 59.92339 26.3305608 59.6713039 26.9040067 59.5452609 27.5522281 59.5452609 28.1644372 59.5452609 28.7013706 59.6595499 29.1637785 59.8873777 29.6256862 60.1154556 30.0128185 60.4995868 30.3251752 61.0397713L30.3611875 61.0397713 30.3611875 59.797347 32.7920177 59.797347 32.7920177 68.5125737C32.7920177 68.8847008 32.7407502 69.3105962 32.6389654 69.7907602M40.2517656 61.9760411C39.9454109 61.6401764 39.4802521 61.4718689 38.856289 61.4718689 38.4478995 61.4718689 38.1090337 61.5411426 37.8389415 61.6789396 37.5685991 61.8172369 37.3527754 61.9880452 37.1907201 62.1921149 37.0284146 62.3964347 36.9143757 62.6125085 36.8486032 62.8403363 36.7823306 63.0686643 36.7433173 63.2724839 36.7315633 63.4525454L40.8909839 63.4525454C40.7709429 62.804324 40.5578701 62.312406 40.2517656 61.9760411M37.3615284 66.8737139C37.7456596 67.2460911 38.2980983 67.4319046 39.0183443 67.4319046 39.5342705 67.4319046 39.9784222 67.3031106 40.3507994 67.0447723 40.7226764 66.7869343 40.9507543 66.5135909 41.0350331 66.2254925L43.2858019 66.2254925C42.9254288 67.3418738 42.3732402 68.1401465 41.6292361 68.6203105 40.8847318 69.1004745 39.9846744 69.3405565 38.9283136 69.3405565 38.1958134 69.3405565 37.5355879 69.2235165 36.9476371 68.9896866 36.3594362 68.7553566 35.8610159 68.4222428 35.4531266 67.9903453 35.0447371 67.5579476 34.7296295 67.0420214 34.5078037 66.4415663 34.2854778 65.8413613 34.17469 65.1811358 34.17469 64.4608898 34.17469 63.7649021 34.2884788 63.1166807 34.5168068 62.5162256 34.7446346 61.9162707 35.0687453 61.3970934 35.4891389 60.9586936 35.9090323 60.5207941 36.4102035 60.1754261 36.9926524 59.92334 37.5746012 59.6712539 38.2198216 59.5452109 38.9283136 59.5452109 39.7205842 59.5452109 40.4105698 59.6982631 40.9990208 60.0043677 41.5869716 60.3104722 42.0701366 60.7218627 42.4482658 61.237789 42.826645 61.7542153 43.0994882 62.3424162 43.2680458 63.0023917 43.435603 63.6628672 43.4956235 64.3528529 43.4476071 65.0730989L36.7315633 65.0730989C36.7675756 65.9013818 36.9773972 66.5018369 37.3615284 66.8737139"/>
    <polygon points="44.809 69.106 47.365 69.106 47.365 56.25 44.809 56.25"/>
    <polygon points="52.231 56.25 52.231 66.73 58.497 66.73 58.497 69.106 49.404 69.106 49.404 56.25"/>
    <path d="M59.5551586 69.1064015L62.112282 69.1064015 62.112282 59.7972219 59.5551586 59.7972219 59.5551586 69.1064015zM59.5551586 58.3567299L62.112282 58.3567299 62.112282 56.2500104 59.5551586 56.2500104 59.5551586 58.3567299zM66.1004442 66.7927363C66.214233 66.9908039 66.3617834 67.1528593 66.5415948 67.2789023 66.7216563 67.4049454 66.9289772 67.4979771 67.162807 67.5579976 67.396887 67.6182682 67.63997 67.6480284 67.8920561 67.6480284 68.0723677 67.6480284 68.2614323 67.6272713 68.4592498 67.5850069 68.6575676 67.5429925 68.8371289 67.47697 68.9994343 67.3869392 69.1614897 67.2969085 69.2967859 67.1771175 69.4048228 67.0268162 69.5128597 66.877015 69.566378 66.6879505 69.566378 66.4596225 69.566378 66.0754913 69.3115409 65.7873929 68.8016168 65.5953273 68.2911924 65.4035118 67.5799495 65.2111961 66.6673878 65.0191305 66.2952607 64.9353519 65.9323868 64.836318 65.5782658 64.722029 65.2241449 64.6079901 64.9090373 64.4581889 64.633193 64.2718753 64.3565986 64.0858117 64.1350229 63.8517318 63.9669655 63.5696354 63.7984079 63.2877891 63.7148794 62.9424212 63.7148794 62.5342818 63.7148794 61.9340768 63.8316693 61.4419087 64.0659993 61.0577775 64.3000793 60.6736463 64.6086847 60.3707928 64.993066 60.1484669 65.3769471 59.9263911 65.8093448 59.7703378 66.2895088 59.680307 66.7696727 59.5902763 67.2620909 59.5452609 67.766013 59.5452609 68.2701852 59.5452609 68.7591022 59.5932773 69.2332642 59.6893101 69.7076762 59.7853429 70.1305707 59.9476483 70.5026978 60.1754761 70.8750749 60.403554 71.1841805 60.7066576 71.4302646 61.0847867 71.6760985 61.4629159 71.8236489 61.9400788 71.8714152 62.5162756L69.4403349 62.5162756C69.4048228 62.0241075 69.2182591 61.6909938 68.8826444 61.5169343 68.5460295 61.3428749 68.1498942 61.2558451 67.6942385 61.2558451 67.5501893 61.2558451 67.3938859 61.2648482 67.2258285 61.2828544 67.0577711 61.3008605 66.9044688 61.3398738 66.7666717 61.3998943 66.6283745 61.4601649 66.5118347 61.5469446 66.4155518 61.6609835 66.3192689 61.7752725 66.2715026 61.9283248 66.2715026 62.1201403 66.2715026 62.3484683 66.3555313 62.5342818 66.5233386 62.678331 66.691396 62.8223802 66.9107209 62.9394202 67.1808132 63.0294509 67.4509054 63.1194817 67.7597609 63.2005093 68.1078798 63.2725339 68.4562488 63.3445585 68.8103697 63.4228353 69.1702427 63.5066139 69.5426198 63.5906426 69.905994 63.6926774 70.2601149 63.8127184 70.6137357 63.9327594 70.9288433 64.0918138 71.2051877 64.2898814 71.481282 64.4879491 71.7033578 64.7342832 71.8714152 65.0281336 72.0394726 65.3224841 72.1235013 65.685358 72.1235013 66.1175056 72.1235013 66.7297147 72.0004593 67.24289 71.7541252 67.6570315 71.5080411 68.0711729 71.1871815 68.4042867 70.7910462 68.6566229 70.3949109 68.9084589 69.9415061 69.0857694 69.4315819 69.1875542 68.9211576 69.289589 68.4019803 69.3406065 67.8740499 69.3406065 67.3338654 69.3406065 66.805685 69.286588 66.2895088 69.1788012 65.7730824 69.0705142 65.3139255 68.8904527 64.9120383 68.6383666 64.5096508 68.3865306 64.1797882 68.0534168 63.9219501 67.6390253 63.6636119 67.2248839 63.5223136 66.7057065 63.4985555 66.0814933L65.9293858 66.0814933C65.9293858 66.3578377 65.9861551 66.5946686 66.1004442 66.7927363M78.6037397 59.797322L78.6037397 61.5079062 76.7311001 61.5079062 76.7311001 66.1174806C76.7311001 66.5496282 76.8033748 66.8377266 76.947424 66.9817758 77.0914732 67.125825 77.3795716 67.1978496 77.8114691 67.1978496 77.9555183 67.1978496 78.0933153 67.1918476 78.2256105 67.1798435 78.3576556 67.1680895 78.4836987 67.1500833 78.6037397 67.125825L78.6037397 69.1065015C78.387916 69.1425138 78.1475839 69.166522 77.8837438 69.1787762 77.6194035 69.1905302 77.3615654 69.1965323 77.1094793 69.1965323 76.713344 69.1965323 76.3377157 69.169523 75.9840949 69.1157547 75.6294738 69.0614861 75.3178674 68.9564503 75.0477751 68.800397 74.7776829 68.6445938 74.56436 68.4222678 74.4085568 68.1341694 74.2522534 67.846071 74.1744769 67.4679419 74.1744769 66.999782L74.1744769 61.5079062 72.6256979 61.5079062 72.6256979 59.797322 74.1744769 59.797322 74.1744769 57.0063687 76.7311001 57.0063687 76.7311001 59.797322 78.6037397 59.797322zM46.9105889 19.1047228C48.2492804 15.4672339 49.2938007 12.4649838 50.0432974 10.0971201 50.7927941 7.72840362 51.1671161 6.27460178 51.1671161 5.73486185 51.1671161 5.15589912 51.0426263 4.70568952 50.7927941 4.38593838 50.5421092 4.06703991 50.1976306 3.90673801 49.7585057 3.90673801 49.1991544 3.90673801 48.629571 4.371443 48.0497556 5.30085297 47.4699402 6.22941028 46.830438 7.72414027 46.1312488 9.78163227L43.1332621 18.4456091 46.9105889 19.1047228zM42.9235054 27.1684202C42.0640143 27.1283447 41.2497147 27.0388144 40.4806067 26.8989766 39.7114986 26.7591388 38.9764973 26.5587614 38.2773082 26.2995498 38.5962066 26.9390521 38.8809983 27.5785543 39.1316832 28.2180566 39.3815154 28.8575589 39.5861562 29.4868291 39.7464581 30.1058673 40.2256584 29.5064405 40.7304389 28.9624373 41.2599468 28.4721522 41.7894547 27.9827198 42.34369 27.5478582 42.9235054 27.1684202L42.9235054 27.1684202zM39.5367013 18.0857825L36.2991144 8.73284853C35.4592348 6.35475273 34.8103531 4.80118853 34.3507642 4.07130326 33.8903225 3.34227066 33.3915108 2.97732803 32.8517708 2.97732803 32.4322573 2.97732803 32.0920421 3.13762993 31.8319779 3.4565284 31.5727663 3.77627954 31.4423078 4.20602507 31.4423078 4.745765 31.4423078 5.66494294 31.7919024 7.26369863 32.4919442 9.54203208 33.1911334 11.8203655 34.2407698 14.8081202 35.6391481 18.505296 35.7593745 18.2853072 35.9290558 18.1301213 36.1490446 18.040591 36.3690334 17.9510607 36.6683204 17.9058692 37.0486111 17.9058692 37.1679849 17.9058692 37.4075851 17.9161012 37.7674117 17.9357127 38.1272383 17.9553241 38.7164331 18.0056316 39.5367013 18.0857825L39.5367013 18.0857825zM36.5984015 32.5641141C36.9386167 32.5641141 37.2472832 32.4097809 37.5278115 32.0994091 37.8074872 31.78989 37.947325 31.4547908 37.947325 31.0958169 37.947325 30.7163789 37.6727653 29.8321604 37.1227934 28.4423087 36.5728214 27.0533098 35.8889803 25.6898909 35.0695647 24.3503468 34.4701379 23.3510179 33.8809432 22.5972579 33.3011278 22.0873614 32.7213124 21.577465 32.1721931 21.3233694 31.6520646 21.3233694 31.2325511 21.3233694 30.7678461 21.5885497 30.2588023 22.1172049 29.7489058 22.6467128 29.4939575 23.1412612 29.4939575 23.6008502 29.4939575 24.0809032 29.7437898 24.8005564 30.2434542 25.7598099 30.7431187 26.7190633 31.4124644 27.7380036 32.252344 28.8174834 33.1314465 29.9967256 33.9602414 30.9159036 34.7404342 31.5750172 35.5197743 32.2341309 36.1388125 32.5641141 36.5984015 32.5641141L36.5984015 32.5641141zM27.6052941 31.8444609C27.8858225 32.1846761 28.2754925 32.6843405 28.7743043 33.3434542 30.0933843 35.1621987 31.312702 36.0711446 32.4322573 36.0711446 32.8108427 36.0711446 33.1510579 35.9517708 33.4511976 35.7121706 33.7504847 35.4717178 33.9005546 35.2218856 33.9005546 34.962674 33.9005546 34.6625342 33.7010299 34.1637225 33.3011278 33.4636806 32.9012257 32.7644915 32.3521064 31.9749193 31.6520646 31.0958169 30.853113 30.0760239 30.1880307 29.3316433 29.6593755 28.8618222 29.1290149 28.3928539 28.7043854 28.1575171 28.3846343 28.1575171 27.6854451 28.1575171 27.0408268 28.5326917 26.451632 29.2821884 25.8615846 30.0308324 25.5674135 30.9159036 25.5674135 31.9348439 25.5674135 32.7542594 25.7720543 33.669174 26.1813357 34.6778823 26.5906172 35.6865906 27.1857806 36.7012675 27.9651208 37.7202078 29.144363 39.2993521 30.6075442 40.5127011 32.3572224 41.3619601 34.1051953 42.2120718 36.0390502 42.6358486 38.1570817 42.6358486 42.054635 42.6358486 45.3169492 41.1820468 47.9448773 38.2744431 50.5719526 35.3668394 51.8867693 31.7250871 51.8867693 27.3483335 51.8867693 26.0096421 51.7861543 24.9455103 51.5866296 24.1559381 51.3871049 23.366366 51.0571217 22.7916666 50.5975327 22.43184 49.7781171 21.7531149 48.1844775 21.1434561 45.8166137 20.6037162 43.4478972 20.0639762 40.9751551 19.7945326 38.3975346 19.7945326 37.6778814 19.7945326 37.1679849 19.9139064 36.8686978 20.1535066 36.5685581 20.3939594 36.4184882 20.8032409 36.4184882 21.3830563 36.4184882 22.7422118 37.1782169 23.7261926 38.6968217 24.3358515 40.2154264 24.9455103 42.6736732 25.2499134 46.0715619 25.2499134L47.300259 25.2499134C47.5799346 25.2499134 47.8050394 25.3547917 47.9747207 25.5645485 48.144402 25.7743052 48.2595124 26.0889404 48.3191993 26.5093065 47.9789841 26.8290577 47.2806476 27.1940003 46.2207791 27.6032818 45.1617634 28.0125632 44.3517271 28.4175813 43.7932285 28.8174834 42.5943749 29.6965859 41.6300054 30.7411063 40.9001202 31.9493392 40.1702349 33.1592776 39.8061449 34.3027076 39.8061449 35.3821875 39.8061449 36.0413012 39.9604782 36.8359893 40.2708499 37.7653993 40.580369 38.6948093 40.7355549 39.268656 40.7355549 39.4886448L40.7355549 39.6984015 40.675868 39.9686978C39.7959129 39.9081583 39.1018398 39.3939984 38.5919433 38.424513 38.0820468 37.4558802 37.8279512 36.1615276 37.8279512 34.5423078L37.8279512 34.2728642C37.6676493 34.412702 37.5133161 34.5124644 37.3632462 34.5730039 37.2131764 34.6326908 37.0486111 34.6625342 36.8686978 34.6625342 36.6887845 34.6625342 36.5182506 34.6480389 36.3588013 34.6173427 36.1984994 34.5874993 36.0185861 34.5423078 35.8190614 34.4826209 35.8787483 34.7026097 35.9239398 34.9174825 35.9537832 35.1272392 35.9844793 35.336996 35.9989747 35.5015612 35.9989747 35.6217877 35.9989747 36.3610523 35.709067 36.9962912 35.1301043 37.5257991 34.5494362 38.055307 33.8604791 38.3196346 33.0615276 38.3196346 31.8021344 38.3196346 30.5231299 37.7048597 29.2245139 36.4761627 27.9250453 35.2474657 27.2761636 34.043496 27.2761636 32.8642538 27.2761636 32.6442651 27.3008911 32.4490037 27.3511986 32.2793224 27.4006534 32.1096411 27.4859204 31.9646873 27.6052941 31.8444609L27.6052941 31.8444609zM49.0686959 19.6146193C50.867829 19.9548345 52.1366015 20.7137105 52.8758662 21.8929528 53.6151308 23.072195 53.9851895 24.9310149 53.9851895 27.4685599 53.9851895 32.5044272 52.4708481 36.6262326 49.4438706 39.833976 46.4160405 43.0408668 42.5440674 44.6447385 37.8279512 44.6447385 35.9691313 44.6447385 34.1657348 44.3096393 32.4169093 43.6402936 30.6680837 42.9709478 29.164827 42.0364218 27.9054339 40.8375682 26.4661274 39.5184882 25.3875002 38.1252259 24.667847 36.656076 23.9481938 35.1869261 23.5883672 33.6836694 23.5883672 32.1446006 23.5883672 30.4256185 23.9584258 29.0971591 24.6976904 28.1575171 25.4369551 27.2187277 26.6059652 26.5792254 28.2055736 26.2390102 27.9054339 25.5398211 27.6854451 24.9497736 27.5456073 24.4705733 27.4057694 23.9905202 27.3358505 23.6213142 27.3358505 23.36125 27.3358505 22.4625361 27.8107875 21.5433582 28.7598089 20.6037162 29.7088303 19.6640741 30.6032808 19.1942531 31.4423078 19.1942531 31.8021344 19.1942531 32.1815724 19.2599087 32.5814745 19.3895145 32.9813766 19.519973 33.4409656 19.7339931 33.9602414 20.0341328 32.4211726 15.6769906 31.30247 12.314914 30.6032808 9.94705019 29.903239 7.57833375 29.5544971 5.9446186 29.5544971 5.04590473 29.5544971 3.80697565 29.8733956 2.82299481 30.5137505 2.09310955 31.1532528 1.36322428 32.0221232.999134315 33.1212145.999134315 34.9996458.999134315 37.3777416 5.1959746 40.2555019 13.5888025 40.7551663 15.028109 41.135457 16.1374322 41.3946686 16.9167724 41.6146574 16.2977342 41.9241765 15.417779 42.3240786 14.2786123 45.2018388 5.96508267 47.679697 1.80831786 49.7585057 1.80831786 50.777446 1.80831786 51.5917456 2.15279642 52.2014044 2.84260622 52.8110633 3.53156334 53.1154664 4.45670997 53.1154664 5.61548809 53.1154664 6.49459056 52.7812198 8.10357829 52.1118741 10.4415986 51.4416757 12.7796189 50.4278514 15.8372925 49.0686959 19.6146193L49.0686959 19.6146193z"/>
  </g>
</svg>
