<svg xmlns="http://www.w3.org/2000/svg" width="152" height="39" viewBox="0 0 152 39">
  <g fill="#FFF" fill-rule="evenodd" transform="translate(-.442 -.88)">
    <g transform="translate(50 11.48)">
      <path d="M3.707456 4.13587967L3.707456 8.55786195 6.28829814 8.55786195C8.251136 8.55786195 9.20928955 7.51943649 9.18327031 6.31435484 9.20928955 5.06756174 8.19947737 4.13569007 6.28829814 4.13569007L3.707456 4.13569007 3.707456 4.13587967zM6.35287142.822663513C10.1655439.822663513 12.6675686 3.12570423 12.6675686 6.31454443 12.6675686 9.38317982 10.9447915 11.2336513 8.99315897 11.6390108L13.0276597 18.8717759 9.02658514 18.8717759 5.32387718 12.0968887 3.707456 12.0968887 3.707456 18.8717759.10445678 18.8717759.10445678.822663513 6.35287142.822663513zM18.2504986 11.4458109L23.7903165 11.4458109C23.4805546 9.84712488 22.5119554 8.94483043 21.0655139 8.94483043 19.4772011 8.94483043 18.5473458 9.8985058 18.2504986 11.4458109M27.1739565 12.6053892C27.1739565 12.9923577 27.1481271 13.4570611 27.1093832 13.7401302L18.2373941 13.7401302C18.5990044 15.5452879 19.8646408 16.3311695 21.4529536 16.3311695 22.5377847 16.3311695 23.7128285 15.8928201 24.6166646 15.1329133L26.592607 17.2984959C25.1721847 18.6006514 23.3641328 19.1931436 21.2592337 19.1931436 17.4239606 19.1931436 14.7635414 16.5894013 14.7635414 12.6577181 14.7635414 8.72527653 17.3460928 6.04398881 21.0909634 6.04398881 24.6941525 6.04398881 27.1612317 8.7123839 27.1739565 12.6053892M33.3084182 12.6184714C33.3084182 14.5910437 34.6124187 16.0608035 36.5239778 16.0608035 38.5126449 16.0608035 39.752262 14.5265806 39.752262 12.6184714 39.752262 10.7107415 38.5126449 9.17651856 36.5239778 9.17651856 34.6124187 9.17651856 33.3084182 10.6464679 33.3084182 12.6184714M43.2132 12.6184714C43.2132 16.3704162 40.6044394 19.1933332 37.1567959 19.1933332 35.4777007 19.1933332 34.2897422 18.5361883 33.4763088 17.5692411L33.4763088 24.0282588 30.1184981 24.0282588 30.1184981 6.37881798 33.4115456 6.37881798 33.4115456 7.75870852C34.2247891 6.73981161 35.4258521 6.04398881 37.1436914 6.04398881 40.6044394 6.04398881 43.2132 8.86690586 43.2132 12.6184714M57.607914 13.5471199C57.607914 17.4916957 54.8185382 19.1931436 51.6933813 19.1931436 48.5553097 19.1931436 45.7659338 17.4915061 45.7659338 13.5471199L45.7659338 6.37881798 49.1362793 6.37881798 49.1362793 13.2503998C49.1362793 15.2487574 50.234215 16.0608035 51.6933813 16.0608035 53.1396329 16.0608035 54.2502933 15.2487574 54.2502933 13.2503998L54.2502933 6.37881798 57.607914 6.37881798 57.607914 13.5471199zM64.1385519 12.6184714C64.1385519 14.5910437 65.4427423 16.0608035 67.3543014 16.0608035 69.3429685 16.0608035 70.5827755 14.5265806 70.5827755 12.6184714 70.5827755 10.7107415 69.3429685 9.17651856 67.3543014 9.17651856 65.4427423 9.17651856 64.1385519 10.6464679 64.1385519 12.6184714M74.0435236 12.6184714C74.0435236 16.3704162 71.4349529 19.1933332 67.9867397 19.1933332 66.2561757 19.1933332 65.0551127 18.4977 64.2416792 17.4916957L64.2416792 18.8715863 60.9488217 18.8715863 60.9488217.307147935 64.3062525.307147935 64.3062525 7.68135275C65.1200658 6.70132332 66.2949197 6.04398881 67.974015 6.04398881 71.4349529 6.04398881 74.0435236 8.86690586 74.0435236 12.6184714"/>
      <polygon points="76.792 18.872 80.162 18.872 80.162 .307 76.792 .307"/>
      <path d="M83.6991285 18.8715863L87.0696639 18.8715863 87.0696639 6.37881798 83.6991285 6.37881798 83.6991285 18.8715863zM87.5216769 2.29204407C87.5216769 3.50395123 86.578717 4.43259974 85.3651192 4.43259974 84.1511415 4.43259974 83.2212862 3.50395123 83.2212862 2.29204407 83.2212862 1.0807057 84.1511415.126271929 85.3651192.126271929 86.578717.126271929 87.5216769 1.0807057 87.5216769 2.29204407L87.5216769 2.29204407zM101.505591 8.4027712L99.0780153 10.426914C98.3162405 9.61467836 97.5024272 9.17632896 96.4048713 9.17632896 94.6613927 9.17632896 93.2666098 10.5427581 93.2666098 12.6182818 93.2666098 14.7074566 94.6484781 16.0606139 96.3921466 16.0606139 97.4767878 16.0606139 98.4064532 15.5710731 99.1169492 14.7975154L101.518695 16.8472538C100.343652 18.3553123 98.5872584 19.1931436 96.4952739 19.1931436 92.504835 19.1931436 89.8316911 16.4089044 89.8316911 12.6182818 89.8316911 8.8411206 92.504835 6.04379922 96.4952739 6.04379922 98.5872584 6.04398881 100.356566 6.89490235 101.505591 8.4027712"/>
    </g>
    <g transform="translate(.903 .964)">
      <path d="M1.09291122,37.5079844 L33.0352452,37.5079844 L23.4025079,22.5507657 L23.8640807,22.2534939 L23.6271011,21.7616838 C27.3575714,19.9642092 29.7681693,16.1237192 29.7681693,11.9777605 C29.7681693,6.52650148 25.7023574,1.90075476 20.3112085,1.2178674 C19.6507258,1.13025235 18.5028047,1.09345767 18.1570805,1.09345767 L1.09291122,1.09291122 L1.09291122,37.5079844 Z M35.0389158,38.6008956 L0.0023679743,38.6008956 L0,38.05444 L0,-7.10542736e-15 L9.89339664,-7.10542736e-15 L9.89339664,0.485981188 L9.89339664,0.000182151869 L18.1570805,0.000546455608 C18.4408731,0.000546455608 19.6855168,0.0326051846 20.4514654,0.133881624 C26.3846983,0.885440238 30.8610805,5.9773136 30.8610805,11.9777605 C30.8610805,16.3351975 28.4413751,20.3860729 24.6473338,22.4653365 L35.0389158,38.6008956 Z"/>
      <polygon points=".497 22.801 23.862 22.801 23.862 21.708 .497 21.708"/>
      <polygon points="1.025 38.341 .096 37.764 16.555 11.295 17.483 11.873"/>
      <polygon points="16.465 38.074 17.558 38.074 17.558 11.685 16.465 11.685"/>
      <polygon points="33.533 38.286 9.427 .815 10.346 .223 34.452 37.695"/>
    </g>
  </g>
</svg>
