<svg xmlns="http://www.w3.org/2000/svg" xmlns:xlink="http://www.w3.org/1999/xlink" width="145" height="86" viewBox="0 0 145 86">
  <defs>
    <path id="title_what-you-will-be-working-on-a" d="M2,-6.75015599e-14 L91,-6.75015599e-14 C92.1045695,-7.55529044e-14 93,0.8954305 93,2 L93,53 C93,54.1045695 92.1045695,55 91,55 L2,55 C0.8954305,55 4.54882622e-13,54.1045695 4.54747351e-13,53 L4.54747351e-13,2 C4.5461208e-13,0.8954305 0.8954305,-6.72986538e-14 2,-6.75015599e-14 Z"/>
  </defs>
  <g fill="none" fill-rule="evenodd">
    <g transform="matrix(-1 0 0 1 144.56 .276)">
      <mask id="title_what-you-will-be-working-on-b" fill="#fff">
        <use xlink:href="#title_what-you-will-be-working-on-a"/>
      </mask>
      <use fill="#E9E9E9" xlink:href="#title_what-you-will-be-working-on-a"/>
      <rect width="95.583" height="5" x="-1.722" y="-2" fill="#B7B7B7" mask="url(#title_what-you-will-be-working-on-b)"/>
    </g>
    <path fill="#0059E8" d="M63.4560547,19.2496024 L63.4560547,14.8201238 L61.6971334,14.8201238 L61.6971334,13.2971554 C62.3334943,13.2971554 62.8053953,13.1970552 63.1128506,12.9968518 C63.4203058,12.7966483 63.6097812,12.4713226 63.6812824,12.0208649 L65.5903555,12.0208649 L65.5903555,19.2496024 L63.4560547,19.2496024 Z M64.1317379,23.9369575 C64.7108978,23.9369575 65.2167614,24.0316952 65.6493438,24.2211734 C66.0819261,24.4106517 66.4144018,24.6752022 66.6467808,25.014833 C66.8791598,25.3544639 66.9953475,25.7387772 66.9953475,26.1677845 C66.9953475,26.7469444 66.8326847,27.2116954 66.5073541,27.5620514 C66.1820236,27.9124074 65.7011851,28.227008 65.0648242,28.5058628 C64.6572672,28.691766 64.3480291,28.8490663 64.1371005,28.9777685 C63.9261718,29.1064707 63.781384,29.2226584 63.7027327,29.3263352 C63.6240814,29.430012 63.5776063,29.5426247 63.563306,29.6641768 L67.199125,29.6641768 L67.199125,31.337297 L61.1072513,31.337297 C61.0929511,31.1799943 61.085801,31.0405691 61.085801,30.919017 C61.085801,30.3899079 61.1501512,29.932307 61.2788534,29.5462004 C61.4075556,29.1600938 61.622056,28.8115305 61.9223612,28.5005002 C62.2226663,28.1894699 62.6373672,27.8981068 63.1664762,27.6264021 C63.5811833,27.4190486 63.8975715,27.2474482 64.1156502,27.1115959 C64.3337289,26.9757436 64.5089043,26.8291683 64.6411816,26.6718656 C64.7734588,26.5145629 64.8395965,26.3393875 64.8395965,26.1463342 C64.8395965,25.9532809 64.7788213,25.7977681 64.6572692,25.6797911 C64.5357172,25.5618141 64.3676918,25.5028264 64.1531881,25.5028264 C63.8886336,25.5028264 63.6812832,25.5886266 63.5311306,25.7602296 C63.3809781,25.9318325 63.3023279,26.182083 63.2951778,26.5109886 L61.1823272,26.5109886 C61.1894773,25.6887246 61.4504529,25.0541608 61.9652617,24.6072781 C62.4800705,24.1603955 63.202222,23.9369575 64.1317379,23.9369575 Z M64.1102876,36.0246521 C64.7037478,36.0246521 65.2185489,36.1086648 65.6547063,36.2766927 C66.0908638,36.4447206 66.425127,36.6824586 66.6575059,36.9899138 C66.8898849,37.2973691 67.0060727,37.6584448 67.0060727,38.0731519 C67.0060727,38.4735588 66.90776,38.7988845 66.7111316,39.0491387 C66.5145032,39.299393 66.1981151,39.5031684 65.7619576,39.6604711 L65.7619576,39.6819214 C66.2267156,39.832074 66.5663413,40.0429994 66.7808449,40.314704 C66.9953486,40.5864087 67.1025988,40.9403344 67.1025988,41.3764919 C67.1025988,41.8269496 66.9810486,42.2184129 66.7379444,42.5508936 C66.4948403,42.8833743 66.149852,43.1407748 65.7029694,43.3231029 C65.2560868,43.5054311 64.7359232,43.5965937 64.142463,43.5965937 C63.1271457,43.5965937 62.3495815,43.3713683 61.8097473,42.9209106 C61.2699131,42.4704529 61,41.8233765 61,40.9796621 L63.145026,40.9796621 C63.145026,41.322868 63.2290386,41.5838435 63.3970665,41.7625966 C63.5650944,41.9413496 63.8099824,42.0307248 64.1317379,42.0307248 C64.3962924,42.0307248 64.6036428,41.9663747 64.7537954,41.8376725 C64.903948,41.7089703 64.9790231,41.5373699 64.9790231,41.3228662 C64.9790231,41.0654618 64.8860729,40.8724114 64.7001698,40.7437092 C64.5142666,40.615007 64.224691,40.5506569 63.8314343,40.5506569 L63.6491071,40.5506569 L63.6491071,39.0276885 L63.895785,39.0276885 C64.2103904,39.0276885 64.4588534,38.9615508 64.6411816,38.8292736 C64.8235097,38.6969963 64.9146724,38.5164584 64.9146724,38.2876545 C64.9146724,38.0731509 64.8431722,37.903338 64.7001698,37.7782109 C64.5571673,37.6530837 64.3605419,37.5905211 64.1102876,37.5905211 C63.8099825,37.5905211 63.581182,37.6763213 63.4238793,37.8479242 C63.2665766,38.0195271 63.1879265,38.2662027 63.1879265,38.5879582 L61.1072513,38.5879582 C61.1072513,37.7799943 61.3718019,37.150793 61.9009109,36.7003353 C62.4300199,36.2498776 63.1664715,36.0246521 64.1102876,36.0246521 Z" opacity=".9"/>
    <rect width="58" height="4" x="71" y="14" fill="#8B8B8B"/>
    <rect width="58" height="4" x="71" y="26" fill="#8B8B8B"/>
    <g transform="translate(.678 26)">
      <path fill="#FFBC85" d="M57.1626354,20.0799614 C57.6040629,18.4683391 56.6557933,16.8043851 55.0441709,16.3629576 L44.1179917,13.3698754 C42.5063694,12.9284479 40.8424154,13.8767176 40.4009879,15.4878554 C39.9595603,17.0994777 40.90783,18.7634317 42.5194523,19.2053438 L53.4456315,22.1984259 C55.0572538,22.6398534 56.7212079,21.6915838 57.1626354,20.0799614"/>
      <path fill="#FFBC85" d="M51.1262429,17.2538562 L49.0584122,22.5342784 C47.9565393,23.7897544 49.8707668,27.2707011 51.1262429,28.3730585 C52.3822036,29.4754159 55.8242188,28.4602609 56.9265762,27.2047848 L56.9265762,21.4772457 C56.9265762,19.6862301 56.651113,18.0785649 55.3956369,16.9762075 C54.1401608,15.87385 52.2286003,15.9983801 51.1262429,17.2538562 Z"/>
      <path fill="#FFBC85" d="M44.1201238,28.6070232 L52.5847752,20.1423718 C52.9617572,19.7653898 52.9617572,19.1485542 52.5847752,18.7720568 L48.9394851,15.1262821 C48.5625031,14.7493001 47.9456675,14.7493001 47.5686854,15.1262821 L39.1040341,23.5909335 C38.727052,23.9679155 38.727052,24.5847511 39.1040341,24.9617331 L42.7498087,28.6070232 C43.1263061,28.9840052 43.7431418,28.9840052 44.1201238,28.6070232"/>
      <polygon fill="#FFBC85" points="31.619 50.381 50.16 31.84 39.833 21.513 21.293 40.054"/>
      <path fill="#FFBC85" d="M34.7103523,34.1445886 C36.8690347,38.3902395 42.552838,39.8317838 47.4056335,37.3644414 C52.2584289,34.8970989 55.2490883,29.7647166 53.0904059,25.5190657 C50.9317236,21.2734148 45.2484048,19.8318704 40.3956093,22.2992129 C35.5428139,24.7665553 32.55167,29.8989377 34.7103523,34.1445886"/>
      <path fill="#FFBC85" d="M44.6031259,13.5595778 C43.1097344,12.8104593 41.2916927,13.4137275 40.5425742,14.9071189 L31.7556952,32.4251532 C31.0065767,33.9185447 30.7032467,35.7365865 32.1966382,36.485705 C33.6900297,37.2348235 35.5080714,36.6310708 36.2571899,35.1376794 L45.950667,17.6201296 C46.6997855,16.1267381 46.0965174,14.3086963 44.6031259,13.5595778"/>
      <polygon fill="#9B9794" points="30.184 59.248 42.865 47.221 27.375 31.731 0 59.248"/>
      <path fill="#ADADAD" d="M39.3173826,53.4317733 L44.2627276,48.4864283 L26.8648624,31.0890476 L18.0067542,39.9476403 L31.4904026,53.4317733 C33.6519923,55.5928784 37.1562775,55.5928784 39.3173826,53.4317733"/>
      <path fill="#686868" d="M33.9823603,51.7758629 C34.7154886,52.5089911 35.9045809,52.5089911 36.6377092,51.7758629 C37.371322,51.0427346 37.371322,49.8536422 36.6377092,49.120514 C35.9045809,48.3869012 34.7154886,48.3869012 33.9823603,49.120514 C33.2492321,49.8536422 33.2492321,51.0427346 33.9823603,51.7758629"/>
      <path fill="#FFBC85" d="M46.6134382 19.4131684L60.9406929 5.08591376C62.104104 3.92250269 62.104104 2.03613897 60.9406929.872727896 59.7772818-.290683174 57.8909181-.290683174 56.7275071.872727896L42.4002524 15.1999826C41.2368413 16.3633937 41.2368413 18.2497574 42.4002524 19.4131684 43.5636634 20.5765795 45.4500272 20.5765795 46.6134382 19.4131684M44.7061903 35.7888213L56.8926911 29.0976328C58.3352045 28.3058737 58.8623979 26.4946157 58.0706387 25.0525868 57.278395 23.6100733 55.4676215 23.08288 54.0251081 23.8746391L41.8386073 30.5658276C40.3960939 31.3575867 39.8689005 33.1688448 40.6606597 34.6113582 41.4529033 36.0533871 43.2636768 36.5805804 44.7061903 35.7888213"/>
      <path fill="#FFBC85" d="M42.4691073,18.5869576 L45.8415942,26.4158758 C46.4923485,27.9271958 48.4131155,28.5522688 50.1308548,27.8118722 C51.8490788,27.0719602 52.7140054,25.2471347 52.0632511,23.7358148 L48.6907642,15.9068965 C48.0395253,14.3960612 46.1192429,13.7709882 44.401019,14.5109002 C42.6832796,15.2508122 41.818353,17.0756377 42.4691073,18.5869576"/>
    </g>
    <rect width="58" height="4" x="71" y="38" fill="#8B8B8B"/>
  </g>
</svg>
