<svg xmlns="http://www.w3.org/2000/svg" width="126" height="91" viewBox="0 0 126 91">
  <g fill="none" fill-rule="evenodd">
    <g transform="matrix(-1 0 0 1 122 .319)">
      <polygon fill="#F4F4F4" points="1 0 48.98 0 62 11.807 62 80 1 80" transform="matrix(-1 0 0 1 63 0)"/>
      <polygon fill="#E5E5E5" points="0 0 13 12 0 12" transform="matrix(-1 0 0 1 13 0)"/>
      <rect width="5" height="1" x="29.5" y="30.5" fill="#D8D8D8" stroke="#979797"/>
      <path fill="#D8D8D8" stroke="#979797" d="M29.5,25.5 L29.5,26.5 L34.5,26.5 L34.5,25.5 L29.5,25.5 Z"/>
      <rect width="25" height="1" x="29.5" y="20.5" fill="#D8D8D8" stroke="#979797"/>
      <rect width="25" height="1" x="29.5" y="15.5" fill="#D8D8D8" stroke="#979797"/>
      <rect width="26" height="1" x="8.5" y="35.5" fill="#D8D8D8" stroke="#979797"/>
      <rect width="20" height="4" x="37" y="32" fill="#979797"/>
      <rect width="20" height="4" x="37" y="25" fill="#979797"/>
      <rect width="46" height="1" x="8.5" y="40.5" fill="#D8D8D8" stroke="#979797"/>
      <rect width="46" height="1" x="8.5" y="44.5" fill="#D8D8D8" stroke="#979797"/>
      <rect width="46" height="1" x="8.5" y="49.5" fill="#D8D8D8" stroke="#979797"/>
      <g transform="translate(34 18.5)">
        <path fill="#E89456" d="M30.343175,40.0940966 L38.5581126,33.4002765 C40.0305825,32.2006348 42.2172203,32.4238123 43.416862,33.8962822 C44.6170052,35.3687521 44.3938277,37.55539 42.9213578,38.7550316 L34.7064202,45.4488517 C33.2339503,46.6484934 31.0473125,46.4258174 29.8476708,44.952846 C28.6475276,43.4803761 28.8707051,41.2937383 30.343175,40.0940966"/>
        <path fill="#E89456" d="M27.9103397,35.5021069 L37.1549029,30.3223831 C38.8119331,29.3940651 40.9273548,29.9898737 41.8556728,31.6474054 C42.7844924,33.3044356 42.1881822,35.4198572 40.531152,36.3481753 L31.2865888,41.5278991 C29.6295587,42.4567187 27.514137,41.8604085 26.585819,40.2033783 C25.6569994,38.5463482 26.2533096,36.430425 27.9103397,35.5021069"/>
        <path fill="#E89456" d="M26.8858798,30.0235259 L37.2719081,27.9226484 C39.134061,27.546005 40.9651194,28.7611939 41.3417628,30.6233467 C41.7184061,32.4849981 40.5032172,34.316558 38.6415659,34.6926999 L28.2550361,36.7935774 C26.3933848,37.1702207 24.5618248,35.9550318 24.185683,34.0933805 C23.8090396,32.2317292 25.0242285,30.4001693 26.8858798,30.0235259"/>
        <path fill="#FFBC85" d="M24.5309812,22.9892724 C25.1012122,21.3568169 26.8866321,20.4952013 28.5190877,21.0654323 L41.9759379,25.7636946 C43.608895,26.3334241 44.470009,28.1193455 43.9002795,29.751801 C43.3300485,31.3842566 41.5446286,32.2458722 39.9116715,31.6756411 L26.4548213,26.9773789 C24.8223657,26.4076494 23.9607502,24.621728 24.5309812,22.9892724"/>
        <path fill="#FFBC85" d="M28.9309379,28.3251703 C30.2303826,27.1842067 32.2088886,27.313098 33.3498522,28.6125427 L41.0858359,37.424292 C42.2262979,38.7237366 42.0979081,40.7022427 40.7984635,41.8432062 C39.4985173,42.9841698 37.5205128,42.8552785 36.3795492,41.5558339 L28.6435655,32.7440845 C27.502602,31.4446399 27.6314933,29.4661339 28.9309379,28.3251703"/>
        <polygon fill="#353535" points="39.675 44.039 18.38 21.727 21.464 18.784 42.759 41.095"/>
        <path fill="#FFBC85" d="M42.3050871,39.8617914 L33.5439915,31.1006958 C33.153807,30.7105113 33.153807,30.0720733 33.5439915,29.6823903 L37.3169448,25.9089355 C37.7071293,25.518751 38.3455674,25.518751 38.7357518,25.9089355 L47.4968474,34.670031 C47.8870319,35.0602155 47.8870319,35.6986536 47.4968474,36.088838 L43.7233925,39.8617914 C43.3337096,40.2519758 42.6952715,40.2519758 42.3050871,39.8617914"/>
        <polygon fill="#FFBC85" points="54.575 62.9 35.385 43.709 46.074 33.021 65.263 52.211"/>
        <path fill="#FFBC85" d="M51.3756721,46.0948126 C49.1413896,50.4891523 43.2585314,51.9811815 38.2357841,49.4274292 C33.2130368,46.873677 30.1176403,41.5615512 32.3519228,37.1672116 C34.5862053,32.7728719 40.468562,31.2808427 45.4913093,33.834595 C50.5140566,36.3883472 53.6099546,41.700473 51.3756721,46.0948126"/>
        <path fill="#FFBC85" d="M41.1364395,25.6247227 C42.6821316,24.849369 44.5638438,25.4737644 45.3391975,27.0194566 L54.4338055,45.1509975 C55.2091592,46.6966897 55.5231123,48.5784019 53.9774201,49.3537556 C52.4317279,50.1291093 50.5500157,49.5042123 49.774662,47.9585202 L39.7417055,29.8274808 C38.9663519,28.2817886 39.5907473,26.4000764 41.1364395,25.6247227"/>
        <polygon fill="#9B9794" points="56.06 72.077 42.936 59.629 58.968 43.597 87.301 72.077"/>
        <path fill="#ADADAD" d="M46.607297,66.0574621 L41.488759,60.9389241 L59.4954208,42.9322622 L68.6642541,52.1010955 L54.7083891,66.0574621 C52.4710975,68.2942522 48.8440871,68.2942522 46.607297,66.0574621"/>
        <path fill="#686868" d="M52.1291595,64.3435593 C51.370356,65.1023628 50.1396199,65.1023628 49.3808165,64.3435593 C48.6215115,63.5847559 48.6215115,62.3540198 49.3808165,61.5952163 C50.1396199,60.8359113 51.370356,60.8359113 52.1291595,61.5952163 C52.8879629,62.3540198 52.8879629,63.5847559 52.1291595,64.3435593"/>
        <path fill="#FFBC85" d="M31.9562717,42.9286513 L24.6490897,31.939793 C23.7062275,30.5219891 24.0913968,28.6076779 25.5097022,27.6648157 C26.9275062,26.7219535 28.8418174,27.1071227 29.7846796,28.5249267 L37.0918616,39.513785 C38.0347238,40.9320904 37.6495545,42.8459001 36.2312491,43.7887623 C34.8134451,44.732126 32.8991339,44.3469567 31.9562717,42.9286513"/>
        <path fill="#FFBC85" d="M43.3452446,29.9923312 L39.8546484,38.0954293 C39.1811038,39.6596778 37.1930688,40.3066418 35.4151717,39.5403155 C33.6367731,38.7744907 32.7415556,36.8857572 33.4151002,35.3215087 L36.9056964,27.2184106 C37.5797426,25.6546636 39.567276,25.0076996 41.3456746,25.7735244 C43.1235717,26.5393492 44.0187893,28.4280827 43.3452446,29.9923312"/>
        <path stroke="#353535" stroke-width="4" d="M24.4301235,12.6756213 C24.4301235,19.1673367 19.1673367,24.4301235 12.6756213,24.4301235 C6.18390579,24.4301235 0.921119053,19.1673367 0.921119053,12.6756213 C0.921119053,6.18390579 6.18390579,0.921119053 12.6756213,0.921119053 C19.1673367,0.921119053 24.4301235,6.18390579 24.4301235,12.6756213 Z"/>
      </g>
    </g>
    <rect width="18" height="18" x="96" y="15" fill="#D8D8D8"/>
    <rect width="7.141" height="7.141" x="101.294" y="18.564" fill="#353535" opacity=".4" rx="3.571"/>
    <path fill="#353535" d="M103,27 L107,27 C109.209139,27 111,28.790861 111,31 L111,33 L99,33 L99,31 C99,28.790861 100.790861,27 103,27 Z" opacity=".4"/>
  </g>
</svg>
