<svg xmlns="http://www.w3.org/2000/svg" width="102" height="79" viewBox="0 0 102 79">
  <g fill="none" fill-rule="evenodd" transform="translate(0 2.379)">
    <g fill="#DFA87A" transform="rotate(47 -3.83 84.024)">
      <path d="M9.52692495,10.9373932 C9.66316966,12.3551453 8.6275546,13.627628 7.22629135,13.7654377 C5.82463993,13.9028549 4.5666083,12.8557363 4.43036359,11.4379841 L3.67111957,3.52943192 C3.53487486,2.11207236 4.57010176,0.8391971 5.97175317,0.701779969 C7.37340458,0.563970217 8.63143621,1.61108876 8.76768092,3.02884094 L9.52692495,10.9373932 Z"/>
      <path d="M5.68246612,11.8687642 L6.28023493,3.94816122 C6.38736752,2.52842679 5.32652197,1.27786723 3.92215342,1.16953251 C2.51817304,1.06119778 1.28187845,2.1343396 1.17474586,3.55407403 L0.576588889,11.4746771 C0.469456297,12.8944115 1.53069002,14.144971 2.9346704,14.2533058 C4.33865078,14.3616405 5.57533353,13.2884987 5.68246612,11.8687642"/>
      <path d="M13.2796025,9.27025975 L10.1630533,1.94770909 C9.60448879,0.635113205 8.0894942,0.0253276713 6.79691618,0.592936701 C5.50433817,1.16015156 4.90385223,2.69821436 5.46280488,4.01081024 L8.57935409,11.3333609 C9.13791858,12.6459568 10.652525,13.2557423 11.945103,12.6881333 C13.237681,12.1209184 13.838167,10.5828556 13.2796025,9.27025975"/>
    </g>
    <polygon fill="#FFBC85" points="27.673 68.687 49.001 50.699 40.196 40.259 18.868 58.247"/>
    <path fill="#FFBC85" d="M36.5640268,53.4438399 C39.2438211,56.6213348 44.6774443,56.446733 48.7005594,53.0535537 C52.7236744,49.6608023 53.8127955,44.3341654 51.1330012,41.1566706 C48.4532069,37.9791757 43.0191558,38.1542054 38.9960407,41.5469568 C34.9729257,44.9401362 33.8842325,50.2663451 36.5640268,53.4438399"/>
    <path fill="#FFBC85" d="M47.3430886,44.3234409 L55.8840797,37.1200463 C56.269722,36.7949328 56.3192457,36.2134888 55.9941322,35.8278465 L52.8998228,32.1589713 C52.5742508,31.773329 51.9928068,31.7238053 51.6071644,32.0489188 L43.0661733,39.2523135 C42.680531,39.5774269 42.631466,40.1593295 42.9565794,40.5449718 L46.0508889,44.213847 C46.3760023,44.5990307 46.9574463,44.6485544 47.3430886,44.3234409"/>
    <path fill="#FFBC85" d="M63.1236856,31.9610404 C63.2557486,30.404256 62.1011145,29.0350195 60.5443302,28.902498 L47.3242736,27.7795039 C45.7674893,27.6469823 44.3982527,28.802075 44.2661897,30.3588594 C44.1336682,31.9156437 45.2887609,33.2848802 46.8455452,33.4174018 L60.0651432,34.5403958 C61.6219276,34.6729174 62.9916226,33.5178247 63.1236856,31.9610404" transform="rotate(-12 53.695 31.16)"/>
    <path fill="#FFBC85" d="M48.1236821,29.9784277 C46.7915883,29.162205 45.0495489,29.5804045 44.2333262,30.9129568 L34.6587587,46.5404118 C33.842536,47.8725056 34.2611941,49.614545 35.5932879,50.4307677 C36.9253817,51.2469904 38.667421,50.8283324 39.4836437,49.4962386 L49.0582112,33.8687836 C49.8744339,32.5362312 49.4557759,30.7946504 48.1236821,29.9784277"/>
    <g transform="translate(0 46.473)">
      <polygon fill="#9B9794" points="15.512 29.183 .172 13.993 13.391 .775 40.624 29.183" transform="matrix(-1 0 0 1 40.796 0)"/>
      <path fill="#ADADAD" d="M42.2600098,14.7182617 L26.9304199,0.224365234 L19.2412739,7.78951976 L32.5810924,21.1293383 C33.6268537,22.1750996 35.3225958,22.1750996 36.3683571,21.1293383 L42.2600098,14.7182617 Z"/>
      <path fill="#686868" d="M35.3729679,19.0957495 C35.9986695,18.4699016 35.9986695,17.45544 35.3729679,16.8295921 C34.74712,16.2038905 33.7326584,16.2038905 33.1068105,16.8295921 C32.4809626,17.45544 32.4809626,18.4699016 33.1068105,19.0957495 C33.7326584,19.7215974 34.74712,19.7215974 35.3729679,19.0957495 Z"/>
    </g>
    <circle cx="76.5" cy="23.5" r="23.5" fill="#FAFAFA" stroke="#1560FA" stroke-width="4"/>
    <path fill="#FFBC85" d="M63.1195545,33.3015783 C64.4356598,32.1916713 64.6045217,30.206058 63.4941905,28.8899528 C62.3842836,27.5738476 60.3990946,27.4049856 59.0825651,28.5153168 L42.7435749,41.8205392 C41.4274696,42.9308704 41.2586077,44.9160594 42.3689388,46.2325889 C43.4788458,47.5486942 45.4644591,47.7175562 46.7805643,46.607225 L63.1195545,33.3015783 Z" transform="rotate(-12 52.932 37.561)"/>
    <rect width="6" height="20" x="74" y="14" fill="#1560FA"/>
    <rect width="20" height="6" x="67" y="21" fill="#1560FA"/>
  </g>
</svg>
