<svg xmlns="http://www.w3.org/2000/svg" xmlns:xlink="http://www.w3.org/1999/xlink" width="73" height="77" viewBox="0 0 73 77">
  <defs>
    <polygon id="title_why-are-we-doing-this-a" points="18.976 25.313 0 25.313 0 .012 37.953 .012 37.953 25.313"/>
  </defs>
  <g fill="none" fill-rule="evenodd" transform="translate(.8 -2.406)">
    <g fill="#ED588E" transform="rotate(8 -.968 79.053)">
      <polygon points="11.655 .283 .298 31.5 32.696 27.358"/>
      <polygon points="42.238 43.697 25.756 24.02 28.246 21.934 44.727 41.612"/>
    </g>
    <g transform="translate(0 31.552)">
      <path fill="#FFBC85" d="M34.5420937,7.61612024 C33.1459782,7.31807311 31.7726797,8.20811457 31.4746326,9.60423008 L28.6777669,22.7033301 C28.3797197,24.0994456 29.2697612,25.4727441 30.6658767,25.7707913 C32.0619922,26.0688384 33.4352907,25.1787969 33.7333378,23.7826814 L36.5302035,10.6835814 C36.8282507,9.28746587 35.9382092,7.91416737 34.5420937,7.61612024"/>
      <polygon fill="#FFBC85" points="29.62 38.884 47.125 20.354 38.054 11.785 20.549 30.315"/>
      <path fill="#FFBC85" d="M37.7990608,17.4474152 L48.4150289,5.18470095 C49.5278927,3.89910532 49.3867125,1.93684287 48.1011168,0.823979099 C46.8156995,-0.288884676 44.8532588,-0.147704457 43.740395,1.13789118 L33.1244268,13.4006054 C32.011563,14.6860228 32.1529215,16.6484635 33.4383389,17.7613272 C34.7239345,18.874191 36.686197,18.7330108 37.7990608,17.4474152"/>
      <path fill="#FFBC85" d="M36.3263479 16.3678321L40.3738707 12.0832264C41.5414596 10.8471864 41.4856649 8.8806458 40.2496249 7.71305686 39.013585 6.54528967 37.0470444 6.60126263 35.8792772 7.83730259L31.8317544 12.1219083C30.6641654 13.3579483 30.7201384 15.3244889 31.9561783 16.4922561 33.1922183 17.6598451 35.1587589 17.6038721 36.3263479 16.3678321M43.0773471 26.0190153L54.2154325 14.2285062C55.3830214 12.9924662 55.3272267 11.0259256 54.0911868 9.85833664 52.8551468 8.69074771 50.8886062 8.74672067 49.720839 9.98258237L38.5827536 21.7730915C37.4151646 23.0091315 37.4711376 24.9756721 38.7071776 26.1434393 39.9432175 27.3110282 41.9097581 27.2550553 43.0773471 26.0190153"/>
      <path fill="#FFBC85" d="M29.7065999,7.38957234 C28.2855283,7.52469179 27.2428981,8.78622261 27.3780175,10.2072942 L28.5491716,22.5266944 C28.6841128,23.947766 29.9458219,24.9903962 31.3668935,24.8552768 C32.7879651,24.7201573 33.830417,23.4586265 33.6954759,22.0375549 L32.5243218,9.71815467 C32.3892023,8.29708307 31.1276715,7.25445288 29.7065999,7.38957234"/>
      <path fill="#FFBC85" d="M48.8744351,5.38238891 C48.588153,3.98395606 47.2223413,3.08232784 45.8237302,3.36860995 L29.4197295,6.72734441 C28.0211184,7.01362652 27.1194902,8.37943819 27.4059506,9.77787105 C27.6922327,11.1764822 29.0580443,12.0779321 30.4566554,11.79165 L46.8606561,8.43309381 C48.259089,8.14663344 49.1607172,6.78082177 48.8744351,5.38238891"/>
      <polygon fill="#FFBC85" points="29.62 38.884 47.125 20.354 38.054 11.785 20.549 30.315"/>
      <path fill="#FFBC85" d="M41.0853512,20.9617331 L52.2234367,9.17122392 C53.3910256,7.93518397 53.3350526,5.96864334 52.0991909,4.8010544 C50.863151,3.63346547 48.8966103,3.68943843 47.7288431,4.92530013 L36.5907577,16.7158093 C35.4231688,17.9518492 35.4791418,19.9183899 36.7151817,21.0861571 C37.9512217,22.253746 39.9177623,22.197773 41.0853512,20.9617331"/>
      <path fill="#FFBC85" d="M39.1521983,25.5808932 L54.2026871,19.5345651 C55.7802691,18.9006801 56.5526603,17.0911847 55.9187754,15.5134244 C55.2848905,13.9356642 53.475395,13.1634511 51.8976348,13.7973361 L36.8473243,19.8436642 C35.269564,20.4775491 34.497351,22.2870446 35.1310576,23.8648048 C35.7649426,25.4423868 37.574438,26.2147781 39.1521983,25.5808932"/>
      <g transform="translate(0 22.639)">
        <mask id="title_why-are-we-doing-this-b" fill="#fff">
          <use xlink:href="#title_why-are-we-doing-this-a"/>
        </mask>
        <polygon fill="#9B9794" points="28.034 24.811 39.056 14.123 24.442 .012 0 24.811" mask="url(#title_why-are-we-doing-this-b)"/>
      </g>
      <path fill="#ADADAD" d="M37.0413739,44.1567982 L41.9867189,39.2114532 L24.5888537,21.8140725 L15.7307455,30.6726653 L29.2143939,44.1567982 C31.3759836,46.3179034 34.8802688,46.3179034 37.0413739,44.1567982"/>
      <path fill="#686868" d="M31.7063516,42.5008878 C32.4394799,43.234016 33.6285722,43.234016 34.3617005,42.5008878 C35.0953133,41.7677595 35.0953133,40.5786672 34.3617005,39.8455389 C33.6285722,39.1119261 32.4394799,39.1119261 31.7063516,39.8455389 C30.9732233,40.5786672 30.9732233,41.7677595 31.7063516,42.5008878"/>
      <path fill="#FFBC85" d="M54.7934692,17.588845 C56.1353944,19.6520013 53.0556334,24.0351837 47.9144987,27.3789445 C42.7735422,30.7227053 37.5179659,31.7607008 36.1760408,29.6975444 C34.8341157,27.634388 37.9138766,23.2512056 43.0550114,19.9074448 C48.1961461,16.563684 53.4515441,15.5256886 54.7934692,17.588845"/>
    </g>
  </g>
</svg>
