<svg xmlns="http://www.w3.org/2000/svg" width="153" height="91" viewBox="0 0 153 91">
  <g fill="none" fill-rule="evenodd">
    <g transform="translate(20.48 .355)">
      <path fill="#E89456" d="M38.8506796,69.6569435 L43.6313219,62.6880992 C44.4882829,61.438965 44.1730077,59.7119276 42.9304938,58.8502778 C41.688157,57.988628 39.9705175,58.3056282 39.1135565,59.5547624 L34.3327371,66.5236067 C33.4757761,67.7729189 33.7912284,69.4999563 35.0335652,70.3616061 C36.276079,71.223256 37.9937185,70.9060777 38.8506796,69.6569435"/>
      <path fill="#E89456" d="M35.0584367,67.7510261 L40.9608642,61.7136037 C42.0189217,60.6314242 42.0038748,58.8755524 40.9275842,57.8117059 C39.8511165,56.7478593 38.1047995,56.7629885 37.0467421,57.845168 L31.1444915,63.8825904 C30.0864341,64.9647699 30.1013039,66.7206417 31.1777716,67.7844882 C32.2540622,68.8483347 34.0003792,68.8332056 35.0584367,67.7510261"/>
      <polygon fill="#FFBC85" points=".807 75.801 26.121 75.801 26.121 63.342 .807 63.342" transform="rotate(-51 13.464 69.571)"/>
      <path fill="#FFBC85" d="M12.6231048 61.8764112C12.6231048 65.939568 16.7707183 69.2332738 21.8871704 69.2332738 27.0036226 69.2332738 31.1514131 65.939568 31.1514131 61.8764112 31.1514131 57.8132544 27.0036226 54.5195485 21.8871704 54.5195485 16.7707183 54.5195485 12.6231048 57.8132544 12.6231048 61.8764112M45.370381 62.4924881C46.3728537 61.4845305 46.3728537 59.8504039 45.370381 58.8426242L36.8586567 50.2843287C35.856184 49.2763711 34.2309497 49.2763711 33.2286541 50.2843287 32.2261814 51.2921084 32.2261814 52.926235 33.2286541 53.9341927L41.7403784 62.4924881C42.742674 63.5004458 44.3679083 63.5004458 45.370381 62.4924881"/>
      <path fill="#FFBC85" d="M37.3134249 51.3106194C36.8667997 49.957895 35.4141614 49.22511 34.068798 49.6741789L18.2869782 54.9410824C16.9416149 55.3899733 16.2129944 56.8507376 16.6594426 58.203462 17.1060678 59.5563643 18.5588832 60.2889713 19.9042465 59.8399024L35.6858894 54.5729989C37.0312527 54.124108 37.7600502 52.6633437 37.3134249 51.3106194M30.3888222 64.4592604L46.4958305 64.4592604C48.1844385 64.4592604 49.5659142 63.070226 49.5659142 61.372379 49.5659142 59.6747099 48.1844385 58.2856756 46.4958305 58.2856756L30.3888222 58.2856756C28.7003912 58.2856756 27.3187385 59.6747099 27.3187385 61.372379 27.3187385 63.070226 28.7003912 64.4592604 30.3888222 64.4592604"/>
      <path fill="#FFBC85" d="M34.0738609,55.498209 L54.4573543,63.7985969 C56.0224013,64.4358013 57.8214707,63.6697321 58.4553847,62.0961221 C59.0891216,60.5225121 58.3272211,58.7135992 56.7621741,58.0763949 L36.3786807,49.776007 C34.8136337,49.1388026 33.0145643,49.9048718 32.3808273,51.4784818 C31.7469134,53.0520918 32.5088139,54.8608267 34.0738609,55.498209"/>
      <path fill="#FFBC85" d="M27.5275531,60.0965107 L38.6209588,60.0965107 C38.8156824,60.0965107 38.9750017,59.9363197 38.9750017,59.7405306 L38.9750017,54.4008292 C38.9750017,54.2050401 38.8156824,54.0448491 38.6209588,54.0448491 L27.5275531,54.0448491 C27.3328294,54.0448491 27.1735101,54.2050401 27.1735101,54.4008292 L27.1735101,59.7405306 C27.1735101,59.9363197 27.3328294,60.0965107 27.5275531,60.0965107"/>
      <path fill="#AFAFAF" d="M91.5518712,71.5824577 L132.133163,71.5824577 L132.133163,1.02524484 C132.133163,0.713940245 131.882146,0.461550357 131.572536,0.461550357 L92.1124982,0.461550357 C91.8028877,0.461550357 91.5518712,0.713940245 91.5518712,1.02524484 L91.5518712,71.5824577 Z"/>
      <polygon fill="#000" points="95.856 71.619 127.829 71.619 127.829 5.135 95.856 5.135"/>
      <polygon fill="#AFAFAF" points="35.807 71.61 132.034 71.61 132.034 64.655 35.807 64.655"/>
      <polygon fill="#7C7C7C" points="35.4 71.61 71.063 71.61 71.063 64.655 35.4 64.655"/>
    </g>
    <g transform="translate(.64 62.452)">
      <polygon fill="#9B9794" points="30.184 28.248 42.865 16.221 27.375 .731 0 28.248"/>
      <path fill="#ADADAD" d="M39.3173826,22.4317733 L44.2627276,17.4864283 L26.8648624,0.0890475913 L18.0067542,8.94764034 L31.4904026,22.4317733 C33.6519923,24.5928784 37.1562775,24.5928784 39.3173826,22.4317733"/>
      <path fill="#686868" d="M33.9823603,20.7758629 C34.7154886,21.5089911 35.9045809,21.5089911 36.6377092,20.7758629 C37.371322,20.0427346 37.371322,18.8536422 36.6377092,18.120514 C35.9045809,17.3869012 34.7154886,17.3869012 33.9823603,18.120514 C33.2492321,18.8536422 33.2492321,20.0427346 33.9823603,20.7758629"/>
    </g>
    <path fill="#79E153" d="M125.999164,34.6891129 L125.999164,34.7575552 L129.19108,37.9743443 L129.19108,43.9972686 L123.578125,38.3165559 L123.578125,31.1301121 L129.19108,25.4493994 L129.19108,31.4723237 L125.999164,34.6891129 Z M129.723468,48.6171253 L133.300823,20.0766772 L135.179838,20.0766772 L131.602483,48.6171253 L129.723468,48.6171253 Z M141.578125,38.3165559 L135.96517,43.9972686 L135.96517,37.9743443 L139.157086,34.7575552 L139.157086,34.6891129 L135.96517,31.4723237 L135.96517,25.4493994 L141.578125,31.1301121 L141.578125,38.3165559 Z"/>
  </g>
</svg>
