<svg xmlns="http://www.w3.org/2000/svg" xmlns:xlink="http://www.w3.org/1999/xlink" width="85" height="95" viewBox="0 0 85 95">
  <defs>
    <polygon id="title_who-you-will-be-working-with-a" points="0 .19 38.142 .19 38.142 31.001 0 31.001"/>
  </defs>
  <g fill="none" fill-rule="evenodd" transform="matrix(-1 0 0 1 72 -.263)">
    <g transform="translate(0 .376)">
      <polygon fill="#FFBC85" points="43.741 76.358 33.335 52.164 46.808 46.369 57.214 70.563"/>
      <polygon fill="#9B9794" points="47.047 94.527 38.641 75.337 58.818 66.658 71.914 94.527"/>
      <g transform="translate(.05 .206)">
        <path fill="#FFBC85" d="M32.9894358 47.4123115C31.7304794 47.287244 30.8025591 46.1548415 30.9276266 44.8958851L32.6065891 27.9920222C32.7316566 26.7330658 33.8638468 25.8051455 35.1230155 25.930213 36.381972 26.0552805 37.3096799 27.1876831 37.1846124 28.4466395L35.5058623 45.3505023C35.3807948 46.6096711 34.2483923 47.5373791 32.9894358 47.4123115M39.1649473 42.9044449L39.4307954 40.227915C38.171839 40.1028475 36.9780705 41.6469749 37.103138 40.3880184L39.0479486 20.8076257C39.1728038 19.5486693 40.3052063 18.6209613 41.5641627 18.7458165L41.5643751 18.7458165C42.8233315 18.870884 43.7510395 20.0032866 43.625972 21.262243L41.6813737 40.8426357C41.5563062 42.1018045 40.4239037 43.0295124 39.1649473 42.9044449M45.0218656 42.952667L45.5011142 38.1279061C44.2419454 38.0030509 42.8349889 41.695197 42.9600564 40.4362406L45.1180551 18.7076168C45.2431226 17.4486603 46.3755251 16.5209524 47.6344816 16.6460199 48.893438 16.7708751 49.8213583 17.9032776 49.6962908 19.162234L47.5382921 40.8908578C47.4132246 42.1500266 46.2808221 43.0777346 45.0218656 42.952667M50.4487344 46.6568315C49.1897779 46.531764 48.1956079 46.0684408 48.3204631 44.8094844L50.5973715 21.8834824C50.722439 20.624526 51.8548415 19.696818 53.1137979 19.8218856 54.3729667 19.9469531 55.3006747 21.0793556 55.1756072 22.338312L52.8986988 45.264314C52.7736313 46.5232704 51.7076908 46.781899 50.4487344 46.6568315M55.1102493 56.5086486C53.8512929 56.3835811 52.9233726 55.2511785 53.0484401 53.9922221L54.7274025 37.0883593C54.8524701 35.8294029 55.9846603 34.9014825 57.243829 35.0265501 58.5027854 35.1516176 59.4304934 36.2840201 59.3054259 37.5429765L57.6266758 54.4468394C57.5016082 55.7060081 56.3692057 56.6337161 55.1102493 56.5086486"/>
        <path fill="#FFBC85" d="M57.8051677,52.3622674 C57.6864704,53.5570975 57.6669352,54.4949978 57.332077,55.5913027 C55.6384632,61.1369537 49.7014718,64.9189191 42.907269,64.2441066 C35.5350801,63.5119626 29.8373946,56.5578687 30.5697509,49.1856798 C30.8755187,46.1063433 31.278113,42.052372 31.5620099,39.1940801"/>
        <path fill="#FFBC85" d="M32.6438333,44.38245 C32.6438333,44.38245 35.7148886,35.360389 47.5052097,36.9045164 C49.9914841,37.2300317 53.465983,39.0143142 53.465983,39.0143142 L52.642958,47.3014707 L56.8831504,47.7582113 L46.5492607,60.4951386 L35.6679617,49.7410306 L32.6438333,44.38245 Z"/>
        <polygon fill="#D17C3D" points="30.828 76.152 41.235 51.958 27.761 46.163 17.355 70.357"/>
        <g transform="translate(0 63.49)">
          <mask id="title_who-you-will-be-working-with-b" fill="#fff">
            <use xlink:href="#title_who-you-will-be-working-with-a"/>
          </mask>
          <polygon fill="#0059E8" points="27.587 31.001 38.142 9.659 16.129 .19 0 31.001" mask="url(#title_who-you-will-be-working-with-b)"/>
        </g>
        <path fill="#D17C3D" d="M41.5302523 47.4123115C42.7892087 47.287244 43.717129 46.1548415 43.5920615 44.8958851L41.913099 27.9920222C41.7880315 26.7330658 40.6558413 25.8051455 39.3966725 25.930213 38.1377161 26.0552805 37.2100081 27.1876831 37.3350757 28.4466395L39.0138258 45.3505023C39.1388933 46.6096711 40.2712958 47.5373791 41.5302523 47.4123115M35.3547621 42.9044449L35.0889139 40.227915C36.3478704 40.1028475 37.5416388 41.6469749 37.4165713 40.3880184L35.4717607 20.8076257C35.3469055 19.5486693 34.214503 18.6209613 32.9555466 18.7458165L32.9553342 18.7458165C31.6963778 18.870884 30.7686698 20.0032866 30.8937374 21.262243L32.8383356 40.8426357C32.9634031 42.1018045 34.0958056 43.0295124 35.3547621 42.9044449M29.4978437 42.952667L29.0185951 38.1279061C30.2777639 38.0030509 31.6847204 41.695197 31.5596529 40.4362406L29.4016542 18.7076168C29.2765867 17.4486603 28.1441842 16.5209524 26.8852278 16.6460199 25.6262713 16.7708751 24.698351 17.9032776 24.8234185 19.162234L26.9814172 40.8908578C27.1064847 42.1500266 28.2388873 43.0777346 29.4978437 42.952667M24.070975 46.6568315C25.3299314 46.531764 26.3241014 46.0684408 26.1992462 44.8094844L23.9223378 21.8834824C23.7972703 20.624526 22.6648678 19.696818 21.4059114 19.8218856 20.1467426 19.9469531 19.2190346 21.0793556 19.3441022 22.338312L21.6210105 45.264314C21.746078 46.5232704 22.8120185 46.781899 24.070975 46.6568315M19.4094388 56.5086486C20.6683952 56.3835811 21.5963155 55.2511785 21.471248 53.9922221L19.7922855 37.0883593C19.667218 35.8294029 18.5350278 34.9014825 17.2758591 35.0265501 16.0169027 35.1516176 15.0891947 36.2840201 15.2142622 37.5429765L16.8930123 54.4468394C17.0180798 55.7060081 18.1504824 56.6337161 19.4094388 56.5086486"/>
        <path fill="#D17C3D" d="M16.7145204,52.3622674 C16.8332177,53.5570975 16.8527529,54.4949978 17.1876111,55.5913027 C18.8812249,61.1369537 24.8182162,64.9189191 31.6124191,64.2441066 C38.984608,63.5119626 44.6822935,56.5578687 43.9499372,49.1856798 C43.6441694,46.1063433 43.2415751,42.052372 42.9576782,39.1940801"/>
        <path fill="#D17C3D" d="M41.875876,44.38245 C41.875876,44.38245 38.8048208,35.360389 27.0144996,36.9045164 C24.5282252,37.2300317 21.0537263,39.0143142 21.0537263,39.0143142 L21.8767513,47.3014707 L17.6365589,47.7582113 L27.9704486,60.4951386 L38.8517476,49.7410306 L41.875876,44.38245 Z"/>
        <polygon fill="#565656" points="35.52 11.157 37.094 11.157 37.094 .01 35.52 .01"/>
        <polygon fill="#565656" points="42.438 12.61 41.325 11.496 47.088 5.734 48.201 6.847"/>
        <polygon fill="#565656" points="29.769 12.61 30.882 11.496 25.12 5.734 24.006 6.847"/>
      </g>
    </g>
    <path fill="#ADADAD" d="M36.4775112,81.2346282 L54.6793399,63.0327995 L63.9475505,72.3010101 L49.8404235,86.408644 C47.5788828,88.6696778 43.9125608,88.6696778 41.6515271,86.408644 L36.4775112,81.2346282 Z" transform="rotate(23 50.213 75.569)"/>
    <path fill="#686868" d="M42.5603782,81.5385848 C41.9180533,80.8966841 41.9180533,79.8555576 42.5603782,79.2136569 C43.202279,78.5713319 44.2434054,78.5713319 44.8853062,79.2136569 C45.5272069,79.8555576 45.5272069,80.8966841 44.8853062,81.5385848 C44.2434054,82.1804855 43.202279,82.1804855 42.5603782,81.5385848 Z" transform="matrix(-1 0 0 1 87.445 0)"/>
  </g>
</svg>
