<svg xmlns="http://www.w3.org/2000/svg" width="191" height="242" viewBox="0 0 191 242">
  <g fill="none" fill-rule="evenodd" transform="translate(0 -1)">
    <g transform="translate(.25 .567)">
      <g transform="rotate(-51 111.039 52.065)">
        <g transform="rotate(35 25.179 83.603)">
          <g transform="rotate(-20 83.92 14.57)">
            <path fill="#AFAFAF" d="M44.8802513,47.4172416 L66.0587737,47.4172416 L85.3512441,0.877731902 C85.3512441,0.712905974 78.3892631,0.563676782 64.4653012,0.430044326 C64.3575817,0.430044326 57.8292317,16.0924434 44.8802513,47.4172416 Z"/>
            <polygon fill="#AFAFAF" points=".365 47.439 65.971 47.47 65.971 41.946 .365 41.915"/>
            <polygon fill="#7C7C7C" points=".04 47.439 16.878 48.044 16.878 42.52 .04 41.915"/>
            <polygon fill="#000" points="66.239 3.641 80.121 3.869 64.55 41.422 50.494 41.152"/>
          </g>
          <g fill="#C77352" transform="rotate(-26 135.558 -14.793)">
            <g transform="translate(.077 .037)">
              <path d="M7.2201297 14.2788412L7.2201297 2.84628762 7.2201297 14.2788412zM1.08928371 8.63426882C1.08928371 11.7913386 4.329609 14.3505456 8.32683997 14.3505456 12.324071 14.3505456 15.5645345 11.7913386 15.5645345 8.63426882 15.5645345 5.47719901 12.324071 2.91799204 8.32683997 2.91799204 4.329609 2.91799204 1.08928371 5.47719901 1.08928371 8.63426882"/>
              <path d="M13.8023057.544721928L1.47275038 4.63710202C.421684557 4.98588992-.147550564 6.1209027.201237331 7.17196853.550163524 8.22317265 1.68517631 8.79240777 2.73624213 8.44348157L15.0656591 4.35110148C16.1167249 4.00231358 16.6860983 2.8673008 16.3371722 1.81623498 15.988246.765169154 14.8533715.195795735 13.8023057.544721928zM10.9273225 12.0327192L23.5109315 12.0327192C24.8301574 12.0327192 25.909436 10.9534406 25.909436 9.63421468 25.909436 8.31512707 24.8301574 7.23584843 23.5109315 7.23584843L10.9273225 7.23584843C9.60823494 7.23584843 8.528818 8.31512707 8.528818 9.63421468 8.528818 10.9534406 9.60823494 12.0327192 10.9273225 12.0327192"/>
              <path d="M13.806261,5.06998901 L29.7308763,11.5193842 C30.9535701,12.0144915 32.359094,11.4192564 32.8543396,10.1965626 C33.3494469,8.97386875 32.7542118,7.56834481 31.531518,7.07323749 L15.6069027,0.623842291 C14.3842089,0.12873497 12.9786849,0.72397014 12.4835776,1.94666395 C11.988332,3.16935775 12.5835672,4.57488169 13.806261,5.06998901"/>
            </g>
            <path d="M7.4675091,7.99718637 L19.6366172,7.99718637 C19.8502227,7.99718637 20.0249909,7.87523864 20.0249909,7.72619143 L20.0249909,3.66126736 C20.0249909,3.51222015 19.8502227,3.39027242 19.6366172,3.39027242 L7.4675091,3.39027242 C7.25390356,3.39027242 7.07913538,3.51222015 7.07913538,3.66126736 L7.07913538,7.72619143 C7.07913538,7.87523864 7.25390356,7.99718637 7.4675091,7.99718637"/>
          </g>
        </g>
        <rect width="40.162" height="19.507" x="2.601" y="52.356" fill="#2050B4" transform="rotate(21 22.682 62.11)"/>
      </g>
      <g transform="translate(0 .115)">
        <polygon fill="#8C7948" points="104.338 138.9 146.296 175.688 162.95 159.23 104.338 106.723 50.497 148.527 78.044 169.399"/>
        <path fill="#AFAFAF" d="M32.1520264,42.7314693 L51.4690011,45.5876841 L52.6037554,27.3852784 C45.5137246,26.3060426 41.4188233,25.7664246 40.3190516,25.7664246 C35.909646,25.7664246 39.9042616,12.9520711 28.5929316,8.62596688 C27.6735622,8.27434708 26.1682483,14.5274509 24.0769896,27.3852784 C11.1975022,27.3852784 5.78549369,34.1631737 7.84096406,47.7189641" transform="scale(-1 1) rotate(44 -228.845 -141.901)"/>
        <polygon fill="#AE965A" points="71.032 232.274 93.934 232.274 93.934 153.262 63.587 134.716 42.973 155.65 71.032 171.419"/>
        <path fill="#D8D8D8" d="M81.6808023,211.873437 L81.6808023,211.873437 C88.4100764,211.873437 93.8652309,217.328592 93.8652309,224.057866 L93.8652309,233.196187 L69.4963738,233.196187 L69.4963738,224.057866 C69.4963738,217.328592 74.9515283,211.873437 81.6808023,211.873437 Z"/>
        <path fill="#BABABA" d="M98.0070879,241.947315 C98.0070879,233.100969 90.8355951,225.928938 81.9887108,225.928938 C73.1423642,225.928938 65.9708714,233.100969 65.9708714,241.947315 L98.0070879,241.947315 Z"/>
        <path fill="#C77352" d="M21.6662425 39.9187101C20.7422638 39.9187101 19.9860138 39.16246 19.9860138 38.2384814L19.9860138 26.479823C19.9860138 25.5558444 20.7422638 24.7995943 21.6662425 24.7995943 22.5902212 24.7995943 23.3464712 25.5558444 23.3464712 26.479823L23.3464712 38.2384814C23.3464712 39.16246 22.5902212 39.9187101 21.6662425 39.9187101M70.1426063 39.9187101C69.2186276 39.9187101 68.4623776 39.16246 68.4623776 38.2384814L68.4623776 26.479823C68.4623776 25.5558444 69.2186276 24.7995943 70.1426063 24.7995943 71.0665849 24.7995943 71.822835 25.5558444 71.822835 26.479823L71.822835 38.2384814C71.822835 39.16246 71.0665849 39.9187101 70.1426063 39.9187101"/>
        <path fill="#000" d="M21.2684756,21.7828334 C21.2684756,33.6268274 31.3682391,43.2292903 43.8265023,43.2292903 C56.2855012,43.2292903 66.3852647,33.6268274 66.3852647,21.7828334 C66.3852647,9.93883948 56.2855012,0.336376558 43.8265023,0.336376558 C31.3682391,0.336376558 21.2684756,9.93883948 21.2684756,21.7828334" transform="matrix(-1 0 0 1 87.654 0)"/>
        <path fill="#000" d="M39.1017051,36.6190175 L54.788744,36.6190175 C63.1538406,36.6190175 69.9976093,29.7752488 69.9976093,21.4101522 C69.9976093,13.0450556 63.1538406,6.20128696 54.788744,6.20128696 L39.1017051,6.20128696 C30.7366085,6.20128696 23.8928398,13.0450556 23.8928398,21.4101522 C23.8928398,29.7752488 30.7366085,36.6190175 39.1017051,36.6190175"/>
        <polygon fill="#C77352" points="39.299 65.204 52.47 65.204 52.47 50.477 39.299 50.477"/>
        <path fill="#C77352" d="M70.4513593,34.1593657 C70.4513593,47.7269918 59.4526293,58.7264575 45.8842675,58.7264575 C32.3166414,58.7264575 21.3171757,47.7269918 21.3171757,34.1593657 C21.3171757,20.5917396 32.3166414,9.59227392 45.8842675,9.59227392 C59.4526293,9.59227392 70.4513593,20.5917396 70.4513593,34.1593657"/>
        <path fill="#C77352" d="M50.7888581,38.4079756 L48.7952417,37.0948371 C46.9090305,35.8523212 44.4622526,35.8523212 42.5760414,37.0948371 L40.5831607,38.4079756 L50.7888581,38.4079756 Z"/>
        <path fill="#000" d="M64.2612455,9.90021776 C64.2612455,9.90021776 35.5708254,16.8889098 33.36387,16.5210839 C31.1569146,16.153258 44.398647,6.95761057 44.398647,6.95761057 L64.2612455,9.90021776 Z" transform="matrix(-1 0 0 1 97.377 0)"/>
        <path fill="#000" d="M22.0649658 39.3262897C21.6971399 39.8780285 21.329314 45.7632429 21.329314 45.7632429L25.9271377 47.6023724 22.0649658 39.3262897zM69.6989347 38.7313681C70.0667606 39.2831069 70.4345865 45.1683213 70.4345865 45.1683213L65.8367627 47.0074508 69.6989347 38.7313681z"/>
        <path fill="#1560FA" d="M71.5068929,131.842214 L43.634727,159.864395 C43.634727,159.864395 10.2562018,123.926394 16.7498711,69.4800684 C17.0798366,66.711075 18.7570527,64.420991 21.2337504,64.420991 L47.4386211,64.420991 C56.6463547,64.420991 67.1454372,79.7744193 69.5333342,94.1199751 C71.1252655,103.683679 71.7831184,116.257759 71.5068929,131.842214 Z"/>
        <path fill="#1560FA" d="M57.8822466,69.9615666 C52.9710352,82.6589167 38.6464233,89.1010195 25.9490733,84.1898081 C13.2517233,79.2785966 6.95233691,64.9709048 11.8635483,52.2742904 L57.8822466,69.9615666 Z"/>
        <path fill="#1560FA" d="M35.7007966,141.998346 L14.1426091,141.998346 L0.154421545,106.735719 C0.0429595572,106.454736 0.0645794616,106.138413 0.213235367,105.875209 L19.9151161,70.9918024 L48.5023051,85.1903539 L35.7007966,141.998346 Z"/>
        <path fill="#C77352" d="M28.8656013,157.173466 C22.5067485,157.066413 17.4283937,151.142805 17.5229401,143.942794 C17.6174865,136.742784 22.8490551,130.993206 29.2079078,131.100259 L28.8656013,157.173466 Z" transform="rotate(90 23.365 144.136)"/>
      </g>
    </g>
    <path fill="#92553C" d="M13.9922992,3.53506645 L11.4244383,1.84356113 C8.99475411,0.242937129 5.84311989,0.242937129 3.41343571,1.84356113 L0.846038522,3.53506645 L13.9922992,3.53506645 Z" transform="translate(39.743 33.604)"/>
  </g>
</svg>
