<svg xmlns="http://www.w3.org/2000/svg" width="156" height="64" viewBox="0 0 156 64">
  <g fill="none" fill-rule="evenodd" transform="translate(0 2)">
    <g transform="translate(0 .031)">
      <rect width="156" height="6" y="3" fill="#050505" opacity=".5"/>
      <circle cx="140.455" cy="5.905" r="5.459" fill="#FFF" stroke="#666" stroke-width="4"/>
      <circle cx="99.455" cy="5.905" r="5.459" fill="#FFF" stroke="#6E6E6E" stroke-width="4"/>
      <circle cx="58.455" cy="5.905" r="5.459" fill="#FFF" stroke="#1560FA" stroke-width="4"/>
      <circle cx="17.455" cy="5.905" r="5.459" fill="#FFF" stroke="#1560FA" stroke-width="4"/>
    </g>
    <g transform="translate(.234 2.951)">
      <path fill="#FFB87E" d="M56.1975939,19.7409638 C56.631569,18.1565495 55.6993084,16.520687 54.1148941,16.0867118 L43.3731749,13.1441601 C41.7887606,12.7101849 40.1528981,13.6424455 39.7189229,15.2263834 C39.2849477,16.8107977 40.2172083,18.4466603 41.8016226,18.8811118 L52.5433419,21.8236636 C54.1277562,22.2576387 55.7636187,21.3253781 56.1975939,19.7409638"/>
      <path fill="#FFB87E" d="M51.2462277,16.96257 L49.53448,22.7492209 C48.4512094,23.9835016 48.5731607,25.8627903 49.8074414,26.9465374 C51.0421984,28.0302844 55.1901788,27.5148024 56.2739258,26.2805217 L56.2739258,21.0676311 C56.2739258,19.480717 56.6778248,17.7733556 55.4435441,16.6896086 C54.2092635,15.6058616 52.3299747,15.7282893 51.2462277,16.96257 Z"/>
      <path fill="#FFB87E" d="M43.3752709,28.1240685 L51.6970188,19.8023206 C52.0676365,19.4317029 52.0676365,18.825281 51.6970188,18.4551397 L48.1132699,14.8709144 C47.7426523,14.5002968 47.1362303,14.5002968 46.7656127,14.8709144 L38.4438648,23.1926623 C38.0732471,23.56328 38.0732471,24.1697019 38.4438648,24.5403196 L42.02809,28.1240685 C42.3982313,28.4946861 43.0046533,28.4946861 43.3752709,28.1240685"/>
      <polygon fill="#FFBC85" points="31.086 49.53 49.313 31.302 39.161 21.15 20.933 39.378"/>
      <path fill="#FFBC85" d="M34.1243588,33.5681465 C36.2465975,37.7421207 41.8344447,39.1593283 46.6053134,36.7336405 C51.3761821,34.3079527 54.316352,29.2622172 52.1941133,25.088243 C50.0718747,20.9142688 44.4845038,19.4970612 39.7136352,21.922749 C34.9427665,24.3484368 32.0021202,29.3941723 34.1243588,33.5681465"/>
      <path fill="#FFBC85" d="M43.8501188,13.3306598 C42.3819394,12.5941882 40.5945905,13.1872718 39.8581189,14.6554512 L31.2195834,31.8777394 C30.4831118,33.3459188 30.1849027,35.1332678 31.6530822,35.8697393 C33.1212617,36.6062109 34.9086106,36.012651 35.6450822,34.5444716 L45.1749102,17.3226598 C45.9113818,15.8544803 45.3182983,14.0671314 43.8501188,13.3306598"/>
      <polygon fill="#9B9794" points="29.675 58.247 42.141 46.423 26.913 31.195 0 58.247"/>
      <path fill="#ADADAD" d="M38.6536115,52.5297176 L43.5154673,47.6678618 L26.4113195,30.5641904 L17.7027573,39.273229 L30.9587696,52.5297176 C33.0838664,54.6543381 36.528991,54.6543381 38.6536115,52.5297176"/>
      <path fill="#686868" d="M33.4086571,50.9017629 C34.1294084,51.6225142 35.298426,51.6225142 36.0191773,50.9017629 C36.740405,50.1810116 36.740405,49.0119939 36.0191773,48.2912426 C35.298426,47.5700149 34.1294084,47.5700149 33.4086571,48.2912426 C32.6879058,49.0119939 32.6879058,50.1810116 33.4086571,50.9017629"/>
      <path fill="#FFBC85" d="M45.8264923 19.0854279L59.9118688 5.00005141C61.0556387 3.85628149 61.0556387 2.00176409 59.9118688.857994169 58.7680988-.285775749 56.9135814-.285775749 55.7698115.857994169L41.684435 14.9433707C40.5406651 16.0871406 40.5406651 17.941658 41.684435 19.0854279 42.828205 20.2291978 44.6827224 20.2291978 45.8264923 19.0854279M43.9514432 35.1846207L55.9322068 28.6063954C57.3503672 27.8280031 57.8686603 26.0473234 57.0902679 24.6296394 56.3113992 23.211479 54.5311959 22.693186 53.1130355 23.4715783L41.1322719 30.0498035C39.7141115 30.8281959 39.1958185 32.6088756 39.9742108 34.027036 40.7530795 35.44472 42.5332829 35.963013 43.9514432 35.1846207"/>
      <path fill="#FFBC85" d="M41.7521275,18.2731655 L45.0676788,25.9699129 C45.7074468,27.4557181 47.5957867,28.0702384 49.2845265,27.3423415 C50.9737427,26.614921 51.8240673,24.8209029 51.1838229,23.3350976 L47.868748,15.6383502 C47.2285036,14.1530214 45.3406402,13.5385011 43.651424,14.2659216 C41.9626841,14.9933421 41.1123595,16.7873602 41.7521275,18.2731655"/>
    </g>
  </g>
</svg>
