<svg xmlns="http://www.w3.org/2000/svg" xmlns:xlink="http://www.w3.org/1999/xlink" width="109" height="81" viewBox="0 0 109 81">
  <defs>
    <polygon id="title_what-we-do-a" points="20.976 .055 20.976 12.936 .345 12.936 .345 .055 20.976 .055"/>
  </defs>
  <g fill="none" fill-rule="evenodd" transform="translate(-.36 .22)">
    <rect width="109" height="6" x=".359" y="45.78" fill="#727272"/>
    <g transform="translate(3.404 48.46)">
      <g transform="translate(14.2 .004)">
        <g transform="translate(45.04 .317)">
          <mask id="title_what-we-do-b" fill="#fff">
            <use xlink:href="#title_what-we-do-a"/>
          </mask>
          <path fill="#E89456" d="M19.2046377,5.90194598 L4.70509112,12.6515228 C3.17560466,13.3633194 1.3418615,12.6944021 0.629692038,11.1652885 C-0.0821045635,9.63580201 0.586812725,7.80168599 2.11629919,7.08988939 L16.6154729,0.340312603 C18.1449594,-0.371856863 19.9790754,0.297060426 20.690872,1.82654689 C21.4030415,3.35603335 20.7341242,5.19014937 19.2046377,5.90194598" mask="url(#title_what-we-do-b)"/>
        </g>
        <polygon fill="#FFBC85" points=".881 21.451 18.921 2.404 30.306 10.197 11.013 30.895"/>
        <path fill="#FFBC85" d="M14.9481672 8.77662956C14.8777497 4.56811817 20.001143 1.08706365 26.3916345 1.00167789 32.7817093.916292123 38.0192707 4.25864138 38.0892715 8.46715277 38.159689 12.676037 33.0362957 16.1567187 26.6458041 16.2424773 20.2557293 16.3278631 15.0185846 12.9851409 14.9481672 8.77662956M55.331679 6.94872323C56.1087267 8.32943712 55.6195297 10.0789131 54.2384429 10.8563337L42.8620018 17.2595202C41.4809151 18.0365679 39.7314391 17.5473709 38.9543914 16.1662841 38.1769708 14.7855703 38.6665407 13.0360943 40.0472545 12.2586737L51.4240685 5.85548717C52.8051553 5.07843944 54.5546313 5.56800934 55.331679 6.94872323"/>
        <path fill="#FFBC85" d="M43.2748364,15.0566048 C42.9750541,16.6125646 41.4705495,17.6308551 39.9145897,17.3310727 L21.6636625,13.8134776 C20.1077027,13.5133224 19.0894122,12.0091906 19.3895674,10.4532309 C19.6893497,8.89727109 21.1938543,7.87898061 22.7498141,8.17876294 L41.0003685,11.6963581 C42.5563282,11.9961404 43.5746187,13.500645 43.2748364,15.0566048"/>
        <path fill="#FFBC85" d="M31.9369494,9.01345538 L44.0304072,8.8329894 C44.4405571,8.82665072 44.7809816,9.15738073 44.7873203,9.56715782 L44.8656216,14.8029084 C44.8715874,15.2130584 44.5412303,15.5534828 44.1310803,15.5598215 L32.0372497,15.7402875 C31.6274726,15.7466262 31.2866753,15.4158962 31.2807094,15.0057462 L31.2024081,9.77036848 C31.1964423,9.36021853 31.5267994,9.0194212 31.9369494,9.01345538"/>
      </g>
      <polygon fill="#9B9794" points="29.287 31.83 41.59 20.617 26.561 5.588 0 31.83"/>
      <path fill="#ADADAD" d="M38.1480422,26.6431047 L42.9463075,21.8448395 L26.0658731,4.96487524 L17.4712143,13.5600041 L30.5538448,26.6431047 C32.6511466,28.7399363 36.0512107,28.7399363 38.1480422,26.6431047" transform="matrix(0 -1 -1 0 46.8 46.8)"/>
      <path fill="#686868" d="M23.5480651,14.0364428 C24.2598595,13.3251186 24.2598595,12.1713911 23.5480651,11.4600668 C22.8367409,10.7482724 21.6830134,10.7482724 20.9716891,11.4600668 C20.2603649,12.1713911 20.2603649,13.3251186 20.9716891,14.0364428 C21.6830134,14.7477671 22.8367409,14.7477671 23.5480651,14.0364428 Z"/>
    </g>
    <g transform="translate(3 .224)">
      <g transform="translate(.704 17.624)">
        <polygon fill="#00BFFF" points="0 28.369 45.357 28.369 22.707 4.978"/>
        <polygon fill="#1560FA" points="22.506 28.416 44.939 28.416 22.506 4.963"/>
        <polygon fill="#00EFE9" points="22.491 4.978 22.491 11.098 16.981 11.098"/>
        <polygon fill="#0CB6F4" points="28.414 11.051 22.542 4.978 22.542 11.051"/>
        <polygon fill="#ED588E" points="22.536 0 22.536 5.07 25.739 2.471"/>
      </g>
      <g transform="translate(13.267 9.15)">
        <polygon fill="#00BFFF" points="0 36.719 58.708 36.719 29.391 6.443"/>
        <polygon fill="#1560FA" points="29.13 36.78 58.167 36.78 29.13 6.424"/>
        <polygon fill="#00EFE9" points="29.111 6.443 29.111 14.364 21.979 14.364"/>
        <polygon fill="#0CB6F4" points="36.778 14.304 29.177 6.443 29.177 14.304"/>
        <polygon fill="#ED588E" points="29.17 0 29.17 6.562 33.315 3.199"/>
      </g>
      <g transform="translate(28.203 .22)">
        <polygon fill="#00BFFF" points="0 45.661 73.005 45.661 36.549 8.012"/>
        <polygon fill="#1560FA" points="36.225 45.737 72.332 45.737 36.225 7.988"/>
        <polygon fill="#00EFE9" points="36.201 8.012 36.201 17.862 27.331 17.862"/>
        <polygon fill="#0CB6F4" points="45.735 17.787 36.282 8.012 36.282 17.787"/>
        <polygon fill="#ED588E" points="36.274 0 36.274 8.16 41.428 3.978"/>
      </g>
    </g>
    <path fill="#FFBC85" d="M53.1123914,52.9934122 L71.1146186,52.7245776 C73.0016812,52.69624 74.5688269,54.2171506 74.5971645,56.1045861 C74.6251293,57.9916487 73.1042187,59.5587944 71.217156,59.587132 L53.2149288,59.8559667 C51.3278662,59.8839315 49.7607205,58.3630209 49.7323829,56.4759582 C49.7044181,54.5888956 51.2253287,53.0217499 53.1123914,52.9934122" transform="rotate(-9 62.165 56.29)"/>
  </g>
</svg>
