<svg xmlns="http://www.w3.org/2000/svg" width="936" height="537" viewBox="0 0 936 537">
  <g fill="none" fill-rule="evenodd" transform="translate(0 -1)">
    <g opacity=".5" transform="matrix(-1 0 0 1 550.785 .804)">
      <path fill="#1560FA" d="M28.0283203,36.8732462 L28.0283203,36.8732462 L28.0283203,36.8732462 C31.0658864,36.8732462 33.5283203,39.33568 33.5283203,42.3732462 L33.5283203,57.8732462 L33.5283203,57.8732462 C33.5283203,58.4255309 33.0806051,58.8732462 32.5283203,58.8732462 L23.5283203,58.8732462 L23.5283203,58.8732462 C22.9760356,58.8732462 22.5283203,58.4255309 22.5283203,57.8732462 L22.5283203,42.3732462 L22.5283203,42.3732462 C22.5283203,39.33568 24.9907542,36.8732462 28.0283203,36.8732462 Z"/>
      <g transform="translate(.185 .163)">
        <polygon fill="#ED588E" points="20.991 14.192 25.965 19.008 39.623 .467"/>
        <polygon fill="#FF8FB8" points="20.601 14.081 23.088 16.489 39.188 .389"/>
        <g transform="translate(0 4.076)">
          <path fill="#1599FF" d="M21.121858,6.94355139 L21.1210331,4.9251293 C21.1210331,2.23376237 19.0802461,0.0521052763 16.3888792,0.0521052763 L16.3888792,4.9251293 L16.3888792,7.50956338 C7.0731405,9.70967851 0.593957329,18.0773549 0.593957329,28.0653166 L0.593957329,52.4699477 L29.2316526,52.4699477 L29.2316526,38.1570017 C29.2316526,33.3571911 25.9214624,29.4661551 21.121858,29.4650208 L21.121858,24.982 C22.1905678,24.673988 23.1988508,24.0999328 24.0409084,23.2577722 C24.0410459,23.2577034 25.2821045,24.6918617 27.7640843,27.560247 C28.1457222,27.940235 28.6629596,28.1713214 29.2341275,28.1713214 C29.8052953,28.1713214 30.3224296,27.940235 30.6976742,27.5667434 L36.5118366,22.332705 L21.121858,6.94355139 Z"/>
          <path fill="#1560FA" d="M21.1226829,6.94355139 L19.2332609,11.6509687 C15.4781337,11.6509687 12.4340018,14.6949975 12.4340018,18.4501246 C12.4340018,22.2051487 15.4781337,25.2492806 19.2332609,25.2492806 C19.8981625,25.2492806 20.5399659,25.1520408 21.147328,24.9741631 C21.321081,24.9234293 21.4928748,24.8653741 21.6629156,24.8005132 C21.7054,24.7842206 21.747575,24.7676187 21.789647,24.7505012 C21.8320283,24.7333837 21.8744096,24.7163693 21.9165846,24.6983237 C21.9911386,24.6663573 22.0648676,24.6328441 22.1379779,24.5982998 C22.1687069,24.5837602 22.1993328,24.568705 22.2298556,24.553753 C22.3047189,24.5170432 22.3788604,24.4793022 22.452177,24.4400144 C22.4611482,24.435271 22.4701194,24.4307338 22.4790906,24.4258873 C22.5650906,24.3790719 22.649647,24.3300911 22.7332753,24.2796667 C22.7497741,24.2697674 22.7662729,24.259765 22.7826686,24.2496595 C22.9539467,24.1446858 23.1201722,24.0323909 23.2809324,23.9129808 C23.2937189,23.903494 23.3064024,23.8941103 23.3190858,23.8845204 C23.4776806,23.7651103 23.6307069,23.6387914 23.778165,23.5061822 C23.7952825,23.4907146 23.8124,23.475247 23.8294144,23.4595731 C23.9008748,23.3940935 23.971201,23.3274796 24.0397741,23.2591127 C24.0401866,23.2585971 24.040599,23.2581846 24.0410115,23.2577722 C24.0411146,23.2576691 24.0412177,23.2574628 24.041424,23.2573597 L28.3444144,27.560247 L28.3509108,27.5667434 C28.7260523,27.940235 29.2432897,28.1713214 29.8144576,28.1713214 C30.3856255,28.1713214 30.9028629,27.940235 31.2780044,27.5667434 L31.2842945,27.560247 L36.5119397,22.332705 L21.1226829,6.94355139 Z"/>
          <path fill="#1560FA" d="M11.228723,0.0829488792 C4.60888836,3.98167023 0.368371391,11.6287068 0.368371391,20.4263391 L0.368371391,43.248364 L11.228723,43.248364 L11.228723,0.0829488792 Z" transform="translate(0 9.384)"/>
        </g>
      </g>
      <rect width="5.004" height="31" x=".521" y="54.873" fill="#1560FA"/>
      <polygon fill="#1599FF" points="24.528 54.873 29.528 54.873 29.528 66.507 29.528 71.264 29.528 85.873 24.528 85.873 24.528 70.925 24.528 66.085"/>
      <polygon fill="#1560FA" points="14.404 56.954 19.514 56.954 19.514 86.374 14.404 86.374"/>
      <rect width="5.013" height="30.958" x="11.586" y="55.608" fill="#1599FF"/>
    </g>
    <polygon fill="#D6EEFD" points="539.723 173.684 539.723 65.596 420.57 173.684"/>
    <polygon fill="#BDE5FF" points="539.44 66.103 539.44 174.191 658.626 174.191"/>
    <polygon fill="#C9E4F8" points="540 64 22 539 540 539 540 173.097 421.028 173.097"/>
    <polygon fill="#A9D6F7" points="658.665 173.801 539.44 173.801 539.44 538.537 1058.543 538.537"/>
    <g transform="translate(478 195.724)">
      <polygon fill="#C9EAF6" points="375.36 79.1 375.36 .733 288.971 79.1"/>
      <polygon fill="#9ED7FE" points="375 1.276 375 80.276 461 80.276"/>
      <polygon fill="#BAE1FF" points="376.196 .06 .357 343.626 376.196 343.626 376.196 78.969 289.875 78.969"/>
      <polygon fill="#8CC3F6" points="461.358 79.276 375 79.276 375 343.276 751 343.276"/>
    </g>
    <g fill="#FFECF5" transform="translate(309 74)">
      <path d="M207.199397 186.497409C208.087744 183.303107 208.576334 179.913848 208.576334 176.419612 208.576334 156.858593 193.671847 141 175.288824 141 156.908268 141 141.993911 156.852418 141.993911 176.411672 141.596622 176.427551 141.194398 176.411672 140.794642 176.411672 128.953307 176.411672 118.792428 184.038829 114.407449 194.923803 110.158189 195.180512 106.61714 197.860905 105.351246 202L231.243164 202C231.243164 192.215962 223.78763 184.62723 214.601465 184.62723 211.935602 184.62723 209.427667 185.30914 207.199397 186.497409zM414.778636 27.266904C415.309539 25.3525374 415.601535 23.3213315 415.601535 21.2272121 415.601535 9.50416159 406.694175 0 395.707939 0 384.723178 0 375.809919 9.5004608 375.809919 21.2224539 375.572487 21.2319703 375.332107 21.2224539 375.093201 21.2224539 368.01647 21.2224539 361.94403 25.7934603 359.323437 32.3168986 356.783954 32.4707458 354.667719 34.5194122 353.911183 37L429.147899 37C429.147899 31.13636 424.692253 26.1460929 419.20233 26.1460929 417.609132 26.1460929 416.110316 26.554766 414.778636 27.266904zM479.595858 69C484.947349 69 489.791162 71.2929604 493.307542 75.0016354 495.643737 72.2191579 499.043637 70.4662204 502.836932 70.4662204 509.88068 70.4662204 515.588937 76.5113684 515.588937 83.9722311 515.588937 86.7912282 514.770646 89.4066483 513.380211 91.5714018 515.45927 93.5022749 516.772785 96.3360352 516.772785 99.4992483 516.772785 99.7781953 516.791832 99.7218299 516.772785 100L447.579952 100C447.545521 99.6138254 447.498636 99.5575241 447.498636 99.1628024 447.492775 91.5286662 453.333629 85.3428791 460.541475 85.3428791 462.424936 76.0125271 470.238625 69 479.595858 69z"/>
      <path d="M47.9694482,91.3713572 C48.3842132,89.8709077 48.612334,88.2788814 48.612334,86.6375446 C48.612334,77.4492077 41.6534993,70 33.0705525,70 C24.4887578,70 17.5253146,77.4463071 17.5253146,86.6338152 C17.3398225,86.641274 17.1520261,86.6338152 16.9653819,86.6338152 C11.4367183,86.6338152 6.69265183,90.2164959 4.6453258,95.329461 C2.66136664,95.450044 1.00806734,97.0557555 0.417027242,99 L59.1953697,99 C59.1953697,94.4041741 55.7144162,90.4928836 51.425439,90.4928836 C50.1807601,90.4928836 49.0098171,90.813195 47.9694482,91.3713572 Z" opacity=".8"/>
    </g>
    <g transform="translate(166.415 385.509)">
      <polygon fill="#28914F" points="373.089 .406 373.089 153.57 408.287 153.57"/>
      <polygon fill="#28914F" points="164.442 77.911 164.442 153.57 181.887 153.57"/>
      <polygon fill="#28914F" points="17.836 100.745 17.836 153.57 35.863 153.57"/>
      <polygon fill="#28914F" points="424.287 75.641 424.287 153.146 441.352 153.146"/>
      <polygon fill="#28914F" points="503.216 65.063 503.216 153.64 533.081 153.64"/>
      <polygon fill="#28914F" points="290.009 65.244 290.009 153.821 319.874 153.821"/>
      <polygon fill="#28914F" points="564.669 80.511 564.669 153.821 589.386 153.821"/>
      <polygon fill="#41C170" points="539.987 153.821 564.762 82.719 564.762 153.821"/>
      <path fill="#41C170" d="M473.680318,153.570289 L503.202916,68.6840045 L503.202916,153.570289 L473.680318,153.570289 Z M259.528761,153.82125 L290.393295,65.2442576 L290.393295,153.82125 L259.528761,153.82125 Z M407.220745,153.397097 L424.286572,79.5829372 L424.286572,153.397097 L407.220745,153.397097 Z M147.823755,153.570289 L164.623761,79.7561285 L164.623761,153.570289 L147.823755,153.570289 Z M0.664268898,153.570289 L18.690591,102.033352 L18.690591,153.570289 L0.664268898,153.570289 Z M337.890823,153.164382 L373.09065,1.845354 L373.09065,153.164382 L337.890823,153.164382 Z"/>
    </g>
    <g transform="translate(361.424 443.155)">
      <circle cx="31.952" cy="31.946" r="31.595" fill="#41C170"/>
      <path fill="#28914F" d="M80.3634505,47.715969 C80.3634505,30.4287291 66.3491256,16.7633651 49.0618857,16.7633651 C31.7746457,16.7633651 17.7603208,30.4287291 17.7603208,47.715969 L80.3634505,47.715969 Z" transform="matrix(0 -1 -1 0 81.302 81.302)"/>
    </g>
    <g transform="translate(.312 462.531)">
      <polygon fill="#28914F" points="54.568 .204 54.568 76.329 71.602 76.329"/>
      <polygon fill="#28914F" points="8.111 39.17 8.111 76.437 16.554 76.437"/>
      <polygon fill="#28914F" points="79.345 38.029 79.345 76.478 87.604 76.478"/>
      <polygon fill="#28914F" points="117.544 32.711 117.544 77.244 131.997 77.244"/>
      <path fill="#41C170" d="M103.249614,77.208525 L117.537188,34.5313584 L117.537188,77.208525 L103.249614,77.208525 Z M71.0862512,76.4580078 L79.6843186,40.0108722 L79.6843186,76.4580078 L71.0862512,76.4580078 Z M0.0687063598,76.4887695 L8.51136323,40.0979454 L8.51136323,76.4887695 L0.0687063598,76.4887695 Z M37.5337719,76.4458008 L54.8303147,0.927764491 L54.8303147,76.4458008 L37.5337719,76.4458008 Z"/>
    </g>
    <rect width="7" height="32.51" x="392" y="506.362" fill="#28914F"/>
    <g transform="translate(809.676 420.236)">
      <circle cx="42.458" cy="42.171" r="42.005" fill="#41C170"/>
      <path fill="#28914F" d="M106.588265,63.3681248 C106.588265,40.3852383 87.9566245,21.7535978 64.973738,21.7535978 C41.9908516,21.7535978 23.3592111,40.3852383 23.3592111,63.3681248 L106.588265,63.3681248 Z" transform="scale(-1 1) rotate(-90 0 107.535)"/>
      <rect width="7.323" height="34.782" x="40.259" y="83.847" fill="#28914F"/>
    </g>
    <path fill="#41C170" d="M0.702212836,35.4707031 C0.702212836,16.0192835 16.4709032,0.816718851 35.9223229,0.816718851 L35.9223229,35.4707031 L0.702212836,35.4707031 Z" transform="translate(903.337 503.25)"/>
    <g transform="translate(795.879 466.219)">
      <g transform="matrix(-1 0 0 1 49.836 .144)">
        <path fill="#013B7F" d="M14.2595843,37.3848464 L1.02468943,49.8244025 C-0.472948763,51.5545029 -0.310191427,54.1653877 1.39047047,55.6961864 L14.7695122,68.2332831 L23.9475371,58.800125 L14.2595843,37.3848464 Z"/>
        <path fill="#8E5229" d="M39.7082341,6.75792861 C39.7082341,3.56611843 37.1210216,0.978905873 33.9292114,0.978905873 C30.7374012,0.978905873 28.1501886,3.56611843 28.1501886,6.75792861 L39.7082341,6.75792861 Z"/>
        <polygon fill="#ADADAD" points="18.74 34.969 29.126 34.969 29.126 32.483 18.74 32.483"/>
        <g transform="rotate(-34 31.772 -6.977)">
          <path fill="#8E5229" d="M23.4123127,7.21118062 L16.0250065,2.12832505 C14.4480417,1.20606759 12.5170279,2.5646972 12.8522858,4.36059376 L13.7184681,9.00021692 C13.9347154,10.1578111 15.0484635,10.9210895 16.2060577,10.7048422 L22.7271816,11.1480746 C24.723517,10.7522675 25.1261844,8.38458322 23.4123127,7.21118062"/>
          <path fill="#AA6739" d="M19.304628,18.807226 C15.0497759,23.1980902 8.04097717,23.3081526 3.65011297,19.0533005 C-0.740751221,14.7981501 -0.854691179,8.14459346 3.40016092,3.75372926 C7.65501302,-0.637134932 14.6638118,-0.747197352 19.054676,3.50765475 C23.4455402,7.76280511 23.5594801,14.4163618 19.304628,18.807226"/>
        </g>
        <g fill="#000" transform="rotate(-30 28.605 -7.462)">
          <path d="M1.72090052,12.319594 C1.33746032,12.4474074 0.377341656,15.7116262 2.10724615,19.1402613 C2.10724615,19.1402613 4.28007396,18.3733809 5.43039457,18.6290077 C5.43039457,18.6290077 6.96415538,12.8774046 10.670744,11.4714572 C14.3773326,10.0655098 2.23505955,12.4939644 2.23505955,12.4939644" transform="rotate(-18 6.241 15.087)"/>
          <path d="M21.3218437,0.990758357 C21.6623386,1.35579343 21.6715411,2.9406796 20.7114069,5.75308567 C19.7042373,8.7014852 17.113204,10.8298339 14.024721,11.2449719 C8.88815606,11.9351642 2.09615195,13.1115588 1.72395932,14.5389788 C1.34051912,16.0088329 -0.960122093,6.87017479 3.25772013,3.41921297 C7.47556236,-0.0317488487 19.5324561,-0.926442654 21.3218437,0.990758357"/>
        </g>
        <polygon fill="#AA6739" points="21.518 32.682 27.931 32.682 27.931 29.585 21.518 29.585"/>
        <path fill="#0C57F1" d="M10.1231525,72.6547814 L39.6602886,72.6547814 L36.6602886,43.9234191 C36.6602886,39.0404059 33.053741,35.0450505 28.6459179,35.0450505 L20.1375232,35.0450505 C15.7297001,35.0450505 12.1231525,39.0404059 12.1231525,43.9234191 L10.1231525,72.6547814 Z"/>
        <path fill="#0C57F1" d="M46.8118252,30.7539478 L48.8183792,28.5147028 L40.4251339,3.75321224 L33.7193796,9.67809005 L37.7462127,26.614219 L26.8411808,37.2352239 L35.4637088,47.4877204 L46.8118252,30.7539478 Z"/>
      </g>
      <polygon fill="#3E79F2" points="8.552 4.219 18.023 3.681 18.421 6.866 8.63 7.576" transform="rotate(43 13.486 5.628)"/>
    </g>
    <g transform="translate(762.2 508.893)">
      <path fill="#41C170" d="M0.593328571,30.0771484 C0.593328571,13.6418422 13.9169451,0.690079424 30.3522514,0.690079424 L30.3522514,30.0771484 L0.593328571,30.0771484 Z"/>
      <path fill="#28914F" d="M27.8610918,30.0976562 C27.8610918,13.66235 41.1847083,0.690079424 57.6200146,0.690079424 L57.6200146,30.0976562 L27.8610918,30.0976562 Z" transform="matrix(-1 0 0 1 85.481 0)"/>
    </g>
    <g transform="translate(850.618 516.842)">
      <path fill="#41C170" d="M0.439514514,22.0899143 C0.439514514,9.91528459 10.3091266,0.511183747 22.4837563,0.511183747 L22.4837563,22.0899143 L0.439514514,22.0899143 Z"/>
      <path fill="#28914F" d="M20.3823634,22.1582737 C20.3823634,10.0080779 30.2321676,0.15827366 42.3823634,0.15827366 L42.3823634,22.1582737 L20.3823634,22.1582737 Z" transform="matrix(-1 0 0 1 62.765 0)"/>
    </g>
  </g>
</svg>
