<svg xmlns="http://www.w3.org/2000/svg" xmlns:xlink="http://www.w3.org/1999/xlink" width="94" height="72" viewBox="0 0 94 72">
  <defs>
    <polygon id="logo-product-hunt-a" points="7.917 7.877 .013 7.877 .013 .035 7.917 .035"/>
    <polygon id="logo-product-hunt-c" points="7.711 0 .116 0 .116 10.502 7.711 10.502 7.711 0"/>
    <polygon id="logo-product-hunt-e" points="6.944 7.877 .03 7.877 .03 .035 6.944 .035 6.944 7.877"/>
    <polygon id="logo-product-hunt-g" points="5.024 9.715 .045 9.715 .045 .016 5.024 .016 5.024 9.715"/>
    <polygon id="logo-product-hunt-i" points="5.011 .016 5.011 9.715 .032 9.715 .032 .016"/>
  </defs>
  <g fill="none" fill-rule="evenodd" transform="translate(-.165 .11)">
    <g transform="translate(21.468 .478)">
      <path fill="#DA552F" d="M46.7547187,22.8850083 C46.7547187,35.524017 36.5087191,45.7700166 23.8697104,45.7700166 C11.2307017,45.7700166 0.98470208,35.524017 0.98470208,22.8850083 C0.98470208,10.2459996 11.2307017,0 23.8697104,0 C36.5087191,0 46.7547187,10.2459996 46.7547187,22.8850083"/>
      <path fill="#FFF" d="M26.9210353,22.8849416 L26.9210353,22.8850369 L20.4369496,22.8850369 L20.4369496,16.0195344 L26.9210353,16.0195344 L26.9210353,16.0195344 C28.8168675,16.0195344 30.3536912,17.5563581 30.3536912,19.4521903 C30.3536912,21.3480226 28.8168675,22.8849416 26.9210353,22.8849416 M26.9210353,11.4425328 L26.9210353,11.4425328 L15.859948,11.4425328 L15.859948,34.3275411 L20.4369496,34.3275411 L20.4369496,27.4620386 L26.9210353,27.4620386 L26.9210353,27.4620386 C31.3447074,27.4620386 34.9307882,23.8759578 34.9307882,19.4522857 C34.9307882,15.0286136 31.3447074,11.4425328 26.9210353,11.4425328"/>
    </g>
    <g transform="translate(.901 57.247)">
      <path fill="#DA552F" d="M6.04767874 3.32546912C6.04767874 2.45903762 5.38144543 1.93313995 4.51619542 1.93313995L2.19639072 1.93313995 2.19639072 4.70204498 4.51619542 4.70204498C5.38144543 4.70204498 6.04767874 4.17614732 6.04767874 3.32546912L6.04767874 3.32546912zM-.00001312775 10.5021475L-.00001312775-.000052511 4.82482883-.000052511C7.06783619-.000052511 8.28937333 1.5156775 8.28937333 3.32546912 8.28937333 5.11950743 7.05273928 6.63523745 4.82482883 6.63523745L2.19639072 6.63523745 2.19639072 10.5021475-.00001312775 10.5021475zM9.625647 10.5022L9.625647 2.84557109 11.5890333 2.84557109 11.5890333 3.85128802C12.130553 3.20146439 13.0437193 2.66046981 13.9718512 2.66046981L13.9718512 4.57790898C13.8320407 4.54705876 13.6620363 4.53196185 13.4303315 4.53196185 12.7805079 4.53196185 11.9139451 4.90282079 11.5890333 5.38277133L11.5890333 10.5022 9.625647 10.5022z"/>
      <g transform="translate(14.703 2.626)">
        <mask id="logo-product-hunt-b" fill="#fff">
          <use xlink:href="#logo-product-hunt-a"/>
        </mask>
        <path fill="#DA552F" d="M5.87563958,3.94793451 C5.87563958,2.78796652 5.19430935,1.78238087 3.95754402,1.78238087 C2.73469411,1.78238087 2.05454538,2.78796652 2.05454538,3.94793451 C2.05454538,5.1236558 2.73469411,6.12858506 3.95754402,6.12858506 C5.19430935,6.12858506 5.87563958,5.1236558 5.87563958,3.94793451 M0.0130489835,3.94793451 C0.0130489835,1.82898438 1.49792879,0.0349460705 3.95754402,0.0349460705 C6.43225617,0.0349460705 7.91713598,1.82898438 7.91713598,3.94793451 C7.91713598,6.06688464 6.43225617,7.87667625 3.95754402,7.87667625 C1.49792879,7.87667625 0.0130489835,6.06688464 0.0130489835,3.94793451" mask="url(#logo-product-hunt-b)"/>
      </g>
      <g transform="translate(23.499)">
        <mask id="logo-product-hunt-d" fill="#fff">
          <use xlink:href="#logo-product-hunt-c"/>
        </mask>
        <path fill="#DA552F" d="M5.73091926,7.90341748 L5.73091926,5.25870096 C5.40600745,4.76365351 4.6944834,4.40789149 4.0445285,4.40789149 C2.91619838,4.40789149 2.14284263,5.28955118 2.14284263,6.57344513 C2.14284263,7.87256727 2.91619838,8.75409568 4.0445285,8.75409568 C4.6944834,8.75409568 5.40600745,8.39833365 5.73091926,7.90341748 L5.73091926,7.90341748 Z M5.73091926,10.5021869 L5.73091926,9.35744707 C5.14279606,10.0998213 4.33924648,10.5021869 3.42621147,10.5021869 C1.55471943,10.5021869 0.116443142,9.07913877 0.116443142,6.57344513 C0.116443142,4.14533649 1.52452561,2.66045669 3.42621147,2.66045669 C4.30773988,2.66045669 5.14279606,3.0314469 5.73091926,3.80467137 L5.73091926,-1.312775e-05 L7.71071524,-1.312775e-05 L7.71071524,10.5021869 L5.73091926,10.5021869 Z" mask="url(#logo-product-hunt-d)"/>
      </g>
      <path fill="#DA552F" d="M38.2053889,10.5022 L38.2053889,9.37308222 C37.6953758,9.92983009 36.7986192,10.5022 35.5769508,10.5022 C33.9372948,10.5022 33.163939,9.60491828 33.163939,8.15088869 L33.163939,2.84557109 L35.1274566,2.84557109 L35.1274566,7.37766422 C35.1274566,8.41410008 35.6689763,8.7541088 36.5039012,8.7541088 C37.2620287,8.7541088 37.8653801,8.33664636 38.2053889,7.90343061 L38.2053889,2.84557109 L40.1700879,2.84557109 L40.1700879,10.5022 L38.2053889,10.5022 Z"/>
      <g transform="translate(41.615 2.626)">
        <mask id="logo-product-hunt-f" fill="#fff">
          <use xlink:href="#logo-product-hunt-e"/>
        </mask>
        <path fill="#DA552F" d="M0.0298656312,3.94793451 C0.0298656312,1.65898002 1.69984671,0.0349460705 3.98945758,0.0349460705 C5.5209409,0.0349460705 6.44907282,0.699866608 6.943989,1.38067172 L5.65943866,2.58645556 C5.30420175,2.06068917 4.76268206,1.78238087 4.08266461,1.78238087 C2.89119002,1.78238087 2.05626512,2.64881237 2.05626512,3.94793451 C2.05626512,5.24705665 2.89119002,6.12858506 4.08266461,6.12858506 C4.76268206,6.12858506 5.30420175,5.81942655 5.65943866,5.30875707 L6.943989,6.5151973 C6.44907282,7.19600241 5.5209409,7.87667625 3.98945758,7.87667625 C1.69984671,7.87667625 0.0298656312,6.2526423 0.0298656312,3.94793451" mask="url(#logo-product-hunt-f)"/>
      </g>
      <g transform="translate(48.967 .788)">
        <mask id="logo-product-hunt-h" fill="#fff">
          <use xlink:href="#logo-product-hunt-g"/>
        </mask>
        <path fill="#DA552F" d="M1.28133404,7.65729842 L1.28133404,3.77516019 L0.0445687112,3.77516019 L0.0445687112,2.05791922 L1.28133404,2.05791922 L1.28133404,0.0164228152 L3.2460331,0.0164228152 L3.2460331,2.05791922 L4.76110673,2.05791922 L4.76110673,3.77516019 L3.2460331,3.77516019 L3.2460331,7.13153203 C3.2460331,7.61069491 3.4928348,7.96645693 3.92605055,7.96645693 C4.21958704,7.96645693 4.49907684,7.858153 4.60619928,7.73475215 L5.02431812,9.23472886 C4.7309129,9.49794025 4.20435885,9.71454812 3.38453086,9.71454812 C2.007955,9.71454812 1.28133404,9.00302407 1.28133404,7.65729842" mask="url(#logo-product-hunt-h)"/>
      </g>
      <polygon fill="#DA552F" points="66.31 10.502 66.31 5.97 61.437 5.97 61.437 10.502 59.242 10.502 59.242 0 61.437 0 61.437 4.052 66.31 4.052 66.31 0 68.521 0 68.521 10.502"/>
      <path fill="#DA552F" d="M75.549978 10.5022L75.549978 9.37308222C75.0399649 9.92983009 74.1432083 10.5022 72.9215399 10.5022 71.281884 10.5022 70.5085282 9.60491828 70.5085282 8.15088869L70.5085282 2.84557109 72.4720458 2.84557109 72.4720458 7.37766422C72.4720458 8.41410008 73.0135655 8.7541088 73.8484904 8.7541088 74.6066179 8.7541088 75.2099693 8.33664636 75.549978 7.90343061L75.549978 2.84557109 77.5146771 2.84557109 77.5146771 10.5022 75.549978 10.5022zM84.5094048 10.5022L84.5094048 5.80023378C84.5094048 4.76366664 83.9690667 4.40790461 83.132829 4.40790461 82.3596045 4.40790461 81.7726628 4.84112036 81.4314726 5.27433611L81.4314726 10.5022 79.467955 10.5022 79.467955 2.84557109 81.4314726 2.84557109 81.4314726 3.8046845C81.9112918 3.2480679 82.8394238 2.66046981 84.0459953 2.66046981 85.7007482 2.66046981 86.4892008 3.58807663 86.4892008 5.04197494L86.4892008 10.5022 84.5094048 10.5022z"/>
      <g transform="translate(87.562 .788)">
        <mask id="logo-product-hunt-j" fill="#fff">
          <use xlink:href="#logo-product-hunt-i"/>
        </mask>
        <path fill="#DA552F" d="M1.26833757,7.65729842 L1.26833757,3.77516019 L0.0315722387,3.77516019 L0.0315722387,2.05791922 L1.26833757,2.05791922 L1.26833757,0.0164228152 L3.23303663,0.0164228152 L3.23303663,2.05791922 L4.74811026,2.05791922 L4.74811026,3.77516019 L3.23303663,3.77516019 L3.23303663,7.13153203 C3.23303663,7.61069491 3.47983833,7.96645693 3.91305408,7.96645693 C4.20659057,7.96645693 4.48608037,7.858153 4.5943843,7.73475215 L5.01132164,9.23472886 C4.71778515,9.49794025 4.19136238,9.71454812 3.37153439,9.71454812 C1.99495853,9.71454812 1.26833757,9.00302407 1.26833757,7.65729842" mask="url(#logo-product-hunt-j)"/>
      </g>
    </g>
  </g>
</svg>
