<svg xmlns="http://www.w3.org/2000/svg" width="101" height="70" viewBox="0 0 101 70">
  <g fill="none" fill-rule="evenodd" transform="translate(1 -.07)">
    <path fill="#000" d="M16.2082532,56.585851 C16.0070371,56.585851 15.8429915,56.7498966 15.8429915,56.9511127 L15.8429915,64.0199428 C15.8429915,64.2211589 16.0070371,64.384709 16.2082532,64.384709 L22.9797197,64.384709 C23.1814314,64.384709 23.3449814,64.2211589 23.3449814,64.0199428 L23.3449814,56.9511127 C23.3449814,56.7498966 23.1814314,56.585851 22.9797197,56.585851 L16.2082532,56.585851 Z M22.9797197,65.5632603 L16.2082532,65.5632603 C15.3572975,65.5632603 14.6649357,64.8708986 14.6649357,64.0199428 L14.6649357,56.9511127 C14.6649357,56.100157 15.3572975,55.4077952 16.2082532,55.4077952 L22.9797197,55.4077952 C23.831171,55.4077952 24.5235328,56.100157 24.5235328,56.9511127 L24.5235328,64.0199428 C24.5235328,64.8708986 23.831171,65.5632603 22.9797197,65.5632603 Z"/>
    <path stroke="#000" stroke-width=".5" d="M16.2082532,56.585851 C16.0070371,56.585851 15.8429915,56.7498966 15.8429915,56.9511127 L15.8429915,64.0199428 C15.8429915,64.2211589 16.0070371,64.384709 16.2082532,64.384709 L22.9797197,64.384709 C23.1814314,64.384709 23.3449814,64.2211589 23.3449814,64.0199428 L23.3449814,56.9511127 C23.3449814,56.7498966 23.1814314,56.585851 22.9797197,56.585851 L16.2082532,56.585851 Z M22.9797197,65.5632603 L16.2082532,65.5632603 C15.3572975,65.5632603 14.6649357,64.8708986 14.6649357,64.0199428 L14.6649357,56.9511127 C14.6649357,56.100157 15.3572975,55.4077952 16.2082532,55.4077952 L22.9797197,55.4077952 C23.831171,55.4077952 24.5235328,56.100157 24.5235328,56.9511127 L24.5235328,64.0199428 C24.5235328,64.8708986 23.831171,65.5632603 22.9797197,65.5632603 Z"/>
    <path fill="#000" d="M82.9388427,65.5809535 L75.8229299,65.5809535 L75.8229299,64.4028977 L82.9388427,64.4028977 C83.1400587,64.4028977 83.3041044,64.2388521 83.3041044,64.037636 L83.3041044,61.3846564 C83.3041044,61.1834403 83.1400587,61.0198903 82.5478094,61.0198903 L76.9563811,61.0198903 C76.4964586,61.0198903 75.8040969,60.3275285 75.8040969,59.4760772 L75.8040969,56.9688058 C75.8040969,56.1178501 76.4964586,55.4254883 77.3474143,55.4254883 L84.1719107,55.4254883 L84.1719107,56.6035441 L77.3474143,56.6035441 C77.1461983,56.6035441 76.9821526,56.7675897 76.9821526,56.9688058 L76.9821526,59.4760772 C76.9821526,59.6777889 77.1461983,59.8413389 77.3474143,59.8413389 L82.9388427,59.8413389 C83.7897984,59.8413389 84.4821601,60.5337007 84.4821601,61.3846564 L84.4821601,64.037636 C84.4821601,64.8885917 83.7897984,65.5809535 82.9388427,65.5809535"/>
    <path stroke="#000" stroke-width=".5" d="M82.9388427,65.5809535 L75.8229299,65.5809535 L75.8229299,64.4028977 L82.9388427,64.4028977 C83.1400587,64.4028977 83.3041044,64.2388521 83.3041044,64.037636 L83.3041044,61.3846564 C83.3041044,61.1834403 83.1400587,61.0198903 82.5478094,61.0198903 L76.9563811,61.0198903 C76.4964586,61.0198903 75.8040969,60.3275285 75.8040969,59.4760772 L75.8040969,56.9688058 C75.8040969,56.1178501 76.4964586,55.4254883 77.3474143,55.4254883 L84.1719107,55.4254883 L84.1719107,56.6035441 L77.3474143,56.6035441 C77.1461983,56.6035441 76.9821526,56.7675897 76.9821526,56.9688058 L76.9821526,59.4760772 C76.9821526,59.6777889 77.1461983,59.8413389 77.3474143,59.8413389 L82.9388427,59.8413389 C83.7897984,59.8413389 84.4821601,60.5337007 84.4821601,61.3846564 L84.4821601,64.037636 C84.4821601,64.8885917 83.7897984,65.5809535 82.9388427,65.5809535 Z"/>
    <polygon fill="#000" points="62.403 65.579 54.635 65.579 54.635 55.425 55.813 55.425 55.813 64.401 62.403 64.401"/>
    <polygon stroke="#000" stroke-width=".5" points="62.403 65.579 54.635 65.579 54.635 55.425 55.813 55.425 55.813 64.401 62.403 64.401"/>
    <polygon fill="#000" points="47.078 65.577 39.771 57.204 39.771 65.588 38.593 65.588 38.593 55.424 39.781 55.424 47.273 64.007 47.272 55.425 48.45 55.425 48.451 65.577"/>
    <polygon stroke="#000" stroke-width=".5" points="47.078 65.577 39.771 57.204 39.771 65.588 38.593 65.588 38.593 55.424 39.781 55.424 47.273 64.007 47.272 55.425 48.45 55.425 48.451 65.577"/>
    <polygon fill="#000" points="30.967 65.581 32.15 65.581 32.15 55.425 30.967 55.425"/>
    <polygon stroke="#000" stroke-width=".5" points="30.967 65.581 32.15 65.581 32.15 55.425 30.967 55.425"/>
    <polygon fill="#000" points="68.063 65.58 69.246 65.58 69.246 55.424 68.063 55.424"/>
    <polygon stroke="#000" stroke-width=".5" points="68.063 65.58 69.246 65.58 69.246 55.424 68.063 55.424"/>
    <polygon fill="#000" points="98.974 55.426 94.825 55.426 94.825 55.424 93.642 55.424 93.642 55.426 89.493 55.426 89.493 56.609 93.642 56.609 93.642 65.581 94.825 65.581 94.825 56.609 98.974 56.609"/>
    <polygon stroke="#000" stroke-width=".5" points="98.974 55.426 94.825 55.426 94.825 55.424 93.642 55.424 93.642 55.426 89.493 55.426 89.493 56.609 93.642 56.609 93.642 65.581 94.825 65.581 94.825 56.609 98.974 56.609"/>
    <path fill="#000" d="M8.81048922,65.5632108 L1.66731813,65.5632108 C0.816362411,65.5632108 0.124000653,64.870849 0.124000653,64.0198933 L0.124000653,56.9510631 C0.124000653,56.1001074 0.816362411,55.4077456 1.66731813,55.4077456 L8.81048922,55.4077456 L8.81048922,56.5858014 L1.66731813,56.5858014 C1.46610204,56.5858014 1.30205641,56.749847 1.30205641,56.9510631 L1.30205641,64.0198933 C1.30205641,64.2211094 1.46610204,64.3846594 1.66731813,64.3846594 L8.81048922,64.3846594 L8.81048922,65.5632108 Z"/>
    <path stroke="#000" stroke-width=".5" d="M8.81048922,65.5632108 L1.66731813,65.5632108 C0.816362411,65.5632108 0.124000653,64.870849 0.124000653,64.0198933 L0.124000653,56.9510631 C0.124000653,56.1001074 0.816362411,55.4077456 1.66731813,55.4077456 L8.81048922,55.4077456 L8.81048922,56.5858014 L1.66731813,56.5858014 C1.46610204,56.5858014 1.30205641,56.749847 1.30205641,56.9510631 L1.30205641,64.0198933 C1.30205641,64.2211094 1.46610204,64.3846594 1.66731813,64.3846594 L8.81048922,64.3846594 L8.81048922,65.5632108 Z"/>
    <path fill="#000" d="M65.0336914,39.0683594 L36.8929837,39.0683594 C33.4550077,39.0683594 31.0136688,37.0328925 31.0136688,33.6562003 L31.0136688,6.29341701 C31.0136688,2.91599155 33.4550077,0.168441998 36.8929837,0.168441998 L65.0336914,0.168441998 L65.0336914,4.03369141 L36.4624023,4.03369141 C35.6495591,4.03369141 34.9874913,4.68336552 34.9874913,5.482626 L34.9874913,33.6287021 C34.9874913,34.4272293 35.6495591,35.0776367 36.4624023,35.0776367 L65.0336914,35.0776367 L65.0336914,39.0683594 Z"/>
  </g>
</svg>
