<svg xmlns="http://www.w3.org/2000/svg" width="150" height="40" viewBox="0 0 150 40">
  <g fill="none">
    <path fill="#157EFF" d="M20.4177632,0.0789473684 C26.0708994,0.497204457 30.6524386,4.82935704 31.3861199,10.4502645 C32.1198013,16.0711719 28.8037439,21.4341757 23.4473684,23.2894737 L35.4276316,39.3552632 L0.0394736842,39.3552632 L0.0394736842,0 L18.6315789,0 C19.2828947,0 19.875,0.0296052632 20.4177632,0.0789473684 Z"/>
    <polygon fill="#157EFF" points="23.072 39.355 0 39.355 0 0 35.181 39.355"/>
    <polygon fill="#00BDFF" points="35.428 39.355 0 39.355 17.595 11.872"/>
    <polygon fill="#1560FA" points="0 22.776 0 0 9.888 0 24.661 22.766"/>
    <polygon fill="#00EFE9" points="10.618 22.776 17.595 11.872 24.671 22.776"/>
    <polygon fill="#157EFF" fill-opacity=".5" points="35.428 39.355 22.263 39.355 17.595 11.872"/>
    <path fill="#000" d="M52.6085526 13.4407895L52.6085526 17.8026316 55.1546053 17.8026316C57.1282895 17.8026316 58.0361842 16.8157895 58.0065789 15.5921053 57.9769737 14.3684211 57.0197368 13.4407895 55.1546053 13.4407895L52.6085526 13.4407895zM55.2236842 10.1743421C58.9835526 10.1743421 61.4506579 12.4440789 61.4506579 15.5921053 61.4506579 18.7401316 59.7532895 20.4473684 57.8289474 20.8421053L61.7763158 27.9769737 57.8289474 27.9769737 54.1776316 21.2960526 52.6085526 21.2960526 52.6085526 27.9769737 49.0559211 27.9769737 49.0559211 10.2138158 55.2236842 10.1743421zM66.9572368 20.6052632L72.4243421 20.6052632C72.3035816 19.1853612 71.1158175 18.0943267 69.6907895 18.0943267 68.2657615 18.0943267 67.0779974 19.1853612 66.9572368 20.6052632M75.7598684 21.75C75.7620296 22.1225503 75.7422586 22.4949049 75.7006579 22.8651316L66.9473684 22.8651316C67.1332143 24.4386919 68.52506 25.5869646 70.1052632 25.4703947 71.249594 25.44399 72.350273 25.0260106 73.2236842 24.2861842L75.1973684 26.4276316C73.7492739 27.7027945 71.8654338 28.3707978 69.9375 28.2927632 68.2024437 28.3858313 66.5100675 27.734403 65.2852082 26.5020062 64.0603489 25.2696093 63.4193155 23.5732685 63.5230263 21.8388158 63.5230263 17.9605263 66.0690789 15.3157895 69.7697368 15.3157895 73.4703947 15.3157895 75.7598684 17.9506579 75.7697368 21.7894737M81.8190789 21.8092105C81.7248233 23.0042528 82.3090228 24.1511291 83.3310928 24.7775338 84.3531629 25.4039385 85.6402582 25.4039385 86.6623282 24.7775338 87.6843982 24.1511291 88.2685977 23.0042528 88.1743421 21.8092105 88.2685977 20.6141683 87.6843982 19.467292 86.6623282 18.8408873 85.6402582 18.2144825 84.3531629 18.2144825 83.3310928 18.8408873 82.3090228 19.467292 81.7248233 20.6141683 81.8190789 21.8092105M91.5888158 21.8092105C91.5888158 25.5098684 89.0131579 28.2927632 85.6085526 28.2927632 84.2060985 28.3574189 82.8532311 27.766679 81.9473684 26.6940789L81.9473684 33.0690789 78.6710526 33.0690789 78.6710526 15.6710526 81.9473684 15.6710526 81.9473684 17.0328947C82.8356521 15.9163778 84.202612 15.2897018 85.6282895 15.3453947 89.0427632 15.3453947 91.6184211 18.1282895 91.6184211 21.8289474M105.799342 22.7269737C105.799342 26.6151316 103.046053 28.3026316 99.9671053 28.3026316 96.8881579 28.3026316 94.1151316 26.625 94.1151316 22.7269737L94.1151316 15.6710526 97.4407895 15.6710526 97.4407895 22.4506579C97.4407895 24.4243421 98.5263158 25.2236842 99.9671053 25.2236842 101.407895 25.2236842 102.493421 24.4243421 102.493421 22.4506579L102.493421 15.6710526 105.809211 15.6710526 105.799342 22.7269737zM112.243421 21.8092105C112.149165 23.0042528 112.733365 24.1511291 113.755435 24.7775338 114.777505 25.4039385 116.0646 25.4039385 117.08667 24.7775338 118.10874 24.1511291 118.69294 23.0042528 118.598684 21.8092105 118.69294 20.6141683 118.10874 19.467292 117.08667 18.8408873 116.0646 18.2144825 114.777505 18.2144825 113.755435 18.8408873 112.733365 19.467292 112.149165 20.6141683 112.243421 21.8092105M122.013158 21.8092105C122.013158 25.5098684 119.4375 28.2927632 116.032895 28.2927632 114.603034 28.3523869 113.22974 27.729827 112.332237 26.6151316L112.332237 27.9769737 109.085526 27.9769737 109.085526 9.66118421 112.401316 9.66118421 112.401316 16.9342105C113.289046 15.8580682 114.629129 15.2592301 116.023026 15.3157895 119.4375 15.3157895 122.013158 18.0986842 122.013158 21.7993421"/>
    <polygon fill="#000" points="124.727 27.977 128.053 27.977 128.053 9.661 124.727 9.661"/>
    <path fill="#000" d="M131.546053 27.9769737L134.871711 27.9769737 134.871711 15.6710526 131.546053 15.6710526 131.546053 27.9769737zM135.315789 11.6151316C135.304912 12.7830022 134.352226 13.722483 133.184317 13.717059 132.016409 13.711635 131.07249 12.7633462 131.07246 11.5954248 131.072431 10.4275035 132.016302 9.47916706 133.184211 9.47368421 133.752887 9.468313 134.299695 9.69252613 134.700899 10.0955869 135.102102 10.4986478 135.323787 11.0464856 135.315789 11.6151316zM149.111842 17.6447368L146.713816 19.6184211C146.065814 18.8576079 145.117787 18.4178384 144.118421 18.4144737 143.247557 18.4254406 142.420151 18.7967012 141.832997 19.4399533 141.245842 20.0832053 140.951413 20.940962 141.019737 21.8092105 140.945505 22.6771709 141.23655 23.5367746 141.822814 24.1811035 142.409079 24.8254323 143.237459 25.1961238 144.108553 25.2039474 145.139775 25.1916949 146.116577 24.7392059 146.792763 23.9605263L149.161184 25.9342105C147.973757 27.4415505 146.14525 28.3009485 144.226974 28.2532895 142.47345 28.3431524 140.762864 27.6920535 139.512891 26.4589721 138.262918 25.2258907 137.588607 23.5243212 137.654605 21.7697368 137.59166 20.0160223 138.266943 18.3162662 139.516218 17.083874 140.765492 15.8514818 142.474278 15.1993854 144.226974 15.2861842 146.148633 15.2329643 147.980841 16.0977668 149.161184 17.6151316"/>
  </g>
</svg>
