<svg xmlns="http://www.w3.org/2000/svg" width="79" height="72" viewBox="0 0 79 72">
  <g fill="#231F20" fill-rule="evenodd" transform="translate(-.86 -.547)">
    <path d="M48.4288537,18.763205 C49.7675452,15.1257161 50.8120656,12.123466 51.5615622,9.75560226 C52.3110589,7.38688583 52.6853809,5.93308398 52.6853809,5.39334406 C52.6853809,4.81438133 52.5608911,4.36417172 52.3110589,4.04442058 C52.060374,3.72552212 51.7158955,3.56522021 51.2767706,3.56522021 C50.7174192,3.56522021 50.1478359,4.0299252 49.5680205,4.95933518 C48.9882051,5.88789249 48.3487028,7.38262248 47.6495136,9.44011447 L44.651527,18.1040913 L48.4288537,18.763205 Z M44.4417702,26.8269024 C43.5822791,26.7868269 42.7679796,26.6972966 41.9988715,26.5574588 C41.2297634,26.417621 40.4947622,26.2172436 39.795573,25.958032 C40.1144715,26.5975343 40.3992631,27.2370365 40.649948,27.8765388 C40.8997803,28.5160411 41.104421,29.1453113 41.2647229,29.7643495 C41.7439233,29.1649227 42.2487037,28.6209195 42.7782116,28.1306344 C43.3077195,27.641202 43.8619548,27.2063404 44.4417702,26.8269024 L44.4417702,26.8269024 Z M41.0549661,17.7442647 L37.8173793,8.39133074 C36.9774996,6.01323493 36.328618,4.45967073 35.869029,3.72978546 C35.4085874,3.00075287 34.9097756,2.63581023 34.3700357,2.63581023 C33.9505222,2.63581023 33.610307,2.79611214 33.3502427,3.11501061 C33.0910311,3.43476175 32.9605726,3.86450728 32.9605726,4.4042472 C32.9605726,5.32342514 33.3101672,6.92218084 34.010209,9.20051429 C34.7093982,11.4788477 35.7590346,14.4666024 37.1574129,18.1637782 C37.2776394,17.9437894 37.4473206,17.7886035 37.6673094,17.6990732 C37.8872982,17.6095429 38.1865853,17.5643514 38.5668759,17.5643514 C38.6862497,17.5643514 38.9258499,17.5745835 39.2856765,17.5941949 C39.6455031,17.6138063 40.2346979,17.6641138 41.0549661,17.7442647 L41.0549661,17.7442647 Z M38.1166663,32.2225963 C38.4568816,32.2225963 38.765548,32.0682631 39.0460763,31.7578913 C39.325752,31.4483722 39.4655898,31.113273 39.4655898,30.7542991 C39.4655898,30.3748611 39.1910302,29.4906426 38.6410582,28.100791 C38.0910863,26.711792 37.4072452,25.3483731 36.5878296,24.008829 C35.9884028,23.0095001 35.399208,22.2557401 34.8193926,21.7458436 C34.2395772,21.2359472 33.6904579,20.9818516 33.1703294,20.9818516 C32.7508159,20.9818516 32.2861109,21.2470319 31.7770671,21.7756871 C31.2671706,22.305195 31.0122224,22.7997434 31.0122224,23.2593324 C31.0122224,23.7393854 31.2620546,24.4590386 31.761719,25.4182921 C32.2613835,26.3775455 32.9307292,27.3964858 33.7706089,28.4759656 C34.6497113,29.6552078 35.4785063,30.5743858 36.2586991,31.2334994 C37.0380392,31.8926131 37.6570774,32.2225963 38.1166663,32.2225963 L38.1166663,32.2225963 Z M29.123559,31.5029431 C29.4040873,31.8431583 29.7937574,32.3428227 30.2925691,33.0019364 C31.6116492,34.8206809 32.8309668,35.7296268 33.9505222,35.7296268 C34.3291075,35.7296268 34.6693227,35.610253 34.9694625,35.3706529 C35.2687495,35.1302 35.4188194,34.8803678 35.4188194,34.6211562 C35.4188194,34.3210164 35.2192947,33.8222047 34.8193926,33.1221628 C34.4194905,32.4229737 33.8703712,31.6334015 33.1703294,30.7542991 C32.3713779,29.7345061 31.7062955,28.9901255 31.1776403,28.5203044 C30.6472797,28.0513361 30.2226502,27.8159993 29.9028991,27.8159993 C29.2037099,27.8159993 28.5590916,28.1911739 27.9698969,28.9406706 C27.3798494,29.6893146 27.0856784,30.5743858 27.0856784,31.5933261 C27.0856784,32.4127416 27.2903191,33.3276562 27.6996006,34.3363645 C28.108882,35.3450728 28.7040455,36.3597497 29.4833856,37.37869 C30.6626278,38.9578343 32.125809,40.1711833 33.8754872,41.0204423 C35.6234601,41.870554 37.557315,42.2943309 39.6753466,42.2943309 C43.5728998,42.2943309 46.8352141,40.840529 49.4631421,37.9329253 C52.0902175,35.0253216 53.4050341,31.3835693 53.4050341,27.0068157 C53.4050341,25.6681243 53.3044191,24.6039925 53.1048944,23.8144204 C52.9053697,23.0248482 52.5753865,22.4501488 52.1157976,22.0903222 C51.296382,21.4115971 49.7027423,20.8019383 47.3348785,20.2621984 C44.9661621,19.7224584 42.4934199,19.4530148 39.9157994,19.4530148 C39.1961462,19.4530148 38.6862497,19.5723886 38.3869626,19.8119888 C38.0868229,20.0524416 37.936753,20.4617231 37.936753,21.0415385 C37.936753,22.400694 38.6964817,23.3846748 40.2150865,23.9943337 C41.7336912,24.6039925 44.191938,24.9083956 47.5898268,24.9083956 L48.8185238,24.9083956 C49.0981995,24.9083956 49.3233043,25.013274 49.4929855,25.2230307 C49.6626668,25.4327874 49.7777772,25.7474226 49.8374641,26.1677887 C49.4972489,26.4875399 48.7989124,26.8524825 47.739044,27.261764 C46.6800282,27.6710454 45.869992,28.0760635 45.3114933,28.4759656 C44.1126397,29.3550681 43.1482703,30.3995885 42.418385,31.6078214 C41.6884997,32.8177598 41.3244098,33.9611898 41.3244098,35.0406697 C41.3244098,35.6997834 41.478743,36.4944715 41.7891148,37.4238815 C42.0986339,38.3532915 42.2538198,38.9271382 42.2538198,39.147127 L42.2538198,39.3568837 L42.1941329,39.62718 C41.3141777,39.5666405 40.6201046,39.0524806 40.1102081,38.0829952 C39.6003116,37.1143624 39.3462161,35.8200098 39.3462161,34.20079 L39.3462161,33.9313464 C39.1859142,34.0711842 39.0315809,34.1709466 38.8815111,34.2314861 C38.7314412,34.291173 38.5668759,34.3210164 38.3869626,34.3210164 C38.2070493,34.3210164 38.0365154,34.3065211 37.8770662,34.275825 C37.7167643,34.2459815 37.5368509,34.20079 37.3373262,34.1411031 C37.3970131,34.3610919 37.4422046,34.5759647 37.472048,34.7857214 C37.5027442,34.9954782 37.5172395,35.1600434 37.5172395,35.2802699 C37.5172395,36.0195345 37.2273318,36.6547734 36.6483691,37.1842813 C36.067701,37.7137892 35.3787439,37.9781168 34.5797924,37.9781168 C33.3203993,37.9781168 32.0413947,37.363342 30.7427787,36.1346449 C29.4433101,34.9059479 28.7944285,33.7019782 28.7944285,32.522736 C28.7944285,32.3027473 28.8191559,32.1074859 28.8694634,31.9378046 C28.9189182,31.7681234 29.0041852,31.6231695 29.123559,31.5029431 L29.123559,31.5029431 Z M50.5869608,19.2731015 C52.3860938,19.6133167 53.6548664,20.3721928 54.394131,21.551435 C55.1333956,22.7306772 55.5034543,24.5894971 55.5034543,27.1270422 C55.5034543,32.1629094 53.9891129,36.2847148 50.9621354,39.4924582 C47.9343053,42.699349 44.0623322,44.3032207 39.3462161,44.3032207 C37.4873961,44.3032207 35.6839997,43.9681215 33.9351741,43.2987758 C32.1863486,42.62943 30.6830919,41.6949041 29.4236987,40.4960504 C27.9843922,39.1769704 26.9057651,37.7837081 26.1861118,36.3145582 C25.4664586,34.8454083 25.106632,33.3421516 25.106632,31.8030828 C25.106632,30.0841007 25.4766906,28.7556413 26.2159553,27.8159993 C26.9552199,26.8772099 28.1242301,26.2377076 29.7238384,25.8974924 C29.4236987,25.1983033 29.2037099,24.6082558 29.0638721,24.1290555 C28.9240343,23.6490024 28.8541153,23.2797964 28.8541153,23.0197322 C28.8541153,22.1210183 29.3290524,21.2018404 30.2780738,20.2621984 C31.2270951,19.3225563 32.1215457,18.8527353 32.9605726,18.8527353 C33.3203993,18.8527353 33.6998373,18.9183909 34.0997394,19.0479967 C34.4996415,19.1784552 34.9592304,19.3924753 35.4785063,19.692615 C33.9394375,15.3354728 32.8207348,11.9733962 32.1215457,9.6055324 C31.4215038,7.23681596 31.0727619,5.6031008 31.0727619,4.70438694 C31.0727619,3.46545786 31.3916604,2.48147702 32.0320153,1.75159175 C32.6715176,1.02170648 33.540388,0.657616519 34.6394793,0.657616519 C36.5179106,0.657616519 38.8960065,4.8544568 41.7737667,13.2472847 C42.2734312,14.6865912 42.6537218,15.7959145 42.9129334,16.5752546 C43.1329222,15.9562164 43.4424413,15.0762612 43.8423434,13.9370945 C46.7201037,5.62356488 49.1979618,1.46680007 51.2767706,1.46680007 C52.2957109,1.46680007 53.1100104,1.81127863 53.7196693,2.50108842 C54.3293281,3.19004554 54.6337312,4.11519217 54.6337312,5.2739703 C54.6337312,6.15307276 54.2994847,7.7620605 53.6301389,10.1000808 C52.9599406,12.4381012 51.9461163,15.4957747 50.5869608,19.2731015 L50.5869608,19.2731015 Z"/>
    <g transform="translate(.805 55.127)">
      <path d="M4.87193162.250035399L.0102711271 13.1064265 2.85524283 13.1064265 3.86358722 10.2434486 8.67122927 10.2434486 9.64356137 13.1064265 12.5785638 13.1064265 7.77092177.250035399 4.87193162.250035399zM6.27641132 3.41936788L6.31242362 3.41936788 7.93297712 8.13672909 4.60183937 8.13672909 6.27641132 3.41936788zM15.8358263 3.79732197L15.8358263 5.09376477 15.8898448 5.09376477C16.2139555 4.55358027 16.634099 4.16069608 17.1502753 3.91436195 17.6662015 3.66852798 18.194632 3.54523587 18.7348165 3.54523587 19.4190502 3.54523587 19.9799918 3.63826765 20.4183915 3.8243312 20.8565412 4.01064483 21.201659 4.2684829 21.4537451 4.59859565 21.7058312 4.92895848 21.8828917 5.33084575 21.9849266 5.8050077 22.0867113 6.27941973 22.1379788 6.80434902 22.1379788 7.38054582L22.1379788 13.1065015 19.5811055 13.1065015 19.5811055 7.84870572C19.5811055 7.08069341 19.4610645 6.50724755 19.2209825 6.1291184 18.9806504 5.75098925 18.554755 5.56192467 17.9425459 5.56192467 17.2463081 5.56192467 16.7421359 5.7689954 16.4300293 6.18313685 16.1179227 6.5972783 15.9618694 7.27876106 15.9618694 8.22683487L15.9618694 13.1065015 13.4049961 13.1065015 13.4049961 3.79732197 15.8358263 3.79732197zM29.1367693 10.6937024C29.4128636 10.5496532 29.6409415 10.3578377 29.821003 10.1175056 30.0010645 9.87742363 30.1361106 9.60433035 30.2261413 9.2982258 30.3161721 8.99212125 30.3611875 8.67101158 30.3611875 8.33489678 30.3611875 7.95076558 30.3251752 7.58764155 30.2531506 7.2455247 30.181126 6.90340785 30.0608349 6.60030433 29.8930276 6.33621413 29.7247201 6.07237401 29.5026442 5.86205218 29.2268 5.70599888 28.9504556 5.55019567 28.6023367 5.47191893 28.1824433 5.47191893 27.8223203 5.47191893 27.5129647 5.54394353 27.2551266 5.68799273 26.9967884 5.83204193 26.7807146 6.02735864 26.6069052 6.2731926 26.4325957 6.51927665 26.3068027 6.80162309 26.228776 7.11948165 26.1504993 7.4375903 26.1117361 7.77070408 26.1117361 8.11882298 26.1117361 8.45493778 26.1447473 8.78805155 26.2107699 9.1181643 26.2765424 9.44852714 26.3908314 9.74562861 26.5528867 10.0094687 26.7149421 10.2735589 26.9277648 10.4896327 27.1921051 10.6576901 27.4559452 10.8259976 27.786308 10.9097762 28.1824433 10.9097762 28.5425663 10.9097762 28.8604249 10.8377516 29.1367693 10.6937024M32.6389654 13.7907602C32.5369306 14.2709242 32.3176057 14.7180769 31.981741 15.1322184 31.6453761 15.5461098 31.15921 15.8974798 30.5232428 16.1855782 29.8867754 16.4736766 29.0344843 16.6179759 27.9663695 16.6179759 27.5099636 16.6179759 27.0448048 16.5607063 26.5708929 16.4466673 26.0964809 16.3326284 25.6643333 16.1553178 25.2744501 15.9154859 24.8843168 15.6751538 24.5602061 15.3665484 24.302118 14.9881692 24.0437798 14.61004 23.8969796 14.1568853 23.8609673 13.6284548L26.3998345 13.6284548C26.5196254 14.1086188 26.7537053 14.4417326 27.1020743 14.6280462 27.4499431 14.8141097 27.8520805 14.9073916 28.3084864 14.9073916 29.0287324 14.9073916 29.5536616 14.6908176 29.8840245 14.2589201 30.2141372 13.8267725 30.3729415 13.2803359 30.3611875 12.6203605L30.3611875 11.3959423 30.3251752 11.3959423C30.0488308 11.8883605 29.6559466 12.2512344 29.1457723 12.4853143 28.635348 12.7196444 28.0984146 12.8361842 27.5342219 12.8361842 26.8379841 12.8361842 26.2377791 12.7133922 25.7336069 12.4673082 25.2294347 12.2212241 24.8152933 11.8851094 24.4911826 11.4589638 24.1670719 11.0330683 23.9299909 10.5346481 23.7799396 9.96445335 23.6296383 9.39450869 23.5548628 8.79130266 23.5548628 8.15483528 23.5548628 7.55463028 23.6416424 6.97543245 23.8159519 6.4172418 23.9897613 5.85905115 24.2448484 5.36688305 24.5812133 4.94073751 24.917078 4.51484204 25.3342205 4.17547613 25.8326407 3.92339003 26.3305608 3.67130393 26.9040067 3.54526088 27.5522281 3.54526088 28.1644372 3.54526088 28.7013706 3.65954992 29.1637785 3.88737773 29.6256862 4.11545563 30.0128185 4.49958683 30.3251752 5.03977133L30.3611875 5.03977133 30.3611875 3.79734698 32.7920177 3.79734698 32.7920177 12.5125737C32.7920177 12.8847008 32.7407502 13.3105962 32.6389654 13.7907602M40.2517656 5.97604111C39.9454109 5.6401764 39.4802521 5.47186891 38.856289 5.47186891 38.4478995 5.47186891 38.1090337 5.54114257 37.8389415 5.67893964 37.5685991 5.81723687 37.3527754 5.98804521 37.1907201 6.19211491 37.0284146 6.3964347 36.9143757 6.6125085 36.8486032 6.84033631 36.7823306 7.0686643 36.7433173 7.27248391 36.7315633 7.45254541L40.8909839 7.45254541C40.7709429 6.80432401 40.5578701 6.312406 40.2517656 5.97604111M37.3615284 10.8737139C37.7456596 11.2460911 38.2980983 11.4319046 39.0183443 11.4319046 39.5342705 11.4319046 39.9784222 11.3031106 40.3507994 11.0447723 40.7226764 10.7869343 40.9507543 10.5135909 41.0350331 10.2254925L43.2858019 10.2254925C42.9254288 11.3418738 42.3732402 12.1401465 41.6292361 12.6203105 40.8847318 13.1004745 39.9846744 13.3405565 38.9283136 13.3405565 38.1958134 13.3405565 37.5355879 13.2235165 36.9476371 12.9896866 36.3594362 12.7553566 35.8610159 12.4222428 35.4531266 11.9903453 35.0447371 11.5579476 34.7296295 11.0420214 34.5078037 10.4415663 34.2854778 9.84136131 34.17469 9.18113581 34.17469 8.46088981 34.17469 7.7649021 34.2884788 7.1166807 34.5168068 6.51622561 34.7446346 5.9162707 35.0687453 5.39709337 35.4891389 4.95869364 35.9090323 4.52079407 36.4102035 4.17542611 36.9926524 3.92334001 37.5746012 3.67125391 38.2198216 3.54521086 38.9283136 3.54521086 39.7205842 3.54521086 40.4105698 3.69826314 40.9990208 4.00436769 41.5869716 4.31047224 42.0701366 4.72186275 42.4482658 5.23778896 42.826645 5.75421535 43.0994882 6.34241625 43.2680458 7.00239166 43.435603 7.66286725 43.4956235 8.35285291 43.4476071 9.07309891L36.7315633 9.07309891C36.7675756 9.90138181 36.9773972 10.5018369 37.3615284 10.8737139"/>
      <polygon points="44.809 13.106 47.365 13.106 47.365 .25 44.809 .25"/>
      <polygon points="52.231 .25 52.231 10.73 58.497 10.73 58.497 13.106 49.404 13.106 49.404 .25"/>
      <path d="M59.5551586 13.1064015L62.112282 13.1064015 62.112282 3.79722194 59.5551586 3.79722194 59.5551586 13.1064015zM59.5551586 2.35672994L62.112282 2.35672994 62.112282.250010391 59.5551586.250010391 59.5551586 2.35672994zM66.1004442 10.7927363C66.214233 10.9908039 66.3617834 11.1528593 66.5415948 11.2789023 66.7216563 11.4049454 66.9289772 11.4979771 67.162807 11.5579976 67.396887 11.6182682 67.63997 11.6480284 67.8920561 11.6480284 68.0723677 11.6480284 68.2614323 11.6272713 68.4592498 11.5850069 68.6575676 11.5429925 68.8371289 11.47697 68.9994343 11.3869392 69.1614897 11.2969085 69.2967859 11.1771175 69.4048228 11.0268162 69.5128597 10.877015 69.566378 10.6879505 69.566378 10.4596225 69.566378 10.0754913 69.3115409 9.78739288 68.8016168 9.59532728 68.2911924 9.40351176 67.5799495 9.21119608 66.6673878 9.01913048 66.2952607 8.93535186 65.9323868 8.83631804 65.5782658 8.722029 65.2241449 8.60799005 64.9090373 8.45818889 64.633193 8.27187525 64.3565986 8.0858117 64.1350229 7.85173175 63.9669655 7.5696354 63.7984079 7.28778914 63.7148794 6.94242118 63.7148794 6.53428178 63.7148794 5.93407678 63.8316693 5.44190868 64.0659993 5.05777748 64.3000793 4.67364628 64.6086847 4.37079284 64.993066 4.14846691 65.3769471 3.92639106 65.8093448 3.77033776 66.2895088 3.68030701 66.7696727 3.59027626 67.2620909 3.54526088 67.766013 3.54526088 68.2701852 3.54526088 68.7591022 3.59327728 69.2332642 3.68931008 69.7076762 3.78534288 70.1305707 3.94764832 70.5026978 4.17547613 70.8750749 4.40355403 71.1841805 4.70665756 71.4302646 5.08478671 71.6760985 5.46291585 71.8236489 5.94007883 71.8714152 6.51627563L69.4403349 6.51627563C69.4048228 6.02410753 69.2182591 5.69099375 68.8826444 5.5169343 68.5460295 5.34287485 68.1498942 5.25584513 67.6942385 5.25584513 67.5501893 5.25584513 67.3938859 5.2648482 67.2258285 5.28285435 67.0577711 5.3008605 66.9044688 5.33987383 66.7666717 5.39989433 66.6283745 5.46016492 66.5118347 5.54694455 66.4155518 5.6609835 66.3192689 5.77527254 66.2715026 5.92832481 66.2715026 6.12014033 66.2715026 6.34846831 66.3555313 6.53428178 66.5233386 6.67833098 66.691396 6.82238018 66.9107209 6.93942015 67.1808132 7.0294509 67.4509054 7.11948165 67.7597609 7.20050933 68.1078798 7.27253393 68.4562488 7.34455853 68.8103697 7.42283526 69.1702427 7.50661388 69.5426198 7.59064258 69.905994 7.69267743 70.2601149 7.81271843 70.6137357 7.93275943 70.9288433 8.09181375 71.2051877 8.2898814 71.481282 8.48794905 71.7033578 8.73428319 71.8714152 9.02813355 72.0394726 9.32248409 72.1235013 9.68535803 72.1235013 10.1175056 72.1235013 10.7297147 72.0004593 11.24289 71.7541252 11.6570315 71.5080411 12.0711729 71.1871815 12.4042867 70.7910462 12.6566229 70.3949109 12.9084589 69.9415061 13.0857694 69.4315819 13.1875542 68.9211576 13.289589 68.4019803 13.3406065 67.8740499 13.3406065 67.3338654 13.3406065 66.805685 13.286588 66.2895088 13.1788012 65.7730824 13.0705142 65.3139255 12.8904527 64.9120383 12.6383666 64.5096508 12.3865306 64.1797882 12.0534168 63.9219501 11.6390253 63.6636119 11.2248839 63.5223136 10.7057065 63.4985555 10.0814933L65.9293858 10.0814933C65.9293858 10.3578377 65.9861551 10.5946686 66.1004442 10.7927363M78.6037397 3.79732197L78.6037397 5.50790622 76.7311001 5.50790622 76.7311001 10.1174806C76.7311001 10.5496282 76.8033748 10.8377266 76.947424 10.9817758 77.0914732 11.125825 77.3795716 11.1978496 77.8114691 11.1978496 77.9555183 11.1978496 78.0933153 11.1918476 78.2256105 11.1798435 78.3576556 11.1680895 78.4836987 11.1500833 78.6037397 11.125825L78.6037397 13.1065015C78.387916 13.1425138 78.1475839 13.166522 77.8837438 13.1787762 77.6194035 13.1905302 77.3615654 13.1965323 77.1094793 13.1965323 76.713344 13.1965323 76.3377157 13.169523 75.9840949 13.1157547 75.6294738 13.0614861 75.3178674 12.9564503 75.0477751 12.800397 74.7776829 12.6445938 74.56436 12.4222678 74.4085568 12.1341694 74.2522534 11.846071 74.1744769 11.4679419 74.1744769 10.999782L74.1744769 5.50790622 72.6256979 5.50790622 72.6256979 3.79732197 74.1744769 3.79732197 74.1744769 1.00636872 76.7311001 1.00636872 76.7311001 3.79732197 78.6037397 3.79732197z"/>
    </g>
  </g>
</svg>
