<svg xmlns="http://www.w3.org/2000/svg" width="666" height="154" viewBox="0 0 666 154">
  <g fill="none" fill-rule="evenodd" transform="translate(-.281 -.337)">
    <g fill="#FFF" transform="translate(.616 .827)">
      <path d="M74.3393611,110.897322 L54.5328709,110.897322 L54.5328709,68.7045045 L40.0524957,68.7045045 L40.0524957,51.9771745 L88.8197363,51.9771745 L88.8197363,68.7045045 L74.3393611,68.7045045 L74.3393611,110.897322 Z M129.845866,88.5109947 L113.70108,88.5109947 L113.70108,110.897322 L93.8945894,110.897322 L93.8945894,51.9771745 L113.617859,51.9771745 L113.617859,71.9501058 L129.762645,71.9501058 L129.762645,51.9771745 L149.652356,51.9771745 L149.652356,110.897322 L129.845866,110.897322 L129.845866,88.5109947 Z M157.261092,51.9771745 L197.789498,51.9771745 L197.789498,68.4548428 L175.902494,68.4548428 L175.902494,73.5312962 L196.457969,73.5312962 L196.457969,88.9270974 L175.902494,88.9270974 L175.902494,94.4196535 L199.204247,94.4196535 L199.204247,110.897322 L157.261092,110.897322 L157.261092,51.9771745 Z M226.247724,110.897322 L226.247724,51.9771745 L248.217949,51.9771745 C252.878323,51.9771745 257.330578,52.4348829 261.574847,53.3503135 C265.819116,54.2657441 269.564003,55.8469187 272.809621,58.0938847 C276.055238,60.3408507 278.648919,63.3228905 280.590742,67.0400935 C282.532564,70.7572965 283.503461,75.4453405 283.503461,81.104366 C283.503461,86.2640657 282.574174,90.7301904 280.715573,94.502874 C278.856971,98.2755577 276.37425,101.368557 273.267334,103.781965 C270.160418,106.195373 266.58197,107.984597 262.531883,109.14969 C258.481796,110.314784 254.265331,110.897322 249.88236,110.897322 L226.247724,110.897322 Z M245.30523,68.787725 L245.30523,93.9203302 L248.966934,93.9203302 C253.627308,93.9203302 257.205756,92.9078237 259.702384,90.8827803 C262.199013,88.8577368 263.447309,85.5428182 263.447309,80.9379249 C263.447309,77.1097606 262.199013,74.1277208 259.702384,71.9917161 C257.205756,69.8557113 253.876967,68.787725 249.715919,68.787725 L245.30523,68.787725 Z M290.589096,51.9771745 L315.971363,51.9771745 C318.856356,51.9771745 321.727436,52.2684435 324.584689,52.8509902 C327.441943,53.433537 329.994014,54.4599135 332.24098,55.9301505 C334.487946,57.4003875 336.30491,59.3699208 337.691926,61.8388093 C339.078942,64.3076979 339.772439,67.4006973 339.772439,71.1179003 C339.772439,74.7241421 338.884762,77.9003612 337.109382,80.646653 C335.334001,83.3929447 332.78193,85.5150475 329.453091,87.0130248 L344.43279,110.897322 L321.63036,110.897322 L310.312366,89.8425234 L309.729822,89.8425234 L309.729822,110.897322 L290.589096,110.897322 L290.589096,51.9771745 Z M309.563381,76.8601181 L313.474746,76.8601181 C314.140514,76.8601181 314.875622,76.8046383 315.680091,76.693677 C316.48456,76.5827157 317.233538,76.3469265 317.927046,75.9863023 C318.620554,75.6256782 319.203092,75.1263599 319.674677,74.4883325 C320.146263,73.8503051 320.382052,73.004238 320.382052,71.9501058 C320.382052,70.8959736 320.187873,70.0637764 319.799508,69.4534894 C319.411144,68.8432023 318.911825,68.3854939 318.301538,68.0803504 C317.691251,67.7752068 317.025493,67.5810275 316.304245,67.4978065 C315.582997,67.4145856 314.917239,67.3729757 314.306952,67.3729757 L309.563381,67.3729757 L309.563381,76.8601181 Z M368.73319,51.9771745 L389.787988,51.9771745 L412.756859,110.897322 L391.202737,110.897322 L388.123577,102.242385 L369.398954,102.242385 L366.486235,110.897322 L345.514657,110.897322 L368.73319,51.9771745 Z M378.969317,72.5326496 L374.142525,87.0962454 L383.712888,87.0962454 L378.969317,72.5326496 Z M435.640909,91.9230371 L435.640909,110.897322 L415.91764,110.897322 L415.91764,51.9771745 L441.216686,51.9771745 C444.212641,51.9771745 447.15307,52.2961834 450.038064,52.9342108 C452.923057,53.5722382 455.502868,54.6540945 457.777575,56.1798121 C460.052281,57.7055298 461.883115,59.7305429 463.270131,62.2549121 C464.657147,64.7792813 465.350644,67.9555004 465.350644,71.7836647 C465.350644,75.4453871 464.671017,78.5522564 463.311741,81.104366 C461.952465,83.6564755 460.149372,85.7369684 457.902406,87.345907 C455.65544,88.9548456 453.075628,90.1199216 450.162895,90.84117 C447.250161,91.5624183 444.268121,91.9230371 441.216686,91.9230371 L435.640909,91.9230371 Z M435.640909,67.3729757 L435.640909,76.8601181 L439.801937,76.8601181 C441.299914,76.8601181 442.673039,76.4856294 443.921354,75.7366407 C445.169668,74.987652 445.793816,73.7254863 445.793816,71.9501058 C445.793816,71.0069349 445.627377,70.2440875 445.294493,69.6615408 C444.961609,69.078994 444.5039,68.6212856 443.921354,68.2884017 C443.338807,67.9555179 442.686919,67.7197287 441.965671,67.5810271 C441.244422,67.4423255 440.523185,67.3729757 439.801937,67.3729757 L435.640909,67.3729757 Z M471.840247,51.9771745 L512.368653,51.9771745 L512.368653,68.4548428 L490.481649,68.4548428 L490.481649,73.5312962 L511.037125,73.5312962 L511.037125,88.9270974 L490.481649,88.9270974 L490.481649,94.4196535 L513.783403,94.4196535 L513.783403,110.897322 L471.840247,110.897322 L471.840247,51.9771745 Z M521.02199,51.9771745 L546.404257,51.9771745 C549.28925,51.9771745 552.16033,52.2684435 555.017583,52.8509902 C557.874836,53.433537 560.426908,54.4599135 562.673874,55.9301505 C564.92084,57.4003875 566.737803,59.3699208 568.124819,61.8388093 C569.511836,64.3076979 570.205333,67.4006973 570.205333,71.1179003 C570.205333,74.7241421 569.317656,77.9003612 567.542276,80.646653 C565.766895,83.3929447 563.214824,85.5150475 559.885985,87.0130248 L574.865684,110.897322 L552.063254,110.897322 L540.745259,89.8425234 L540.162716,89.8425234 L540.162716,110.897322 L521.02199,110.897322 L521.02199,51.9771745 Z M539.996275,76.8601181 L543.90764,76.8601181 C544.573408,76.8601181 545.308515,76.8046383 546.112985,76.693677 C546.917454,76.5827157 547.666432,76.3469265 548.35994,75.9863023 C549.053448,75.6256782 549.635986,75.1263599 550.107571,74.4883325 C550.579156,73.8503051 550.814946,73.004238 550.814946,71.9501058 C550.814946,70.8959736 550.620766,70.0637764 550.232402,69.4534894 C549.844037,68.8432023 549.344719,68.3854939 548.734432,68.0803504 C548.124145,67.7752068 547.458387,67.5810275 546.737139,67.4978065 C546.015891,67.4145856 545.350133,67.3729757 544.739846,67.3729757 L539.996275,67.3729757 L539.996275,76.8601181 Z M598.74838,112.561733 C596.362713,112.561733 594.018691,112.353683 591.716244,111.937579 C589.413798,111.521474 587.194605,110.911196 585.0586,110.106727 C582.922596,109.302257 580.911453,108.359101 579.025111,107.277228 C577.138769,106.195355 575.446635,104.98867 573.948657,103.657134 L586.015637,90.5082878 C587.402653,92.0062651 589.247357,93.3377806 591.549803,94.502874 C593.85225,95.6679675 596.224012,96.2505055 598.66516,96.2505055 C599.774773,96.2505055 600.787279,96.0563262 601.70271,95.6679617 C602.61814,95.2795972 603.075849,94.5583597 603.075849,93.5042275 C603.075849,92.9494211 602.923279,92.4778427 602.618136,92.0894782 C602.312992,91.7011137 601.772064,91.2988851 600.995335,90.8827803 C600.218606,90.4666754 599.15062,90.008967 597.791344,89.5096412 C596.432068,89.0103154 594.726064,88.4277774 592.673281,87.7620097 C590.675977,87.096242 588.761924,86.3056547 586.931063,85.3902241 C585.100202,84.4747936 583.477417,83.3513274 582.062661,82.019792 C580.647904,80.6882566 579.524438,79.093212 578.692229,77.2346105 C577.860019,75.376009 577.44392,73.1429467 577.44392,70.5353565 C577.44392,66.8736341 578.192898,63.7667648 579.690875,61.2146552 C581.188853,58.6625457 583.116776,56.5681829 585.474703,54.9315039 C587.832631,53.294825 590.481791,52.115879 593.422265,51.3946307 C596.362739,50.6733823 599.27543,50.3127636 602.160423,50.3127636 C606.044068,50.3127636 609.997004,51.061741 614.019351,52.5597183 C618.041697,54.0576957 621.578535,56.2214083 624.629971,59.050921 L612.31333,71.6172236 C610.981794,69.9528043 609.34514,68.6906387 607.403317,67.8306887 C605.461495,66.9707388 603.713881,66.5407702 602.160423,66.5407702 C600.717926,66.5407702 599.55285,66.7488195 598.66516,67.1649243 C597.77747,67.5810292 597.333631,68.2606568 597.333631,69.2038277 C597.333631,70.091518 597.79134,70.7572757 598.70677,71.2011209 C599.622201,71.644966 601.106286,72.1997641 603.159069,72.8655318 C605.267334,73.5312995 607.486526,74.3080169 609.816713,75.1957071 C612.1469,76.0833974 614.296743,77.2346035 616.266306,78.6493598 C618.235868,80.0641162 619.858653,81.7978603 621.134708,83.850644 C622.410762,85.9034278 623.04878,88.455499 623.04878,91.5069344 C623.04878,95.0576954 622.341413,98.1506948 620.926656,100.786025 C619.5119,103.421356 617.653326,105.612808 615.35088,107.360449 C613.048433,109.108089 610.454752,110.411864 607.569758,111.271814 C604.684765,112.131764 601.744335,112.561733 598.74838,112.561733 Z"/>
      <path fill-rule="nonzero" d="M410.318107,14.8740087 L665.53287,14.8740087 L665.53287,147.462832 L343.496176,147.462832 L343.496176,142.707372 L660.77741,142.707372 L660.77741,19.6294685 L410.318107,19.6294685 L410.318107,14.8740087 Z M255.765662,14.8740087 L255.765662,19.6294685 L5.30635919,19.6294685 L5.30635919,142.707372 L199.083648,142.707372 L199.083648,147.462832 L0.550899359,147.462832 L0.550899359,14.8740087 L255.765662,14.8740087 Z"/>
      <path d="M280.791718,14.9915046 L281.314818,34.013344 L270.757697,34.013344 L270.757697,0.344688354 L285.547177,0.344688354 L291.634166,18.4629903 L291.871939,18.4629903 L297.150499,0.344688354 L312.415525,0.344688354 L312.415525,34.013344 L301.430413,34.013344 L301.763295,15.0866138 L301.477968,15.0390592 L295.200761,34.013344 L287.211588,34.013344 L281.029491,14.9915046 L280.791718,14.9915046 Z M318.336073,0.344688354 L341.495162,0.344688354 L341.495162,9.76049882 L328.988303,9.76049882 L328.988303,12.6613293 L340.734289,12.6613293 L340.734289,21.45893 L328.988303,21.45893 L328.988303,24.5975335 L342.303591,24.5975335 L342.303591,34.013344 L318.336073,34.013344 L318.336073,0.344688354 Z M347.832893,0.344688354 L370.991983,0.344688354 L370.991983,9.76049882 L358.485123,9.76049882 L358.485123,12.6613293 L370.231109,12.6613293 L370.231109,21.45893 L358.485123,21.45893 L358.485123,24.5975335 L371.800411,24.5975335 L371.800411,34.013344 L347.832893,34.013344 L347.832893,0.344688354 Z M394.116487,34.013344 L382.798493,34.013344 L382.798493,9.90316261 L374.523992,9.90316261 L374.523992,0.344688354 L402.390987,0.344688354 L402.390987,9.90316261 L394.116487,9.90316261 L394.116487,34.013344 Z"/>
    </g>
    <path fill="#81F37C" d="M217.041035,153.528423 C216.341659,153.528423 215.654491,153.467432 214.979512,153.345448 C214.304533,153.223463 213.65396,153.044556 213.027774,152.80872 C212.401589,152.572884 211.812007,152.29639 211.259012,151.979231 C210.706017,151.662072 210.209955,151.308323 209.770812,150.917974 L213.308337,147.063292 C213.714951,147.502435 214.255739,147.892779 214.930719,148.234335 C215.605698,148.575891 216.300997,148.746666 217.016638,148.746666 C217.341929,148.746666 217.638753,148.689741 217.907118,148.575889 C218.175484,148.462037 218.309664,148.250601 218.309664,147.941574 C218.309664,147.778929 218.264937,147.640682 218.175482,147.52683 C218.086027,147.412978 217.92745,147.295062 217.699746,147.173077 C217.472042,147.051093 217.158954,146.916913 216.760473,146.770532 C216.361991,146.62415 215.861863,146.453375 215.260074,146.2582 C214.67455,146.063026 214.113431,145.831259 213.576701,145.562894 C213.03997,145.294529 212.564239,144.965176 212.149492,144.574827 C211.734746,144.184477 211.405394,143.716878 211.161425,143.172015 C210.917457,142.627152 210.795474,141.972514 210.795474,141.208079 C210.795474,140.134618 211.015043,139.223816 211.454186,138.475647 C211.893329,137.727477 212.458514,137.113499 213.149758,136.633694 C213.841002,136.15389 214.617623,135.808273 215.479645,135.596834 C216.341666,135.385394 217.195543,135.279676 218.0413,135.279676 C219.17982,135.279676 220.338652,135.499245 221.517833,135.938388 C222.697014,136.377531 223.733864,137.011839 224.628415,137.841332 L221.0177,141.525237 C220.627351,141.0373 220.147553,140.667287 219.578294,140.415186 C219.009034,140.163085 218.496708,140.037037 218.0413,140.037037 C217.618422,140.037037 217.276871,140.098028 217.016638,140.220012 C216.756405,140.341996 216.626291,140.541234 216.626291,140.817732 C216.626291,141.077965 216.760471,141.273137 217.028836,141.403253 C217.297202,141.53337 217.732272,141.696013 218.334061,141.891187 C218.952114,142.086362 219.602687,142.314063 220.285799,142.574296 C220.96891,142.834529 221.599153,143.172013 222.176544,143.58676 C222.753936,144.001506 223.229668,144.509766 223.603753,145.111555 C223.977838,145.713343 224.164877,146.461502 224.164877,147.356053 C224.164877,148.396985 223.957507,149.30372 223.542761,150.076287 C223.128014,150.848854 222.58316,151.491294 221.908181,152.003628 C221.233201,152.515962 220.472844,152.898173 219.627087,153.150274 C218.78133,153.402375 217.919321,153.528423 217.041035,153.528423 Z M226.094929,135.767611 L237.976132,135.767611 L237.976132,140.598161 L231.559794,140.598161 L231.559794,142.086361 L237.585784,142.086361 L237.585784,146.599755 L231.559794,146.599755 L231.559794,148.209938 L238.390876,148.209938 L238.390876,153.040489 L226.094929,153.040489 L226.094929,135.767611 Z M245.273462,135.767611 L251.445832,135.767611 L258.179327,153.040489 L251.860576,153.040489 L250.957898,150.50323 L245.468636,150.50323 L244.61475,153.040489 L238.466777,153.040489 L245.273462,135.767611 Z M248.274258,141.793601 L246.859249,146.063027 L249.664871,146.063027 L248.274258,141.793601 Z M264.720359,153.528423 C264.020983,153.528423 263.333815,153.467432 262.658836,153.345448 C261.983857,153.223463 261.333284,153.044556 260.707098,152.80872 C260.080913,152.572884 259.491331,152.29639 258.938336,151.979231 C258.385341,151.662072 257.889279,151.308323 257.450136,150.917974 L260.98766,147.063292 C261.394275,147.502435 261.935063,147.892779 262.610042,148.234335 C263.285022,148.575891 263.980321,148.746666 264.695962,148.746666 C265.021253,148.746666 265.318077,148.689741 265.586442,148.575889 C265.854808,148.462037 265.988988,148.250601 265.988988,147.941574 C265.988988,147.778929 265.944261,147.640682 265.854806,147.52683 C265.765351,147.412978 265.606774,147.295062 265.37907,147.173077 C265.151366,147.051093 264.838278,146.916913 264.439796,146.770532 C264.041315,146.62415 263.541187,146.453375 262.939398,146.2582 C262.353874,146.063026 261.792755,145.831259 261.256024,145.562894 C260.719294,145.294529 260.243563,144.965176 259.828816,144.574827 C259.41407,144.184477 259.084718,143.716878 258.840749,143.172015 C258.596781,142.627152 258.474798,141.972514 258.474798,141.208079 C258.474798,140.134618 258.694367,139.223816 259.13351,138.475647 C259.572653,137.727477 260.137838,137.113499 260.829082,136.633694 C261.520326,136.15389 262.296947,135.808273 263.158969,135.596834 C264.02099,135.385394 264.874867,135.279676 265.720624,135.279676 C266.859144,135.279676 268.017976,135.499245 269.197157,135.938388 C270.376338,136.377531 271.413188,137.011839 272.307739,137.841332 L268.697024,141.525237 C268.306675,141.0373 267.826877,140.667287 267.257618,140.415186 C266.688358,140.163085 266.176032,140.037037 265.720624,140.037037 C265.297746,140.037037 264.956195,140.098028 264.695962,140.220012 C264.435729,140.341996 264.305614,140.541234 264.305614,140.817732 C264.305614,141.077965 264.439795,141.273137 264.70816,141.403253 C264.976526,141.53337 265.411596,141.696013 266.013385,141.891187 C266.631438,142.086362 267.282011,142.314063 267.965123,142.574296 C268.648234,142.834529 269.278476,143.172013 269.855868,143.58676 C270.43326,144.001506 270.908992,144.509766 271.283076,145.111555 C271.657161,145.713343 271.844201,146.461502 271.844201,147.356053 C271.844201,148.396985 271.636831,149.30372 271.222085,150.076287 C270.807338,150.848854 270.262484,151.491294 269.587504,152.003628 C268.912525,152.515962 268.152168,152.898173 267.306411,153.150274 C266.460654,153.402375 265.598645,153.528423 264.720359,153.528423 Z M272.993558,144.306463 C272.993558,142.923975 273.237522,141.675689 273.725459,140.561566 C274.213396,139.447444 274.884299,138.500047 275.738189,137.719348 C276.592078,136.938649 277.604532,136.33687 278.77558,135.913991 C279.946629,135.491112 281.215246,135.279676 282.581469,135.279676 C283.947692,135.279676 285.216309,135.491112 286.387357,135.913991 C287.558406,136.33687 288.574925,136.938649 289.436947,137.719348 C290.298969,138.500047 290.973938,139.447444 291.461875,140.561566 C291.949812,141.675689 292.193777,142.923975 292.193777,144.306463 C292.193777,145.688951 291.949812,146.949435 291.461875,148.087954 C290.973938,149.226474 290.298969,150.198267 289.436947,151.003363 C288.574925,151.808458 287.558406,152.430568 286.387357,152.869712 C285.216309,153.308855 283.947692,153.528423 282.581469,153.528423 C281.215246,153.528423 279.946629,153.308855 278.77558,152.869712 C277.604532,152.430568 276.592078,151.808458 275.738189,151.003363 C274.884299,150.198267 274.213396,149.226474 273.725459,148.087954 C273.237522,146.949435 272.993558,145.688951 272.993558,144.306463 Z M279.165928,144.306463 C279.165928,144.875722 279.251316,145.396181 279.422093,145.867853 C279.592871,146.339525 279.828704,146.746133 280.129598,147.087689 C280.430493,147.429245 280.792374,147.69354 281.215252,147.880582 C281.638131,148.067625 282.093532,148.161145 282.581469,148.161145 C283.069406,148.161145 283.52074,148.067625 283.935487,147.880582 C284.350233,147.69354 284.712114,147.429245 285.021141,147.087689 C285.330167,146.746133 285.570066,146.339525 285.740844,145.867853 C285.911622,145.396181 285.99701,144.875722 285.99701,144.306463 C285.99701,143.753468 285.911622,143.245208 285.740844,142.781668 C285.570066,142.318128 285.330167,141.927784 285.021141,141.610625 C284.712114,141.293466 284.350233,141.045435 283.935487,140.866525 C283.52074,140.687615 283.069406,140.598161 282.581469,140.598161 C282.093532,140.598161 281.638131,140.687615 281.215252,140.866525 C280.792374,141.045435 280.430493,141.293466 280.129598,141.610625 C279.828704,141.927784 279.592871,142.318128 279.422093,142.781668 C279.251316,143.245208 279.165928,143.753468 279.165928,144.306463 Z M294.294605,135.767611 L300.076628,135.767611 L305.004766,144.526033 L305.102352,144.526033 L304.858385,135.767611 L310.372044,135.767611 L310.372044,153.040489 L304.443641,153.040489 L299.661884,144.794397 L299.564297,144.794397 L299.808264,153.040489 L294.294605,153.040489 L294.294605,135.767611 Z M325.844986,143.06223 C326.121484,142.850791 326.349184,142.614958 326.528094,142.354725 C326.707005,142.094492 326.796458,141.826131 326.796458,141.549633 C326.796458,141.224342 326.694806,140.939717 326.491499,140.695748 C326.288192,140.45178 325.966972,140.329797 325.527829,140.329797 C325.056157,140.329797 324.665813,140.516837 324.356786,140.890922 C324.04776,141.265007 323.876984,141.769201 323.844455,142.403519 L318.3064,141.769204 C318.420252,140.646949 318.713009,139.679222 319.184682,138.865994 C319.656354,138.052766 320.245935,137.377797 320.953444,136.841066 C321.660952,136.304336 322.449772,135.909926 323.319926,135.657825 C324.19008,135.405725 325.088683,135.279676 326.015763,135.279676 C326.861521,135.279676 327.703199,135.385394 328.540824,135.596834 C329.378449,135.808273 330.122541,136.137625 330.773124,136.584901 C331.423706,137.032176 331.952297,137.613626 332.358911,138.329266 C332.765525,139.044907 332.968829,139.906916 332.968829,140.915319 C332.968829,141.630959 332.875309,142.261202 332.688266,142.806064 C332.501224,143.350927 332.249127,143.834791 331.931968,144.257669 C331.614809,144.680548 331.256994,145.062759 330.858512,145.404315 C330.460031,145.745871 330.041224,146.071157 329.602081,146.380184 L327.064822,148.185541 L333.017622,148.185541 L333.017622,153.040489 L319.013905,153.040489 L319.013905,148.527095 L325.844986,143.06223 Z"/>
  </g>
</svg>
