<svg xmlns="http://www.w3.org/2000/svg" xmlns:xlink="http://www.w3.org/1999/xlink" width="319" height="211" viewBox="0 0 319 211">
  <defs>
    <polygon id="mountain_with_people-a" points="11.918 .382 .343 .382 .343 20.678 11.918 20.678"/>
    <polygon id="mountain_with_people-c" points="0 97.16 50.216 97.16 50.216 0 0 0"/>
    <polygon id="mountain_with_people-e" points="0 97.16 50.216 97.16 50.216 0 0 0"/>
    <polygon id="mountain_with_people-g" points="0 97.16 50.216 97.16 50.216 0 0 0"/>
    <polygon id="mountain_with_people-i" points="0 97.16 50.216 97.16 50.216 0 0 0"/>
    <polygon id="mountain_with_people-k" points="0 97.16 50.216 97.16 50.216 0 0 0"/>
    <polygon id="mountain_with_people-m" points="0 97.16 50.216 97.16 50.216 0 0 0"/>
    <polygon id="mountain_with_people-o" points="0 97.16 50.216 97.16 50.216 0 0 0"/>
    <polygon id="mountain_with_people-q" points="0 97.16 50.216 97.16 50.216 0 0 0"/>
    <polygon id="mountain_with_people-s" points="0 97.16 50.216 97.16 50.216 0 0 0"/>
    <polygon id="mountain_with_people-u" points="0 97.16 50.216 97.16 50.216 0 0 0"/>
    <polygon id="mountain_with_people-w" points="0 97.16 50.216 97.16 50.216 0 0 0"/>
    <polygon id="mountain_with_people-y" points="0 97.16 50.216 97.16 50.216 0 0 0"/>
    <polygon id="mountain_with_people-A" points="0 97.16 50.216 97.16 50.216 0 0 0"/>
    <polygon id="mountain_with_people-C" points="0 97.16 50.216 97.16 50.216 0 0 0"/>
    <polygon id="mountain_with_people-E" points="0 97.16 50.216 97.16 50.216 0 0 0"/>
    <polygon id="mountain_with_people-G" points="0 97.16 50.216 97.16 50.216 0 0 0"/>
    <polygon id="mountain_with_people-I" points="0 0 27.948 0 27.948 29.815 0 29.815"/>
  </defs>
  <g fill="none" fill-rule="evenodd" transform="translate(-1 -1)">
    <g transform="translate(0 .73)">
      <path fill="#FAFAFA" fill-rule="nonzero" d="M323.517069,111.10728 C326.236486,111.10728 328.440835,113.567404 328.440835,116.523275 C328.440835,119.479145 326.236486,121.85512 323.517069,121.85512 L315.641686,121.85512 L299.39568,121.85512 C297.493145,121.85512 295.950145,120.195807 295.950145,118.129322 C295.950145,116.059497 297.493145,114.319374 299.39568,114.315557 C299.953046,114.315557 300.468995,114.472535 300.932952,114.72685 C301.23697,112.088276 303.285345,110.036582 305.796356,110.036582 C306.642319,110.036582 307.424393,110.289465 308.120109,110.697418 C309.118522,107.213356 312.108911,104.684524 315.641686,104.684524 C319.31942,104.684524 322.399253,107.428068 323.266364,111.133046 C323.35052,111.129706 323.431151,111.10728 323.517069,111.10728 Z"/>
      <polygon fill="#00BDFF" fill-rule="nonzero" points="205.99 67.26 205.99 24.971 158.668 67.26"/>
      <g transform="translate(205.634 .698)">
        <mask id="mountain_with_people-b" fill="#fff">
          <use xlink:href="#mountain_with_people-a"/>
        </mask>
        <polygon fill="#F83A5C" fill-rule="nonzero" points=".343 20.678 .343 .381 11.918 10.53" mask="url(#mountain_with_people-b)"/>
      </g>
      <polygon fill="#0A9DFF" fill-rule="nonzero" points="205.99 24.971 205.99 67.839 254.31 67.839"/>
      <polygon fill="#1599FF" fill-rule="nonzero" points="0 212.269 205.99 212.269 205.99 67.281 158.679 67.281"/>
      <polygon fill="#1560FA" fill-rule="nonzero" points="253.428 67.287 205.99 67.287 205.99 212.032 412.536 212.032"/>
      <polygon fill="#358847" fill-rule="nonzero" points="28.983 178.628 28.983 206.572 28.983 212.267 44.649 212.267"/>
      <path fill="#4CA440" fill-rule="nonzero" d="M313.438408,212.03196 L329.026819,179.184951 L329.026819,212.03196 L313.438408,212.03196 Z M13.1234012,212.239493 L29.0461147,178.204328 L29.0461147,212.239493 L13.1234012,212.239493 Z"/>
      <path fill="#FAFAFA" fill-rule="nonzero" d="M93.1302981,66.5102605 C93.606152,64.7825434 93.8678717,62.9493787 93.8678717,61.0594346 C93.8678717,50.479374 85.8841,41.901862 76.0370075,41.901862 C66.1912369,41.901862 58.2021779,50.476034 58.2021779,61.0551404 C57.9893654,61.0637289 57.7739093,61.0551404 57.5597751,61.0551404 C51.2168182,61.0551404 45.7740184,65.1804766 43.4251505,71.0678838 C41.1489824,71.206731 39.2521757,72.6564879 38.5740839,74.8952199 L106.009638,74.8952199 C106.009638,69.603281 102.015989,65.4987277 97.095307,65.4987277 C95.6673046,65.4987277 94.3238984,65.8675555 93.1302981,66.5102605 Z"/>
    </g>
    <g transform="translate(51 115.836)">
      <g transform="matrix(-1 0 0 1 261.861 .445)">
        <path fill="#E29E66" fill-rule="nonzero" d="M24.9403698,3.22888922 C27.2890202,2.82773119 28.8468986,5.099036 27.5187481,7.01882247 L21.7934438,11.8586931 C21.0124843,12.9611561 19.485775,13.2214759 18.3833119,12.4399393 L13.9665332,9.30975227 C12.2568496,8.09819731 12.7630591,5.4378558 14.7982867,4.93857279 L24.9403698,3.22888922 Z"/>
        <path stroke="#000" stroke-width="2" d="M17.3415132,6.11116636 L17.3074581,6.07711122 C16.8583919,5.62804511 16.8583919,4.89326213 17.3074581,4.44477323 L19.2324394,2.5197919 C19.6815055,2.07072579 20.4157113,2.07072579 20.8647774,2.5197919 L20.8988325,2.55384704 C22.1150051,3.76944245 22.5467551,5.32732089 21.3311597,6.5434935 C20.114987,7.7590889 18.5576858,7.32733897 17.3415132,6.11116636 Z"/>
        <path fill="#FFB069" fill-rule="nonzero" d="M30.7823851,17.211411 C30.7823851,24.2244614 25.096908,29.9099385 18.0838576,29.9099385 C11.0708072,29.9099385 5.38533007,24.2244614 5.38533007,17.211411 C5.38533007,10.1983606 11.0708072,4.51288351 18.0838576,4.51288351 C25.096908,4.51288351 30.7823851,10.1983606 30.7823851,17.211411"/>
        <mask id="mountain_with_people-d" fill="#fff">
          <use xlink:href="#mountain_with_people-c"/>
        </mask>
        <polygon fill="#FFB069" fill-rule="nonzero" points="13.861 35.719 21.861 35.719 21.861 24.719 13.861 24.719" mask="url(#mountain_with_people-d)"/>
        <mask id="mountain_with_people-f" fill="#fff">
          <use xlink:href="#mountain_with_people-e"/>
        </mask>
        <path fill="#303030" fill-rule="nonzero" d="M38.8609636,96.7188849 L1.86096362,96.7188849 L1.86096362,47.7086871 C1.86096362,42.214123 6.34379187,37.7188849 11.8231873,37.7188849 L28.8993146,37.7188849 C34.3781354,37.7188849 38.8609636,42.214123 38.8609636,47.7086871 L38.8609636,96.7188849 Z" mask="url(#mountain_with_people-f)"/>
        <mask id="mountain_with_people-h" fill="#fff">
          <use xlink:href="#mountain_with_people-g"/>
        </mask>
        <polygon fill="#AFAFAF" fill-rule="nonzero" points="9.861 37.719 25.861 37.719 25.861 31.719 9.861 31.719" mask="url(#mountain_with_people-h)"/>
        <mask id="mountain_with_people-j" fill="#fff">
          <use xlink:href="#mountain_with_people-i"/>
        </mask>
        <polygon fill="#000" fill-rule="nonzero" points="17.624 3.334 9.745 11.257 11.158 12.448 11.028 11.563 19.323 3.258" mask="url(#mountain_with_people-j)"/>
        <mask id="mountain_with_people-l" fill="#fff">
          <use xlink:href="#mountain_with_people-k"/>
        </mask>
        <path fill="#997239" fill-rule="nonzero" d="M2.13450703,9.38282653 C2.13566144,9.38167212 2.13681585,9.3799405 2.13797027,9.37878609 L8.38680021,3.12995615 C9.67974119,1.79487914 11.6612887,1.60036079 13.0154135,2.87367677 L13.6976707,4.99721689 C13.7144097,5.01337866 14.2194648,5.12477938 14.2027258,5.14151834 C13.5325899,5.81165427 14.4134059,6.76000339 15.0841191,7.43013932 L19.8224014,12.1684217 C20.2749308,12.6215282 20.2749308,13.355734 19.8224014,13.8088406 L19.1615008,14.469164 C18.7083942,14.9222705 17.9741885,14.9222705 17.5210819,14.469164 L16.7441629,13.692245 C15.241119,12.1897783 12.632726,12.4298959 11.5608549,14.5401603 C10.9207336,15.8002006 11.2318476,17.3396084 12.2309908,18.3387516 L12.9415311,19.049292 C13.3946377,19.5018213 13.3946377,20.2366043 12.9415311,20.6891336 L8.38333697,25.2473278 C8.36717521,25.2640668 8.34062374,25.2640668 8.32388478,25.247905 L1.58673873,18.7676156 C-0.216452173,16.9638474 -1.02049985,13.2957046 2.13450703,9.38282653" mask="url(#mountain_with_people-l)"/>
        <mask id="mountain_with_people-n" fill="#fff">
          <use xlink:href="#mountain_with_people-m"/>
        </mask>
        <path fill="#997239" fill-rule="nonzero" d="M8.6473509,2.97670801 C8.6473509,2.97670801 12.1827364,-1.13588328 17.1611364,0.307131204 C17.1611364,0.307131204 13.4993428,4.74295774 14.9966147,7.3779022" mask="url(#mountain_with_people-n)"/>
        <g>
          <mask id="mountain_with_people-p" fill="#fff">
            <use xlink:href="#mountain_with_people-o"/>
          </mask>
          <path fill="#AFAFAF" fill-rule="nonzero" d="M21.6109636,96.7188849 L48.6109636,96.7188849 L48.6109636,90.4464522 C48.6109636,89.492515 47.827886,88.7188849 46.8622994,88.7188849 L21.6109636,88.7188849 L21.6109636,96.7188849 Z" mask="url(#mountain_with_people-p)"/>
        </g>
        <g>
          <mask id="mountain_with_people-r" fill="#fff">
            <use xlink:href="#mountain_with_people-q"/>
          </mask>
          <path fill="#777" fill-rule="nonzero" d="M18.8609636,96.7188849 L23.8609636,96.7188849 L23.8609636,90.4218567 C23.8609636,89.4812687 23.1273729,88.7188849 22.2228759,88.7188849 L20.4996191,88.7188849 C19.5945543,88.7188849 18.8609636,89.4812687 18.8609636,90.4218567 L18.8609636,96.7188849 Z" mask="url(#mountain_with_people-r)"/>
        </g>
        <g>
          <mask id="mountain_with_people-t" fill="#fff">
            <use xlink:href="#mountain_with_people-s"/>
          </mask>
          <path fill="#E5AC51" fill-rule="nonzero" d="M40.4174505,83.1529595 C40.4174505,84.1763454 39.5880058,85.0063673 38.5640427,85.0063673 C37.5406568,85.0063673 36.7112121,84.1763454 36.7112121,83.1529595 C36.7112121,82.1295737 37.5406568,81.2995517 38.5640427,81.2995517 C39.5880058,81.2995517 40.4174505,82.1295737 40.4174505,83.1529595" mask="url(#mountain_with_people-t)"/>
        </g>
        <g>
          <mask id="mountain_with_people-v" fill="#fff">
            <use xlink:href="#mountain_with_people-u"/>
          </mask>
          <path stroke="#777" stroke-width="3" d="M29.5173657,88.8058064 L29.5173657,84.2970164 C29.5173657,83.66209 30.0368509,83.1426048 30.6717773,83.1426048 L38.9899249,83.1426048 C39.6248512,83.1426048 40.1443365,83.66209 40.1443365,84.2970164 L40.1443365,88.8058064" mask="url(#mountain_with_people-v)"/>
        </g>
        <g>
          <mask id="mountain_with_people-x" fill="#fff">
            <use xlink:href="#mountain_with_people-w"/>
          </mask>
          <path fill="#FFB069" fill-rule="nonzero" d="M29.9058981,85.597022 C30.5437105,86.5569153 37.8505586,86.7127608 38.5599446,85.6974558 C39.7524517,83.9895039 39.7795804,81.6558609 38.6269004,79.9213574 C36.5639669,76.8165675 32.107361,76.7651962 29.9728539,79.8209236 C28.7803468,81.5288756 28.7532181,83.8625186 29.9058981,85.597022" mask="url(#mountain_with_people-x)"/>
        </g>
        <g>
          <mask id="mountain_with_people-z" fill="#fff">
            <use xlink:href="#mountain_with_people-y"/>
          </mask>
          <path fill="#FFB069" fill-rule="nonzero" d="M35.8975251,87.6894508 C35.1384995,87.709653 34.5006871,87.1053185 34.4804849,86.3457157 L34.2738452,80.1765401 C34.2623011,79.7436358 34.6068929,79.3799961 35.0403745,79.368452 L36.2265324,79.3367057 C36.6594368,79.3251616 37.0230764,79.6703306 37.0346205,80.103235 L37.2412602,86.2724105 C37.2614624,87.0314362 36.6565507,87.6692486 35.8975251,87.6894508" mask="url(#mountain_with_people-z)"/>
        </g>
        <g>
          <mask id="mountain_with_people-B" fill="#fff">
            <use xlink:href="#mountain_with_people-A"/>
          </mask>
          <path fill="#FFB069" fill-rule="nonzero" d="M31.843347,87.6669397 C31.0843214,87.6871419 30.446509,87.0828075 30.4263068,86.3232046 L30.2196671,80.1540291 C30.208123,79.7211248 30.5527149,79.3574851 30.9861964,79.345941 L32.1723543,79.3141947 C32.6052587,79.3026506 32.9688983,79.6472424 32.9804425,80.080724 L33.1870821,86.2498995 C33.2072843,87.0089251 32.6023727,87.6467375 31.843347,87.6669397" mask="url(#mountain_with_people-B)"/>
        </g>
        <g>
          <mask id="mountain_with_people-D" fill="#fff">
            <use xlink:href="#mountain_with_people-C"/>
          </mask>
          <path fill="#FFB069" fill-rule="nonzero" d="M37.8924061,87.4320747 C37.1333804,87.4522769 36.495568,86.8479424 36.4753658,86.0883396 L36.32991,82.2147115 C36.3183659,81.7818072 36.6629577,81.4175903 37.0964393,81.4060462 L38.2825972,81.3748771 C38.7155015,81.363333 39.0791412,81.7079248 39.0906853,82.1408292 L39.2361411,86.0150345 C39.2563434,86.7740601 38.6514317,87.4118725 37.8924061,87.4320747" mask="url(#mountain_with_people-D)"/>
        </g>
        <g>
          <mask id="mountain_with_people-F" fill="#fff">
            <use xlink:href="#mountain_with_people-E"/>
          </mask>
          <path fill="#FFB069" fill-rule="nonzero" d="M33.7462214,87.6661316 C32.9871958,87.6863338 32.3493834,87.0819994 32.3291812,86.3223966 L32.1225415,80.153221 C32.1109974,79.7203167 32.4555892,79.356677 32.8890708,79.3451329 L34.0752287,79.3133866 C34.508133,79.3018425 34.8717727,79.6470115 34.8833168,80.0799159 L35.0899565,86.2490914 C35.1101587,87.008117 34.505247,87.6459294 33.7462214,87.6661316" mask="url(#mountain_with_people-F)"/>
        </g>
        <g>
          <mask id="mountain_with_people-H" fill="#fff">
            <use xlink:href="#mountain_with_people-G"/>
          </mask>
          <polygon fill="#303030" fill-rule="nonzero" points="28.685 80.397 39.913 80.397 39.913 76.467 28.685 76.467" mask="url(#mountain_with_people-H)"/>
        </g>
      </g>
      <g transform="matrix(-1 0 0 1 227.567 3.844)">
        <path fill="#141414" fill-rule="nonzero" d="M15.8168316,54.3799199 L1.31622974,71.1304359 C-0.479909922,73.2060566 -0.284823592,76.3372228 1.75471532,78.1731136 L16.4283875,91.3790516 L27.4363936,80.0652676 L15.8168316,54.3799199 Z"/>
        <path fill="#E29E66" fill-rule="nonzero" d="M37.7770088,14.2413661 L27.0313601,16.0527946 C24.875014,16.5817905 24.3386795,19.4004516 26.1501081,20.6841074 L30.8297338,24.0005751 C31.9978056,24.8286217 33.6153709,24.55281 34.442806,23.3847383 L40.508829,18.2568421 C41.9160191,16.2228072 40.2654297,13.8163347 37.7770088,14.2413661"/>
        <path fill="#FFB069" fill-rule="nonzero" d="M43.9666883,29.0560019 C43.9666883,36.486406 37.9428627,42.5102316 30.5124586,42.5102316 C23.0820545,42.5102316 17.0582289,36.486406 17.0582289,29.0560019 C17.0582289,21.6255977 23.0820545,15.6017722 30.5124586,15.6017722 C37.9428627,15.6017722 43.9666883,21.6255977 43.9666883,29.0560019"/>
        <polygon fill="#FFB069" fill-rule="nonzero" points="25.595 48.346 34.156 48.346 34.156 36.93 25.595 36.93"/>
        <path fill="#303030" fill-rule="nonzero" d="M51.5668462,93.3204222 L12.5668462,93.3204222 L12.5668462,61.8114945 C12.5668462,56.0414955 17.2919895,51.3204222 23.0675685,51.3204222 L41.0667297,51.3204222 C46.8417029,51.3204222 51.5668462,56.0414955 51.5668462,61.8114945 L51.5668462,93.3204222 Z"/>
        <polygon fill="#303030" fill-rule="nonzero" points="21.567 52.32 39.567 52.32 39.567 45.32 21.567 45.32"/>
        <path fill="#000" fill-rule="nonzero" d="M25.0948684,16.1324804 C24.8013216,17.0938462 25.4862642,18.8123183 26.261717,19.4513942 L31.775505,23.9940314 C32.2800386,24.4098894 32.3522022,25.1559876 31.9363442,25.6605212 L31.2501785,26.4940719 C30.8343205,26.9986055 30.0876107,27.0707691 29.5830771,26.6549111 L28.6498428,25.8861853 C26.9050738,24.4484174 24.1628572,24.9774133 23.258366,27.3367959 C22.7293702,28.7170776 23.1984336,30.2857185 24.3395969,31.2256799 L25.2196258,31.9509852 C25.724771,32.3668432 25.796323,33.1129414 25.380465,33.6180865 L20.9815434,38.9575811 L7.13469484,27.7997437 C5.62231712,26.5478888 5.39114899,24.3144867 6.61487233,22.7788698 L15.0500628,12.5408126 C15.0500628,12.5408126 19.2288242,7.20254118 19.007441,4.90676035 C19.007441,4.90676035 27.3007505,8.90694746 25.0948684,16.1324804"/>
        <path fill="#BC9377" fill-rule="nonzero" d="M34.1635085,41.9449705 C34.1635085,41.9449705 40.9352669,40.2283331 43.2347171,33.6889659 C46.4967562,24.4134976 38.9030666,18.6037166 38.9030666,18.6037166 C38.9036782,25.0348384 32.3288408,24.6177573 32.3288408,24.6177573 C32.3288408,24.6177573 30.6978212,26.3502951 30.4941731,26.961851 C30.4941731,26.961851 38.4443997,31.956428 34.1635085,41.9449705"/>
        <path fill="#000" fill-rule="nonzero" d="M33.2883108,12.6472233 C35.4312027,14.4549825 36.5356726,16.6706496 35.7553273,17.5959336 C34.9743704,18.5206061 32.6045913,17.8056973 30.4616995,15.9979381 L33.2883108,12.6472233 Z"/>
        <polygon fill="#FFB069" fill-rule="nonzero" points="48.141 84.836 42.808 90.17 39.348 86.71 44.681 81.377"/>
        <path fill="#303030" fill-rule="nonzero" d="M53.68919,93.2796409 L49.19794,93.2796409 L49.19794,84.8585472 L50.4187258,84.8585472 C52.2247156,84.8585472 53.68919,86.3497452 53.68919,88.1892872 L53.68919,93.2796409 Z"/>
        <rect width="6.551" height="7.779" x="101.441" y="11.26" fill="#E5A948" fill-rule="nonzero" transform="rotate(-42 104.716 15.15)"/>
        <polygon fill="#7C7C7C" fill-rule="nonzero" points="109.654 44.355 99.766 54.243 63.722 20.227 73.61 10.339" transform="matrix(-1 0 0 1 173.375 0)"/>
        <g fill="#E5A948" fill-rule="nonzero" transform="matrix(-1 0 0 1 115.74 .032)">
          <path d="M10.4878181,14.9749841 C8.16818657,17.2946156 4.40711781,17.2946156 2.0874863,14.9749841 C-0.232145212,12.6553526 -0.232145212,8.89428382 2.0874863,6.57465231 C4.40711781,4.25502079 8.16818657,4.25502079 10.4878181,6.57465231 C12.8074496,8.89428382 12.8074496,12.6553526 10.4878181,14.9749841"/>
          <path d="M10.1688917,10.3020855 C10.7822822,9.68808337 10.7816707,8.68390859 10.1682801,8.07112958 L2.8473445,0.755086404 C2.23334238,0.141084285 1.2291676,0.141695841 0.615777038,0.75569796 C0.00238647435,1.36970008 0.00299803024,2.3732633 0.616388594,2.98665387 L7.93732422,10.302697 C8.55132634,10.9166992 9.55550112,10.9160876 10.1688917,10.3020855"/>
        </g>
        <path fill="#CE8E32" fill-rule="nonzero" d="M88.4277153,7.82002917 L77.6820667,9.63145773 C75.5257206,10.1604536 74.9893861,12.9791147 76.8008146,14.2627705 L81.4804403,17.5792381 C82.6485121,18.4072848 84.2660774,18.1314731 85.0935126,16.9634014 L91.1595355,11.8355052 C92.5667256,9.80147027 90.9161363,7.39499782 88.4277153,7.82002917"/>
        <path fill="#E5A948" fill-rule="nonzero" d="M96.0698401,22.481776 C96.0698401,29.9121801 90.0460145,35.9360057 82.6156104,35.9360057 C75.1852063,35.9360057 69.1613807,29.9121801 69.1613807,22.481776 C69.1613807,15.0513719 75.1852063,9.02754628 82.6156104,9.02754628 C90.0460145,9.02754628 96.0698401,15.0513719 96.0698401,22.481776"/>
        <g transform="matrix(-1 0 0 1 86.26 2.163)">
          <mask id="mountain_with_people-J" fill="#fff">
            <use xlink:href="#mountain_with_people-I"/>
          </mask>
          <path fill="#44230C" fill-rule="nonzero" d="M14.0553516,3.94755037 C12.5996246,2.44371093 10.3675966,2.22460419 8.8416514,3.65887562 L5.70535748,6.94334307 L5.77297499,7.01096058 C6.50961575,7.74760135 6.50961575,8.94261081 5.77297499,9.67925157 L0.368775499,15.0834511 C-0.122751788,15.5749784 -0.122751788,16.3720848 0.368775499,16.8636121 L1.18018562,17.6750222 C1.67171291,18.1665495 2.46881933,18.1665495 2.96034662,17.6750222 L3.869282,16.766737 C5.56947229,15.0665467 8.5251377,15.3467693 9.72274784,17.7504417 C10.4242795,19.1574061 10.0874923,20.8653984 8.97635455,21.9765361 L8.11943264,22.833458 C7.62725518,23.3256355 7.62725518,24.1227419 8.11943264,24.6142692 L13.3201294,29.814966 L23.9905744,19.2863226 C25.4632058,17.8065393 25.47946,15.4197713 24.027634,13.9198328 L14.0553516,3.94755037 Z" mask="url(#mountain_with_people-J)"/>
        </g>
        <circle cx="76.973" cy="5.721" r="5.136" fill="#44230C" fill-rule="nonzero"/>
        <polygon fill="#E5A948" fill-rule="nonzero" points="77.567 41.32 85.567 41.32 85.567 30.32 77.567 30.32"/>
        <path fill="#A8A8A8" fill-rule="nonzero" d="M101.566846,92.3204222 L62.5668462,92.3204222 L62.5668462,48.5542304 C62.5668462,43.4757262 66.7467807,39.3204222 71.8559933,39.3204222 L92.2783051,39.3204222 C97.386912,39.3204222 101.566846,43.4757262 101.566846,48.5542304 L101.566846,92.3204222 Z"/>
        <path fill="#2B3F61" fill-rule="nonzero" d="M62.5668462,72.2806517 C62.5668462,72.2806517 72.5314466,74.371 72.5314466,55.3204222 L82.2240482,55.3204222 C82.2240482,55.3204222 81.2142003,72.2806517 93.7340127,72.2806517 L101.566846,72.2806517 L101.566846,93.3204222 L62.5668462,93.3204222 L62.5668462,72.2806517 Z"/>
        <polygon fill="#704528" fill-rule="nonzero" points="72.567 55.32 82.567 55.32 82.567 48.4 77.567 44.32 72.567 48.4"/>
        <path fill="#2B3F61" fill-rule="nonzero" d="M82.0591557,48.1925643 C82.0591557,48.1925643 81.8555076,39.3451872 93.3729398,39.3451872 L86.034269,39.2430574 C86.034269,39.2430574 79.9969892,39.0491921 77.2566072,44.1153212 L82.0591557,48.1925643 Z"/>
        <path fill="#2B3F61" fill-rule="nonzero" d="M77.2566684,44.1155658 C77.2566684,44.1155658 76.7221039,39.4088324 74.9895661,39.4088324 L71.0144527,39.4088324 C70.8811345,39.4088324 72.2743225,42.0050864 72.2743225,48.1928089 L77.2566684,44.1155658 Z"/>
        <path fill="#A8A8A8" fill-rule="nonzero" d="M101.408721,86.5427659 L88.9888445,86.5427659 L86.8121587,48.8120174 C86.8121587,44.8457581 90.0793462,41.6302659 94.1101316,41.6302659 C98.1409169,41.6302659 101.408721,44.8457581 101.408721,48.8120174 L101.408721,86.5427659 Z"/>
        <polygon fill="#A86639" fill-rule="nonzero" points="131.483 88.573 128.348 85.437 136.997 76.789 140.132 79.924"/>
        <polygon fill="#A86639" fill-rule="nonzero" points="87.68 80.23 90.815 77.094 99.464 85.744 96.328 88.878"/>
        <path fill="#A86639" fill-rule="nonzero" d="M103.980927 91.661407C102.127913 93.5144213 99.1239502 93.5144213 97.2709359 91.661407 95.4185331 89.8083926 95.4185331 86.8044301 97.2709359 84.9514157 99.1239502 83.0990129 102.127913 83.0990129 103.980927 84.9514157 105.833942 86.8044301 105.833942 89.8083926 103.980927 91.661407M130.277831 91.661407C128.424816 93.5144213 125.420854 93.5144213 123.567839 91.661407 121.715437 89.8083926 121.715437 86.8044301 123.567839 84.9514157 125.420854 83.0990129 128.424816 83.0990129 130.277831 84.9514157 132.130845 86.8044301 132.130845 89.8083926 130.277831 91.661407"/>
        <path fill="#CB8B2C" fill-rule="nonzero" d="M104.477694,58.260609 L81.0869041,73.4920202 C79.5745264,74.4766252 79.3256231,76.5913854 80.5670816,77.9007266 L91.4313721,92.0582456 L98.973691,83.6401787 L93.4696879,77.5246197 L106.923918,69.2686152 L104.477694,58.260609 Z"/>
        <path fill="#A86639" fill-rule="nonzero" d="M127.039336,41.1592434 C127.039336,48.4208581 121.152499,54.3076952 113.890885,54.3076952 C106.62927,54.3076952 100.742433,48.4208581 100.742433,41.1592434 C100.742433,33.8976287 106.62927,28.0107917 113.890885,28.0107917 C121.152499,28.0107917 127.039336,33.8976287 127.039336,41.1592434"/>
        <polygon fill="#A86639" fill-rule="nonzero" points="110.953 57.911 118.251 57.911 118.251 47.806 110.953 47.806"/>
        <path fill="#FAA321" fill-rule="nonzero" d="M103.606105,93.3566683 C102.933393,93.3566683 102.382993,92.602019 102.382993,91.9282249 C102.382993,91.9282249 98.8720504,78.9144018 98.0666312,71.7678973 C97.9602205,70.8251982 98.0666312,68.9226489 98.0666312,67.974437 C98.0666312,62.1344804 102.836767,57.3566683 108.66673,57.3566683 L120.924144,57.3566683 C126.754107,57.3566683 131.524243,62.1344804 131.524243,67.974437 C131.524243,68.9226489 131.627596,70.8251982 131.524243,71.7678973 C130.876605,77.6893217 127.207881,91.9282249 127.207881,91.9282249 C127.207881,92.602019 126.657481,93.3566683 125.984769,93.3566683 L103.606105,93.3566683 Z"/>
        <path fill="#000" fill-rule="nonzero" d="M124.190587,37.4383539 C124.190587,44.7941482 118.227917,50.7568182 110.872122,50.7568182 C103.516328,50.7568182 97.5536582,44.7941482 97.5536582,37.4383539 C97.5536582,30.0825596 103.516328,24.1198896 110.872122,24.1198896 C118.227917,24.1198896 124.190587,30.0825596 124.190587,37.4383539"/>
        <path fill="#00BDFF" fill-rule="nonzero" d="M111.526487,30.4486369 C111.526487,34.1717892 108.508459,37.1898176 104.785307,37.1898176 C101.061543,37.1898176 98.0435144,34.1717892 98.0435144,30.4486369 C98.0435144,26.7254847 101.061543,23.7074563 104.785307,23.7074563 C108.508459,23.7074563 111.526487,26.7254847 111.526487,30.4486369"/>
        <path fill="#A86639" fill-rule="nonzero" d="M103.398604 85.4478156C103.398604 86.7143479 102.371801 87.7411502 101.105269 87.7411502 99.8387368 87.7411502 98.8119344 86.7143479 98.8119344 85.4478156 98.8119344 84.1812834 99.8387368 83.154481 101.105269 83.154481 102.371801 83.154481 103.398604 84.1812834 103.398604 85.4478156M130.723594 85.9844559C130.723594 87.2509882 129.696791 88.2777905 128.430259 88.2777905 127.163727 88.2777905 126.136925 87.2509882 126.136925 85.9844559 126.136925 84.7179237 127.163727 83.6911213 128.430259 83.6911213 129.696791 83.6911213 130.723594 84.7179237 130.723594 85.9844559"/>
        <path fill="#FAA321" fill-rule="nonzero" d="M125.066702,58.1586627 L146.781217,73.0537181 C148.330288,74.1166022 148.562679,76.3120879 147.270462,77.675246 L136.686264,90.6310576 L128.939685,83.3345842 L134.443688,77.2190253 L120.989459,68.9630207 L125.066702,58.1586627 Z"/>
        <polygon fill="#000" fill-rule="nonzero" points="30.462 15.998 22.331 24.602 23.86 25.825 23.554 24.755 32.116 15.735"/>
        <path fill="#000" fill-rule="nonzero" d="M109.268409,52.2969847 L96.356065,52.2969847 L96.356065,34.6047704 C96.356065,31.3671866 99.057522,28.7179222 102.358889,28.7179222 L103.264964,28.7179222 C106.566952,28.7179222 109.268409,31.3671866 109.268409,34.6047704 L109.268409,52.2969847 Z"/>
      </g>
      <g fill-rule="nonzero" transform="translate(.125 27.337)">
        <path fill="#DB8F52" d="M38.0831615,9.34086407 C39.9521825,9.02126824 41.1930747,10.8294431 40.1353354,12.357357 L35.5780219,16.2103305 C34.9566539,17.0873752 33.7409605,17.2951125 32.8639158,16.6731298 L29.3477471,14.1815116 C27.9870064,13.2165781 28.3901889,11.0992557 30.0102939,10.7022194 L38.0831615,9.34086407 Z"/>
        <path fill="#376472" d="M16.0421739,0.111182471 L0.538703348,20.6187861 C-0.463721251,21.9444942 -0.018130917,23.8546939 1.46676046,24.6008272 L15.3046451,33.4696114 L19.2074018,23.8190466 L12.5272344,20.2414172 L21.6025267,8.88347327 L16.0421739,0.111182471 Z" transform="translate(0 33.556)"/>
        <path fill="#FFB069" d="M39.9863546,17.124436 C39.9863546,24.4222838 34.0701442,30.3384942 26.7722965,30.3384942 C19.4744487,30.3384942 13.5582383,24.4222838 13.5582383,17.124436 C13.5582383,9.82658826 19.4744487,3.91037785 26.7722965,3.91037785 C34.0701442,3.91037785 39.9863546,9.82658826 39.9863546,17.124436"/>
        <polygon fill="#FFB069" points="23.663 33.983 30.782 33.983 30.782 23.812 23.663 23.812"/>
        <path fill="#3D7991" d="M16.4164115,69.5767631 C15.7471305,69.5767631 15.1995369,68.8248503 15.1995369,68.1534995 C15.1995369,68.1534995 11.7064986,55.4261041 10.9051868,48.305514 C10.7993187,47.3662333 10.9051868,45.4705829 10.9051868,44.5258093 C10.9051868,38.7070293 15.6509974,33.9465422 21.4512298,33.9465422 L33.6461377,33.9465422 C39.4463701,33.9465422 44.1921807,38.7070293 44.1921807,44.5258093 C44.1921807,45.4705829 44.2950066,47.3662333 44.1921807,48.305514 C43.5478457,54.2054664 39.8978306,68.1534995 39.8978306,68.1534995 C39.8978306,68.8248503 39.350237,69.5767631 38.680956,69.5767631 L16.4164115,69.5767631 Z"/>
        <path fill="#3D7991" d="M38.0201005,36.7281878 C40.9522498,36.7281878 43.5561115,38.6026632 44.4865478,41.3832725 L53.9736406,69.7354545 L44.1560775,69.7354545 L34.6689846,41.3832725 C34.0496873,39.5325023 35.0479934,37.530117 36.8987636,36.9108198 C37.2602459,36.789862 37.6389178,36.7281878 38.0201005,36.7281878 Z"/>
        <path fill="#C1842B" d="M37.1233292,13.3849805 C37.1233292,20.7774778 31.1309074,26.7698995 23.7384102,26.7698995 C16.3459129,26.7698995 10.3534911,20.7774778 10.3534911,13.3849805 C10.3534911,5.99248319 16.3459129,6.14607357e-05 23.7384102,6.14607357e-05 C31.1309074,6.14607357e-05 37.1233292,5.99248319 37.1233292,13.3849805"/>
        <path fill="#C1842B" d="M17.7427925,21.7942227 C13.34036,15.853428 14.5873983,7.46895444 20.528193,3.06713655 C26.4689877,-1.33529594 34.8534613,-0.0882576164 39.2552792,5.85253709 L17.7427925,21.7942227 Z"/>
        <path fill="#C1842B" d="M21.875105,40.8272514 C15.247505,40.8272514 9.87510498,35.3591598 9.87510498,28.6135109 L9.87510498,13.0409919 C9.87510498,6.295343 15.247505,0.827251402 21.875105,0.827251402 L21.875105,13.3463354 C28.502705,13.3463354 33.875105,6.295343 33.875105,13.0409919 L33.875105,28.6135109 C33.875105,35.3591598 28.502705,40.8272514 21.875105,40.8272514"/>
      </g>
    </g>
  </g>
</svg>
