<?xml version="1.0" encoding="UTF-8"?>
<svg width="320px" height="305px" viewBox="0 0 320 305" version="1.1" xmlns="http://www.w3.org/2000/svg" xmlns:xlink="http://www.w3.org/1999/xlink">
    <g id="Page-1" stroke="none" stroke-width="1" fill="none" fill-rule="evenodd">
        <g id="Mobile-Copy" transform="translate(0.000000, -450.000000)">
            <g id="header-background-mobile" transform="translate(-135.000000, 448.622020)">
                <path d="M255,50.3779795 L255,50.3779795 L255,50.3779795 C256.656854,50.3779795 258,51.7211253 258,53.3779795 L258,62.3779795 L258,62.3779795 C258,62.9302643 257.552285,63.3779795 257,63.3779795 L253,63.3779795 L253,63.3779795 C252.447715,63.3779795 252,62.9302643 252,62.3779795 L252,53.3779795 L252,53.3779795 C252,51.7211253 253.343146,50.3779795 255,50.3779795 Z" id="Rectangle-13" fill="#1560FA" transform="translate(255.000000, 56.877980) scale(-1, 1) translate(-255.000000, -56.877980) "></path>
                <polygon id="Fill-1" fill="#ED588E" transform="translate(254.098481, 35.888345) scale(-1, 1) translate(-254.098481, -35.888345) " points="248.973986 38.3383814 251.710158 40.9878819 259.222975 30.7888084"></polygon>
                <polygon id="Fill-2" fill="#FF8FB8" transform="translate(254.325216, 35.174047) scale(-1, 1) translate(-254.325216, -35.174047) " points="249.2132 38.2772975 250.581286 39.601991 259.437231 30.7461025"></polygon>
                <path d="M262.569483,36.5935683 L262.569029,35.4832852 C262.569029,34.0028322 261.368955,32.8027577 259.888502,32.8027577 L259.888502,35.4832852 L259.888502,36.9049172 C254.764149,38.115145 250.68518,42.7179926 250.68518,48.2121183 L250.68518,61.3721202 L267.349191,61.3721202 L267.349191,53.7632996 C267.349191,51.1230449 265.20917,48.9826842 262.569029,48.9820603 L262.569029,46.5160637 C263.156899,46.346634 263.71153,46.0308608 264.174725,45.5676094 C264.174801,45.5675716 264.963865,46.3564659 266.541918,47.9342923 C266.751848,48.1433141 267.036367,48.2704289 267.350552,48.2704289 C267.664737,48.2704289 267.9492,48.1433141 268.155612,47.9378658 L271.034668,45.0587533 L262.569483,36.5935683 Z" id="Fill-3" fill="#1599FF" transform="translate(260.859924, 47.087439) scale(-1, 1) translate(-260.859924, -47.087439) "></path>
                <path d="M255.464548,36.5935683 L254.425224,39.1829998 C252.359623,39.1829998 250.685123,40.8574432 250.685123,42.9230439 C250.685123,44.9885878 252.359623,46.663088 254.425224,46.663088 C254.79097,46.663088 255.14401,46.6095988 255.478104,46.5117528 C255.573681,46.4838454 255.668181,46.4519107 255.761716,46.4162324 C255.785085,46.4072702 255.808285,46.3981379 255.831428,46.388722 C255.854741,46.3793061 255.878053,46.3699469 255.901253,46.3600205 C255.942263,46.3424366 255.98282,46.3240018 256.023036,46.3049998 C256.039939,46.297002 256.056785,46.2887205 256.073575,46.2804958 C256.114756,46.2603026 256.155539,46.2395423 256.195869,46.2179311 C256.200803,46.2153218 256.205738,46.212826 256.210673,46.2101601 C256.25798,46.1844082 256.304492,46.157465 256.350494,46.1297278 C256.359569,46.1242825 256.368645,46.1187804 256.377664,46.1132216 C256.47188,46.0554783 256.563316,45.9937077 256.651746,45.9280232 C256.65878,45.9228047 256.665757,45.917643 256.672733,45.9123678 C256.759972,45.8466833 256.844148,45.7771985 256.925261,45.7042536 C256.934677,45.6957452 256.944093,45.6872369 256.953452,45.6786151 C256.992761,45.6425964 257.031445,45.6059537 257.069166,45.5683468 C257.069393,45.5680632 257.06962,45.5678363 257.069846,45.5676094 C257.069903,45.5675527 257.06996,45.5674393 257.070073,45.5673826 L259.43704,47.9342923 L259.440613,47.9378658 C259.646969,48.1433141 259.931488,48.2704289 260.245673,48.2704289 C260.559858,48.2704289 260.844378,48.1433141 261.050734,47.9378658 L261.054194,47.9342923 L263.929789,45.0587533 L255.464548,36.5935683 Z" id="Fill-6" fill="#1560FA" transform="translate(257.307456, 42.431999) scale(-1, 1) translate(-257.307456, -42.431999) "></path>
                <path d="M270.955078,37.9814568 C267.313674,40.126045 265.147949,44.3324868 265.147949,49.1718424 L265.147949,61.26421 L270.955078,61.26421 L270.955078,37.9814568 Z" id="Fill-8" fill="#1560FA" transform="translate(268.051514, 49.622833) scale(-1, 1) translate(-268.051514, -49.622833) "></path>
                <rect id="Rectangle-12" fill="#1560FA" transform="translate(269.504883, 69.545229) scale(-1, 1) translate(-269.504883, -69.545229) " x="268.041504" y="61.0305456" width="2.92675781" height="17.0293667"></rect>
                <polygon id="Rectangle-12-Copy-2" fill="#1599FF" transform="translate(255.500000, 69.214935) scale(-1, 1) translate(-255.500000, -69.214935) " points="254 60.4752402 257 60.4752402 257 67.0351731 257 69.7173247 257 77.9546288 254 77.9546288 254 69.5260878 254 66.7972013"></polygon>
                <polygon id="Rectangle-12-Copy-2" fill="#1560FA" transform="translate(261.467331, 69.694136) scale(-1, 1) translate(-261.467331, -69.694136) " points="259.986516 61.4336436 262.948145 61.4336436 262.948145 77.9546288 259.986516 77.9546288"></polygon>
                <rect id="Rectangle-12-Copy" fill="#1599FF" transform="translate(263.500000, 69.877980) scale(-1, 1) translate(-263.500000, -69.877980) " x="262" y="61.3779795" width="3" height="17"></rect>
                <polygon id="Fill-5" fill="#D6EEFD" points="263.266113 121.683348 263.266113 66.9678547 202.260038 121.683348"></polygon>
                <polygon id="Fill-10" fill="#BDE5FF" points="263.089844 67.2247729 263.089844 121.940266 322.766709 121.940266"></polygon>
                <polygon id="Fill-3" fill="#C9E4F8" points="263.160589 66.497869 0.748278059 306.376159 263.160589 306.376159 263.160589 121.43755 202.890981 121.43755"></polygon>
                <polygon id="Fill-12" fill="#A9D6F7" points="322.786591 121.4688 263.066895 121.4688 263.066895 306.376159 525.209448 306.376159"></polygon>
                <polygon id="Fill-5" fill="#C9EAF6" points="454.835633 176.198346 454.835633 137.541303 412.221215 176.198346"></polygon>
                <polygon id="Fill-10" fill="#9ED7FE" points="454.734499 137.722818 454.734499 176.379861 497.360384 176.379861"></polygon>
                <polygon id="Fill-3" fill="#BAE1FF" points="455.248064 137.209253 269.603079 306.409718 455 306.409718 455.248064 176.134203 412.666983 176.134203"></polygon>
                <polygon id="Fill-12" fill="#8CC3F6" points="497.37443 176.240184 454.734499 176.240184 454.734499 306.685663 640.388202 306.685663"></polygon>
                <path d="M393.919919,306.415089 C393.919919,294.783252 403.349506,285.520386 414.981343,285.520386 L414.981343,306.415089 L393.919919,306.415089 Z" id="Page-1" fill="#41C170"></path>
                <path d="M412.989258,306.364308 C412.989258,294.73247 422.647849,285.520386 434.279686,285.520386 L434.279686,306.364308 L412.989258,306.364308 Z" id="Page-1" fill="#28914F" transform="translate(423.634472, 295.942347) scale(-1, 1) translate(-423.634472, -295.942347) "></path>
                <circle id="Oval" fill="#41C170" cx="457.150231" cy="252.132717" r="29.7280822"></circle>
                <path d="M437.581196,283.705673 L429.076225,291.699546 C428.113817,292.811338 428.218407,294.489137 429.311282,295.472855 L437.908884,303.529409 L443.806841,297.467499 L437.581196,283.705673 Z" id="Fill-1" fill="#013B7F" transform="translate(436.112303, 293.617541) scale(-1, 1) translate(-436.112303, -293.617541) "></path>
                <path d="M425.71707,264.024289 C425.71707,261.973177 424.054482,260.31059 422.00337,260.31059 C419.952258,260.31059 418.289671,261.973177 418.289671,264.024289 L425.71707,264.024289 Z" id="Fill-5" fill="#8E5229" transform="translate(422.003370, 262.167440) scale(-1, 1) translate(-422.003370, -262.167440) "></path>
                <polygon id="Fill-7" fill="#ADADAD" transform="translate(428.427049, 281.354590) scale(-1, 1) translate(-428.427049, -281.354590) " points="425.089799 282.153203 431.764299 282.153203 431.764299 280.555977 425.089799 280.555977"></polygon>
                <path d="M428.598984,267.550598 L423.851774,264.284267 C422.838389,263.691609 421.597486,264.564688 421.812929,265.718762 L422.369552,268.700263 C422.508517,269.444153 423.22423,269.934649 423.96812,269.795685 L428.158706,270.080513 C429.441586,269.826161 429.700347,268.304646 428.598984,267.550598" id="Fill-9" fill="#8E5229" transform="translate(425.540158, 267.086910) scale(-1, 1) rotate(-34.000000) translate(-425.540158, -267.086910) "></path>
                <path d="M432.817905,277.099297 C430.083664,279.920942 425.57969,279.99167 422.758045,277.257429 C419.9364,274.522996 419.86318,270.247306 422.597422,267.425662 C425.331663,264.604017 429.835637,264.533289 432.657282,267.26753 C435.478927,270.001963 435.552147,274.277653 432.817905,277.099297" id="Fill-10" fill="#AA6739" transform="translate(427.707663, 272.262479) scale(-1, 1) rotate(-34.000000) translate(-427.707663, -272.262479) "></path>
                <path d="M427.720994,272.842689 C427.474589,272.924824 426.8576,275.022467 427.969266,277.225767 C427.969266,277.225767 429.365563,276.732956 430.104779,276.897227 C430.104779,276.897227 431.0904,273.201148 433.472317,272.297662 C435.854235,271.394176 428.051401,272.954742 428.051401,272.954742" id="Fill-1" fill="#000000" transform="translate(430.625797, 274.620980) scale(-1, 1) rotate(-48.000000) translate(-430.625797, -274.620980) "></path>
                <path d="M436.925563,264.653879 C437.144371,264.888457 437.150284,265.906932 436.533286,267.714233 C435.886061,269.608925 434.221019,270.976638 432.236306,271.243413 C428.935461,271.686942 424.570803,272.442914 424.331625,273.360199 C424.08522,274.304752 422.606789,268.432093 425.317247,266.214446 C428.027704,263.996798 435.775672,263.421853 436.925563,264.653879" id="Fill-3" fill="#000000" transform="translate(430.384277, 268.739674) scale(-1, 1) rotate(-30.000000) translate(-430.384277, -268.739674) "></path>
                <polygon id="Fill-13" fill="#AA6739" transform="translate(427.918359, 279.688552) scale(-1, 1) translate(-427.918359, -279.688552) " points="425.857855 280.683632 429.978863 280.683632 429.978863 278.693473 425.857855 278.693473"></polygon>
                <path d="M418.320482,306.257862 L437.301553,306.257862 L435.373701,287.907472 C435.373701,284.769564 433.056072,282.20208 430.223529,282.20208 L424.755888,282.20208 C421.923345,282.20208 419.605716,284.769564 419.605716,287.907472 L418.320482,306.257862 Z" id="Fill-14" fill="#0C57F1" transform="translate(427.811017, 294.229971) scale(-1, 1) translate(-427.811017, -294.229971) "></path>
                <path d="M425.268815,279.444544 L426.558261,278.005566 L421.164617,262.093407 L416.855384,265.900835 L419.443096,276.784283 L412.435335,283.609523 L417.97632,290.197953 L425.268815,279.444544 Z" id="Combined-Shape" fill="#0C57F1" transform="translate(419.496798, 276.145680) scale(-1, 1) translate(-419.496798, -276.145680) "></path>
                <polygon id="Rectangle-26-Copy" fill="#3E79F2" transform="translate(420.447728, 263.205820) rotate(43.000000) translate(-420.447728, -263.205820) " points="417.276637 262.300228 423.363302 261.954145 423.618819 264.000833 417.327044 264.457494"></polygon>
                <polygon id="Fill-27" fill="#28914F" points="262.989258 231.921495 262.989258 306.376026 279.960002 306.376026"></polygon>
                <polygon id="Fill-35" fill="#28914F" points="161.297859 269.637601 161.297859 306.308644 169.787183 306.308644"></polygon>
                <polygon id="Fill-36" fill="#28914F" points="287.745681 268.533194 287.745681 306.249299 296.050405 306.249299"></polygon>
                <polygon id="Fill-40" fill="#28914F" points="326 263.37798 326 306.37798 341 306.37798"></polygon>
                <polygon id="Fill-40-Copy-2" fill="#28914F" points="222.402312 263.473708 222.402312 306.394581 236.935579 306.394581"></polygon>
                <polygon id="Fill-40-Copy-3" fill="#28914F" points="356 271.37798 356 306.37798 368 306.37798"></polygon>
                <polygon id="Path-Copy" fill="#41C170" points="344 306.37798 356 272.37798 356 306.37798"></polygon>
                <path d="M312,306.147588 L326,265.147588 L326,306.147588 L312,306.147588 Z M207.569775,306.43755 L222.948242,263.473708 L222.948242,306.43755 L207.569775,306.43755 Z M279.440957,306.371424 L287.745681,270.451323 L287.745681,306.371424 L279.440957,306.371424 Z M153.210895,306.358448 L161.898438,270.535603 L161.898438,306.358448 L153.210895,306.358448 Z M81.5988422,306.455704 L90.3709708,281.376343 L90.3709708,306.455704 L81.5988422,306.455704 Z M245.703016,306.36919 L263.011719,232.621972 L263.011719,306.36919 L245.703016,306.36919 Z" id="Fill-44" fill="#41C170"></path>
                <path d="M277.884293,130.737191 C278.374135,128.956761 278.643548,127.067665 278.643548,125.120058 C278.643548,114.217195 270.425089,105.37798 260.288536,105.37798 C250.153344,105.37798 241.929443,114.213753 241.929443,125.115633 C241.710375,125.124484 241.488585,125.115633 241.268156,125.115633 C234.738745,125.115633 229.135951,129.366835 226.718037,135.43387 C224.37496,135.576953 222.422395,137.070943 221.724371,139.37798 L291.142228,139.37798 C291.142228,133.924581 287.031184,129.694796 281.965856,129.694796 C280.495876,129.694796 279.11298,130.074877 277.884293,130.737191 Z" id="Fill-45" fill="#FFECF5"></path>
                <path d="M342.345222,16.1168466 C342.637966,15.0820538 342.798976,13.9841047 342.798976,12.8521482 C342.798976,6.51536418 337.887383,1.37797954 331.82948,1.37797954 C325.772391,1.37797954 320.857545,6.51336376 320.857545,12.8495763 C320.726624,12.8547202 320.594076,12.8495763 320.462341,12.8495763 C316.560173,12.8495763 313.211778,15.3203905 311.766762,18.8465734 C310.36647,18.929734 309.19956,20.0371213 308.7824,21.3779795 L350.268554,21.3779795 C350.268554,18.2084444 347.811674,15.5110027 344.784484,15.5110027 C343.905981,15.5110027 343.079522,15.7319071 342.345222,16.1168466 Z" id="Fill-45-Copy" fill="#FFECF5"></path>
                <path d="M377.379571,69.3779795 C380.330428,69.3779795 383.001347,70.6354094 384.940309,72.669199 C386.228506,71.1433242 388.103239,70.1820359 390.194894,70.1820359 C394.078875,70.1820359 397.226456,73.4971171 397.226456,77.5885579 C397.226456,79.1344595 396.775244,80.5687221 396.008546,81.755845 C397.154957,82.8147109 397.87924,84.3687085 397.87924,86.1033738 C397.87924,86.2563447 397.889742,86.2254347 397.87924,86.3779795 L359.725733,86.3779795 C359.706747,86.1662064 359.680894,86.1353315 359.680894,85.9188712 C359.677663,81.7324094 362.898358,78.3402035 366.872825,78.3402035 C367.911381,73.2235589 372.219915,69.3779795 377.379571,69.3779795 Z" id="Fill-23" fill="#FFECF5"></path>
                <path d="M189.751169,117.169073 C189.976974,116.341239 190.101167,115.46288 190.101167,114.557315 C190.101167,109.487887 186.312651,105.37798 181.639939,105.37798 C176.967853,105.37798 173.176828,109.486287 173.176828,114.555257 C173.075843,114.559372 172.973603,114.555257 172.87199,114.555257 C169.862085,114.555257 167.279329,116.531908 166.164728,119.352855 C165.084624,119.419383 164.184538,120.305293 163.862765,121.37798 L195.862765,121.37798 C195.862765,118.842351 193.96767,116.684398 191.632673,116.684398 C190.955047,116.684398 190.317564,116.861122 189.751169,117.169073 Z" id="Fill-45-Copy" fill="#FFECF5" opacity="0.800000012"></path>
            </g>
        </g>
    </g>
</svg>