<svg xmlns="http://www.w3.org/2000/svg" width="62" height="62" viewBox="0 0 62 62">
  <g fill="none" fill-rule="evenodd">
    <polygon fill="#19C157" points="32.063 0 62 29.937 62 62 0 0"/>
    <path fill="#F1F1F1" d="M29.7111919,29.4071919 L27.5031919,24.7831919 C26.6925212,23.06585 25.9991948,21.4978657 25.4231919,20.0791919 L25.3911919,20.0791919 C25.4765257,21.8392007 25.5191919,23.4871842 25.5191919,25.0231919 L25.5191919,29.4071919 L23.2631919,29.4071919 L23.2631919,18.0151919 L26.6071919,18.0151919 L28.8151919,22.6391919 C29.6258626,24.3565338 30.319189,25.9245181 30.8951919,27.3431919 L30.9271919,27.3431919 C30.8418581,25.5831831 30.7991919,23.9351996 30.7991919,22.3991919 L30.7991919,18.0151919 L33.0551919,18.0151919 L33.0551919,29.4071919 L29.7111919,29.4071919 Z M40.0631919,27.7671919 C40.3511933,27.5591909 40.5218583,27.2845269 40.5751919,26.9431919 L42.8631919,26.9431919 C42.7565247,27.4445277 42.5298603,27.9031898 42.1831919,28.3191919 C41.8365235,28.735194 41.388528,29.0631907 40.8391919,29.3031919 C40.2898558,29.5431931 39.6685287,29.6631919 38.9751919,29.6631919 C38.132521,29.6631919 37.4071949,29.4791937 36.7991919,29.1111919 C36.1911889,28.7431901 35.7271935,28.2285285 35.4071919,27.5671919 C35.0871903,26.9058553 34.9271919,26.1431962 34.9271919,25.2791919 C34.9271919,24.4685212 35.0871903,23.7431951 35.4071919,23.1031919 C35.7271935,22.4631887 36.1911889,21.9565271 36.7991919,21.5831919 C37.4071949,21.2098567 38.1271877,21.0231919 38.9591919,21.0231919 C39.8871965,21.0231919 40.6818553,21.2658561 41.3431919,21.7511919 C42.0045285,22.2365277 42.4631906,22.8951877 42.7191919,23.7271919 C42.8898594,24.2711946 42.9751919,24.964521 42.9751919,25.8071919 L37.1351919,25.8071919 C37.1671921,26.5965292 37.3511902,27.1725234 37.6871919,27.5351919 C38.0231936,27.8978604 38.4525226,28.0791919 38.9751919,28.0791919 C39.4125274,28.0791919 39.7751905,27.9751929 40.0631919,27.7671919 Z M37.7831919,23.0551919 C37.4685237,23.3538601 37.2685257,23.8018556 37.1831919,24.3991919 L40.7351919,24.3991919 C40.6711916,23.8125223 40.4765269,23.3671934 40.1511919,23.0631919 C39.8258569,22.7591904 39.4285276,22.6071919 38.9591919,22.6071919 C38.4898562,22.6071919 38.0978601,22.7565237 37.7831919,23.0551919 Z M51.4231919,29.4071919 L50.7031919,26.2071919 C50.4578573,25.097853 50.2338596,23.9405313 50.0311919,22.7351919 L49.9991919,22.7351919 C49.7965242,23.9405313 49.5725265,25.097853 49.3271919,26.2071919 L48.6071919,29.4071919 L45.4071919,29.4071919 L43.6151919,21.2791919 L45.8391919,21.2791919 L46.4471919,24.4151919 C46.7031932,25.7271985 46.9005245,26.9058533 47.0391919,27.9511919 L47.0711919,27.9511919 C47.2631929,26.7565193 47.4925239,25.5885309 47.7591919,24.4471919 L48.4791919,21.2791919 L51.5511919,21.2791919 L52.2711919,24.4471919 C52.5378599,25.5885309 52.7671909,26.7565193 52.9591919,27.9511919 L52.9911919,27.9511919 C53.1298593,26.9058533 53.3271906,25.7271985 53.5831919,24.4151919 L54.1911919,21.2791919 L56.4151919,21.2791919 L54.6231919,29.4071919 L51.4231919,29.4071919 Z" transform="rotate(45 39.84 23.84)"/>
  </g>
</svg>
