<?xml version="1.0" encoding="UTF-8"?>
<svg width="106px" height="27px" viewBox="0 0 106 27" version="1.1" xmlns="http://www.w3.org/2000/svg" xmlns:xlink="http://www.w3.org/1999/xlink">
    <!-- Generator: Sketch 46.2 (44496) - http://www.bohemiancoding.com/sketch -->
    <title>icon-product-hunt-small</title>
    <desc>Created with Sketch.</desc>
    <defs>
        <polygon id="path-1" points="6.18036096 6.14875635 0.0101864397 6.14875635 0.0101864397 0.0272799823 6.18036096 0.0272799823"></polygon>
        <polygon id="path-3" points="6.01922255 0 0.0908991147 0 0.0908991147 8.19833155 6.01922255 8.19833155 6.01922255 0"></polygon>
        <polygon id="path-5" points="5.42069236 6.14875635 0.0233140345 6.14875635 0.0233140345 0.0272799823 5.42069236 0.0272799823 5.42069236 6.14875635"></polygon>
        <polygon id="path-7" points="3.92213796 7.58346617 0.034791713 7.58346617 0.034791713 0.012820157 3.92213796 0.012820157 3.92213796 7.58346617"></polygon>
        <polygon id="path-9" points="3.91194127 0.012820157 3.91194127 7.58346617 0.024646265 7.58346617 0.024646265 0.012820157"></polygon>
    </defs>
    <g id="Last" stroke="none" stroke-width="1" fill="none" fill-rule="evenodd">
        <g id="Mobile-Copy" transform="translate(-118.000000, -3677.000000)">
            <g id="Group-20" transform="translate(19.242188, 3676.386719)">
                <g id="icon-product-hunt-small" transform="translate(98.287572, 1.000000)">
                    <g id="Page-1" transform="translate(0.284075, 0.059822)">
                        <path d="M26.5774383,13.0088452 C26.5774383,20.1934136 20.7531615,26.0176904 13.5685931,26.0176904 C6.38402477,26.0176904 0.559747968,20.1934136 0.559747968,13.0088452 C0.559747968,5.8242768 6.38402477,0 13.5685931,0 C20.7531615,0 26.5774383,5.8242768 26.5774383,13.0088452" id="Fill-1" fill="#DA552F"></path>
                        <path d="M15.3031004,13.0088072 L15.3031004,13.0088614 L11.6172609,13.0088614 L11.6172609,9.10620788 L15.3031004,9.10620788 L15.3031004,9.10620788 C16.3807748,9.10620788 17.254373,9.97980604 17.254373,11.0574805 C17.254373,12.1351549 16.3807748,13.0088072 15.3031004,13.0088072 M15.3031004,6.50443885 L15.3031004,6.50443885 L9.01549191,6.50443885 L9.01549191,19.513284 L11.6172609,19.513284 L11.6172609,15.6106305 L15.3031004,15.6106305 L15.3031004,15.6106305 C17.8177102,15.6106305 19.8561962,13.5721444 19.8561962,11.0575347 C19.8561962,8.54292489 17.8177102,6.50443885 15.3031004,6.50443885" id="Fill-3" fill="#FFFFFF"></path>
                    </g>
                    <g id="Page-1" transform="translate(33.637690, 9.818996)">
                        <g id="Group-3" fill="#DA552F">
                            <path d="M4.72100488,2.59596394 C4.72100488,1.91960074 4.20092257,1.50906878 3.52548168,1.50906878 L1.71457046,1.50906878 L1.71457046,3.67056159 L3.52548168,3.67056159 C4.20092257,3.67056159 4.72100488,3.26002963 4.72100488,2.59596394 L4.72100488,2.59596394 Z M-1.02479272e-05,8.19830081 L-1.02479272e-05,-4.0991709e-05 L3.76641045,-4.0991709e-05 C5.5173713,-4.0991709e-05 6.47094093,1.18318469 6.47094093,2.59596394 C6.47094093,3.99644568 5.50558619,5.17967136 3.76641045,5.17967136 L1.71457046,5.17967136 L1.71457046,8.19830081 L-1.02479272e-05,8.19830081 Z" id="Fill-1"></path>
                        </g>
                        <path d="M7.51407745,8.1983418 L7.51407745,2.22134071 L9.04675745,2.22134071 L9.04675745,3.00643442 C9.46948445,2.49916202 10.1823303,2.07684494 10.9068587,2.07684494 L10.9068587,3.57365719 C10.7977183,3.54957456 10.6650076,3.53778945 10.4841317,3.53778945 C9.97685933,3.53778945 9.30039365,3.82729339 9.04675745,4.20195761 L9.04675745,8.1983418 L7.51407745,8.1983418 Z" id="Fill-4" fill="#DA552F"></path>
                        <g id="Group-8" transform="translate(11.477679, 2.049585)">
                            <mask id="mask-2" fill="white">
                                <use xlink:href="#path-1"></use>
                            </mask>
                            <g id="Clip-7"></g>
                            <path d="M4.58670579,3.08187966 C4.58670579,2.17637281 4.05483837,1.39138158 3.08938114,1.39138158 C2.13478672,1.39138158 1.60384161,2.17637281 1.60384161,3.08187966 C1.60384161,3.99968402 2.13478672,4.78416285 3.08938114,4.78416285 C4.05483837,4.78416285 4.58670579,3.99968402 4.58670579,3.08187966 M0.0101864397,3.08187966 C0.0101864397,1.42776172 1.16932949,0.0272799823 3.08938114,0.0272799823 C5.02121791,0.0272799823 6.18036096,1.42776172 6.18036096,3.08187966 C6.18036096,4.7359976 5.02121791,6.14877685 3.08938114,6.14877685 C1.16932949,6.14877685 0.0101864397,4.7359976 0.0101864397,3.08187966" id="Fill-6" fill="#DA552F" mask="url(#mask-2)"></path>
                        </g>
                        <g id="Group-11" transform="translate(18.343790, 0.000000)">
                            <mask id="mask-4" fill="white">
                                <use xlink:href="#path-3"></use>
                            </mask>
                            <g id="Clip-10"></g>
                            <path d="M4.47373264,6.16965187 L4.47373264,4.10510445 C4.22009644,3.71865511 3.66465878,3.44093628 3.15728391,3.44093628 C2.27647456,3.44093628 1.67276917,4.12918708 1.67276917,5.13143436 C1.67276917,6.14556924 2.27647456,6.83371756 3.15728391,6.83371756 C3.66465878,6.83371756 4.22009644,6.55599873 4.47373264,6.16965187 L4.47373264,6.16965187 Z M4.47373264,8.19833155 L4.47373264,7.3047123 C4.0146255,7.88423258 3.38734987,8.19833155 2.67460653,8.19833155 C1.21366202,8.19833155 0.0908991147,7.08745624 0.0908991147,5.13143436 C0.0908991147,3.23597774 1.19009179,2.07683469 2.67460653,2.07683469 C3.36275485,2.07683469 4.0146255,2.36644111 4.47373264,2.97004403 L4.47373264,-1.02479273e-05 L6.01922255,-1.02479273e-05 L6.01922255,8.19833155 L4.47373264,8.19833155 Z" id="Fill-9" fill="#DA552F" mask="url(#mask-4)"></path>
                        </g>
                        <path d="M29.824307,8.1983418 L29.824307,7.31691758 C29.426175,7.75153217 28.7261391,8.1983418 27.772467,8.1983418 C26.4925009,8.1983418 25.8887955,7.49789597 25.8887955,6.36283555 L25.8887955,2.22134071 L27.421578,2.22134071 L27.421578,5.75923264 C27.421578,6.56830649 27.8443049,6.83372781 28.4960731,6.83372781 C29.0878909,6.83372781 29.5588857,6.50784372 29.824307,6.16966212 L29.824307,2.22134071 L31.3580118,2.22134071 L31.3580118,8.1983418 L29.824307,8.1983418 Z" id="Fill-12" fill="#DA552F"></path>
                        <g id="Group-16" transform="translate(32.485929, 2.049585)">
                            <mask id="mask-6" fill="white">
                                <use xlink:href="#path-5"></use>
                            </mask>
                            <g id="Clip-15"></g>
                            <path d="M0.0233140345,3.08187966 C0.0233140345,1.29505106 1.32695286,0.0272799823 3.11429385,0.0272799823 C4.30981704,0.0272799823 5.0343455,0.546337498 5.42069236,1.077795 L4.41793268,2.01906712 C4.14062377,1.60863764 3.71789677,1.39138158 3.18705414,1.39138158 C2.25695226,1.39138158 1.60518408,2.06774478 1.60518408,3.08187966 C1.60518408,4.09601454 2.25695226,4.78416285 3.18705414,4.78416285 C3.71789677,4.78416285 4.14062377,4.54282417 4.41793268,4.1441798 L5.42069236,5.08596431 C5.0343455,5.61742182 4.30981704,6.14877685 3.11429385,6.14877685 C1.32695286,6.14877685 0.0233140345,4.88100577 0.0233140345,3.08187966" id="Fill-14" fill="#DA552F" mask="url(#mask-6)"></path>
                        </g>
                        <g id="Group-19" transform="translate(38.224769, 0.614876)">
                            <mask id="mask-8" fill="white">
                                <use xlink:href="#path-7"></use>
                            </mask>
                            <g id="Clip-18"></g>
                            <path d="M1.00024894,5.97752373 L1.00024894,2.94700669 L0.034791713,2.94700669 L0.034791713,1.60647532 L1.00024894,1.60647532 L1.00024894,0.012820157 L2.53395373,0.012820157 L2.53395373,1.60647532 L3.71666702,1.60647532 L3.71666702,2.94700669 L2.53395373,2.94700669 L2.53395373,5.56709425 C2.53395373,5.94114359 2.72661476,6.21886242 3.06479636,6.21886242 C3.29394002,6.21886242 3.51211839,6.13431702 3.59574147,6.0379865 L3.92213796,7.20891467 C3.69309678,7.41438561 3.28205242,7.58347641 2.64206936,7.58347641 C1.56747171,7.58347641 1.00024894,7.02803876 1.00024894,5.97752373" id="Fill-17" fill="#DA552F" mask="url(#mask-8)"></path>
                        </g>
                        <polygon id="Fill-20" fill="#DA552F" points="51.7633976 8.1983418 51.7633976 4.66055235 47.9596744 4.66055235 47.9596744 8.1983418 46.246016 8.1983418 46.246016 0 47.9596744 0 47.9596744 3.1632277 51.7633976 3.1632277 51.7633976 0 53.4897634 0 53.4897634 8.1983418"></polygon>
                        <path d="M58.9766471,8.1983418 L58.9766471,7.31691758 C58.5785151,7.75153217 57.8784792,8.1983418 56.9248071,8.1983418 C55.644841,8.1983418 55.0411356,7.49789597 55.0411356,6.36283555 L55.0411356,2.22134071 L56.5739181,2.22134071 L56.5739181,5.75923264 C56.5739181,6.56830649 56.9966451,6.83372781 57.6484133,6.83372781 C58.2402311,6.83372781 58.7112258,6.50784372 58.9766471,6.16966212 L58.9766471,2.22134071 L60.5103519,2.22134071 L60.5103519,8.1983418 L58.9766471,8.1983418 Z" id="Fill-22" fill="#DA552F"></path>
                        <path d="M65.9706525,8.1983418 L65.9706525,4.5278417 C65.9706525,3.71866536 65.5488478,3.44094653 64.8960548,3.44094653 C64.2924519,3.44094653 63.8342671,3.77912813 63.5679235,4.11730973 L63.5679235,8.1983418 L62.035141,8.1983418 L62.035141,2.22134071 L63.5679235,2.22134071 L63.5679235,2.97005428 C63.9424852,2.53554216 64.6670137,2.07684494 65.6089007,2.07684494 C66.9006519,2.07684494 67.5161424,2.80096348 67.5161424,3.93592142 L67.5161424,8.1983418 L65.9706525,8.1983418 Z" id="Fill-24" fill="#DA552F"></path>
                        <g id="Group-28" transform="translate(68.353675, 0.614876)">
                            <mask id="mask-10" fill="white">
                                <use xlink:href="#path-9"></use>
                            </mask>
                            <g id="Clip-27"></g>
                            <path d="M0.990103491,5.97752373 L0.990103491,2.94700669 L0.024646265,2.94700669 L0.024646265,1.60647532 L0.990103491,1.60647532 L0.990103491,0.012820157 L2.52380828,0.012820157 L2.52380828,1.60647532 L3.70652157,1.60647532 L3.70652157,2.94700669 L2.52380828,2.94700669 L2.52380828,5.56709425 C2.52380828,5.94114359 2.71646932,6.21886242 3.05465092,6.21886242 C3.28379457,6.21886242 3.50197294,6.13431702 3.58651834,6.0379865 L3.91199251,7.20891467 C3.68284886,7.41438561 3.27190697,7.58347641 2.63192392,7.58347641 C1.55732626,7.58347641 0.990103491,7.02803876 0.990103491,5.97752373" id="Fill-26" fill="#DA552F" mask="url(#mask-10)"></path>
                        </g>
                    </g>
                </g>
            </g>
        </g>
    </g>
</svg>