<svg xmlns="http://www.w3.org/2000/svg" xmlns:xlink="http://www.w3.org/1999/xlink" width="933" height="629" viewBox="0 0 933 629">
  <defs>
    <polygon id="header-background-a" points=".041 .024 4.875 .024 4.875 4.858 .041 4.858"/>
    <polygon id="header-background-c" points="0 14.4 14.332 14.4 14.332 .068 0 .068"/>
    <polygon id="header-background-e" points="8.47 .264 8.47 7.903 .345 7.903 .345 .264"/>
    <polygon id="header-background-g" points="0 109.769 37.96 109.769 37.96 0 0 0"/>
    <polygon id="header-background-i" points="0 109.769 37.96 109.769 37.96 0 0 0"/>
    <polygon id="header-background-k" points="0 109.769 37.96 109.769 37.96 0 0 0"/>
    <polygon id="header-background-m" points="0 109.769 37.96 109.769 37.96 0 0 0"/>
    <polygon id="header-background-o" points="0 109.769 37.96 109.769 37.96 0 0 0"/>
    <polygon id="header-background-q" points="0 109.769 37.96 109.769 37.96 0 0 0"/>
    <polygon id="header-background-s" points="0 109.769 37.96 109.769 37.96 0 0 0"/>
    <polygon id="header-background-u" points="0 109.769 37.96 109.769 37.96 0 0 0"/>
    <polygon id="header-background-w" points="0 109.769 37.96 109.769 37.96 0 0 0"/>
    <polygon id="header-background-y" points="0 109.769 37.96 109.769 37.96 0 0 0"/>
    <polygon id="header-background-A" points="0 109.769 37.96 109.769 37.96 0 0 0"/>
    <polygon id="header-background-C" points="0 109.769 37.96 109.769 37.96 0 0 0"/>
    <polygon id="header-background-E" points="0 109.769 37.96 109.769 37.96 0 0 0"/>
  </defs>
  <g fill="none" fill-rule="evenodd" transform="translate(-1)">
    <polygon fill="#00BDFF" fill-rule="nonzero" points="833.009 173.363 833.009 43 689.3 173.363"/>
    <polygon fill="#0A9DFF" fill-rule="nonzero" points="833 43 833 173.363 976.747 173.363"/>
    <polygon fill="#1599FF" fill-rule="nonzero" points="833.349 41.701 208.136 613.226 833.349 613.226 833.349 172.967 689.753 172.967"/>
    <polygon fill="#1560FA" fill-rule="nonzero" points="976.925 173 833 173 833 613.297 1459.644 613.297"/>
    <polygon fill="#f83a5c" fill-rule="nonzero" points="833 39.808 833 0 855.575 19.904"/>
    <path fill="#2D2D2D" fill-rule="nonzero" d="M619.583834,479.799988 L665.542969,479.799988 L665.542969,479.799988 C667.199823,479.799988 668.542969,481.143134 668.542969,482.799988 L668.542969,613.153994 L616.583834,613.153994 L616.583834,482.799988 L616.583834,482.799988 C616.583834,481.143134 617.92698,479.799988 619.583834,479.799988 Z"/>
    <g fill-rule="nonzero" transform="translate(684 409.878)">
      <polygon fill="#188640" points="54.359 .722 54.359 203.365 108.695 203.365"/>
      <polygon fill="#188640" points="149 100.822 149 203.364 180.049 203.364"/>
      <path fill="#2FB862" d="M242.709193,203.422902 L250.648749,186.822012 L250.648749,203.422902 L242.709193,203.422902 Z M118,203.361963 L149.049154,100.722006 L149.049154,203.361963 L118,203.361963 Z M0.112163387,203.323884 L54.3614492,1.122 L54.3614492,203.323884 L0.112163387,203.323884 Z"/>
    </g>
    <path fill="#FAFAFA" fill-rule="nonzero" d="M949.081585,152.216904 C954.74581,152.216904 959.337209,157.341052 959.337209,163.497781 C959.337209,169.65451 954.74581,174.603384 949.081585,174.603384 L932.678093,174.603384 L898.839582,174.603384 C894.876827,174.603384 891.662939,171.147231 891.662939,166.842987 C891.662939,162.531786 894.876827,158.907316 898.839582,158.899365 C900.000509,158.899365 901.07517,159.226333 902.041539,159.75604 C902.674772,154.260202 906.941295,149.986766 912.171434,149.986766 C913.933474,149.986766 915.562443,150.513492 917.011538,151.36321 C919.091112,144.10632 925.31974,138.839061 932.678093,138.839061 C940.338379,138.839061 946.753306,144.55354 948.559397,152.27057 C948.734683,152.263613 948.902628,152.216904 949.081585,152.216904 Z M733.932245,257.53494 C739.283736,257.53494 744.127549,259.876029 747.643929,263.662549 C749.980124,260.821668 753.380023,259.031936 757.173318,259.031936 C764.217067,259.031936 769.925323,265.203971 769.925323,272.821435 C769.925323,275.699603 769.107032,278.36992 767.716597,280.580111 C769.795657,282.551513 771.109171,285.444753 771.109171,288.674361 C771.109171,288.959164 771.128218,288.901615 771.109171,289.185624 L701.916339,289.185624 C701.881907,288.791343 701.835022,288.73386 701.835022,288.330854 C701.829162,280.536478 707.670015,274.220853 714.877861,274.220853 C716.761322,264.694659 724.575011,257.53494 733.932245,257.53494 Z M412.119518,312.825317 C412.910704,309.952703 413.345856,306.904765 413.345856,303.762422 C413.345856,286.17133 400.071521,271.909805 383.69911,271.909805 C367.328897,271.909805 354.045772,286.165777 354.045772,303.755282 C353.691936,303.769562 353.333705,303.755282 352.977671,303.755282 C342.431462,303.755282 333.381912,310.614332 329.476532,320.403115 C325.692028,320.633971 322.538275,323.044431 321.410836,326.766691 L433.533539,326.766691 C433.533539,317.967972 426.893442,311.143477 418.711998,311.143477 C416.337709,311.143477 414.104075,311.756714 412.119518,312.825317 Z M584.179603,164.946943 C584.594368,163.441026 584.822488,161.843199 584.822488,160.195881 C584.822488,150.974063 577.863654,143.497711 569.280707,143.497711 C560.698912,143.497711 553.735469,150.971152 553.735469,160.192138 C553.549977,160.199624 553.362181,160.192138 553.175536,160.192138 C547.646873,160.192138 542.902806,163.787874 540.85548,168.91947 C538.871521,169.040492 537.218222,170.652055 536.627182,172.603384 L595.405524,172.603384 C595.405524,167.990811 591.924571,164.065269 587.635593,164.065269 C586.390914,164.065269 585.219971,164.386747 584.179603,164.946943 Z"/>
    <g transform="translate(0 521.707)">
      <g transform="translate(.727 .27)">
        <polygon fill="#1D365B" fill-rule="nonzero" points="28.979 63.181 7.084 74.287 12.603 85.194 36.399 71.353 48.267 48.059 37.719 41.041"/>
        <path fill="#5D5C5C" fill-rule="nonzero" d="M7.82994782,81.4285004 L8.31058445,82.1270966 L19.4218875,81.4882614 L19.4218875,89.7044839 L5.10743936,89.8874136 L0.0949358123,80.0498215 L0.0949358123,80.0498215 L0.0949358123,80.0498215 C2.58451857,78.2897394 6.02955256,78.8811166 7.78963459,81.3706994 C7.80319517,81.3898804 7.81663319,81.4091478 7.82994782,81.4285004 Z" transform="scale(-1 1) rotate(-63 0 100.386)"/>
        <path fill="#7A7474" fill-rule="nonzero" d="M35.5080498,81.2480991 L35.9784472,82.1713061 L48.4091714,80.914822 L48.4091714,89.5870365 L33.3002859,89.7801186 L28.0095935,79.39655 L28.0095935,79.39655 L28.0095935,79.39655 C30.3126496,77.7683383 33.4995719,78.3154079 35.1277836,80.618464 C35.2695083,80.8189294 35.3965933,81.0293534 35.5080498,81.2480991 Z" transform="scale(-1 1) rotate(-63 0 146.472)"/>
        <polygon fill="#274575" fill-rule="nonzero" points="34.966 74.794 40.36 84.314 61.337 69.581 51.501 42.619 39.412 43.551 48.152 65.859"/>
        <path fill="#8E5034" fill-rule="nonzero" d="M93.3303604,6.55732211 C94.9615056,7.65252641 94.6007212,9.8952916 92.7158846,10.287014 L86.5444726,9.92337376 C85.4511722,10.1375597 84.3916655,9.42503438 84.1770036,8.33173395 L83.3183558,3.95091673 C82.9861295,2.25551571 84.8005228,0.954216892 86.3003006,1.81286468 L93.3303604,6.55732211 Z"/>
        <path fill="#AA6739" fill-rule="nonzero" d="M74.0605714,4.04829995 C70.0733804,8.23730173 70.2375897,14.8656438 74.4265915,18.8523589 C78.6155932,22.8395499 85.2439353,22.6753406 89.2306504,18.4863388 C93.2178414,14.297337 93.0536321,7.66899494 88.8646303,3.68227991 C84.6756285,-0.304911084 78.0472864,-0.140701833 74.0605714,4.04829995"/>
        <path fill="#1560FA" fill-rule="nonzero" d="M58.3712023,60.5596255 L76.0515491,35.3903247 C79.1910396,32.1147071 79.0796629,26.8652467 75.8035693,23.7257562 L69.4913195,17.9512271 C66.2152259,14.8117366 60.5731628,15.367835 55.9794128,19.9322881 L37.086046,41.1445865 L58.3712023,60.5596255 Z"/>
        <polygon fill="#AA6739" fill-rule="nonzero" points="107.653 45.454 81.268 37.27 83.266 31.471 109.65 39.655"/>
        <path fill="#AA6739" fill-rule="nonzero" d="M104.97846,44.2686667 C104.954186,47.2458518 107.347833,49.6785286 110.325018,49.702803 C113.302203,49.7270774 115.73488,47.3334301 115.759155,44.356245 C115.783429,41.3790598 113.389782,38.9463831 110.412597,38.9221087 L105.910883,39.039197 C105.910883,39.039197 104.345898,39.0263459 103.993681,39.5451519"/>
        <path stroke="#333" stroke-width="1.831" d="M174.86046,66.0244693 L119.028251,48.3759922"/>
        <path fill="#333" fill-rule="nonzero" d="M125.474821,53.2647158 L109.056276,47.1066309 C108.566028,46.922431 108.315192,46.3712591 108.498916,45.8810111 L109.445618,43.3579003 C109.629342,42.8676524 110.18099,42.6168168 110.671238,42.8010168 L127.089783,48.9591016 C127.580031,49.1428256 127.830867,49.6944735 127.646667,50.1847214 L126.700441,52.7078323 C126.516717,53.1980802 125.965069,53.4484398 125.474821,53.2647158"/>
        <polygon fill="#1560FA" fill-rule="nonzero" points="84.568 41.108 61.725 33.511 65.329 22.671 88.173 30.268"/>
      </g>
      <polygon fill="#AA6739" fill-rule="nonzero" points="70.721 19.429 76.036 24.523 82.829 17.436 77.514 12.342"/>
      <path fill="#333" fill-rule="nonzero" d="M292.813364,86.2153685 C292.749729,89.1378184 290.328466,91.4549526 287.406016,91.3913181 C284.483566,91.3271578 282.166432,88.9064205 282.230592,85.9839706 C282.294227,83.0615206 284.714964,80.7443865 287.637414,80.8080209 C290.559864,80.8721812 292.876998,83.2929185 292.813364,86.2153685 M304.651416,86.1001428 C304.651416,89.0231187 302.281165,91.3928433 299.35819,91.3923174 C296.435214,91.3923174 294.065489,89.0225928 294.066015,86.0996169 C294.066015,83.1761152 296.43574,80.8069165 299.359241,80.8069165 C302.282217,80.8074424 304.651416,83.177167 304.651416,86.1001428"/>
      <polygon fill="#FFD00B" fill-rule="nonzero" points="319.263 86.684 182.176 86.684 182.176 77.927 319.264 77.937"/>
      <polygon fill="#FFD00B" fill-rule="nonzero" points="181.277 86.684 181.279 55.158 190.584 55.158 213.032 86.684"/>
      <path fill="#333" fill-rule="nonzero" d="M203.614112,83.2706727 C203.613586,88.5323448 199.347976,92.7974284 194.086304,92.7969024 C188.824632,92.7963765 184.559549,88.5307671 184.560075,83.269095 C184.560601,78.007423 188.82621,73.7423394 194.087882,73.7428653 C199.349554,73.7433912 203.614638,78.0090007 203.614112,83.2706727"/>
      <polygon fill="#FFD00B" fill-rule="nonzero" points="175.987 60.972 186.995 60.972 186.995 55.159 175.987 55.159"/>
      <polygon fill="#333" fill-rule="nonzero" points="170.394 71.252 180.132 71.252 180.132 61.937 170.394 61.937"/>
      <polygon fill="#EFBA35" fill-rule="nonzero" points="207.188 86.684 319.249 86.684 319.249 77.853 207.188 77.853"/>
      <polygon fill="#3FAF64" fill-rule="nonzero" points="230.522 65.952 246.649 65.952 246.649 60.201 230.522 60.201"/>
      <polygon fill="#F76D37" fill-rule="nonzero" points="236.34 65.952 240.81 65.952 240.81 60.201 236.34 60.201"/>
      <polygon fill="#E5B883" fill-rule="nonzero" points="236.954 65.952 240.196 65.952 240.196 60.201 236.954 60.201"/>
      <polygon fill="#00C546" fill-rule="nonzero" points="230.892 71.776 247.02 71.776 247.02 66.024 230.892 66.024"/>
      <polygon fill="#F76D37" fill-rule="nonzero" points="236.711 71.776 241.181 71.776 241.181 66.024 236.711 66.024"/>
      <polygon fill="#E5B883" fill-rule="nonzero" points="237.325 71.776 240.567 71.776 240.567 66.024 237.325 66.024"/>
      <polygon fill="#00C546" fill-rule="nonzero" points="247.163 71.776 263.291 71.776 263.291 66.024 247.163 66.024"/>
      <polygon fill="#F76D37" fill-rule="nonzero" points="252.981 71.776 257.452 71.776 257.452 66.024 252.981 66.024"/>
      <polygon fill="#E5B883" fill-rule="nonzero" points="253.596 71.776 256.838 71.776 256.838 66.024 253.596 66.024"/>
      <polygon fill="#EACAA4" fill-rule="nonzero" points="220.885 83.509 324.46 83.509 324.46 80.261 220.885 80.261"/>
      <polygon fill="#EACAA4" fill-rule="nonzero" points="220.885 74.938 324.46 74.938 324.46 71.69 220.885 71.69"/>
      <polygon fill="#A88763" fill-rule="nonzero" points="230.12 80.282 220.886 80.282 220.917 74.899 230.12 74.899"/>
      <polygon fill="#A88763" fill-rule="nonzero" points="265.624 80.283 274.827 80.283 274.827 74.899 265.624 74.899"/>
      <polygon fill="#A88763" fill-rule="nonzero" points="315.327 80.283 324.46 80.283 324.46 74.899 315.327 74.899"/>
      <polygon fill="#7F6B54" fill-rule="nonzero" points="220.855 84.436 324.43 84.436 324.43 83.415 220.855 83.415"/>
      <polygon fill="#3FAF64" fill-rule="nonzero" points="246.825 65.952 262.952 65.952 262.952 60.201 246.825 60.201"/>
      <polygon fill="#F76D37" fill-rule="nonzero" points="252.643 65.952 257.113 65.952 257.113 60.201 252.643 60.201"/>
      <polygon fill="#E5B883" fill-rule="nonzero" points="253.257 65.952 256.499 65.952 256.499 60.201 253.257 60.201"/>
      <polygon fill="#00C546" fill-rule="nonzero" points="263.409 71.776 279.537 71.776 279.537 66.025 263.409 66.025"/>
      <polygon fill="#F76D37" fill-rule="nonzero" points="269.227 71.776 273.697 71.776 273.697 66.025 269.227 66.025"/>
      <polygon fill="#E5B883" fill-rule="nonzero" points="269.841 71.776 273.083 71.776 273.083 66.025 269.841 66.025"/>
      <polygon fill="#3FAF64" fill-rule="nonzero" points="263.442 65.953 279.569 65.953 279.569 60.201 263.442 60.201"/>
      <polygon fill="#F76D37" fill-rule="nonzero" points="269.26 65.953 273.73 65.953 273.73 60.201 269.26 60.201"/>
      <polygon fill="#E5B883" fill-rule="nonzero" points="269.873 65.953 273.116 65.953 273.116 60.201 269.873 60.201"/>
      <polygon fill="#00C546" fill-rule="nonzero" points="279.843 71.776 295.971 71.776 295.971 66.025 279.843 66.025"/>
      <polygon fill="#F76D37" fill-rule="nonzero" points="285.662 71.776 290.132 71.776 290.132 66.025 285.662 66.025"/>
      <polygon fill="#E5B883" fill-rule="nonzero" points="286.276 71.776 289.518 71.776 289.518 66.025 286.276 66.025"/>
      <polygon fill="#3FAF64" fill-rule="nonzero" points="279.69 65.953 295.818 65.953 295.818 60.201 279.69 60.201"/>
      <polygon fill="#F76D37" fill-rule="nonzero" points="285.509 65.953 289.979 65.953 289.979 60.201 285.509 60.201"/>
      <polygon fill="#E5B883" fill-rule="nonzero" points="286.123 65.953 289.365 65.953 289.365 60.201 286.123 60.201"/>
      <polygon fill="#00C546" fill-rule="nonzero" points="296.146 71.776 312.274 71.776 312.274 66.025 296.146 66.025"/>
      <polygon fill="#F76D37" fill-rule="nonzero" points="301.965 71.776 306.435 71.776 306.435 66.025 301.965 66.025"/>
      <polygon fill="#E5B883" fill-rule="nonzero" points="302.579 71.776 305.821 71.776 305.821 66.025 302.579 66.025"/>
      <polygon fill="#3FAF64" fill-rule="nonzero" points="296.179 65.953 312.307 65.953 312.307 60.201 296.179 60.201"/>
      <polygon fill="#F76D37" fill-rule="nonzero" points="301.997 65.953 306.467 65.953 306.467 60.201 301.997 60.201"/>
      <polygon fill="#E5B883" fill-rule="nonzero" points="302.611 65.953 305.853 65.953 305.853 60.201 302.611 60.201"/>
      <polygon fill="#3FAF64" fill-rule="nonzero" points="230.892 54.251 247.02 54.251 247.02 48.5 230.892 48.5"/>
      <polygon fill="#F76D37" fill-rule="nonzero" points="236.711 54.251 241.181 54.251 241.181 48.5 236.711 48.5"/>
      <polygon fill="#E5B883" fill-rule="nonzero" points="237.325 54.251 240.567 54.251 240.567 48.5 237.325 48.5"/>
      <polygon fill="#00C546" fill-rule="nonzero" points="230.892 60.074 247.02 60.074 247.02 54.323 230.892 54.323"/>
      <polygon fill="#F76D37" fill-rule="nonzero" points="236.711 60.074 241.181 60.074 241.181 54.323 236.711 54.323"/>
      <polygon fill="#E5B883" fill-rule="nonzero" points="237.325 60.074 240.567 60.074 240.567 54.323 237.325 54.323"/>
      <polygon fill="#00C546" fill-rule="nonzero" points="247.163 60.074 263.291 60.074 263.291 54.323 247.163 54.323"/>
      <polygon fill="#F76D37" fill-rule="nonzero" points="252.981 60.074 257.452 60.074 257.452 54.323 252.981 54.323"/>
      <polygon fill="#E5B883" fill-rule="nonzero" points="253.596 60.074 256.838 60.074 256.838 54.323 253.596 54.323"/>
      <polygon fill="#3FAF64" fill-rule="nonzero" points="247.195 54.251 263.323 54.251 263.323 48.5 247.195 48.5"/>
      <polygon fill="#F76D37" fill-rule="nonzero" points="253.014 54.251 257.484 54.251 257.484 48.5 253.014 48.5"/>
      <polygon fill="#E5B883" fill-rule="nonzero" points="253.628 54.251 256.87 54.251 256.87 48.5 253.628 48.5"/>
      <polygon fill="#00C546" fill-rule="nonzero" points="263.409 60.075 279.537 60.075 279.537 54.323 263.409 54.323"/>
      <polygon fill="#F76D37" fill-rule="nonzero" points="269.227 60.075 273.697 60.075 273.697 54.323 269.227 54.323"/>
      <polygon fill="#E5B883" fill-rule="nonzero" points="269.841 60.075 273.083 60.075 273.083 54.323 269.841 54.323"/>
      <polygon fill="#3FAF64" fill-rule="nonzero" points="263.442 54.251 279.569 54.251 279.569 48.5 263.442 48.5"/>
      <polygon fill="#F76D37" fill-rule="nonzero" points="269.26 54.251 273.73 54.251 273.73 48.5 269.26 48.5"/>
      <polygon fill="#E5B883" fill-rule="nonzero" points="269.873 54.251 273.116 54.251 273.116 48.5 269.873 48.5"/>
      <polygon fill="#00C546" fill-rule="nonzero" points="279.843 60.075 295.971 60.075 295.971 54.323 279.843 54.323"/>
      <polygon fill="#F76D37" fill-rule="nonzero" points="285.662 60.075 290.132 60.075 290.132 54.323 285.662 54.323"/>
      <polygon fill="#E5B883" fill-rule="nonzero" points="286.276 60.075 289.518 60.075 289.518 54.323 286.276 54.323"/>
      <polygon fill="#3FAF64" fill-rule="nonzero" points="279.69 54.251 295.818 54.251 295.818 48.5 279.69 48.5"/>
      <polygon fill="#F76D37" fill-rule="nonzero" points="285.509 54.251 289.979 54.251 289.979 48.5 285.509 48.5"/>
      <polygon fill="#E5B883" fill-rule="nonzero" points="286.123 54.251 289.365 54.251 289.365 48.5 286.123 48.5"/>
      <polygon fill="#00C546" fill-rule="nonzero" points="297.075 60.075 313.203 60.075 313.203 54.323 297.075 54.323"/>
      <polygon fill="#F76D37" fill-rule="nonzero" points="302.893 60.075 307.363 60.075 307.363 54.323 302.893 54.323"/>
      <polygon fill="#E5B883" fill-rule="nonzero" points="303.507 60.075 306.749 60.075 306.749 54.323 303.507 54.323"/>
      <polygon fill="#3FAF64" fill-rule="nonzero" points="296.179 54.251 312.307 54.251 312.307 48.5 296.179 48.5"/>
      <polygon fill="#F76D37" fill-rule="nonzero" points="301.997 54.251 306.467 54.251 306.467 48.5 301.997 48.5"/>
      <polygon fill="#E5B883" fill-rule="nonzero" points="302.611 54.251 305.853 54.251 305.853 48.5 302.611 48.5"/>
      <polygon fill="#3FAF64" fill-rule="nonzero" points="229.408 42.549 245.536 42.549 245.536 36.798 229.408 36.798"/>
      <polygon fill="#F76D37" fill-rule="nonzero" points="235.226 42.549 239.696 42.549 239.696 36.798 235.226 36.798"/>
      <polygon fill="#E5B883" fill-rule="nonzero" points="235.84 42.549 239.082 42.549 239.082 36.798 235.84 36.798"/>
      <polygon fill="#00C546" fill-rule="nonzero" points="230.15 48.373 246.278 48.373 246.278 42.621 230.15 42.621"/>
      <polygon fill="#F76D37" fill-rule="nonzero" points="235.968 48.373 240.439 48.373 240.439 42.621 235.968 42.621"/>
      <polygon fill="#E5B883" fill-rule="nonzero" points="236.583 48.373 239.825 48.373 239.825 42.621 236.583 42.621"/>
      <polygon fill="#00C546" fill-rule="nonzero" points="247.163 48.373 263.291 48.373 263.291 42.621 247.163 42.621"/>
      <polygon fill="#F76D37" fill-rule="nonzero" points="252.981 48.373 257.452 48.373 257.452 42.621 252.981 42.621"/>
      <polygon fill="#E5B883" fill-rule="nonzero" points="253.596 48.373 256.838 48.373 256.838 42.621 253.596 42.621"/>
      <polygon fill="#3FAF64" fill-rule="nonzero" points="247.195 42.549 263.323 42.549 263.323 36.798 247.195 36.798"/>
      <polygon fill="#F76D37" fill-rule="nonzero" points="253.014 42.549 257.484 42.549 257.484 36.798 253.014 36.798"/>
      <polygon fill="#E5B883" fill-rule="nonzero" points="253.628 42.549 256.87 42.549 256.87 36.798 253.628 36.798"/>
      <polygon fill="#00C546" fill-rule="nonzero" points="251.526 36.648 267.654 36.648 267.654 30.897 251.526 30.897"/>
      <polygon fill="#F76D37" fill-rule="nonzero" points="257.344 36.648 261.814 36.648 261.814 30.897 257.344 30.897"/>
      <polygon fill="#E5B883" fill-rule="nonzero" points="257.958 36.648 261.2 36.648 261.2 30.897 257.958 30.897"/>
      <polygon fill="#3FAF64" fill-rule="nonzero" points="251.558 30.825 267.686 30.825 267.686 25.074 251.558 25.074"/>
      <polygon fill="#F76D37" fill-rule="nonzero" points="257.376 30.825 261.846 30.825 261.846 25.074 257.376 25.074"/>
      <polygon fill="#E5B883" fill-rule="nonzero" points="257.99 30.825 261.232 30.825 261.232 25.074 257.99 25.074"/>
      <polygon fill="#00C546" fill-rule="nonzero" points="263.409 48.373 279.537 48.373 279.537 42.622 263.409 42.622"/>
      <polygon fill="#F76D37" fill-rule="nonzero" points="269.227 48.373 273.697 48.373 273.697 42.622 269.227 42.622"/>
      <polygon fill="#E5B883" fill-rule="nonzero" points="269.841 48.373 273.083 48.373 273.083 42.622 269.841 42.622"/>
      <polygon fill="#3FAF64" fill-rule="nonzero" points="263.442 42.55 279.569 42.55 279.569 36.799 263.442 36.799"/>
      <polygon fill="#F76D37" fill-rule="nonzero" points="269.26 42.55 273.73 42.55 273.73 36.799 269.26 36.799"/>
      <polygon fill="#E5B883" fill-rule="nonzero" points="269.873 42.55 273.116 42.55 273.116 36.799 269.873 36.799"/>
      <polygon fill="#00C546" fill-rule="nonzero" points="279.843 48.373 295.971 48.373 295.971 42.622 279.843 42.622"/>
      <polygon fill="#F76D37" fill-rule="nonzero" points="285.662 48.373 290.132 48.373 290.132 42.622 285.662 42.622"/>
      <polygon fill="#E5B883" fill-rule="nonzero" points="286.276 48.373 289.518 48.373 289.518 42.622 286.276 42.622"/>
      <polygon fill="#3FAF64" fill-rule="nonzero" points="279.69 42.55 295.818 42.55 295.818 36.799 279.69 36.799"/>
      <polygon fill="#F76D37" fill-rule="nonzero" points="285.509 42.55 289.979 42.55 289.979 36.799 285.509 36.799"/>
      <polygon fill="#E5B883" fill-rule="nonzero" points="286.123 42.55 289.365 42.55 289.365 36.799 286.123 36.799"/>
      <polygon fill="#00C546" fill-rule="nonzero" points="296.146 48.373 312.274 48.373 312.274 42.622 296.146 42.622"/>
      <polygon fill="#F76D37" fill-rule="nonzero" points="301.965 48.373 306.435 48.373 306.435 42.622 301.965 42.622"/>
      <polygon fill="#E5B883" fill-rule="nonzero" points="302.579 48.373 305.821 48.373 305.821 42.622 302.579 42.622"/>
      <polygon fill="#00C546" fill-rule="nonzero" points="269.676 36.453 285.804 36.453 285.804 30.702 269.676 30.702"/>
      <polygon fill="#F76D37" fill-rule="nonzero" points="275.494 36.453 279.964 36.453 279.964 30.702 275.494 30.702"/>
      <polygon fill="#E5B883" fill-rule="nonzero" points="276.108 36.453 279.351 36.453 279.351 30.702 276.108 30.702"/>
      <polygon fill="#3FAF64" fill-rule="nonzero" points="297.107 42.55 313.235 42.55 313.235 36.799 297.107 36.799"/>
      <polygon fill="#F76D37" fill-rule="nonzero" points="302.925 42.55 307.395 42.55 307.395 36.799 302.925 36.799"/>
      <polygon fill="#E5B883" fill-rule="nonzero" points="303.539 42.55 306.781 42.55 306.781 36.799 303.539 36.799"/>
    </g>
    <g transform="matrix(-1 0 0 1 649.5 487)">
      <g fill-rule="nonzero" transform="matrix(-1 0 0 1 145.836 33.391)">
        <polygon fill="#FFB069" points=".242 8.199 5.742 8.199 5.742 .341 .242 .341"/>
        <ellipse cx="55.311" cy="38.956" fill="#CE8A41" rx="5.12" ry="5.2"/>
      </g>
      <g fill-rule="nonzero" transform="translate(205.508 11.916)">
        <path fill="#724B30" d="M9.58224978,10.9443813 C11.0261811,10.6974743 11.9848451,12.0943983 11.1676778,13.2748038 L7.64687857,16.2514579 C7.16683434,16.9290277 6.22763801,17.0895173 5.55006816,16.6089982 L2.83361608,14.6840731 C1.78236194,13.9386038 2.09384465,12.3028448 3.34547333,11.9961103 L9.58224978,10.9443813 Z" transform="scale(-1 1) rotate(43 0 -3.446)"/>
        <g transform="matrix(-1 0 0 1 25.658 .661)">
          <path fill="#FCD486" d="M12.2730712,14.9167629 C10.9818554,16.2079787 8.88863699,16.2079787 7.59742121,14.9167629 C6.30663157,13.6255471 6.30663157,11.5323287 7.59742121,10.2411129 C8.88863699,8.95032325 10.9818554,8.95032325 12.2730712,10.2411129 C13.564287,11.5323287 13.564287,13.6255471 12.2730712,14.9167629 Z"/>
          <path fill="#FCD486" d="M12.0955823,12.3159219 L12.0955823,12.3159219 C12.4369235,11.9741546 12.4369235,11.41548 12.0951562,11.0741388 L8.02036895,7.00233461 C7.67902775,6.66056726 7.11992705,6.6609934 6.77858585,7.00276075 L6.77858585,7.00276075 C6.43724465,7.34410195 6.43724465,7.90320265 6.779012,8.24454385 L10.8537992,12.3163481 C11.1951404,12.6576893 11.7542411,12.6576893 12.0955823,12.3159219"/>
          <path fill="#A86639" d="M21.8769467,13.9646724 C21.8769467,19.0247041 17.7748863,23.1267645 12.7148545,23.1267645 C7.65482278,23.1267645 3.55276235,19.0247041 3.55276235,13.9646724 C3.55276235,8.90464063 7.65482278,4.8025802 12.7148545,4.8025802 C17.7748863,4.8025802 21.8769467,8.90464063 21.8769467,13.9646724"/>
          <polygon fill="#A86639" points="10.336 25.487 15.139 25.487 15.139 18.501 10.336 18.501"/>
          <path fill="#000" d="M18.5820408,10.0048641 C18.5820408,15.130522 14.4271385,19.2854243 9.30148061,19.2854243 C4.17582272,19.2854243 0.0209204516,15.130522 0.0209204516,10.0048641 C0.0209204516,4.87920622 4.17582272,0.724303954 9.30148061,0.724303954 C14.4271385,0.724303954 18.5820408,4.87920622 18.5820408,10.0048641"/>
          <path fill="#000" d="M5.75865939,9.4100493 C5.75865939,8.57493973 10.1122276,0.129489144 15.2378855,0.129489144 C20.3635434,0.129489144 24.5184456,4.28439141 24.5184456,9.4100493 C24.5184456,9.61708182 5.75865939,10.2451589 5.75865939,9.4100493 Z"/>
          <path fill="#CE3F00" d="M9.7574545,5.1342533 C9.7574545,7.72861689 7.65443474,9.83163665 5.06007115,9.83163665 C2.46528142,9.83163665 0.362261653,7.72861689 0.362261653,5.1342533 C0.362261653,2.53988971 2.46528142,0.436869946 5.06007115,0.436869946 C7.65443474,0.436869946 9.7574545,2.53988971 9.7574545,5.1342533"/>
        </g>
      </g>
      <rect width="11.712" height="42.388" x="181.312" y="75.369" fill="#172235" fill-rule="nonzero"/>
      <rect width="11.712" height="43.503" x="171.272" y="75.369" fill="#20314F" fill-rule="nonzero"/>
      <polygon fill="#3C5C97" fill-rule="nonzero" points="216.602 71.83 226.333 71.83 226.333 119.757 216.602 119.757"/>
      <polygon fill="#486DB1" fill-rule="nonzero" points="209.23 71.83 218.961 71.83 218.961 119.757 209.23 119.757"/>
      <path fill="#B5B5B5" fill-rule="nonzero" d="M218.727274,119.497265 L226.396725,119.497265 L226.396725,126.618899 L211.60564,126.618899 L211.60564,126.618899 L211.60564,126.618899 C211.60564,122.685729 214.794104,119.497265 218.727274,119.497265 Z"/>
      <path fill="#D8D8D8" fill-rule="nonzero" d="M211.445371,119.644398 L219.275092,119.644398 L219.275092,126.605762 L204.484007,126.605762 L204.484007,126.605762 L204.484007,126.605762 C204.484007,122.761107 207.600715,119.644398 211.445371,119.644398 Z"/>
      <path fill="#D59500" fill-rule="nonzero" d="M206.589859,76.2450506 C206.119115,76.2450506 206.589859,75.6260114 206.589859,75.0732978 C206.589859,75.0732978 206.661377,64.6024359 206.589859,55.4545769 C206.573504,53.3626357 206.635359,51.2489853 206.589859,49.4487835 C206.570076,48.6660793 206.589859,47.1148248 206.589859,46.3370061 C206.589859,41.5464868 209.927862,37.6272451 214.007502,37.6272451 L222.584887,37.6272451 C226.664526,37.6272451 230.00253,41.5464868 230.00253,46.3370061 C230.00253,47.1148248 230.00253,48.6665243 230.00253,49.4487835 C230.00253,54.4783361 229.401649,75.0732978 229.401649,75.0732978 C229.401649,75.6260114 229.016494,76.2450506 228.54575,76.2450506 L206.589859,76.2450506 Z"/>
      <g fill-rule="nonzero" transform="translate(202.268 37.627)">
        <path fill="#CE3F00" d="M13.4370752,30.9768155 L3.10343283,30.9768155 C1.78047609,30.9768155 0.70753096,29.8944132 0.70753096,28.5681618 L0.70753096,21.7090035 C0.70753096,20.3827521 1.78047609,19.3080666 3.10343283,19.3080666 L13.4370752,19.3080666 L13.4370752,30.9768155 Z"/>
        <path fill="#8D3006" d="M13.3894376,30.9768155 L12.953824,30.9768155 C11.7609203,30.9768155 10.7850868,29.9590253 10.7850868,28.7154578 L10.7850868,21.5694242 C10.7850868,20.3258567 11.7609203,19.3080666 12.953824,19.3080666 L13.3894376,19.3080666 C14.5823413,19.3080666 15.5586659,20.3258567 15.5586659,21.5694242 L15.5586659,28.7154578 C15.5586659,29.9590253 14.5823413,30.9768155 13.3894376,30.9768155"/>
        <path fill="#CE3F00" d="M13.741774,22.4904526 L12.5682386,22.4904526 C12.1507997,22.4904526 11.8121422,22.1424367 11.8121422,21.7134623 L11.8121422,4.48509438 C11.8121422,1.96592133 9.72443598,0.542315195 9.72443598,0.542315195 C9.72443598,0.542315195 9.68299903,0.228995676 11.0033542,0.213750263 L11.5788675,0.213750263 C13.1908161,0.213750263 14.4978705,2.30289753 14.4978705,3.95939049 L14.4978705,21.7134623 C14.4978705,22.1424367 14.159213,22.4904526 13.741774,22.4904526"/>
        <polygon fill="#A86639" points="3.7 10.125 8.424 10.961 4.724 43.243 0 43.243"/>
        <path fill="#D59500" d="M7.36768153,0.243346454 L7.72516957,0.289491051 C10.4254241,0.637431927 12.3322038,3.1090851 11.9837325,5.80933966 L11.0152264,13.3234835 C10.9669602,13.6952923 10.6269753,13.9578392 10.2551665,13.909573 L1.4654162,12.7761131 C1.09360743,12.7283773 0.831060578,12.387862 0.878796369,12.0165837 L1.84783292,4.50243979 C2.1963042,1.80165483 4.66742697,-0.104594422 7.36768153,0.243346454"/>
      </g>
      <g fill="#A86639" fill-rule="nonzero" transform="scale(-1 1) rotate(82 -143.588 -78.665)">
        <rect width="5.969" height="1.492" x="3.861" y="1.294" rx=".746"/>
        <rect width="5.969" height="1.492" x=".155" y=".316" rx=".746"/>
        <rect width="6.932" height="1.492" x="4.571" y="2.465" rx=".746"/>
        <rect width="6.932" height="1.492" x="3.962" y="3.759" rx=".746"/>
        <rect width="6.932" height="1.586" x="2.867" y="4.949" rx=".793"/>
      </g>
      <path fill="#000" fill-rule="nonzero" d="M232.182001,46.0372733 L223.449716,46.0372733 L223.449716,20.6458395 C223.449716,18.4276731 225.276641,16.612582 227.509271,16.612582 L228.122026,16.612582 C230.355075,16.612582 232.182001,18.4276731 232.182001,20.6458395 L232.182001,46.0372733 Z"/>
      <g fill-rule="nonzero" transform="translate(132.22 .246)">
        <polygon fill="#823C19" points="31.256 31.922 27.425 35.814 15.411 23.613 19.243 19.722"/>
        <g transform="rotate(-44 40.617 -25.367)">
          <path fill="#682E15" d="M5.48984743,3.98446437 L13.9309402,5.42956096 C15.6248274,5.851576 16.0461375,8.10020874 14.6231953,9.12426604 L10.9471813,11.770032 C10.029619,12.4306197 8.75896337,12.2105864 8.10898338,11.2787382 L3.34390461,7.18787565 C2.23850626,5.56519122 3.53510346,3.6453887 5.48984743,3.98446437"/>
          <path fill="#823C19" d="M21.3241383,15.7387298 C21.3241383,21.6664555 16.5922071,26.4720603 10.7553579,26.4720603 C4.91850877,26.4720603 0.186577548,21.6664555 0.186577548,15.7387298 C0.186577548,9.81100404 4.91850877,5.00539925 10.7553579,5.00539925 C16.5922071,5.00539925 21.3241383,9.81100404 21.3241383,15.7387298"/>
          <path fill="#000" d="M29.0974283,8.42816077 L21.7290668,0.945077899 C20.6534532,-0.183385439 19.004243,-0.347800548 17.8767463,0.728459774 L13.4594765,5.21401617 L13.509438,5.26475555 C14.0537302,5.81752207 14.0537302,6.71424304 13.509438,7.26700956 L9.51636061,11.322257 C9.15317888,11.6910932 9.15317888,12.2892325 9.51636061,12.6580687 L10.1158987,13.2669413 C10.4790804,13.6357776 11.0680497,13.6357776 11.4312315,13.2669413 L12.1028294,12.5853748 C13.3590731,11.3095721 15.5429674,11.5198478 16.4278626,13.3235352 C16.9462132,14.3793047 16.6973665,15.6609619 15.8763644,16.4947465 L15.2431984,17.1377706 C14.8795363,17.5070947 14.8795363,18.105234 15.2431984,18.4740702 L19.0859109,22.3766116 L29.0700455,12.4551112 C30.1581495,11.3446994 30.1701595,9.55369684 29.0974283,8.42816077"/>
        </g>
        <polygon fill="#823C19" points="44.629 38.312 51.322 38.312 51.322 29.388 44.629 29.388"/>
        <path fill="#DCDCDC" d="M63.0345689,75.1225334 L33.3121157,75.0931491 C32.7879858,75.0931491 32.3591523,74.6523846 32.3591523,74.1136724 L32.3591523,45.6851978 C32.3591523,41.0165225 36.0757097,37.1965637 40.6184864,37.1965637 L54.7757113,37.1965637 C59.3180115,37.1965637 63.0345689,41.0165225 63.0345689,45.6851978 L63.0345689,75.1225334 Z"/>
        <polygon fill="#DCDCDC" points="41.763 39.879 33.968 47.795 23.945 37.617 31.74 29.7"/>
        <rect width="17.848" height="8.366" x=".011" y="61.179" fill="#EFEFEF"/>
      </g>
      <path fill="#B5B5B5" fill-rule="nonzero" d="M182.984859,117.756738 L193.024086,117.756738 L193.024086,126.680496 L174.061101,126.680496 L174.061101,126.680496 L174.061101,126.680496 C174.061101,121.752041 178.056404,117.756738 182.984859,117.756738 Z"/>
      <path fill="#D8D8D8" fill-rule="nonzero" d="M172.387897,117.756738 L182.984859,117.756738 L182.984859,126.680496 L163.464139,126.680496 L163.464139,126.680496 L163.464139,126.680496 C163.464139,121.752041 167.459442,117.756738 172.387897,117.756738 Z"/>
      <g transform="translate(6.143 67.919)">
        <polygon fill="#2A2A2A" fill-rule="nonzero" points="27.62 1.909 40.712 3.13 38.728 20.556 45.409 43.297 34.354 47.085 27.62 22.396" transform="rotate(-25 36.515 24.497)"/>
        <polygon fill="#565656" fill-rule="nonzero" points="9.021 7.733 21.92 2.173 20.876 29.509 28.505 47.482 18.255 51.901 9.235 30.438" transform="rotate(23 18.763 27.037)"/>
        <path fill="#6B370A" fill-rule="nonzero" d="M9.14348491,49.2802312 L19.740447,49.2802312 L19.740447,58.2039888 L0.219727348,58.2039888 L0.219727348,58.2039888 L0.219727348,58.2039888 C0.219727348,53.2755336 4.2150297,49.2802312 9.14348491,49.2802312 Z"/>
        <path fill="#6B370A" fill-rule="nonzero" d="M47.8121122,42.8606773 L58.1014229,42.8606773 L58.1014229,51.9385462 L38.7342434,51.9385462 L38.7342434,51.9385462 L38.7342434,51.9385462 C38.7342434,46.9249776 42.7985437,42.8606773 47.8121122,42.8606773 Z" transform="rotate(-44 48.418 47.4)"/>
      </g>
      <g transform="translate(56.127 7.126)">
        <polygon fill="#CE8A41" fill-rule="nonzero" points="24.503 31.621 30.959 31.621 30.959 22.365 24.503 22.365"/>
        <polygon fill="#6C6C6C" fill-rule="nonzero" points="28.156 50.665 39.869 50.665 39.869 110.188 28.156 110.188"/>
        <polygon fill="#7D7D7D" fill-rule="nonzero" points="17.56 58.954 28.714 58.954 28.714 110.188 17.56 110.188"/>
        <path fill="#595959" fill-rule="nonzero" d="M29.2719625,110.188055 L39.8689246,110.188055 L39.8689246,119.111812 L20.3482049,119.111812 L20.3482049,119.111812 L20.3482049,119.111812 C20.3482049,114.183357 24.3435073,110.188055 29.2719625,110.188055 Z"/>
        <path fill="#686868" fill-rule="nonzero" d="M18.1172655,110.188055 L28.7142276,110.188055 L28.7142276,119.111812 L9.19350796,119.111812 L9.19350796,119.111812 L9.19350796,119.111812 C9.19350796,114.183357 13.1888103,110.188055 18.1172655,110.188055 Z"/>
        <polygon fill="#CECECE" fill-rule="nonzero" points="23.695 29.874 33.176 29.874 33.176 27.643 23.695 27.643"/>
        <ellipse cx="25.213" cy="71.431" fill="#7D7D7D" fill-rule="nonzero" rx="8.404" ry="11.349"/>
        <path fill="#DB4028" fill-rule="nonzero" d="M43.2153336,53.2990757 L39.6180985,64.1636543 L24.7619595,68.3031494 L21.3330216,76.6866052 L14.7708564,76.6866052 L14.7708564,38.3523699 C14.7708564,33.6892499 18.4990591,29.9115461 23.0560698,29.9115461 L34.9305982,29.9115461 C39.487131,29.9115461 43.2153336,33.6892499 43.2153336,38.3523699 L43.2153336,53.2990757 Z"/>
        <g fill-rule="nonzero" transform="rotate(-67 20.538 13.413)">
          <path fill="#000" d="M3.003083,13.7244611 C3.003083,13.7244611 1.69711477,18.9773771 0.162578035,19.9611077 C0.162578035,19.9611077 6.64766789,23.241187 10.0781202,18.3112943"/>
          <g transform="translate(2.654)">
            <path fill="#B47735" d="M5.54072301,4.29159414 L13.9958327,5.73909041 C15.6925328,6.16180623 16.1145424,8.41417297 14.6892374,9.43993079 L11.0071191,12.0900902 C10.0880332,12.7517749 8.81526752,12.5313762 8.1642082,11.5979806 L3.39121671,7.50032489 C2.28398277,5.8749459 3.58273305,3.95195542 5.54072301,4.29159414"/>
            <path fill="#CE8A41" d="M10.8149772,26.8165321 C4.9684356,26.8165321 0.2286467,22.0029473 0.2286467,16.0653782 C0.2286467,10.1278092 4.9684356,5.31422435 10.8149772,5.31422435 C16.6615189,5.31422435 21.4013078,10.1278092 21.4013078,16.0653782 C21.4013078,22.0029473 16.6615189,26.8165321 10.8149772,26.8165321 Z"/>
            <path fill="#000" d="M6.938263,26.0083874 C6.938263,26.0083874 2.55455976,24.9762767 0.74525963,19.7507272 C-1.82096313,12.3392727 3.89084339,7.92690136 3.89084339,7.92690136 C4.27195129,12.2840508 6.65916883,12.6764679 8.14125511,12.4169742 C9.06467185,12.2547295 9.73497905,11.5006826 9.73497905,11.5006826 C9.73497905,11.5006826 11.7102921,12.7224047 11.8705306,13.2110935 C11.8705306,13.2110935 11.3364021,13.7124882 10.5169239,14.5549877 C8.56663312,16.5591006 5.73527089,19.5332607 6.938263,26.0083874"/>
            <path fill="#000" d="M19.1203866,4.01660895 C18.0425057,2.88578303 16.3905569,2.72158359 15.2616692,3.79914243 L13.4032869,5.68645862 L13.4533314,5.73679357 C13.9985274,6.290478 13.9985274,7.18868804 13.4533314,7.74237246 L9.45362326,11.8043539 C9.08983844,12.1738026 9.08983844,12.7729351 9.45362326,13.1423838 L10.0541569,13.7527562 C10.4179417,14.1222049 10.5247674,14.4813912 11.1488797,13.9135348 L12.0443871,13.0695692 C13.3027168,11.791648 15.4902377,12.0022728 16.3766022,13.8089554 C16.8958136,14.866478 16.6465537,16.1502635 15.8241883,16.9854327 L13.6450138,19.7940581 C13.2807478,20.1635068 13.5266945,25.7797058 13.8909605,26.1491545 C16.1906559,25.5990186 18.0369343,24.8153199 19.4297955,23.7980585 C20.4866242,23.026215 21.4804561,22.0895614 22.4112911,20.9880979 C23.501202,19.8758421 28.3877566,13.4282668 21.9719591,6.91257886 L19.1203866,4.01660895 Z"/>
            <path fill="#000" d="M12.3472042,3.59311122 C12.324588,5.48238218 13.8148546,7.03299178 15.6751616,7.05596015 C17.5354686,7.07843984 19.0623062,5.56545927 19.0844412,3.67618832 C19.1070575,1.78642868 17.6172721,0.236307765 15.7569651,0.213339391 C13.8961769,0.190371017 12.3698205,1.70384027 12.3472042,3.59311122"/>
          </g>
        </g>
        <g fill-rule="nonzero" transform="rotate(18 -183.838 126.487)">
          <rect width="11.058" height="11.058" fill="#6B370A" rx="2"/>
          <rect width="4.866" height="2.212" x="7.077" y="4.423" fill="#AD6629"/>
        </g>
        <ellipse cx="38.822" cy="65.22" fill="#CE8A41" fill-rule="nonzero" rx="5.12" ry="5.2"/>
        <path fill="#DB4028" fill-rule="nonzero" d="M37.8104691,33.6391704 L39.7762214,50.2925117 L26.8361195,56.6993021 L31.3871341,65.5500705 L40.6877268,60.9287681 L40.6877268,60.9287681 C46.9484565,57.8179207 50.4646004,51.0025247 49.3711444,44.0975654 L47.5866116,32.8285916 L37.8104691,33.6391704 Z" transform="rotate(-41 38.203 49.19)"/>
        <path fill="#A2A2A2" fill-rule="nonzero" d="M23.9610588,72.0834014 L36.9995577,72.0834014 L36.9995577,78.0593801 L36.9995577,78.0593801 C36.9995577,81.6598621 34.0807903,84.5786296 30.4803082,84.5786296 L30.4803082,84.5786296 L30.4803082,84.5786296 C26.8798262,84.5786296 23.9610588,81.6598621 23.9610588,78.0593801 L23.9610588,72.0834014 Z" transform="rotate(18 30.48 78.331)"/>
        <polygon fill="#19C157" fill-rule="nonzero" points="30.999 63.501 32.482 61.714 33.786 64.202"/>
      </g>
      <rect width="7.35" height="15.019" x="140.23" y="8.601" fill="#19C157" fill-rule="nonzero" transform="rotate(22 143.905 16.11)"/>
      <path fill="#823C19" fill-rule="nonzero" d="M149.997458,22.6993915 C148.168761,24.5565605 145.203697,24.5565605 143.374999,22.6993915 C141.546302,20.8422225 141.546302,17.8309941 143.374999,15.9738251 C145.203697,14.1166561 148.168761,14.1166561 149.997458,15.9738251 C151.826155,17.8309941 151.826155,20.8422225 149.997458,22.6993915"/>
      <g transform="matrix(-1 0 0 1 43.685 11.921)">
        <polygon fill="#FFB069" fill-rule="nonzero" points="9.215 27.952 15.337 27.952 15.337 19.788 9.215 19.788"/>
        <path fill="#D1D1D1" fill-rule="nonzero" d="M29.1126619,67.2375892 L0.0309060516,67.2375892 L0.0309060516,38.3559815 C0.0309060516,34.0367665 3.55437948,30.5027396 7.86114816,30.5027396 L21.2828716,30.5027396 C25.5891885,30.5027396 29.1126619,34.0367665 29.1126619,38.3559815 L29.1126619,67.2375892 Z"/>
        <polygon fill="#EFEFEF" fill-rule="nonzero" points="6.153 30.503 18.398 30.503 18.398 25.911 6.153 25.911"/>
        <g transform="rotate(-1 40.818 -68.562)">
          <path fill="#E29E66" fill-rule="nonzero" d="M22.3042873,8.71463268 C23.8989652,9.70380572 23.6321249,11.8567118 21.8465221,12.2953845 L15.9437592,12.1617371 C14.9082187,12.4040299 13.871769,11.7607947 13.6294762,10.7247996 L12.6584864,6.57309123 C12.2825461,4.96613962 13.9695044,3.66148584 15.4305348,4.42927686 L22.3042873,8.71463268 Z"/>
          <path stroke="#000" stroke-width="2" d="M16.3183812,6.44830814 L16.3161083,6.41057774 C16.2856512,5.91144538 16.6688649,5.47822759 17.1679972,5.44777052 L19.3081749,5.31730514 C19.8073073,5.28684807 20.2405251,5.6700617 20.2709822,6.16919406 L20.2732551,6.20692446 C20.3555346,7.5588549 19.7973065,8.70304081 18.4458306,8.78532037 L18.4458306,8.78532037 C17.0939002,8.86805451 16.4006608,7.80023858 16.3183812,6.44830814 Z"/>
          <path fill="#FFB069" fill-rule="nonzero" d="M18.4514674,20.0102069 C14.7907089,24.1464595 8.47063872,24.531946 4.33438619,20.8711875 C0.198133657,17.2108836 -0.187352896,10.8903588 3.47340561,6.75410626 C7.13370953,2.61830831 13.4542343,2.23282176 17.5904869,5.89312568 C21.7262848,9.55388418 22.1122259,15.8739544 18.4514674,20.0102069"/>
          <polygon fill="#000" fill-rule="nonzero" points="17.934 4.958 9.152 5.518 9.364 6.958 9.749 6.368 18.976 5.8"/>
          <path fill="#997239" fill-rule="nonzero" d="M12.5932992,0.0163649952 C14.0525113,-0.0963716383 15.3226167,0.823250174 15.4571734,2.28109849 L14.7512057,3.88941385 C14.7521148,3.90759718 14.9921348,4.23717 14.9734968,4.23807917 C14.2279804,4.28353749 14.2529825,5.30271302 14.2984408,6.04822947 L14.6198311,11.315485 C14.6507428,11.8191632 14.2670746,12.2519264 13.763851,12.282838 L13.0292445,12.3273872 C12.5255663,12.3582989 12.0923485,11.9750852 12.0618915,11.471407 L12.0091598,10.607699 C11.9073332,8.93665112 10.2431041,7.71700439 8.50977833,8.40206127 C7.47469239,8.81118615 6.8546409,9.88172959 6.9223738,10.9922763 L6.97055962,11.7818874 C7.00101669,12.2855655 6.61780306,12.7187833 6.11412487,12.7492404 L1.04688595,13.058357 C1.02870262,13.0597207 1.01324679,13.0460832 1.01188304,13.0278999 L0.420924883,5.68910874 C0.298642003,3.68439683 1.73921616,1.10145509 5.64226751,0.44049112 C5.64317668,0.440188065 7.96018724,0.29881269 12.5932992,0.0163649952 Z"/>
          <path fill="#997239" fill-rule="nonzero" d="M12.826955,0.0618233151 C12.826955,0.0618233151 17.05867,-0.518224847 19.2415785,2.93115247 C19.2415785,2.93115247 14.7666615,3.63621101 14.2743479,5.97140491"/>
        </g>
        <g fill-rule="nonzero" transform="translate(9.77 71.658)">
          <path fill="#7E4513" d="M30.9387619,24.9172181 L30.9387619,5.53123953 C30.9387619,2.58294077 30.1628275,0.191910527 29.204786,0.191910527 L3.53391284,0.191910527 L3.53391284,14.4757611 L3.53391284,24.9172181"/>
          <path fill="#4E2C0E" d="M5.0026458,24.5878758 L5.0026458,1.82408739 C5.0026458,0.922600932 4.27195539,0.191910527 3.37046893,0.191910527 L1.65402514,0.191910527 C0.753104231,0.191910527 0.0224138257,0.922600932 0.0224138257,1.82408739 L0.0224138257,24.5878758"/>
        </g>
        <path stroke="#777" stroke-width="3" d="M21.538392,71.9020669 L21.538392,68.1517555 C21.538392,67.651714 21.9475169,67.2425891 22.4475584,67.2425891 L28.8685461,67.2425891 C29.3685876,67.2425891 29.7777125,67.651714 29.7777125,68.1517555 L29.7777125,71.9020669"/>
        <path fill="#FFB069" fill-rule="nonzero" d="M22.1430331,69.1806591 C22.6453475,69.936631 28.3999162,70.0593684 28.958599,69.2597566 C29.8977679,67.9146449 29.9191333,66.076765 29.0113306,64.7107425 C27.3866503,62.2655395 23.8768134,62.2250816 22.1957647,64.631645 C21.2565958,65.9767567 21.2352304,67.8146366 22.1430331,69.1806591"/>
        <path fill="#FFB069" fill-rule="nonzero" d="M26.8617885,70.8285232 L26.8617885,70.8285232 C26.2640116,70.8444336 25.7616972,70.368485 25.7457868,69.7702535 L25.583046,64.9116683 C25.5739543,64.5707309 25.8453405,64.2843435 26.1867325,64.2752518 L27.120901,64.2502497 C27.4618384,64.2411581 27.7482258,64.5129988 27.7573174,64.8539362 L27.9200582,69.7125215 C27.9359686,70.3102984 27.4595654,70.8126128 26.8617885,70.8285232 L26.8617885,70.8285232 Z M22.5528853,69.7525248 L22.3901445,64.8939396 C22.3810528,64.5530022 22.652439,64.2666147 22.993831,64.2575231 L23.9279995,64.232521 C24.2689369,64.2234293 24.5553243,64.4948155 24.564416,64.8362075 L24.7271567,69.6947927 C24.7430672,70.2925696 24.266664,70.7948841 23.6688871,70.8107945 C23.0711101,70.8267049 22.5687957,70.3507563 22.5528853,69.7525248 Z"/>
        <path fill="#FFB069" fill-rule="nonzero" d="M28.4328735,70.62587 L28.4328735,70.62587 C27.8350966,70.6417804 27.3327822,70.1658318 27.3168718,69.5676003 L27.2023168,66.5168925 C27.1932251,66.1759551 27.4646113,65.8891131 27.8060033,65.8800214 L28.7401718,65.8554739 C29.0811092,65.8463823 29.3674966,66.1177684 29.3765882,66.4587058 L29.4911432,69.5098683 C29.5070536,70.1076452 29.0306504,70.6099596 28.4328735,70.62587 M25.1675115,70.8102035 L25.1675115,70.8102035 C24.5697346,70.8261139 24.0674201,70.3501653 24.0515097,69.7519338 L23.8887689,64.8933486 C23.8796773,64.5524112 24.1510635,64.2660238 24.4924554,64.2569321 L25.4266239,64.23193 C25.7675613,64.2228384 26.0539487,64.4946791 26.0630404,64.8356165 L26.2257812,69.6942018 C26.2416916,70.2919787 25.7652884,70.7942931 25.1675115,70.8102035"/>
        <polygon fill="#EFEFEF" fill-rule="nonzero" points="20.949 65.028 29.623 65.028 29.623 61.967 20.949 61.967"/>
      </g>
      <g fill-rule="nonzero" transform="translate(126.458 69.177)">
        <polygon fill="#E39753" points="14.694 20.107 23.452 20.107 21.548 52.207 16.598 52.207"/>
        <polygon fill="#FFB069" points="6.696 20.107 15.455 20.107 13.551 52.207 8.6 52.207"/>
        <polygon fill="#373737" points="4.85 .09 25.529 .09 25.705 25.858 5.205 25.858"/>
        <path fill="#B5B5B5" d="M14.419211,50.2046097 L22.0886625,50.2046097 L22.0886625,57.3262432 L7.29757741,57.3262432 L7.29757741,57.3262432 L7.29757741,57.3262432 C7.29757741,53.3930736 10.4860414,50.2046097 14.419211,50.2046097 Z"/>
        <path fill="#D8D8D8" d="M7.13730781,50.351742 L14.9670289,50.351742 L14.9670289,57.313106 L0.175943861,57.313106 L0.175943861,57.313106 L0.175943861,57.313106 C0.175943861,53.4684508 3.29265266,50.351742 7.13730781,50.351742 Z"/>
      </g>
      <g fill-rule="nonzero" transform="translate(252.832 69.177)">
        <polygon fill="#E39753" points="14.694 20.107 23.452 20.107 21.548 52.207 16.598 52.207"/>
        <polygon fill="#FFB069" points="6.696 20.107 15.455 20.107 13.551 52.207 8.6 52.207"/>
        <polygon fill="#373737" points="4.85 .09 25.529 .09 27.705 35.858 3.205 35.858"/>
        <path fill="#B5B5B5" d="M14.419211,50.2046097 L22.0886625,50.2046097 L22.0886625,57.3262432 L7.29757741,57.3262432 L7.29757741,57.3262432 L7.29757741,57.3262432 C7.29757741,53.3930736 10.4860414,50.2046097 14.419211,50.2046097 Z"/>
        <path fill="#D8D8D8" d="M7.13730781,50.351742 L14.9670289,50.351742 L14.9670289,57.313106 L0.175943861,57.313106 L0.175943861,57.313106 L0.175943861,57.313106 C0.175943861,53.4684508 3.29265266,50.351742 7.13730781,50.351742 Z"/>
      </g>
      <g transform="translate(100.802 59.246)">
        <g transform="translate(12.196 .057)">
          <path fill="#CC9266" fill-rule="nonzero" d="M3.16863138,8.85189947 L0.722750903,7.53872805 C0.419773875,7.37603322 0.304923634,6.99490229 0.467618465,6.69192526 L0.467618465,6.69192526 C0.630313297,6.3888321 1.01144423,6.27398186 1.31442126,6.43667669 L3.76030173,7.74984811 C4.06339489,7.91254294 4.17824513,8.29367388 4.0155503,8.59676703 L4.0155503,8.59676703 C3.85273934,8.89974406 3.47172453,9.0145943 3.16863138,8.85189947"/>
          <path fill="#CC9266" fill-rule="nonzero" d="M3.73575235,7.62662507 L1.06911322,6.85484073 C0.738730067,6.75915155 0.546654941,6.41053636 0.642227993,6.08015321 L0.642227993,6.08015321 C0.737917174,5.74965393 1.08653237,5.5575788 1.41691552,5.65326798 L4.08355465,6.42505232 C4.4139378,6.5207415 4.60601292,6.86935669 4.51043987,7.19973984 L4.51043987,7.19973984 C4.41475069,7.53012299 4.0661355,7.72231425 3.73575235,7.62662507"/>
          <path fill="#CC9266" fill-rule="nonzero" d="M3.78494402,6.37502453 L1.74690384,6.2530905 C1.40351439,6.23253591 1.13944012,5.93478462 1.15999471,5.59139517 L1.15999471,5.59139517 C1.18054931,5.24800573 1.47830059,4.98393146 1.82157391,5.00448605 L3.85961409,5.12642008 C4.20300354,5.14697467 4.46719394,5.44472596 4.44663934,5.78811541 L4.44663934,5.78811541 C4.42608475,6.13138873 4.12833347,6.39557912 3.78494402,6.37502453"/>
          <g transform="translate(3.104 .092)">
            <mask id="header-background-b" fill="#fff">
              <use xlink:href="#header-background-a"/>
            </mask>
            <path fill="#FFBC85" fill-rule="nonzero" d="M4.35487962,0.543976731 C5.18217296,1.37127008 5.00368477,2.89114871 3.95621341,3.93862007 C2.90874204,4.98620756 1.38886342,5.16469575 0.561570069,4.33728628 C-0.265839407,3.50999293 -0.0873512151,1.9901143 0.960236277,0.942642938 C2.00770764,-0.104828426 3.52758627,-0.283316617 4.35487962,0.543976731" mask="url(#header-background-b)"/>
          </g>
          <path fill="#FFBC85" fill-rule="nonzero" d="M0.879534837,7.46634569 L0.879534837,7.46634569 C0.46902361,7.46634569 0.136317905,7.13363999 0.136317905,6.72312876 L0.136317905,3.23790586 C0.136317905,2.82739463 0.46902361,2.49468892 0.879534837,2.49468892 L0.879534837,2.49468892 C1.28992994,2.49468892 1.62275177,2.82739463 1.62275177,3.23790586 L1.62275177,6.72312876 C1.62275177,7.13363999 1.28992994,7.46634569 0.879534837,7.46634569"/>
          <path fill="#FFBC85" fill-rule="nonzero" d="M0.252213295,3.53995386 L0.252213295,3.53995386 C0.068150977,3.17310663 0.216445981,2.7264797 0.583293213,2.54241739 L4.88675151,0.383836707 C5.25371487,0.199774389 5.70022567,0.348069392 5.88428798,0.714916625 L5.88428798,0.714916625 C6.0683503,1.08176386 5.9200553,1.52839078 5.55320807,1.7124531 L1.24974977,3.87103378 C0.882786412,4.0550961 0.436275614,3.90680109 0.252213295,3.53995386"/>
          <path fill="#FFBC85" fill-rule="nonzero" d="M3.95294588,3.41718372 L1.86520307,5.50492653 C1.77497189,5.59515771 1.62714139,5.59515771 1.53679409,5.50492653 L0.63297262,4.60110506 C0.542741439,4.51075775 0.542741439,4.36292726 0.63297262,4.27269608 L2.72071543,2.18495327 C2.81106274,2.09460596 2.95889324,2.09460596 3.04912442,2.18495327 L3.95294588,3.08877473 C4.04329319,3.17900591 4.04329319,3.32683641 3.95294588,3.41718372"/>
        </g>
        <g transform="rotate(-32 18.117 4.206)">
          <g transform="translate(0 .345)">
            <mask id="header-background-d" fill="#fff">
              <use xlink:href="#header-background-c"/>
            </mask>
            <polygon fill="#A59D77" fill-rule="nonzero" points="14.332 4.407 4.339 14.4 0 10.061 9.993 .068" mask="url(#header-background-d)"/>
          </g>
          <polygon fill="#D8D09C" fill-rule="nonzero" points="13.941 4.717 4.349 14.308 1.184 11.143 10.775 1.552"/>
          <polygon fill="#494845" fill-rule="nonzero" points="6.266 9.739 3.456 12.548 3.264 12.357 6.074 9.547"/>
        </g>
        <path fill="#FFBC85" fill-rule="nonzero" d="M15.0156188,3.539496 L11.6689361,6.88617862 C11.336695,7.21841981 11.336695,7.76201332 11.6689361,8.09425452 L11.6689361,8.09425452 C12.0011773,8.42649571 12.5447709,8.42649571 12.877012,8.09425452 L16.2236947,4.7475719 C16.5559359,4.4153307 16.5559359,3.87173719 16.2236947,3.539496 L16.2236947,3.539496 C15.8914535,3.2072548 15.34786,3.2072548 15.0156188,3.539496"/>
      </g>
      <rect width="16.366" height="7.077" x="117.172" y="55.775" fill="#295A6E" fill-rule="nonzero" transform="rotate(-23 125.355 59.314)"/>
      <g fill-rule="nonzero" transform="matrix(-1 0 0 1 166.626 7.293)">
        <path fill="#3D7991" d="M15.3110118,62.2054753 C14.7910138,62.2054753 14.3655609,61.6245774 14.3655609,61.1059185 C14.3655609,61.1059185 12.9786403,50.8628771 12.3560609,45.3617923 C12.2738066,44.6361414 12.3560609,43.1716373 12.3560609,42.4417428 C12.3560609,37.9463848 16.0433195,34.2686218 20.5498114,34.2686218 L28.6976516,34.2686218 C33.2041436,34.2686218 36.8914022,37.9463848 36.8914022,42.4417428 C36.8914022,43.1716373 36.9712928,44.6361414 36.8914022,45.3617923 C36.3907859,49.9198609 33.5549058,61.1059185 33.5549058,61.1059185 C33.5549058,61.6245774 33.1294529,62.2054753 32.6094549,62.2054753 L15.3110118,62.2054753 Z"/>
        <path fill="#E29754" d="M38.2072163,22.5403253 C39.6511476,22.2934183 40.6098116,23.6903423 39.7926443,24.8707478 L36.2718451,27.8474019 C35.7918009,28.5249717 34.8526046,28.6854613 34.1750347,28.2049423 L31.4585826,26.2800171 C30.4073285,25.5345478 30.7188112,23.8987888 31.9704399,23.5920543 L38.2072163,22.5403253 Z" transform="rotate(82 35.458 25.497)"/>
        <g transform="rotate(40 11.74 32.968)">
          <path fill="#FFB069" d="M27.8920313,14.6375498 C27.8920313,20.2755767 23.3214024,24.8462056 17.6833755,24.8462056 C12.0453486,24.8462056 7.47471973,20.2755767 7.47471973,14.6375498 C7.47471973,8.99952289 12.0453486,4.42889403 17.6833755,4.42889403 C23.3214024,4.42889403 27.8920313,8.99952289 27.8920313,14.6375498"/>
          <path fill="#C1842B" d="M25.6801717,11.7485952 C25.6801717,17.4597446 21.050665,22.0892513 15.3395156,22.0892513 C9.62836624,22.0892513 4.99885955,17.4597446 4.99885955,11.7485952 C4.99885955,6.0374458 9.62836624,1.40793911 15.3395156,1.40793911 C21.050665,1.40793911 25.6801717,6.0374458 25.6801717,11.7485952"/>
          <path fill="#C1842B" d="M10.7075399,18.2452413 C7.30639561,13.6556196 8.26980782,7.17810877 12.8594295,3.77743934 C17.4490512,0.376295091 23.926562,1.3397073 27.3272315,5.92932902 L10.7075399,18.2452413 Z"/>
          <path fill="#C1842B" d="M15.901647,33.7618478 L15.901647,33.7618478 C10.7082961,33.7618478 6.49851302,29.510041 6.49851302,24.2648481 L6.49851302,12.1561735 C6.49851302,6.91098047 10.7082961,2.6591737 15.901647,2.6591737 L15.901647,12.3935984 C21.0949979,12.3935984 25.304781,6.91098047 25.304781,12.1561735 L25.304781,24.2648481 C25.304781,29.510041 21.0949979,33.7618478 15.901647,33.7618478" transform="rotate(-29 15.902 18.21)"/>
        </g>
      </g>
      <path fill="#EF83BE" fill-rule="nonzero" d="M257.309767,69.4984753 C256.748169,69.4984753 256.28868,68.9175774 256.28868,68.3989185 C256.28868,68.3989185 254.790806,58.1558771 254.11842,52.6547923 C254.029586,51.9291414 254.11842,50.4646373 254.11842,49.7347428 C254.11842,45.2393848 258.10066,41.5616218 262.967671,41.5616218 L271.767338,41.5616218 C276.634349,41.5616218 280.616589,45.2393848 280.616589,49.7347428 C280.616589,50.4646373 280.702871,51.9291414 280.616589,52.6547923 C280.075923,57.2128609 277.013173,68.3989185 277.013173,68.3989185 C277.013173,68.9175774 276.553684,69.4984753 275.992086,69.4984753 L257.309767,69.4984753 Z" transform="matrix(-1 0 0 1 534.734 0)"/>
      <g fill-rule="nonzero" transform="translate(244 42.953)">
        <path fill="#FCD486" d="M13.6997164,10.1250264 L18.4239685,10.9606157 L16.8434598,24.3967488 L16.8434598,24.3967488 C16.6498966,26.0422576 15.1590342,27.2192921 13.5135253,27.0257289 C13.4543563,27.0187688 13.3954077,27.0100476 13.336758,26.9995771 L0.728515625,24.7486666 L1.75195313,19.7174166 L12.4755859,21.6412447 L13.6997164,10.1250264 Z"/>
        <path fill="#FDBADF" d="M17.3676815,0.243346454 L17.7251696,0.289491051 C20.4254241,0.637431927 22.3322038,3.1090851 21.9837325,5.80933966 L21.0152264,13.3234835 C20.9669602,13.6952923 20.6269753,13.9578392 20.2551665,13.909573 L11.4654162,12.7761131 C11.0936074,12.7283773 10.8310606,12.387862 10.8787964,12.0165837 L11.8478329,4.50243979 C12.1963042,1.80165483 14.667427,-0.104594422 17.3676815,0.243346454"/>
      </g>
      <g fill-rule="nonzero" transform="translate(233 53)">
        <rect width="7.35" height="15.019" x="3.23" y="1.601" fill="#159142" transform="rotate(22 6.905 9.11)"/>
        <rect width="7.35" height="15.019" x="3.23" y="2.601" fill="#19C157" transform="rotate(22 6.905 10.11)"/>
        <rect width="7.35" height="15.019" x="4.23" y="3.601" fill="#2DD56B" transform="rotate(22 7.905 11.11)"/>
      </g>
      <circle cx="244" cy="64.86" r="3.901" fill="#FCD486" fill-rule="nonzero"/>
      <g transform="matrix(-1 0 0 1 283 12.955)">
        <polygon fill="#000" fill-rule="nonzero" points="8.422 25.413 19.998 18.989 16.76 5.559 5.167 11.914"/>
        <polygon fill="#FCD486" fill-rule="nonzero" points="12.534 28.731 18.33 28.697 18.276 19.357 12.48 19.391"/>
        <g transform="translate(0 .363)">
          <g transform="translate(16.088 3.829)">
            <mask id="header-background-f" fill="#fff">
              <use xlink:href="#header-background-e"/>
            </mask>
            <path fill="#D6A651" fill-rule="nonzero" d="M7.84950641,5.06900237 L2.90304575,0.601581275 C1.83133618,-0.232494495 0.275400598,0.579892476 0.347067934,1.93591391 L0.531894221,5.43959794 C0.577629297,6.31375084 1.32400688,6.98516062 2.19815978,6.93895404 L6.95979415,7.90316261 C8.46952316,7.806506 8.99759827,6.10110631 7.84950641,5.06900237" mask="url(#header-background-f)"/>
          </g>
          <path fill="#FCD486" fill-rule="nonzero" d="M1.36668215,14.733819 C2.79154195,20.6440168 8.73804484,24.2801911 14.6482426,22.8553313 C20.5584403,21.43 24.1946146,15.4839686 22.7692833,9.57377084 C21.3444235,3.66357312 15.3983921,0.0273988135 9.48819439,1.45225861 C3.57752516,2.8771184 -0.0581776434,8.8236213 1.36668215,14.733819"/>
          <path fill="#513301" fill-rule="nonzero" d="M6.11903226,21.9689274 C0.693739184,18.6514157 -1.01457962,11.5646543 2.30243894,6.13936126 C5.61995067,0.714068186 12.7072052,-0.99425062 18.1320051,2.32276794 L6.11903226,21.9689274 Z"/>
          <polygon fill="#513301" fill-rule="nonzero" points="1.119 36.834 15.782 36.768 15.668 4.896 1.037 12.054"/>
          <path fill="#513301" fill-rule="nonzero" d="M17.5705008,1.40143305 L18.6892896,6.04254351 C18.9331426,7.05295311 18.2947218,8.07352326 17.2634266,8.32245657 L12.6025596,9.44632557 C12.6025596,9.44632557 16.3726857,3.31669549 17.5705008,1.40143305"/>
          <path fill="#FCD486" fill-rule="nonzero" d="M16.2258669,8.87430708 L16.2258669,8.87430708 C15.3328542,8.8281005 14.5643163,9.52119908 14.5181098,10.4146833 L14.4521004,11.6886645 C14.4058938,12.5816772 15.0989924,13.3502151 15.9924766,13.3964217 L15.9924766,13.3964217"/>
        </g>
      </g>
      <g fill-rule="nonzero" transform="rotate(-11 440.517 -510.974)">
        <path fill="#494949" d="M8.68395731,32.5770044 L7.29253333,32.5770044 C6.79758914,32.5770044 6.39605353,32.1643728 6.39605353,31.6557514 L6.39605353,11.2286179 C6.39605353,8.24171379 3.92072603,6.55378881 3.92072603,6.55378881 C3.92072603,6.55378881 3.87159554,6.18229572 5.43709917,6.16421972 L6.11946707,6.16421972 C8.03070377,6.16421972 9.58043711,8.64125586 9.58043711,10.6053074 L9.58043711,31.6557514 C9.58043711,32.1643728 9.1789015,32.5770044 8.68395731,32.5770044" transform="rotate(-168 6.75 19.37)"/>
        <path fill="#7C7C7C" d="M15.4074578,14.069018 L3.15518334,14.069018 C1.58659518,14.069018 0.314437914,12.7856478 0.314437914,11.2131532 L0.314437914,3.08046514 C0.314437914,1.50797059 1.58659518,0.233749828 3.15518334,0.233749828 L15.4074578,0.233749828 L15.4074578,14.069018 Z"/>
        <path fill="#333" d="M15.3509754,14.069018 L14.834482,14.069018 C13.4200937,14.069018 12.2630786,12.8622563 12.2630786,11.3877974 L12.2630786,2.91497041 C12.2630786,1.44051155 13.4200937,0.233749828 14.834482,0.233749828 L15.3509754,0.233749828 C16.7653637,0.233749828 17.9229611,1.44051155 17.9229611,2.91497041 L17.9229611,11.3877974 C17.9229611,12.8622563 16.7653637,14.069018 15.3509754,14.069018"/>
      </g>
      <path fill="#7C7C7C" fill-rule="nonzero" d="M122.687265,105.853071 L121.295841,105.853071 C120.800897,105.853071 120.399361,105.440439 120.399361,104.931818 L120.399361,84.5046837 C120.399361,81.5177795 117.924034,79.8298545 117.924034,79.8298545 C117.924034,79.8298545 117.874903,79.4583614 119.440407,79.4402854 L120.122775,79.4402854 C122.034011,79.4402854 123.583745,81.9173216 123.583745,83.8813731 L123.583745,104.931818 C123.583745,105.440439 123.182209,105.853071 122.687265,105.853071" transform="scale(1 -1) rotate(1 10737.012 0)"/>
      <g fill="#FFB069" fill-rule="nonzero" transform="rotate(37 -36.725 216.142)">
        <path d="M1.05634788,6.37493018 C1.55866232,7.13090204 7.31323104,7.2536395 7.87191379,6.45402766 C8.81108268,5.10891597 8.83244809,3.27103609 7.92464544,1.90501358 C6.29996509,-0.54018945 2.79012821,-0.580647355 1.10907953,1.8259161 C0.169910645,3.17102779 0.148545234,5.00890766 1.05634788,6.37493018 L11.7770927,11.5498792"/>
        <path d="M3.75511674,8.02279428 L3.75511674,8.02279428 C3.15733983,8.03870469 2.6550254,7.56275608 2.63911499,6.96452459 L2.4763742,2.10593935 C2.46728254,1.76500195 2.73866871,1.47861454 3.08006069,1.46952287 L4.01422916,1.4445208 C4.35516656,1.43542913 4.64155398,1.70726989 4.65064564,2.04820729 L4.81338643,6.90679252 C4.82929684,7.50456943 4.35289365,8.00688386 3.75511674,8.02279428 L3.75511674,8.02279428 Z M5.83201646,6.94679584 L5.66927568,2.08821061 C5.66018401,1.74727321 5.93157018,1.46088579 6.27296217,1.45179413 L7.20713064,1.42679205 C7.54806804,1.41770039 7.83445545,1.68908656 7.84354712,2.03047854 L8.0062879,6.88906378 C8.02219832,7.48684068 7.54579512,7.98915512 6.94801822,8.00506553 C6.35024131,8.02097594 5.84792687,7.54502733 5.83201646,6.94679584 Z"/>
        <path d="M2.08766011,7.82014109 L2.08766011,7.82014109 C1.4898832,7.8360515 0.987568765,7.36010289 0.971658353,6.7618714 L0.857103387,3.71116355 C0.848011723,3.37022615 1.11939789,3.08338415 1.46078988,3.07429248 L2.39495835,3.04974499 C2.73589575,3.04065333 3.02228317,3.3120395 3.03137483,3.6529769 L3.1459298,6.70413933 C3.16184021,7.30191624 2.68543701,7.80423067 2.08766011,7.82014109 M5.44939378,8.00447457 L5.44939378,8.00447457 C4.85161688,8.02038498 4.34930244,7.54443638 4.33339203,6.94620488 L4.17065124,2.08761965 C4.16155958,1.74668225 4.43294575,1.46029484 4.77433773,1.45120317 L5.70850621,1.4262011 C6.04944361,1.41710943 6.33583102,1.68895018 6.34492269,2.02988758 L6.50766347,6.88847282 C6.52357388,7.48624973 6.04717069,7.98856416 5.44939378,8.00447457"/>
      </g>
      <path fill="#3D7991" fill-rule="nonzero" d="M132.455432,54.9978549 L132.455432,54.9978549 L132.455432,54.9978549 C134.585015,54.9978549 136.345542,56.6577231 136.470777,58.7836212 L137.390177,74.3907588 L129.445643,74.723765 L128.813428,58.7872037 L128.813428,58.7872037 C128.733634,56.7757808 130.299528,55.0805141 132.310951,55.0007196 C132.359088,54.99881 132.407257,54.9978549 132.455432,54.9978549 Z" transform="rotate(54 133.1 64.86)"/>
      <polygon fill="#207E43" fill-rule="nonzero" points="31.412 93.305 34.509 93.305 35.836 101.267 31.412 101.267"/>
      <polygon fill="#21A050" fill-rule="nonzero" points="31.412 91.536 35.836 91.536 33.624 99.498 31.412 99.498"/>
      <path fill="#8AD4A5" fill-rule="nonzero" d="M38.0978969,101.167018 L44.7541605,101.167018 C45.6263937,103.141687 46.0625104,105.191223 46.0625104,107.315626 C46.0625104,109.7252 45.6263937,112.20964 44.7541605,114.768948 L38.0978969,114.768948 C39.6721187,112.092544 40.4592295,109.709888 40.4592295,107.620982 C40.4592295,105.532076 39.6721187,103.380755 38.0978969,101.167018 Z" transform="rotate(121 42.08 107.968)"/>
      <path fill="#19AB4E" fill-rule="nonzero" d="M32.8586601,117.660403 L40.7017298,117.660403 C41.7294815,119.987154 42.2433574,122.40212 42.2433574,124.905302 C42.2433574,127.744501 41.7294815,130.671915 40.7017298,133.687545 L32.8586601,133.687545 C34.7135643,130.53394 35.6410163,127.72646 35.6410163,125.265103 C35.6410163,122.803747 34.7135643,120.268847 32.8586601,117.660403 Z" transform="rotate(73 37.551 125.674)"/>
      <polygon fill="#19C157" fill-rule="nonzero" points="61.849 127.018 67.181 129.084 67.181 146.417 61.849 144.35" transform="rotate(-74 64.515 136.717)"/>
      <polygon fill="#19C157" fill-rule="nonzero" points=".393 98.171 3.047 98.171 3.047 106.133 1.72 106.133"/>
    </g>
    <path fill="#B5B5B5" fill-rule="nonzero" d="M347.864614,604.757051 L357.903841,604.757051 L357.903841,613.680808 L338.940856,613.680808 L338.940856,613.680808 L338.940856,613.680808 C338.940856,608.752353 342.936158,604.757051 347.864614,604.757051 Z" transform="matrix(-1 0 0 1 696.845 0)"/>
    <path fill="#D8D8D8" fill-rule="nonzero" d="M352.461917,604.757051 L363.058879,604.757051 L363.058879,613.680808 L343.538159,613.680808 L343.538159,613.680808 L343.538159,613.680808 C343.538159,608.752353 347.533462,604.757051 352.461917,604.757051 Z" transform="matrix(-1 0 0 1 706.597 0)"/>
    <circle cx="544.5" cy="579.5" r="2.5" fill="#F1EB9D" fill-rule="nonzero"/>
    <circle cx="539.5" cy="596.5" r="2.5" fill="#F1EB9D" fill-rule="nonzero"/>
    <g fill="#000" fill-rule="nonzero" transform="rotate(-7 4277.387 -294.387)">
      <path d="M1.76728923,12.6515278 C1.37352533,12.7827824 0.387556562,16.1348867 2.16403678,19.6558338 C2.16403678,19.6558338 4.39536552,18.868306 5.57665721,19.1308153 C5.57665721,19.1308153 7.15171279,13.2243569 10.9580971,11.7805559 C14.7644814,10.336755 2.29529141,12.830593 2.29529141,12.830593" transform="rotate(-18 6.41 15.493)"/>
      <path d="M21.8959102,1.0174334 C22.2455725,1.39229663 22.2550229,3.01985407 21.2690381,5.90798099 C20.2347516,8.93576284 17.5739577,11.121415 14.4023208,11.54773 C9.1274596,12.256505 2.15258846,13.4645727 1.77037498,14.9304244 C1.37661108,16.4398527 -0.985972294,7.05514647 3.34543056,3.51127141 C7.67683341,-0.0326036506 20.0583454,-0.951386074 21.8959102,1.0174334"/>
    </g>
    <g transform="translate(323 495.442)">
      <path fill="#E29E66" fill-rule="nonzero" d="M35.7556633,12.7867711 C37.3056056,13.7278753 37.0679563,15.8110256 35.3465013,16.2515156 L29.640701,16.1768348 C28.6420039,16.4204966 27.6344465,15.8084941 27.3907847,14.8094806 L26.4139223,10.806465 C26.0357718,9.25683913 27.654066,7.98030434 29.0730006,8.7090747 L35.7556633,12.7867711 Z"/>
      <path fill="#FFB069" fill-rule="nonzero" d="M32.136684,23.7386104 C28.6374471,27.7697896 22.532611,28.2007862 18.5017483,24.7012328 C14.4705692,21.2019959 14.0395726,15.0971598 17.5391259,11.0662971 C21.0383628,7.03511799 27.1428825,6.60412137 31.1740616,10.1036747 C35.2049243,13.6029116 35.6359209,19.7074313 32.136684,23.7386104"/>
      <mask id="header-background-h" fill="#fff">
        <use xlink:href="#header-background-g"/>
      </mask>
      <polygon fill="#FFB069" fill-rule="nonzero" points="20.772 31.746 26.923 31.746 26.923 23.545 20.772 23.545" mask="url(#header-background-h)"/>
      <mask id="header-background-j" fill="#fff">
        <use xlink:href="#header-background-i"/>
      </mask>
      <path fill="#3A271F" fill-rule="nonzero" d="M29.1263846,11.2898647 C28.5146985,11.6730783 28.0767402,12.9277785 28.196356,13.6397773 L28.6188086,17.6168445 C28.6969702,18.0801184 28.3843237,18.5187097 27.9210497,18.5968714 L27.1562048,18.7253476 C26.6929309,18.8035092 26.2543396,18.4911791 26.176178,18.0279052 L26.032196,17.1712915 C25.7625858,15.5694524 24.0259415,14.5653758 22.4241024,15.4194579 C21.4871119,15.9191229 21.0026363,16.9909185 21.179212,18.0383478 L21.3149664,18.8462292 C21.3931281,19.3095031 21.0807979,19.7480943 20.617524,19.826256 L15.5851163,20.6920466 C15.5851163,20.6920466 14.1206139,13.2964357 13.5475339,9.16114648 C13.3538702,7.76404657 14.2430777,6.44953851 15.6303678,6.19258605 L25.3682966,4.61099932 C25.3682966,4.61099932 30.8943568,7.74189549 31.855397,6.39226216 C31.855397,6.39226216 33.7258971,8.40864284 29.1263846,11.2898647" mask="url(#header-background-j)"/>
      <mask id="header-background-l" fill="#fff">
        <use xlink:href="#header-background-k"/>
      </mask>
      <path fill="#AFAFAF" fill-rule="nonzero" d="M36.463137,72.1751627 L11.6688063,72.1751627 L11.6688063,33.750643 C11.6688063,32.548789 12.6431372,31.5744581 13.8449912,31.5744581 L34.2872686,31.5744581 C35.4888062,31.5744581 36.463137,32.548789 36.463137,33.750643 L36.463137,72.1751627 Z" mask="url(#header-background-l)"/>
      <mask id="header-background-n" fill="#fff">
        <use xlink:href="#header-background-m"/>
      </mask>
      <polygon fill="#283A72" fill-rule="nonzero" points="16.163 109.769 28.25 109.769 28.25 72.113 16.163 72.113" mask="url(#header-background-n)"/>
      <mask id="header-background-p" fill="#fff">
        <use xlink:href="#header-background-o"/>
      </mask>
      <path fill="#AFAFAF" fill-rule="nonzero" d="M24.7942674,31.5745214 C24.7797109,38.4214186 19.2175761,44.0300706 12.370679,44.0155142 C5.52409826,44.0009578 -0.0146197092,38.4214186 -6.32887845e-05,31.5745214 L24.7942674,31.5745214 Z" mask="url(#header-background-p)"/>
      <g>
        <mask id="header-background-r" fill="#fff">
          <use xlink:href="#header-background-q"/>
        </mask>
        <path fill="#4D6FFF" fill-rule="nonzero" d="M27.0817772,7.52952998 L27.9535802,11.3452108 L13.22628,14.709959 L11.5814045,7.51085978 C11.0595885,5.22581822 12.4886493,2.95026998 14.7733744,2.42845395 L24.9315407,0.107654222 C27.2162658,-0.414161805 29.4918141,1.01489895 30.0139466,3.29962407 L30.7867026,6.68304248 L27.0817772,7.52952998 Z" mask="url(#header-background-r)"/>
      </g>
      <g>
        <mask id="header-background-t" fill="#fff">
          <use xlink:href="#header-background-s"/>
        </mask>
        <polygon fill="#4D6FFF" fill-rule="nonzero" points="21.729 12.775 6.382 16.281 6.065 15.067 21.413 11.561" mask="url(#header-background-t)"/>
      </g>
      <g>
        <mask id="header-background-v" fill="#fff">
          <use xlink:href="#header-background-u"/>
        </mask>
        <polygon fill="#4D6FFF" fill-rule="nonzero" points="32.288 10.363 27.929 11.359 27.604 9.935 31.963 8.939" mask="url(#header-background-v)"/>
      </g>
      <g>
        <mask id="header-background-x" fill="#fff">
          <use xlink:href="#header-background-w"/>
        </mask>
        <polygon fill="#405891" fill-rule="nonzero" points="20.192 109.769 32.279 109.769 32.279 72.113 20.192 72.113" mask="url(#header-background-x)"/>
      </g>
      <g>
        <mask id="header-background-z" fill="#fff">
          <use xlink:href="#header-background-y"/>
        </mask>
        <polygon fill="#FFB069" fill-rule="nonzero" points="29.457 67.45 19.105 58.586 22.733 54.348 33.085 63.212" mask="url(#header-background-z)"/>
      </g>
      <g>
        <mask id="header-background-B" fill="#fff">
          <use xlink:href="#header-background-A"/>
        </mask>
        <path fill="#CCC" fill-rule="nonzero" d="M29.9405632,59.568195 L29.9405632,64.5657939 C29.9377152,65.9293508 28.8092762,67.0362716 27.4457193,67.0334236 L24.307545,67.0334236 L24.3005832,70.4038678 L37.9598851,70.4038678 L37.9598851,59.568195 L29.9405632,59.568195 Z" mask="url(#header-background-B)"/>
      </g>
      <g>
        <mask id="header-background-D" fill="#fff">
          <use xlink:href="#header-background-C"/>
        </mask>
        <path fill="#AFAFAF" fill-rule="nonzero" d="M11.6267826,50.3200265 L13.7456911,52.8436668 C15.4525896,54.876819 18.4847553,55.1413661 20.5179075,53.4341511 L31.8190693,43.9458966 C34.5379555,41.6633865 34.8949042,37.5711337 32.6120777,34.852564 L32.6120777,34.8522476 C30.3295677,32.1336778 26.2373149,31.7767291 23.5184287,34.0592391 L12.217267,43.5474937 C10.1841148,45.2547086 9.91956763,48.2868743 11.6267826,50.3200265" mask="url(#header-background-D)"/>
      </g>
      <g>
        <mask id="header-background-F" fill="#fff">
          <use xlink:href="#header-background-E"/>
        </mask>
        <path fill="#AFAFAF" fill-rule="nonzero" d="M19.6606925,67.1374071 L28.7033941,57.9247752 L13.8561617,43.3512668 C13.2093503,42.7164803 12.1609716,42.7259736 11.5261851,43.372785 L4.79162552,50.2339221 C4.15683901,50.8807335 4.16664877,51.9291122 4.8131437,52.5638987 L19.6606925,67.1374071 Z" mask="url(#header-background-F)"/>
      </g>
    </g>
  </g>
</svg>
