<svg xmlns="http://www.w3.org/2000/svg" xmlns:xlink="http://www.w3.org/1999/xlink" width="320" height="265" viewBox="0 0 320 265">
  <defs>
    <polygon id="header-background-mobile-a" points=".02 .011 2.311 .011 2.311 2.303 .02 2.303 .02 .011"/>
    <polygon id="header-background-mobile-c" points="0 6.825 6.793 6.825 6.793 .032 0 .032"/>
  </defs>
  <g fill="none" fill-rule="evenodd" transform="translate(-1.53 -.824)">
    <polygon fill="#00BDFF" points="299.684 73.011 299.684 18.351 245.033 73.011"/>
    <polygon fill="#0A9DFF" points="299.153 18.607 299.153 73.267 353.818 73.267"/>
    <polygon fill="#1599FF" points="299.812 17.881 62.052 257.517 299.812 257.517 299.812 72.92 245.204 72.92"/>
    <polygon fill="#1560FA" points="353.836 73.07 299.153 73.07 299.153 257.517 537.242 257.517"/>
    <polygon fill="#f83a5c" points="298.789 17.057 298.789 .793 309.598 8.925"/>
    <path fill="#FAFAFA" d="M313.174305,94.7827806 C313.424454,93.8953471 313.562036,92.9537509 313.562036,91.9829903 C313.562036,86.5485934 309.365095,82.1427959 304.188637,82.1427959 C299.012874,82.1427959 294.813154,86.5468778 294.813154,91.9807846 C294.701282,91.985196 294.58802,91.9807846 294.475453,91.9807846 C291.141062,91.9807846 288.27987,94.0997435 287.045108,97.1237818 C285.848563,97.1951 284.851442,98.1447902 284.49498,99.2947041 L319.944767,99.2947041 C319.944767,96.5765253 317.84537,94.2632117 315.258647,94.2632117 C314.507969,94.2632117 313.801762,94.4526583 313.174305,94.7827806 Z"/>
    <path fill="#2D2D2D" d="M259.887497,192.029297 L274.231022,192.029297 L274.231022,192.029297 C275.887877,192.029297 277.231022,193.372443 277.231022,195.029297 L277.231022,257.71875 L256.887497,257.71875 L256.887497,195.029297 L256.887497,195.029297 C256.887497,193.372443 258.230642,192.029297 259.887497,192.029297 Z"/>
    <g transform="translate(.707 213.857)">
      <g transform="translate(.323 .12)">
        <polygon fill="#1D365B" points="12.882 30.865 3.149 35.802 5.602 40.65 16.181 34.498 21.457 24.142 16.768 21.023"/>
        <path fill="#5D5C5C" d="M3.48063773,38.9766065 L3.69430157,39.2871629 L8.63375806,39.0031729 L8.63375806,42.6556404 L2.27036455,42.7369606 L0.0420891566,38.3637239 L0.0420891566,38.3637239 L0.0420891566,38.3637239 C1.14881675,37.5812911 2.68028389,37.8441839 3.46271675,38.9509115 C3.46874501,38.9594383 3.4747188,38.9680035 3.48063773,38.9766065 Z" transform="scale(-1 1) rotate(-63 0 47.404)"/>
        <path fill="#7A7474" d="M15.7849779,38.8965468 L15.99409,39.3069523 L21.5200865,38.7483906 L21.5200865,42.6035663 L14.8035311,42.6893997 L12.4515886,38.0734528 L12.4515886,38.0734528 L12.4515886,38.0734528 C13.4753971,37.349642 14.8921223,37.5928382 15.6159331,38.6166466 C15.6789359,38.7057622 15.7354307,38.7993048 15.7849779,38.8965468 Z" transform="scale(-1 1) rotate(-63 0 67.891)"/>
        <polygon fill="#274575" points="15.544 36.027 17.942 40.259 27.267 33.71 22.894 21.724 17.52 22.138 21.405 32.055"/>
        <path fill="#864B23" d="M41.4893961,5.69318791 C42.214511,6.18005376 42.0541267,7.17706023 41.216235,7.35119782 L38.4727745,7.18954397 C37.986755,7.28475894 37.5157583,6.96801049 37.4203317,6.48199099 L37.0386255,4.53452759 C36.8909365,3.78084825 37.6975131,3.20236444 38.3642294,3.58407066 L41.4893961,5.69318791 Z"/>
        <path fill="#AA6739" d="M32.9231385,4.57781866 C31.1506591,6.44001177 31.2236572,9.38659754 33.0858503,11.1588654 C34.9480435,12.9313449 37.8946292,12.8583467 39.6668971,10.9961536 C41.4393765,9.1339605 41.3663784,6.18737473 39.5041853,4.41510686 C37.6419922,2.64262741 34.6954064,2.71562555 32.9231385,4.57781866"/>
        <g fill="#000" transform="rotate(-7 28.564 -241.706)">
          <path d="M0.795933932,5.69793708 C0.618588952,5.75705208 0.174524341,7.26678637 0.974622702,8.85256484 C0.974622702,8.85256484 1.97957759,8.49787488 2.51161253,8.61610486 C2.51161253,8.61610486 3.22099245,5.95593016 4.93532726,5.30566524 C6.64966206,4.65540031 1.0337377,5.77858518 1.0337377,5.77858518" transform="rotate(-18 2.887 6.978)"/>
          <path d="M9.86156882,0.458235782 C10.0190512,0.627068203 10.0233074,1.36009412 9.57923561,2.66086043 C9.11340946,4.0245251 7.91503032,5.00890797 6.48657562,5.20091347 C4.11086227,5.52013443 0.969491521,6.06422883 0.79734866,6.72442508 C0.62000368,7.4042475 -0.4440662,3.17752548 1.50672858,1.58142066 C3.45752336,-0.0146841643 9.03395891,-0.428489118 9.86156882,0.458235782"/>
        </g>
        <path fill="#1560FA" d="M25.948533,29.6995557 L33.8082145,18.510709 C35.2038543,17.0545548 35.1543425,14.7209419 33.6979768,13.3253021 L30.8919077,10.7582732 C29.435542,9.36263344 26.9274,9.60984331 24.8852787,11.6389408 L16.4863572,21.0687282 L25.948533,29.6995557 Z"/>
        <polygon fill="#AA6739" points="47.856 22.984 36.127 19.346 37.015 16.768 48.744 20.406"/>
        <path fill="#AA6739" d="M46.6674821,22.4575174 C46.6566911,23.7810054 47.7207712,24.8624358 49.0442592,24.8732269 C50.3677472,24.8840179 51.4491776,23.8199378 51.4599687,22.4964498 C51.4707597,21.1729617 50.4066796,20.0915313 49.0831916,20.0807403 L47.0819846,20.1327912 C47.0819846,20.1327912 46.3862806,20.1270783 46.2297049,20.3577101"/>
        <path stroke="#333" stroke-width="1.831" d="M77.7330642,32.128916 L52.9132241,24.2834019"/>
        <path fill="#333" d="M55.7790041,26.4566517 L48.4802481,23.7191157 C48.2623116,23.6372308 48.1508043,23.392211 48.2324776,23.1742745 L48.6533277,22.0526422 C48.735001,21.8347058 48.9802325,21.7231984 49.1981689,21.8050833 L56.4969249,24.5426193 C56.7148614,24.6242926 56.8263687,24.869524 56.7444838,25.0874605 L56.3238453,26.2090928 C56.242172,26.4270293 55.9969406,26.538325 55.7790041,26.4566517"/>
        <polygon fill="#1560FA" points="37.594 21.052 27.439 17.675 29.042 12.857 39.197 16.234"/>
      </g>
      <polygon fill="#AA6739" points="31.439 11.415 33.801 13.68 36.821 10.529 34.458 8.265"/>
      <path fill="#333" d="M130.16825 41.104647C130.139961 42.4038029 129.063605 43.4338696 127.764449 43.4055813 126.465293 43.3770593 125.435226 42.3009365 125.463748 41.0017806 125.492037 39.7026248 126.568159 38.6725581 127.867315 38.7008463 129.166471 38.7293684 130.196538 39.8054912 130.16825 41.104647M135.430778 41.0534242C135.430778 42.3528139 134.377098 43.4062593 133.077709 43.4060255 131.778319 43.4060255 130.724874 42.3525801 130.725107 41.0531904 130.725107 39.753567 131.778553 38.7003554 133.078176 38.7003554 134.377566 38.7005892 135.430778 39.7540346 135.430778 41.0534242"/>
      <polygon fill="#FFD00B" points="141.926 41.313 80.985 41.313 80.985 37.42 141.927 37.425"/>
      <polygon fill="#FFD00B" points="80.586 41.313 80.587 27.298 84.723 27.298 94.702 41.313"/>
      <path fill="#333" d="M90.5153104,39.795602 C90.5150766,42.1346436 88.6188281,44.0306583 86.2797865,44.0304245 C83.9407448,44.0301908 82.0447301,42.1339422 82.0449639,39.7949006 C82.0451977,37.455859 83.9414462,35.5598442 86.2804878,35.560078 C88.6195294,35.5603118 90.5155442,37.4565603 90.5153104,39.795602"/>
      <polygon fill="#FFD00B" points="78.234 29.883 83.127 29.883 83.127 27.299 78.234 27.299"/>
      <polygon fill="#333" points="75.748 34.453 80.076 34.453 80.076 30.312 75.748 30.312"/>
      <polygon fill="#EFBA35" points="92.104 41.313 141.92 41.313 141.92 37.387 92.104 37.387"/>
      <polygon fill="#3FAF64" points="102.477 32.097 109.646 32.097 109.646 29.54 102.477 29.54"/>
      <polygon fill="#F76D37" points="105.063 32.097 107.05 32.097 107.05 29.54 105.063 29.54"/>
      <polygon fill="#E5B883" points="105.336 32.097 106.778 32.097 106.778 29.54 105.336 29.54"/>
      <polygon fill="#00C546" points="102.642 34.686 109.811 34.686 109.811 32.129 102.642 32.129"/>
      <polygon fill="#F76D37" points="105.228 34.686 107.215 34.686 107.215 32.129 105.228 32.129"/>
      <polygon fill="#E5B883" points="105.501 34.686 106.942 34.686 106.942 32.129 105.501 32.129"/>
      <polygon fill="#00C546" points="109.875 34.686 117.044 34.686 117.044 32.129 109.875 32.129"/>
      <polygon fill="#F76D37" points="112.461 34.686 114.448 34.686 114.448 32.129 112.461 32.129"/>
      <polygon fill="#E5B883" points="112.734 34.686 114.176 34.686 114.176 32.129 112.734 32.129"/>
      <polygon fill="#EACAA4" points="98.193 39.902 144.237 39.902 144.237 38.458 98.193 38.458"/>
      <polygon fill="#EACAA4" points="98.193 36.091 144.237 36.091 144.237 34.647 98.193 34.647"/>
      <polygon fill="#A88763" points="102.298 38.467 98.193 38.467 98.207 36.074 102.298 36.074"/>
      <polygon fill="#A88763" points="118.081 38.467 122.172 38.467 122.172 36.074 118.081 36.074"/>
      <polygon fill="#A88763" points="140.176 38.467 144.237 38.467 144.237 36.074 140.176 36.074"/>
      <polygon fill="#7F6B54" points="98.18 40.314 144.223 40.314 144.223 39.86 98.18 39.86"/>
      <polygon fill="#3FAF64" points="109.724 32.097 116.894 32.097 116.894 29.54 109.724 29.54"/>
      <polygon fill="#F76D37" points="112.311 32.097 114.298 32.097 114.298 29.54 112.311 29.54"/>
      <polygon fill="#E5B883" points="112.584 32.097 114.025 32.097 114.025 29.54 112.584 29.54"/>
      <polygon fill="#00C546" points="117.097 34.686 124.266 34.686 124.266 32.129 117.097 32.129"/>
      <polygon fill="#F76D37" points="119.683 34.686 121.67 34.686 121.67 32.129 119.683 32.129"/>
      <polygon fill="#E5B883" points="119.956 34.686 121.397 34.686 121.397 32.129 119.956 32.129"/>
      <polygon fill="#3FAF64" points="117.111 32.097 124.281 32.097 124.281 29.54 117.111 29.54"/>
      <polygon fill="#F76D37" points="119.698 32.097 121.685 32.097 121.685 29.54 119.698 29.54"/>
      <polygon fill="#E5B883" points="119.97 32.097 121.412 32.097 121.412 29.54 119.97 29.54"/>
      <polygon fill="#00C546" points="124.403 34.686 131.572 34.686 131.572 32.129 124.403 32.129"/>
      <polygon fill="#F76D37" points="126.989 34.686 128.976 34.686 128.976 32.129 126.989 32.129"/>
      <polygon fill="#E5B883" points="127.262 34.686 128.703 34.686 128.703 32.129 127.262 32.129"/>
      <polygon fill="#3FAF64" points="124.335 32.097 131.504 32.097 131.504 29.54 124.335 29.54"/>
      <polygon fill="#F76D37" points="126.921 32.097 128.908 32.097 128.908 29.54 126.921 29.54"/>
      <polygon fill="#E5B883" points="127.194 32.097 128.635 32.097 128.635 29.54 127.194 29.54"/>
      <polygon fill="#00C546" points="131.65 34.686 138.82 34.686 138.82 32.129 131.65 32.129"/>
      <polygon fill="#F76D37" points="134.236 34.686 136.224 34.686 136.224 32.129 134.236 32.129"/>
      <polygon fill="#E5B883" points="134.509 34.686 135.951 34.686 135.951 32.129 134.509 32.129"/>
      <polygon fill="#3FAF64" points="131.664 32.097 138.834 32.097 138.834 29.54 131.664 29.54"/>
      <polygon fill="#F76D37" points="134.251 32.097 136.238 32.097 136.238 29.54 134.251 29.54"/>
      <polygon fill="#E5B883" points="134.524 32.097 135.965 32.097 135.965 29.54 134.524 29.54"/>
      <polygon fill="#3FAF64" points="102.642 26.895 109.811 26.895 109.811 24.338 102.642 24.338"/>
      <polygon fill="#F76D37" points="105.228 26.895 107.215 26.895 107.215 24.338 105.228 24.338"/>
      <polygon fill="#E5B883" points="105.501 26.895 106.942 26.895 106.942 24.338 105.501 24.338"/>
      <polygon fill="#00C546" points="102.642 29.484 109.811 29.484 109.811 26.927 102.642 26.927"/>
      <polygon fill="#F76D37" points="105.228 29.484 107.215 29.484 107.215 26.927 105.228 26.927"/>
      <polygon fill="#E5B883" points="105.501 29.484 106.942 29.484 106.942 26.927 105.501 26.927"/>
      <polygon fill="#00C546" points="109.875 29.484 117.044 29.484 117.044 26.927 109.875 26.927"/>
      <polygon fill="#F76D37" points="112.461 29.484 114.448 29.484 114.448 26.927 112.461 26.927"/>
      <polygon fill="#E5B883" points="112.734 29.484 114.176 29.484 114.176 26.927 112.734 26.927"/>
      <polygon fill="#3FAF64" points="109.889 26.895 117.059 26.895 117.059 24.338 109.889 24.338"/>
      <polygon fill="#F76D37" points="112.476 26.895 114.463 26.895 114.463 24.338 112.476 24.338"/>
      <polygon fill="#E5B883" points="112.749 26.895 114.19 26.895 114.19 24.338 112.749 24.338"/>
      <polygon fill="#00C546" points="117.097 29.484 124.266 29.484 124.266 26.927 117.097 26.927"/>
      <polygon fill="#F76D37" points="119.683 29.484 121.67 29.484 121.67 26.927 119.683 26.927"/>
      <polygon fill="#E5B883" points="119.956 29.484 121.397 29.484 121.397 26.927 119.956 26.927"/>
      <polygon fill="#3FAF64" points="117.111 26.895 124.281 26.895 124.281 24.339 117.111 24.339"/>
      <polygon fill="#F76D37" points="119.698 26.895 121.685 26.895 121.685 24.339 119.698 24.339"/>
      <polygon fill="#E5B883" points="119.97 26.895 121.412 26.895 121.412 24.339 119.97 24.339"/>
      <polygon fill="#00C546" points="124.403 29.484 131.572 29.484 131.572 26.927 124.403 26.927"/>
      <polygon fill="#F76D37" points="126.989 29.484 128.976 29.484 128.976 26.927 126.989 26.927"/>
      <polygon fill="#E5B883" points="127.262 29.484 128.703 29.484 128.703 26.927 127.262 26.927"/>
      <polygon fill="#3FAF64" points="124.335 26.895 131.504 26.895 131.504 24.339 124.335 24.339"/>
      <polygon fill="#F76D37" points="126.921 26.895 128.908 26.895 128.908 24.339 126.921 24.339"/>
      <polygon fill="#E5B883" points="127.194 26.895 128.635 26.895 128.635 24.339 127.194 24.339"/>
      <polygon fill="#00C546" points="132.063 29.484 139.232 29.484 139.232 26.927 132.063 26.927"/>
      <polygon fill="#F76D37" points="134.649 29.484 136.636 29.484 136.636 26.927 134.649 26.927"/>
      <polygon fill="#E5B883" points="134.922 29.484 136.363 29.484 136.363 26.927 134.922 26.927"/>
      <polygon fill="#3FAF64" points="131.664 26.895 138.834 26.895 138.834 24.339 131.664 24.339"/>
      <polygon fill="#F76D37" points="134.251 26.895 136.238 26.895 136.238 24.339 134.251 24.339"/>
      <polygon fill="#E5B883" points="134.524 26.895 135.965 26.895 135.965 24.339 134.524 24.339"/>
      <polygon fill="#3FAF64" points="101.982 21.693 109.151 21.693 109.151 19.137 101.982 19.137"/>
      <polygon fill="#F76D37" points="104.568 21.693 106.555 21.693 106.555 19.137 104.568 19.137"/>
      <polygon fill="#E5B883" points="104.841 21.693 106.282 21.693 106.282 19.137 104.841 19.137"/>
      <polygon fill="#00C546" points="102.312 24.282 109.481 24.282 109.481 21.725 102.312 21.725"/>
      <polygon fill="#F76D37" points="104.898 24.282 106.885 24.282 106.885 21.725 104.898 21.725"/>
      <polygon fill="#E5B883" points="105.171 24.282 106.613 24.282 106.613 21.725 105.171 21.725"/>
      <polygon fill="#00C546" points="109.875 24.282 117.044 24.282 117.044 21.725 109.875 21.725"/>
      <polygon fill="#F76D37" points="112.461 24.282 114.448 24.282 114.448 21.725 112.461 21.725"/>
      <polygon fill="#E5B883" points="112.734 24.282 114.176 24.282 114.176 21.725 112.734 21.725"/>
      <polygon fill="#3FAF64" points="109.889 21.693 117.059 21.693 117.059 19.137 109.889 19.137"/>
      <polygon fill="#F76D37" points="112.476 21.693 114.463 21.693 114.463 19.137 112.476 19.137"/>
      <polygon fill="#E5B883" points="112.749 21.693 114.19 21.693 114.19 19.137 112.749 19.137"/>
      <polygon fill="#00C546" points="111.814 19.07 118.984 19.07 118.984 16.513 111.814 16.513"/>
      <polygon fill="#F76D37" points="114.4 19.07 116.388 19.07 116.388 16.513 114.4 16.513"/>
      <polygon fill="#E5B883" points="114.674 19.07 116.115 19.07 116.115 16.513 114.674 16.513"/>
      <polygon fill="#3FAF64" points="111.828 16.481 118.998 16.481 118.998 13.924 111.828 13.924"/>
      <polygon fill="#F76D37" points="114.415 16.481 116.402 16.481 116.402 13.924 114.415 13.924"/>
      <polygon fill="#E5B883" points="114.688 16.481 116.129 16.481 116.129 13.924 114.688 13.924"/>
      <polygon fill="#00C546" points="117.097 24.282 124.266 24.282 124.266 21.726 117.097 21.726"/>
      <polygon fill="#F76D37" points="119.683 24.282 121.67 24.282 121.67 21.726 119.683 21.726"/>
      <polygon fill="#E5B883" points="119.956 24.282 121.397 24.282 121.397 21.726 119.956 21.726"/>
      <polygon fill="#3FAF64" points="117.111 21.693 124.281 21.693 124.281 19.137 117.111 19.137"/>
      <polygon fill="#F76D37" points="119.698 21.693 121.685 21.693 121.685 19.137 119.698 19.137"/>
      <polygon fill="#E5B883" points="119.97 21.693 121.412 21.693 121.412 19.137 119.97 19.137"/>
      <polygon fill="#00C546" points="124.403 24.282 131.572 24.282 131.572 21.726 124.403 21.726"/>
      <polygon fill="#F76D37" points="126.989 24.282 128.976 24.282 128.976 21.726 126.989 21.726"/>
      <polygon fill="#E5B883" points="127.262 24.282 128.703 24.282 128.703 21.726 127.262 21.726"/>
      <polygon fill="#3FAF64" points="124.335 21.693 131.504 21.693 131.504 19.137 124.335 19.137"/>
      <polygon fill="#F76D37" points="126.921 21.693 128.908 21.693 128.908 19.137 126.921 19.137"/>
      <polygon fill="#E5B883" points="127.194 21.693 128.635 21.693 128.635 19.137 127.194 19.137"/>
      <polygon fill="#00C546" points="131.65 24.282 138.82 24.282 138.82 21.726 131.65 21.726"/>
      <polygon fill="#F76D37" points="134.236 24.282 136.224 24.282 136.224 21.726 134.236 21.726"/>
      <polygon fill="#E5B883" points="134.509 24.282 135.951 24.282 135.951 21.726 134.509 21.726"/>
      <polygon fill="#00C546" points="119.883 18.983 127.052 18.983 127.052 16.426 119.883 16.426"/>
      <polygon fill="#F76D37" points="122.469 18.983 124.456 18.983 124.456 16.426 122.469 16.426"/>
      <polygon fill="#E5B883" points="122.742 18.983 124.184 18.983 124.184 16.426 122.742 16.426"/>
      <polygon fill="#3FAF64" points="132.077 21.693 139.246 21.693 139.246 19.137 132.077 19.137"/>
      <polygon fill="#F76D37" points="134.663 21.693 136.65 21.693 136.65 19.137 134.663 19.137"/>
      <polygon fill="#E5B883" points="134.936 21.693 136.378 21.693 136.378 19.137 134.936 19.137"/>
    </g>
    <g transform="matrix(-1 0 0 1 268.03 196.961)">
      <g transform="matrix(-1 0 0 1 69.126 16.827)">
        <polygon fill="#FFB069" points=".115 3.886 2.722 3.886 2.722 .162 .115 .162"/>
        <ellipse cx="26.217" cy="18.465" fill="#CE8A41" rx="2.427" ry="2.465"/>
      </g>
      <g transform="translate(97.41 6.648)">
        <path fill="#724B30" d="M4.5418515,5.18761836 C5.2262679,5.07058563 5.68066998,5.73272081 5.29333666,6.29222728 L3.62449495,7.70314686 C3.39695631,8.02431168 2.95178181,8.10038295 2.630617,7.87261925 L1.34303191,6.96021409 C0.844742557,6.60686527 0.992383847,5.83152344 1.58564976,5.68613278 L4.5418515,5.18761836 Z" transform="scale(-1 1) rotate(43 0 -1.633)"/>
        <g transform="matrix(-1 0 0 1 12.162 .313)">
          <path fill="#FCD486" d="M5.81737613,7.07047314 C5.20534612,7.68250315 4.21317075,7.68250315 3.60114074,7.07047314 C2.98931272,6.45844313 2.98931272,5.46626775 3.60114074,4.85423775 C4.21317075,4.24240973 5.20534612,4.24240973 5.81737613,4.85423775 C6.42940614,5.46626775 6.42940614,6.45844313 5.81737613,7.07047314 Z"/>
          <path fill="#FCD486" d="M5.73324725,5.83768715 L5.73324725,5.83768715 C5.89504132,5.67569109 5.89504132,5.41088207 5.73304526,5.249088 L3.80161591,3.31907258 C3.63982184,3.15707652 3.37481083,3.15727851 3.21301676,3.31927457 L3.21301676,3.31927457 C3.05122269,3.48106864 3.05122269,3.74607965 3.21321875,3.90787373 L5.1446481,5.83788914 C5.30644217,5.99968321 5.57145318,5.99968321 5.73324725,5.83768715"/>
          <path fill="#A86639" d="M10.3695664,6.61918685 C10.3695664,9.01761732 8.42520973,10.961974 6.02677927,10.961974 C3.62834881,10.961974 1.68399209,9.01761732 1.68399209,6.61918685 C1.68399209,4.22075639 3.62834881,2.27639968 6.02677927,2.27639968 C8.42520973,2.27639968 10.3695664,4.22075639 10.3695664,6.61918685"/>
          <polygon fill="#A86639" points="4.899 12.081 7.176 12.081 7.176 8.769 4.899 8.769"/>
          <path fill="#000" d="M8.80779704,4.74225698 C8.80779704,7.17179392 6.83839355,9.1411974 4.40885662,9.1411974 C1.97931968,9.1411974 0.00991619241,7.17179392 0.00991619241,4.74225698 C0.00991619241,2.31272004 1.97931968,0.343316555 4.40885662,0.343316555 C6.83839355,0.343316555 8.80779704,2.31272004 8.80779704,4.74225698"/>
          <path fill="#000" d="M2.72957657,4.46031765 C2.72957657,4.06447977 4.79314674,0.0613772251 7.22268368,0.0613772251 C9.65222062,0.0613772251 11.6216241,2.03078071 11.6216241,4.46031765 C11.6216241,4.55845006 2.72957657,4.85615553 2.72957657,4.46031765 Z"/>
          <path fill="#CE3F00" d="M4.62498603,2.43361112 C4.62498603,3.66332685 3.62816488,4.660148 2.39844914,4.660148 C1.16853141,4.660148 0.171710263,3.66332685 0.171710263,2.43361112 C0.171710263,1.20389538 1.16853141,0.207074232 2.39844914,0.207074232 C3.62816488,0.207074232 4.62498603,1.20389538 4.62498603,2.43361112"/>
        </g>
      </g>
      <rect width="5.552" height="20.092" x="85.941" y="36.724" fill="#172235"/>
      <rect width="5.552" height="20.62" x="81.182" y="36.724" fill="#20314F"/>
      <polygon fill="#3C5C97" points="102.668 35.047 107.281 35.047 107.281 57.764 102.668 57.764"/>
      <polygon fill="#486DB1" points="99.174 35.047 103.787 35.047 103.787 57.764 99.174 57.764"/>
      <path fill="#B5B5B5" d="M103.675665,57.6411232 L107.310948,57.6411232 L107.310948,61.0167429 L100.300045,61.0167429 L100.300045,61.0167429 L100.300045,61.0167429 C100.300045,59.1524396 101.811362,57.6411232 103.675665,57.6411232 Z"/>
      <path fill="#D8D8D8" d="M100.224078,57.7108632 L103.935328,57.7108632 L103.935328,61.0105159 L96.9244256,61.0105159 L96.9244256,61.0105159 L96.9244256,61.0105159 C96.9244256,59.188168 98.4017305,57.7108632 100.224078,57.7108632 Z"/>
      <path fill="#D59500" d="M97.9225893,37.1397835 C97.6994589,37.1397835 97.9225893,36.8463619 97.9225893,36.5843784 C97.9225893,36.5843784 97.9564885,31.6212407 97.9225893,27.2852 C97.9148372,26.2936301 97.9441562,25.29177 97.9225893,24.4384831 C97.9132122,24.0674851 97.9225893,23.3321981 97.9225893,22.9635158 C97.9225893,20.6928329 99.5047867,18.8351314 101.438516,18.8351314 L105.504155,18.8351314 C107.437884,18.8351314 109.020082,20.6928329 109.020082,22.9635158 C109.020082,23.3321981 109.020082,24.0676961 109.020082,24.4384831 C109.020082,26.8224666 108.735267,36.5843784 108.735267,36.5843784 C108.735267,36.8463619 108.552706,37.1397835 108.329575,37.1397835 L97.9225893,37.1397835 Z"/>
      <g transform="translate(95.874 18.835)">
        <path fill="#CE3F00" d="M6.36910835,14.68286 L1.47101208,14.68286 C0.843937015,14.68286 0.335366237,14.1698066 0.335366237,13.5411699 L0.335366237,10.2899622 C0.335366237,9.66132546 0.843937015,9.15192975 1.47101208,9.15192975 L6.36910835,9.15192975 L6.36910835,14.68286 Z"/>
        <path fill="#8D3006" d="M6.34652837,14.68286 L6.14004962,14.68286 C5.57461908,14.68286 5.11207874,14.2004324 5.11207874,13.6109875 L5.11207874,10.2238023 C5.11207874,9.63435733 5.57461908,9.15192975 6.14004962,9.15192975 L6.34652837,9.15192975 C6.91195891,9.15192975 7.37473203,9.63435733 7.37473203,10.2238023 L7.37473203,13.6109875 C7.37473203,14.2004324 6.91195891,14.68286 6.34652837,14.68286"/>
        <path fill="#CE3F00" d="M6.51353413,10.6603653 L5.95728405,10.6603653 C5.75942003,10.6603653 5.59889799,10.4954074 5.59889799,10.2920756 L5.59889799,2.12591294 C5.59889799,0.93183716 4.60933541,0.257054768 4.60933541,0.257054768 C4.60933541,0.257054768 4.58969449,0.108542838 5.21553645,0.101316586 L5.48832692,0.101316586 C6.25238272,0.101316586 6.87192019,1.09156224 6.87192019,1.87673185 L6.87192019,10.2920756 C6.87192019,10.4954074 6.71139815,10.6603653 6.51353413,10.6603653"/>
        <polygon fill="#A86639" points="1.754 4.799 3.993 5.195 2.239 20.497 0 20.497"/>
        <path fill="#D59500" d="M3.49224525,0.115345037 L3.66169284,0.137217352 C4.94160039,0.302139636 5.84540467,1.47369123 5.68023098,2.75359877 L5.22116377,6.31526646 C5.19828583,6.49150201 5.03713464,6.61594794 4.86089909,6.59307 L0.694600158,6.05581555 C0.518364607,6.03318902 0.393918676,5.87178642 0.416545209,5.69580227 L0.875863827,2.13413458 C1.04103752,0.853975633 2.2123377,-0.0495772477 3.49224525,0.115345037"/>
      </g>
      <g fill="#A86639" transform="scale(-1 1) rotate(82 -68.635 -36.787)">
        <rect width="2.829" height="1" x="1.83" y=".614" rx=".5"/>
        <rect width="2.829" height="1" x=".073" y=".15" rx=".5"/>
        <rect width="3.286" height="1" x="2.167" y="1.168" rx=".5"/>
        <rect width="3.286" height="1" x="1.878" y="1.782" rx=".5"/>
        <rect width="3.286" height="1" x="1.359" y="2.346" rx=".5"/>
      </g>
      <path fill="#000" d="M110.05314,22.8214438 L105.91408,22.8214438 L105.91408,10.7860276 C105.91408,9.7346275 106.780033,8.87428316 107.838289,8.87428316 L108.128732,8.87428316 C109.187186,8.87428316 110.05314,9.7346275 110.05314,10.7860276 L110.05314,22.8214438 Z"/>
      <g transform="translate(62.672 .117)">
        <polygon fill="#823C19" points="14.815 16.131 12.999 17.976 7.305 12.193 9.121 10.348"/>
        <g transform="rotate(-44 20.49 -11.524)">
          <path fill="#682E15" d="M2.60216101,1.88861675 L6.60319796,2.57358551 C7.40609229,2.77361859 7.60579119,3.83945959 6.93132352,4.32485777 L5.18891075,5.57893799 C4.75399068,5.89205335 4.15170608,5.78775865 3.84361872,5.34606711 L1.58499454,3.40701813 C1.06104109,2.6378736 1.67562186,1.72789653 2.60216101,1.88861675"/>
          <path fill="#823C19" d="M10.107538,7.46008143 C10.107538,10.2697946 7.86462556,12.5476279 5.09798741,12.5476279 C2.33134926,12.5476279 0.0884368511,10.2697946 0.0884368511,7.46008143 C0.0884368511,4.65036825 2.33134926,2.37253493 5.09798741,2.37253493 C7.86462556,2.37253493 10.107538,4.65036825 10.107538,7.46008143"/>
          <path fill="#000" d="M13.7920396,3.99490726 L10.2994721,0.447962332 C9.78963645,-0.0869238073 9.00791885,-0.16485577 8.47349089,0.345286394 L6.37972646,2.47141833 L6.40340797,2.49546855 C6.66139983,2.75747719 6.66139983,3.18251858 6.40340797,3.44452723 L4.51070869,5.3666948 C4.33856232,5.54152139 4.33856232,5.82503649 4.51070869,5.99986308 L4.79488683,6.28846572 C4.9670332,6.46329232 5.2462018,6.46329232 5.41834817,6.28846572 L5.73668234,5.96540652 C6.33213573,5.36068224 7.36729104,5.4603519 7.78672705,6.31529097 C8.03242273,6.81572054 7.91447059,7.42321985 7.52531959,7.81842971 L7.22520197,8.12322 C7.05282789,8.29827785 7.05282789,8.58179294 7.22520197,8.75661954 L9.04662902,10.6064052 L13.7790603,5.90366221 C14.2948163,5.37733239 14.300509,4.52840588 13.7920396,3.99490726"/>
        </g>
        <polygon fill="#823C19" points="21.154 19.16 24.326 19.16 24.326 14.93 21.154 14.93"/>
        <path fill="#DCDCDC" d="M29.8780794,36.6077158 L15.789781,36.5937878 C15.541346,36.5937878 15.338081,36.3848676 15.338081,36.1295206 L15.338081,22.6545618 C15.338081,20.4416324 17.0997111,18.6309905 19.2529652,18.6309905 L25.963421,18.6309905 C28.1164492,18.6309905 29.8780794,20.4416324 29.8780794,22.6545618 L29.8780794,36.6077158 Z"/>
        <polygon fill="#DCDCDC" points="19.795 19.902 16.101 23.655 11.35 18.83 15.045 15.078"/>
        <rect width="8.46" height="3.965" x=".005" y="29.999" fill="#EFEFEF"/>
      </g>
      <path fill="#B5B5B5" d="M86.733934,56.8161218 L91.492479,56.8161218 L91.492479,61.0459395 L82.5041163,61.0459395 L82.5041163,61.0459395 L82.5041163,61.0459395 C82.5041163,58.7098757 84.3978702,56.8161218 86.733934,56.8161218 Z"/>
      <path fill="#D8D8D8" d="M81.7110255,56.8161218 L86.733934,56.8161218 L86.733934,61.0459395 L77.4812077,61.0459395 L77.4812077,61.0459395 L77.4812077,61.0459395 C77.4812077,58.7098757 79.3749617,56.8161218 81.7110255,56.8161218 Z"/>
      <g transform="translate(2.912 33.193)">
        <polygon fill="#2A2A2A" points="13.092 .905 19.297 1.483 18.357 9.743 21.524 20.523 16.284 22.318 13.092 10.616" transform="rotate(-25 17.308 11.611)"/>
        <polygon fill="#565656" points="4.276 3.666 10.39 1.03 9.895 13.987 13.511 22.506 8.653 24.601 4.377 14.428" transform="rotate(23 8.894 12.815)"/>
        <path fill="#6B370A" d="M4.33396742,23.3585902 L9.35687597,23.3585902 L9.35687597,27.5884079 L0.104149696,27.5884079 L0.104149696,27.5884079 L0.104149696,27.5884079 C0.104149696,25.2523441 1.9979036,23.3585902 4.33396742,23.3585902 Z"/>
        <path stroke="#979797"/>
        <path fill="#6B370A" d="M22.6628589,20.3157495 L27.5399422,20.3157495 L27.5399422,24.6186153 L18.3599932,24.6186153 L18.3599932,24.6186153 L18.3599932,24.6186153 C18.3599932,22.2422081 20.2864518,20.3157495 22.6628589,20.3157495 Z" transform="rotate(-44 22.95 22.467)"/>
      </g>
      <g transform="translate(26.604 3.378)">
        <polygon fill="#CE8A41" points="11.614 15.988 14.675 15.988 14.675 11.601 11.614 11.601"/>
        <polygon fill="#6C6C6C" points="13.346 25.015 18.898 25.015 18.898 53.229 13.346 53.229"/>
        <polygon fill="#7D7D7D" points="8.323 28.944 13.61 28.944 13.61 53.229 8.323 53.229"/>
        <path fill="#595959" d="M13.874768,53.2286026 L18.8976765,53.2286026 L18.8976765,57.4584203 L9.64495026,57.4584203 L9.64495026,57.4584203 L9.64495026,57.4584203 C9.64495026,55.1223565 11.5387042,53.2286026 13.874768,53.2286026 Z"/>
        <path fill="#686868" d="M8.58749583,53.2286026 L13.6104044,53.2286026 L13.6104044,57.4584203 L4.3576781,57.4584203 L4.3576781,57.4584203 L4.3576781,57.4584203 C4.3576781,55.1223565 6.251432,53.2286026 8.58749583,53.2286026 Z"/>
        <polygon fill="#CECECE" points="11.231 15.16 15.725 15.16 15.725 14.103 11.231 14.103"/>
        <ellipse cx="11.951" cy="34.858" fill="#7D7D7D" rx="3.984" ry="5.38"/>
        <path fill="#DB4028" d="M20.4838582,26.2635029 L18.7787862,31.4132604 L11.7370485,33.3753609 L10.1117486,37.3490783 L7.00131418,37.3490783 L7.00131418,19.178837 C7.00131418,16.9685408 8.76846411,15.1779275 10.9284651,15.1779275 L16.5569338,15.1779275 C18.7167082,15.1779275 20.4838582,16.9685408 20.4838582,19.178837 L20.4838582,26.2635029 Z"/>
        <g transform="rotate(-67 10.49 6.858)">
          <path fill="#000" d="M1.42344675,6.50532788 C1.42344675,6.50532788 0.804424154,8.99518456 0.0770611988,9.46146808 C0.0770611988,9.46146808 3.15096228,11.0162097 4.77698,8.67946453"/>
          <g transform="translate(1.258)">
            <path fill="#B47735" d="M2.62627579,2.03419477 L6.63395672,2.72030097 C7.4381843,2.92066622 7.63821482,3.98827711 6.96262715,4.47448133 L5.21732099,5.73064403 C4.78167871,6.04427934 4.17839398,5.93981144 3.86979502,5.49738645 L1.60742024,3.55511756 C1.08259674,2.78469581 1.69819806,1.87320767 2.62627579,2.03419477"/>
            <path fill="#CE8A41" d="M5.12624667,12.7109059 C2.35501434,12.7109059 0.108377425,10.4292901 0.108377425,7.61491123 C0.108377425,4.80053234 2.35501434,2.51891652 5.12624667,2.51891652 C7.897479,2.51891652 10.1441159,4.80053234 10.1441159,7.61491123 C10.1441159,10.4292901 7.897479,12.7109059 5.12624667,12.7109059 Z"/>
            <path fill="#000" d="M3.28870295,12.3278493 C3.28870295,12.3278493 1.21084891,11.8386338 0.353249444,9.36174873 C-0.863127678,5.84875528 1.84424086,3.75731273 1.84424086,3.75731273 C2.02488416,5.8225804 3.15641367,6.00858421 3.85891536,5.88558543 C4.29661041,5.80868224 4.61433277,5.4512677 4.61433277,5.4512677 C4.61433277,5.4512677 5.55062155,6.030358 5.62657385,6.26199413 C5.62657385,6.26199413 5.37339954,6.49965279 4.98497084,6.89899347 C4.06054247,7.84893321 2.71849054,9.25867065 3.28870295,12.3278493"/>
            <path fill="#000" d="M9.06297037,1.90385313 C8.55206004,1.36784714 7.76904436,1.2900174 7.23395703,1.80077505 L6.35309289,2.69535376 L6.37681373,2.71921228 C6.63523399,2.98165601 6.63523399,3.4074032 6.37681373,3.66984693 L4.48097149,5.59520638 C4.30853926,5.77032329 4.30853926,6.05430918 4.48097149,6.22942609 L4.76562153,6.51873961 C4.93805376,6.69385652 4.98868862,6.86410907 5.28451483,6.59494789 L5.70898095,6.19491231 C6.30542313,5.58918384 7.34229738,5.68901901 7.76242989,6.54537776 C8.00853357,7.04663833 7.89038556,7.65514643 7.50058835,8.05101256 L6.46767023,9.38228735 C6.29500991,9.55740425 6.41158746,12.2194553 6.58424778,12.3945722 C7.67429224,12.1338104 8.54941921,11.7623411 9.20962866,11.2801641 C9.71056035,10.914314 10.1816318,10.4703448 10.6228431,9.94825642 C11.1394556,9.4210526 13.4556587,6.36493322 10.4146019,3.27652879 L9.06297037,1.90385313 Z"/>
            <path fill="#000" d="M5.85251481,1.70311726 C5.84179482,2.59862251 6.54817396,3.33360393 7.42995044,3.34449083 C8.31172691,3.35514609 9.03544051,2.63800065 9.04593242,1.7424954 C9.05665241,0.846758515 8.35050136,0.112008733 7.46872488,0.101121835 C6.58672032,0.090234937 5.86323481,0.80761201 5.85251481,1.70311726"/>
          </g>
        </g>
        <g transform="rotate(18 -90.295 60.454)">
          <rect width="5.242" height="5.242" fill="#6B370A" rx="2"/>
          <rect width="2.306" height="1.048" x="3.355" y="2.097" fill="#AD6629"/>
        </g>
        <ellipse cx="18.401" cy="31.914" fill="#CE8A41" rx="2.427" ry="2.465"/>
        <path fill="#DB4028" d="M18.0065102,17.1701128 L18.9382672,25.0637157 L12.8047218,28.1005032 L14.9618806,32.2957244 L14.9618806,32.2957244 L14.9618806,32.2957244 C20.5527804,29.5177038 23.6927351,23.4314809 22.716267,17.2652771 L22.6403542,16.7859024 L18.0065102,17.1701128 Z" transform="rotate(-41 17.849 24.54)"/>
        <path fill="#A2A2A2" d="M11.357567,35.1671133 L17.5377522,35.1671133 L17.5377522,37.9996982 L17.5377522,37.9996982 C17.5377522,39.7063092 16.1542706,41.0897908 14.4476596,41.0897908 L14.4476596,41.0897908 L14.4476596,41.0897908 C12.7410486,41.0897908 11.357567,39.7063092 11.357567,37.9996982 L11.357567,35.1671133 Z" transform="rotate(18 14.448 38.128)"/>
        <path stroke="#979797"/>
        <polygon fill="#19C157" points="14.693 31.099 15.396 30.252 16.014 31.431"/>
      </g>
      <rect width="3.484" height="7.119" x="66.468" y="5.077" fill="#19C157" transform="rotate(22 68.21 8.636)"/>
      <path fill="#823C19" d="M71.0980662,11.7594013 C70.2312726,12.6396904 68.8258467,12.6396904 67.9590531,11.7594013 C67.0922595,10.8791122 67.0922595,9.45180457 67.9590531,8.57151549 C68.8258467,7.6912264 70.2312726,7.6912264 71.0980662,8.57151549 C71.9648598,9.45180457 71.9648598,10.8791122 71.0980662,11.7594013"/>
      <g transform="matrix(-1 0 0 1 20.707 6.65)">
        <polygon fill="#FFB069" points="4.368 13.249 7.27 13.249 7.27 9.38 4.368 9.38"/>
        <path fill="#D1D1D1" d="M13.7992603,31.8702906 L0.0146493183,31.8702906 L0.0146493183,18.1805489 C0.0146493183,16.1332619 1.6847586,14.4581504 3.72614603,14.4581504 L10.0879777,14.4581504 C12.129151,14.4581504 13.7992603,16.1332619 13.7992603,18.1805489 L13.7992603,31.8702906 Z"/>
        <polygon fill="#EFEFEF" points="2.917 14.458 8.721 14.458 8.721 12.282 2.917 12.282"/>
        <g transform="rotate(-1 19.348 -32.498)">
          <path fill="#E29E66" d="M10.5721238,4.13069355 C11.3279934,4.59955677 11.2015124,5.62002376 10.3551453,5.82795253 L7.55726441,5.76460429 C7.06642323,5.87944992 6.57515111,5.57455955 6.46030548,5.0835029 L6.00006107,3.11561331 C5.82186719,2.35392605 6.62147721,1.7355265 7.31399852,2.09945571 L10.5721238,4.13069355 Z"/>
          <path stroke="#000" stroke-width="2" d="M7.73483342,3.05646673 L7.73375607,3.0385827 C7.71931957,2.80199639 7.90096097,2.59665326 8.13754728,2.58221676 L9.15198111,2.5203768 C9.38856742,2.5059403 9.59391055,2.6875817 9.60834705,2.92416801 L9.6094244,2.94205204 C9.64842451,3.5828605 9.38382708,4.12519906 8.74323409,4.16419917 L8.74323409,4.16419917 C8.10242563,4.20341475 7.77383353,3.69727519 7.73483342,3.05646673 Z"/>
          <path fill="#FFB069" d="M8.74590592,9.48474086 C7.01072417,11.4453045 4.0150416,11.6280232 2.05447799,9.89284148 C0.0939143908,8.1578752 -0.0888043623,5.16197715 1.64637738,3.20141355 C3.38134366,1.24106542 6.3772417,1.05834667 8.33780531,2.79331294 C10.2981534,4.52849468 10.4810877,7.52417726 8.74590592,9.48474086"/>
          <polygon fill="#000" points="8.501 2.35 4.338 2.616 4.439 3.298 4.621 3.018 8.994 2.749"/>
          <path fill="#997239" d="M5.96916264,0.0077569282 C6.66082207,-0.0456796883 7.26284589,0.390216583 7.32662508,1.0812296 L6.99199981,1.84356327 C6.99243075,1.85218208 7.10619903,2.00839799 7.09736475,2.00882893 C6.74399358,2.03037596 6.75584444,2.51346021 6.77739146,2.86683138 L6.92972892,5.36348491 C6.94438089,5.60222592 6.76252402,5.80735358 6.52399848,5.82200556 L6.17579859,5.84312164 C5.93705758,5.85777361 5.73171445,5.67613221 5.71727794,5.4373912 L5.6922834,5.02799777 C5.64401807,4.23592921 4.85518156,3.65782259 4.03359358,3.98253622 C3.54296787,4.17645943 3.24906648,4.68389181 3.28117155,5.21028558 L3.30401139,5.58455736 C3.3184479,5.82329838 3.1368065,6.0286415 2.89806548,6.04307801 L0.496218853,6.18959776 C0.487600044,6.19024418 0.480274056,6.18378007 0.479627646,6.17516126 L0.199516349,2.6966099 C0.141554858,1.7463862 0.82438001,0.522084362 2.67440739,0.208790651 C2.67483833,0.208647004 3.77309008,0.141635763 5.96916264,0.0077569282 Z"/>
          <path fill="#997239" d="M6.07991434,0.029303951 C6.07991434,0.029303951 8.08572669,-0.24563606 9.12041472,1.38935203 C9.12041472,1.38935203 6.9993258,1.72354635 6.76597154,2.83041691"/>
        </g>
        <g transform="translate(4.63 33.965)">
          <path fill="#7E4513" d="M14.6648228,11.8106403 L14.6648228,2.62178066 C14.6648228,1.22430137 14.2970337,0.0909646573 13.8429267,0.0909646573 L1.67505752,0.0909646573 L1.67505752,6.86144042 L1.67505752,11.8106403"/>
          <path fill="#4E2C0E" d="M2.3712298,11.6545337 L2.3712298,0.864608561 C2.3712298,0.437308359 2.0248861,0.0909646573 1.5975859,0.0909646573 L0.78399988,0.0909646573 C0.356967746,0.0909646573 0.0106240445,0.437308359 0.0106240445,0.864608561 L0.0106240445,11.6545337"/>
        </g>
        <path stroke="#777" stroke-width="3" d="M10.2090931,34.0812304 L10.2090931,32.303601 C10.2090931,32.0665837 10.4030164,31.8726605 10.6400336,31.8726605 L13.6835506,31.8726605 C13.9205678,31.8726605 14.114491,32.0665837 14.114491,32.303601 L14.114491,34.0812304"/>
        <path fill="#FFB069" d="M10.4956901,32.7912963 C10.7337847,33.1496233 13.4614223,33.2078002 13.7262352,32.8287881 C14.1713967,32.1912117 14.1815238,31.3200656 13.7512298,30.6725775 C12.9811392,29.5135632 11.3174935,29.4943863 10.5206846,30.6350857 C10.0755232,31.2726621 10.0653961,32.1438083 10.4956901,32.7912963"/>
        <path fill="#FFB069" d="M12.7323572 33.5723759L12.7323572 33.5723759C12.4490139 33.5799173 12.2109193 33.35432 12.2033778 33.0707612L12.1262395 30.7678154C12.1219301 30.6062127 12.2505658 30.4704665 12.412384 30.4661571L12.8551753 30.4543062C13.016778 30.4499968 13.1525242 30.578848 13.1568336 30.7404507L13.2339719 33.0433965C13.2415134 33.3267398 13.0157006 33.5648344 12.7323572 33.5723759M10.6899581 33.0623578L10.6128197 30.759412C10.6085103 30.5978094 10.737146 30.4620631 10.8989642 30.4577537L11.3417555 30.4459029C11.5033582 30.4415935 11.6391044 30.5702292 11.6434138 30.7320473L11.7205522 33.0349931C11.7280936 33.3183365 11.5022808 33.5564311 11.2189375 33.5639725 10.9355941 33.571514 10.6974995 33.3459167 10.6899581 33.0623578z"/>
        <path fill="#FFB069" d="M13.4770439 33.4763192L13.4770439 33.4763192C13.1937006 33.4838607 12.955606 33.2582634 12.9480645 32.9747046L12.893766 31.5286839C12.8894566 31.3670812 13.0180923 31.2311195 13.1799105 31.2268101L13.6227018 31.2151747C13.7843044 31.2108653 13.9200507 31.339501 13.9243601 31.5011037L13.9786586 32.9473398C13.9862001 33.2306832 13.7603873 33.4687778 13.4770439 33.4763192M11.9292782 33.5636924L11.9292782 33.5636924C11.6459348 33.5712339 11.4078402 33.3456366 11.4002988 33.0620777L11.3231604 30.7591319C11.318851 30.5975293 11.4474867 30.461783 11.6093049 30.4574736L12.0520962 30.4456228C12.2136989 30.4413134 12.3494451 30.5701645 12.3537545 30.7317672L12.4308929 33.034713C12.4384343 33.3180564 12.2126215 33.556151 11.9292782 33.5636924"/>
        <polygon fill="#EFEFEF" points="9.93 30.823 14.041 30.823 14.041 29.372 9.93 29.372"/>
      </g>
      <g transform="translate(59.94 33.79)">
        <polygon fill="#E39753" points="6.965 9.531 11.116 9.531 10.214 24.746 7.867 24.746"/>
        <polygon fill="#FFB069" points="3.174 9.531 7.326 9.531 6.423 24.746 4.077 24.746"/>
        <polygon fill="#373737" points="2.299 .043 12.101 .043 12.184 12.256 2.467 12.256"/>
        <path fill="#B5B5B5" d="M6.83463594,23.796741 L10.4699187,23.796741 L10.4699187,27.1723607 L3.45901624,27.1723607 L3.45901624,27.1723607 L3.45901624,27.1723607 C3.45901624,25.3080575 4.97033266,23.796741 6.83463594,23.796741 Z"/>
        <path fill="#D8D8D8" d="M3.38304922,23.8664811 L7.09429899,23.8664811 L7.09429899,27.1661338 L0.0833965351,27.1661338 L0.0833965351,27.1661338 L0.0833965351,27.1661338 C0.0833965351,25.3437859 1.56070136,23.8664811 3.38304922,23.8664811 Z"/>
      </g>
      <g transform="translate(47.78 29.082)">
        <g transform="translate(5.78 .027)">
          <path fill="#CC9266" d="M1.50191588,4.19575734 L0.342580416,3.57332047 C0.198970777,3.49620391 0.144532321,3.3155497 0.221648881,3.17194006 L0.221648881,3.17194006 C0.29876544,3.02827538 0.479419651,2.97383692 0.62302929,3.05095348 L1.78236475,3.67339035 C1.92602943,3.75050691 1.98046789,3.93116112 1.90335133,4.0748258 L1.90335133,4.0748258 C1.82617973,4.21843544 1.64558056,4.2728739 1.50191588,4.19575734"/>
          <path fill="#CC9266" d="M1.77072846,3.61498323 L0.506754471,3.2491612 C0.350154463,3.203805 0.259111786,3.03856309 0.304412949,2.88196308 L0.304412949,2.88196308 C0.349769155,2.72530803 0.515011062,2.63426535 0.671611071,2.67962156 L1.93558506,3.04544358 C2.09218507,3.09079979 2.18322775,3.2560417 2.13792658,3.4126417 L2.13792658,3.4126417 C2.09257038,3.56924171 1.92732847,3.66033943 1.77072846,3.61498323"/>
          <path fill="#CC9266" d="M1.79404507,3.02173065 L0.828023931,2.96393452 C0.665259001,2.95419174 0.540089081,2.81305908 0.549831859,2.65029415 L0.549831859,2.65029415 C0.559574636,2.48752922 0.700707298,2.3623593 0.863417184,2.37210207 L1.82943833,2.42989821 C1.99220326,2.43964099 2.11742822,2.58077365 2.10768544,2.74353858 L2.10768544,2.74353858 C2.09794267,2.90624847 1.95681,3.03147343 1.79404507,3.02173065"/>
          <g transform="translate(1.471 .044)">
            <mask id="header-background-mobile-b" fill="#fff">
              <use xlink:href="#header-background-mobile-a"/>
            </mask>
            <path fill="#FFBC85" d="M2.06419178,0.257842327 C2.45632481,0.649975355 2.37172227,1.37039044 1.87522593,1.86688678 C1.3787296,2.36343816 0.658314512,2.44804069 0.266181484,2.05585262 C-0.126006587,1.66371959 -0.0414040515,0.94330451 0.45514733,0.446808173 C0.951643667,-0.0496881645 1.67205875,-0.1342907 2.06419178,0.257842327" mask="url(#header-background-mobile-b)"/>
          </g>
          <path fill="#FFBC85" d="M0.41689524,3.53901158 L0.41689524,3.53901158 C0.222314912,3.53901158 0.0646140247,3.38131069 0.0646140247,3.18673037 L0.0646140247,1.53475164 C0.0646140247,1.34017132 0.222314912,1.18247043 0.41689524,1.18247043 L0.41689524,1.18247043 C0.611420523,1.18247043 0.769176455,1.34017132 0.769176455,1.53475164 L0.769176455,3.18673037 C0.769176455,3.38131069 0.611420523,3.53901158 0.41689524,3.53901158"/>
          <path fill="#FFBC85" d="M0.119547877,1.67792093 L0.119547877,1.67792093 C0.032303232,1.50403713 0.102594343,1.29233813 0.276478149,1.20509349 L2.31629647,0.181936734 C2.49023532,0.0946920897 2.70187927,0.164983201 2.78912391,0.338867007 L2.78912391,0.338867007 C2.87636856,0.512750813 2.80607745,0.724449805 2.63219364,0.81169445 L0.59237532,1.8348512 C0.41843647,1.92209585 0.206792521,1.85180474 0.119547877,1.67792093"/>
          <path fill="#FFBC85" d="M1.87367714,1.61972848 L0.884097192,2.60930843 C0.841328051,2.65207757 0.771257115,2.65207757 0.72843293,2.60930843 L0.300025947,2.18090144 C0.257256805,2.13807726 0.257256805,2.06800632 0.300025947,2.02523718 L1.2896059,1.03565723 C1.33243008,0.992833047 1.40250102,0.992833047 1.44527016,1.03565723 L1.87367714,1.46406422 C1.91650133,1.50683336 1.91650133,1.57690429 1.87367714,1.61972848"/>
        </g>
        <g transform="rotate(-32 8.587 1.994)">
          <g transform="translate(0 .164)">
            <mask id="header-background-mobile-d" fill="#fff">
              <use xlink:href="#header-background-mobile-c"/>
            </mask>
            <polygon fill="#A59D77" points="6.793 2.089 2.057 6.825 0 4.769 4.737 .032" mask="url(#header-background-mobile-d)"/>
          </g>
          <polygon fill="#D8D09C" points="6.608 2.236 2.062 6.782 .561 5.282 5.107 .735"/>
          <polygon fill="#494845" points="2.97 4.616 1.638 5.948 1.547 5.857 2.879 4.525"/>
        </g>
        <path fill="#FFBC85" d="M7.11733034,1.67770391 L5.53101904,3.26401521 C5.37353833,3.42149592 5.37353833,3.6791566 5.53101904,3.83663731 L5.53101904,3.83663731 C5.68849975,3.99411803 5.94616043,3.99411803 6.10364114,3.83663731 L7.68995245,2.25032601 C7.84743316,2.0928453 7.84743316,1.83518462 7.68995245,1.67770391 L7.68995245,1.67770391 C7.53247173,1.52022319 7.27481105,1.52022319 7.11733034,1.67770391"/>
      </g>
      <rect width="7.758" height="3.355" x="55.539" y="27.437" fill="#295A6E" transform="rotate(-23 59.418 29.114)"/>
      <g transform="matrix(-1 0 0 1 79.98 4.457)">
        <path fill="#3D7991" d="M8.2573452,29.4850931 C8.01086867,29.4850931 7.80920605,29.2097503 7.80920605,28.9639085 C7.80920605,28.9639085 7.15181244,24.1087566 6.85671281,21.5012692 C6.81772471,21.1573141 6.85671281,20.4631463 6.85671281,20.1171799 C6.85671281,17.986402 8.6044555,16.2431602 10.7405108,16.2431602 L14.6025474,16.2431602 C16.7386027,16.2431602 18.4863454,17.986402 18.4863454,20.1171799 C18.4863454,20.4631463 18.5242132,21.1573141 18.4863454,21.5012692 C18.2490557,23.6617715 16.9048623,28.9639085 16.9048623,28.9639085 C16.9048623,29.2097503 16.7031997,29.4850931 16.4567232,29.4850931 L8.2573452,29.4850931 Z"/>
        <path fill="#E29754" d="M3.99259972,1.18222131 C4.67701612,1.06518858 5.1314182,1.72732375 4.74408488,2.28683023 L3.07524317,3.69774981 C2.84770454,4.01891462 2.40253004,4.0949859 2.08136522,3.8672222 L0.793780133,2.95481704 C0.295490781,2.60146822 0.443132071,1.82612639 1.03639798,1.68073573 L3.99259972,1.18222131 Z" transform="rotate(82 4.783 16.03)"/>
        <g transform="rotate(40 6.064 17)">
          <path fill="#FFB069" d="M13.2206873,6.93812749 C13.2206873,9.61052486 11.0542314,11.7769807 8.38183407,11.7769807 C5.70943671,11.7769807 3.54298083,9.61052486 3.54298083,6.93812749 C3.54298083,4.26573012 5.70943671,2.09927425 8.38183407,2.09927425 C11.0542314,2.09927425 13.2206873,4.26573012 13.2206873,6.93812749"/>
          <path fill="#C1842B" d="M12.1722766,5.56877704 C12.1722766,8.2758341 9.97791293,10.4701978 7.27085588,10.4701978 C4.56379882,10.4701978 2.36943514,8.2758341 2.36943514,5.56877704 C2.36943514,2.86171998 4.56379882,0.667356298 7.27085588,0.667356298 C9.97791293,0.667356298 12.1722766,2.86171998 12.1722766,5.56877704"/>
          <path fill="#C1842B" d="M5.07532187,8.64815572 C3.46319602,6.47269733 3.91984873,3.40238868 6.09530712,1.79048789 C8.27076551,0.178362045 11.3410742,0.635014753 12.9529749,2.81047314 L5.07532187,8.64815572 Z"/>
          <path fill="#C1842B" d="M7.53714761,16.0030701 L7.53714761,16.0030701 C5.07552451,16.0030701 3.08010778,13.9877344 3.08010778,11.5015384 L3.08010778,5.76208546 C3.08010778,3.2758895 5.07552451,1.26055375 7.53714761,1.26055375 L7.53714761,5.87462376 C9.99877071,5.87462376 11.9941874,3.2758895 11.9941874,5.76208546 L11.9941874,11.5015384 C11.9941874,13.9877344 9.99877071,16.0030701 7.53714761,16.0030701" transform="rotate(-29 7.537 8.632)"/>
        </g>
      </g>
      <g transform="rotate(-11 213.996 -241.7)">
        <path fill="#494949" d="M4.11572685,15.4417544 L3.45619864,15.4417544 C3.2215975,15.4417544 3.03127157,15.2461691 3.03127157,15.005085 L3.03127157,5.32272296 C3.03127157,3.9069449 1.85797836,3.10687666 1.85797836,3.10687666 C1.85797836,3.10687666 1.83469075,2.93079074 2.57673186,2.9222228 L2.90017093,2.9222228 C3.80608784,2.9222228 4.54065391,4.0963259 4.54065391,5.02727679 L4.54065391,15.005085 C4.54065391,15.2461691 4.35032799,15.4417544 4.11572685,15.4417544" transform="rotate(-168 3.2 9.182)"/>
        <path fill="#7C7C7C" d="M7.30306012,6.66864619 L1.49554157,6.66864619 C0.752038405,6.66864619 0.149042043,6.06033492 0.149042043,5.31498014 L0.149042043,1.46012551 C0.149042043,0.714770732 0.752038405,0.110796283 1.49554157,0.110796283 L7.30306012,0.110796283 L7.30306012,6.66864619 Z"/>
        <path fill="#333" d="M7.27628775,6.66864619 L7.0314724,6.66864619 C6.36105921,6.66864619 5.81263969,6.09664699 5.81263969,5.39776066 L5.81263969,1.38168181 C5.81263969,0.682795476 6.36105921,0.110796283 7.0314724,0.110796283 L7.27628775,0.110796283 C7.94670094,0.110796283 8.49539647,0.682795476 8.49539647,1.38168181 L8.49539647,5.39776066 C8.49539647,6.09664699 7.94670094,6.66864619 7.27628775,6.66864619"/>
      </g>
      <path fill="#7C7C7C" d="M58.1531674,51.1738445 L57.4936392,51.1738445 C57.2590381,51.1738445 57.0687122,50.9782591 57.0687122,50.737175 L57.0687122,41.054813 C57.0687122,39.6390349 55.895419,38.8389667 55.895419,38.8389667 C55.895419,38.8389667 55.8721313,38.6628808 56.6141725,38.6543128 L56.9376115,38.6543128 C57.8435284,38.6543128 58.5780945,39.8284159 58.5780945,40.7593668 L58.5780945,50.737175 C58.5780945,50.9782591 58.3877686,51.1738445 58.1531674,51.1738445" transform="scale(1 -1) rotate(1 5203.88 0)"/>
      <g fill="#FFB069" transform="rotate(37 -18.902 102.95)">
        <path d="M0.500703764,3.02168593 C0.738798366,3.38001292 3.46643598,3.43818988 3.73124889,3.05917775 C4.17641038,2.42160135 4.18653748,1.55045522 3.75624344,0.902967181 C2.98615284,-0.256047175 1.32250721,-0.275224025 0.525698311,0.865475361 C0.08053682,1.50305177 0.0704097193,2.3741979 0.500703764,3.02168593 L5.58228474,5.47458661"/>
        <path d="M1.77990709 3.80276551L1.77990709 3.80276551C1.49656374 3.81030696 1.25846914 3.58470964 1.25092768 3.30115082L1.17378934.998205021C1.16947993.836602351 1.29811566.700856107 1.4599338.696546703L1.90272512.68469584C2.06432779.680386435 2.20007403.809237632 2.20438344.970840303L2.28152178 3.2737861C2.28906324 3.55712945 2.06325044 3.79522405 1.77990709 3.80276551M2.76434747 3.29274748L2.68720913.989801683C2.68289972.828199012 2.81153545.692452768 2.97335359.688143364L3.41614491.676292501C3.57774758.671983097 3.71349382.800618823 3.71780323.962436964L3.79494157 3.26538276C3.80248302 3.54872611 3.57667023 3.78682071 3.29332688 3.79436217 3.00998353 3.80190363 2.77188893 3.5763063 2.76434747 3.29274748z"/>
        <path d="M.989540748 3.70670888L.989540748 3.70670888C.706197398 3.71425034.468102796 3.48865301.460561338 3.20509419L.406262841 1.75907349C.401953436 1.59747082.530589162 1.46150911.692407303 1.4571997L1.13519862 1.44556431C1.29680129 1.4412549 1.43254754 1.56989063 1.43685694 1.7314933L1.49115544 3.17772947C1.4986969 3.46107282 1.2728841 3.69916742.989540748 3.70670888M2.58298618 3.79408206L2.58298618 3.79408206C2.29964283 3.80162351 2.06154823 3.57602619 2.05400677 3.29246737L1.97686843.989521571C1.97255902.8279189 2.10119475.692172657 2.26301289.687863252L2.70580421.67601239C2.86740688.671702985 3.00315312.800554181 3.00746253.962156852L3.08460087 3.26510265C3.09214232 3.548446 2.86632953 3.7865406 2.58298618 3.79408206"/>
      </g>
      <path fill="#3D7991" d="M62.7834747,27.0684261 L62.7834747,27.0684261 L62.7834747,27.0684261 C63.792887,27.0684261 64.6273682,27.8551956 64.6867287,28.862861 L65.1225198,36.2605684 L61.3568495,36.4184117 L61.0571829,28.8645591 L61.0571829,28.8645591 C61.0193606,27.9111544 61.7615869,27.1076062 62.7149915,27.069784 C62.737808,27.0688789 62.7606403,27.0684261 62.7834747,27.0684261 Z" transform="rotate(54 63.09 31.743)"/>
      <polygon fill="#207E43" points="14.889 45.226 16.357 45.226 16.986 49 14.889 49"/>
      <polygon fill="#21A050" points="14.889 44.387 16.986 44.387 15.938 48.161 14.889 48.161"/>
      <path fill="#8AD4A5" d="M18.058065,48.9526044 L21.2131016,48.9526044 C21.6265359,49.8885879 21.8332531,50.860058 21.8332531,51.8670145 C21.8332531,53.0091409 21.6265359,54.1867537 21.2131016,55.399853 L18.058065,55.399853 C18.8042385,54.1312504 19.1773252,53.0018835 19.1773252,52.0117521 C19.1773252,51.0216208 18.8042385,50.0019049 18.058065,48.9526044 Z" transform="rotate(121 19.946 52.176)"/>
      <path fill="#19AB4E" d="M15.5748305,56.7704639 L19.2924074,56.7704639 C19.7795567,57.8733325 20.0231314,59.0180149 20.0231314,60.2045108 C20.0231314,61.5502774 19.7795567,62.9378576 19.2924074,64.3672515 L15.5748305,64.3672515 C16.454046,62.8724581 16.8936538,61.541726 16.8936538,60.3750551 C16.8936538,59.2083842 16.454046,58.0068538 15.5748305,56.7704639 Z" transform="rotate(73 17.799 60.569)"/>
      <polygon fill="#19C157" points="29.316 61.206 31.844 62.185 31.844 70.401 29.316 69.421" transform="rotate(-74 30.58 65.803)"/>
      <polygon fill="#19C157" points=".186 47.532 1.444 47.532 1.444 51.306 .815 51.306"/>
    </g>
    <polygon fill="#188640" points="299.992 177.993 299.992 257.538 321.321 257.538"/>
    <polygon fill="#2FB862" points="278.909 257.327 299.993 178.741 299.993 257.327"/>
    <path fill="#FAFAFA" d="M195.572815 54.9548664C198.800351 54.9548664 201.721701 56.334465 203.842464 58.5658523 205.251446 56.8917274 207.301958 55.8370428 209.589731 55.8370428 213.837884 55.8370428 217.280589 59.4742089 217.280589 63.9631637 217.280589 65.6592612 216.787069 67.2328732 215.948484 68.535334 217.202385 69.6970766 217.994579 71.4020566 217.994579 73.3052576 217.994579 73.4730908 218.006066 73.4391776 217.994579 73.6065433L176.263712 73.6065433C176.242946 73.3741948 176.214669 73.3403202 176.214669 73.1028292 176.211135 68.5096213 179.73381 64.7878374 184.080932 64.7878374 185.216865 59.1740725 189.929377 54.9548664 195.572815 54.9548664zM101.36724 111.476349C101.713643 110.247443 101.904165 108.943532 101.904165 107.599235 101.904165 100.07375 96.0922938 93.9726562 88.923999 93.9726562 81.7566665 93.9726562 75.9409467 100.071374 75.9409467 107.59618 75.7860276 107.602289 75.6291841 107.59618 75.4733028 107.59618 70.8558804 107.59618 66.8937369 110.530488 65.1838537 114.718139 63.5268931 114.816899 62.1460927 115.848096 61.6524686 117.440482L110.742891 117.440482C110.742891 113.676382 107.835673 110.756857 104.25361 110.756857 103.214081 110.756857 102.236134 111.0192 101.36724 111.476349z"/>
  </g>
</svg>
