<?xml version="1.0" encoding="UTF-8"?>
<svg width="75px" height="73px" viewBox="0 0 75 73" version="1.1" xmlns="http://www.w3.org/2000/svg" xmlns:xlink="http://www.w3.org/1999/xlink">
    <!-- Generator: Sketch 46.2 (44496) - http://www.bohemiancoding.com/sketch -->
    <title>logo-republic</title>
    <desc>Created with Sketch.</desc>
    <defs></defs>
    <g id="Page-2" stroke="none" stroke-width="1" fill="none" fill-rule="evenodd">
        <g id="Why-raise-3-Copy-3" transform="translate(-810.000000, -3476.000000)">
            <g id="logo-republic" transform="translate(810.142840, 3476.000000)">
                <g id="Full-white-Logo" transform="translate(17.243164, 0.486126)">
                    <g id="R">
                        <path d="M22.5272479,0.0815804931 C29.3686869,0.6180575 34.7530079,6.33718943 34.7530079,13.3136812 C34.7530079,19.1047281 31.0428082,24.0294988 25.868787,25.842597 L39.0969391,43.6835642 L0,43.6835642 L0,0 L20.5585721,0.000444611904 C21.2733509,0.000444611904 21.9260479,0.0276909937 22.5272479,0.0815804931 Z" id="Fill-1" fill="#157EFF"></path>
                        <polygon id="Fill-3" fill="#157EFF" points="25.4623353 43.6835642 0 43.6835642 0 0 38.8257078 43.6835642"></polygon>
                        <polygon id="Fill-5" fill="#00BDFF" points="39.0969391 43.6835642 0.00200417185 43.6835642 19.4128539 13.1776299"></polygon>
                        <polygon id="Fill-7" fill="#1560FA" points="0 25.2784098 0 0 10.9116023 0 27.2144269 25.2759644"></polygon>
                        <polygon id="Fill-9" fill="#00EFE9" points="11.7139391 25.2828559 19.4128539 13.1776299 27.2206621 25.2828559"></polygon>
                        <polygon id="Fill-11" fill-opacity="0.5" fill="#157EFF" points="39.0969391 43.6835642 24.5715922 43.6835642 19.4128539 13.1776299"></polygon>
                    </g>
                </g>
                <g id="Republic" transform="translate(0.243164, 55.470501)" fill="#000000">
                    <path d="M2.70051034,3.01257408 L2.70051034,6.23354525 L4.58039534,6.23354525 C6.01012612,6.23354525 6.70804501,5.47715632 6.6890926,4.59937504 C6.70804501,3.69121114 5.97249798,3.01243597 4.58039534,3.01243597 L2.70051034,3.01243597 L2.70051034,3.01257408 Z M4.62743051,0.599227969 C7.40458051,0.599227969 9.22705494,2.27676246 9.22705494,4.59951314 C9.22705494,6.83470666 7.97218432,8.18258981 6.55061553,8.47785355 L9.48934517,13.7461985 L6.57496315,13.7461985 L3.87791127,8.81137177 L2.70051034,8.81137177 L2.70051034,13.7461985 L0.0760863014,13.7461985 L0.0760863014,0.599227969 L4.62743051,0.599227969 Z" id="Fill-13"></path>
                    <path d="M13.2936602,8.33712682 L17.3288627,8.33712682 C17.1032322,7.17264416 16.3977047,6.51541303 15.3441169,6.51541303 C14.1871901,6.51541303 13.5098837,7.21007002 13.2936602,8.33712682 M19.7935055,9.18176343 C19.7935055,9.46363121 19.7746914,9.80212112 19.7464703,10.0083086 L13.2841149,10.0083086 C13.5475118,11.3231852 14.4694011,11.8956212 15.6263279,11.8956212 C16.4165187,11.8956212 17.2724204,11.5763276 17.9307745,11.0228116 L19.3700506,12.6002216 C18.3354152,13.5487115 17.0184305,13.9802827 15.4852224,13.9802827 C12.6916101,13.9802827 10.7537612,12.0837172 10.7537612,9.2198798 C10.7537612,6.35549001 12.6348912,4.40244047 15.3626543,4.40244047 C17.9872167,4.40244047 19.7842368,6.34609902 19.7935055,9.18176343" id="Fill-15"></path>
                    <path d="M24.2618464,9.19129252 C24.2618464,10.6281139 25.2116802,11.6986866 26.6040595,11.6986866 C28.0526043,11.6986866 28.9555412,10.5811589 28.9555412,9.19129252 C28.9555412,7.80170233 28.0526043,6.68417463 26.6040595,6.68417463 C25.2116802,6.68417463 24.2618464,7.75488549 24.2618464,9.19129252 M31.4764879,9.19129252 C31.4764879,11.9242085 29.5762671,13.9804208 27.0650041,13.9804208 C25.8419514,13.9804208 24.9766427,13.5017565 24.3841379,12.7974324 L24.3841379,17.5021798 L21.9383091,17.5021798 L21.9383091,4.64632998 L24.3369644,4.64632998 L24.3369644,5.65144203 C24.9293308,4.90927768 25.8041849,4.40244047 27.0554587,4.40244047 C29.5762671,4.40244047 31.4764879,6.45865278 31.4764879,9.19129252" id="Fill-17"></path>
                    <path d="M41.9615952,9.86771995 C41.9615952,12.7409483 39.9298143,13.9802827 37.6534505,13.9802827 C35.3676797,13.9802827 33.3358987,12.7408102 33.3358987,9.86771995 L33.3358987,4.64632998 L35.7908578,4.64632998 L35.7908578,9.65158909 C35.7908578,11.1071924 36.590594,11.6986866 37.6534505,11.6986866 C38.7068999,11.6986866 39.5159048,11.1071924 39.5159048,9.65158909 L39.5159048,4.64632998 L41.9615952,4.64632998 L41.9615952,9.86771995 Z" id="Fill-19"></path>
                    <path d="M46.7185108,9.19129252 C46.7185108,10.6281139 47.6684828,11.6986866 49.0608622,11.6986866 C50.509407,11.6986866 51.4124822,10.5811589 51.4124822,9.19129252 C51.4124822,7.80170233 50.509407,6.68417463 49.0608622,6.68417463 C47.6684828,6.68417463 46.7185108,7.75488549 46.7185108,9.19129252 M53.9332906,9.19129252 C53.9332906,11.9242085 52.0332081,13.9804208 49.5215301,13.9804208 C48.2609876,13.9804208 47.3861335,13.4737217 46.7936287,12.7409483 L46.7936287,13.7460604 L44.3951118,13.7460604 L44.3951118,0.223726506 L46.8406639,0.223726506 L46.8406639,5.59509609 C47.4334453,4.88124281 48.2892087,4.40244047 49.5122614,4.40244047 C52.0332081,4.40244047 53.9332906,6.45865278 53.9332906,9.19129252" id="Fill-21"></path>
                    <polygon id="Fill-23" points="55.935052 13.7460604 58.3901494 13.7460604 58.3901494 0.223726506 55.935052 0.223726506"></polygon>
                    <path d="M60.9664316,13.7460604 L63.421529,13.7460604 L63.421529,4.64632998 L60.9664316,4.64632998 L60.9664316,13.7460604 Z M63.7507752,1.66952453 C63.7507752,2.55227751 63.0639234,3.22870493 62.1799389,3.22870493 C61.2956778,3.22870493 60.6183713,2.55227751 60.6183713,1.66952453 C60.6183713,0.787185855 61.2956778,0.0919764525 62.1799389,0.0919764525 C63.0639234,0.0919764525 63.7507752,0.787185855 63.7507752,1.66952453 L63.7507752,1.66952453 Z" id="Fill-25"></path>
                    <path d="M73.9366559,6.12057717 L72.1684102,7.59496247 C71.6135336,7.00333015 71.0207521,6.68403652 70.2212926,6.68403652 C68.9513431,6.68403652 67.9353834,7.67934327 67.9353834,9.19115442 C67.9353834,10.712909 68.941936,11.6985485 70.2120239,11.6985485 C71.0020764,11.6985485 71.6792445,11.3419671 72.1967697,10.7785078 L73.9462012,12.271537 C73.0902995,13.3700065 71.810943,13.9802827 70.2871418,13.9802827 C67.3805068,13.9802827 65.4333892,11.9522433 65.4333892,9.19115442 C65.4333892,6.43987081 67.3805068,4.40230237 70.2871418,4.40230237 C71.810943,4.40244047 73.0997066,5.02224575 73.9366559,6.12057717" id="Fill-26"></path>
                </g>
            </g>
        </g>
    </g>
</svg>