<svg xmlns="http://www.w3.org/2000/svg" xmlns:xlink="http://www.w3.org/1999/xlink" width="125" height="85" viewBox="0 0 125 85">
  <defs>
    <polygon id="title-return-a" points="20.976 .055 20.976 12.936 .345 12.936 .345 .055 20.976 .055"/>
  </defs>
  <g fill="none" fill-rule="evenodd" transform="translate(0 -.002)">
    <g transform="translate(.146 52.218)">
      <g transform="translate(14.2 .004)">
        <g transform="translate(45.04 .317)">
          <mask id="title-return-b" fill="#fff">
            <use xlink:href="#title-return-a"/>
          </mask>
          <path fill="#E89456" d="M19.2046377,5.90194598 L4.70509112,12.6515228 C3.17560466,13.3633194 1.3418615,12.6944021 0.629692038,11.1652885 L0.629692038,11.1652885 C-0.0821045635,9.63580201 0.586812725,7.80168599 2.11629919,7.08988939 L16.6154729,0.340312603 C18.1449594,-0.371856863 19.9790754,0.297060426 20.690872,1.82654689 L20.690872,1.82654689 C21.4030415,3.35603335 20.7341242,5.19014937 19.2046377,5.90194598" mask="url(#title-return-b)"/>
        </g>
        <polygon fill="#FFBC85" points=".881 21.451 18.921 2.404 30.306 10.197 11.013 30.895"/>
        <path fill="#FFBC85" d="M16.1646702 7.77662956C16.1016562 3.56811817 20.686387.0870636493 26.4049959.00167788617 32.123232-.0837078769 36.8101274 3.25864138 36.8727685 7.46715277 36.9357824 11.676037 32.3510517 15.1567187 26.6324427 15.2424773 20.9142066 15.3278631 16.2276841 11.9851409 16.1646702 7.77662956M55.331679 6.94872323L55.331679 6.94872323C56.1087267 8.32943712 55.6195297 10.0789131 54.2384429 10.8563337L42.8620018 17.2595202C41.4809151 18.0365679 39.7314391 17.5473709 38.9543914 16.1662841L38.9543914 16.1662841C38.1769708 14.7855703 38.6665407 13.0360943 40.0472545 12.2586737L51.4240685 5.85548717C52.8051553 5.07843944 54.5546313 5.56800934 55.331679 6.94872323"/>
        <path fill="#FFBC85" d="M43.2748364,15.0566048 L43.2748364,15.0566048 C42.9750541,16.6125646 41.4705495,17.6308551 39.9145897,17.3310727 L21.6636625,13.8134776 C20.1077027,13.5133224 19.0894122,12.0091906 19.3895674,10.4532309 L19.3895674,10.4532309 C19.6893497,8.89727109 21.1938543,7.87898061 22.7498141,8.17876294 L41.0003685,11.6963581 C42.5563282,11.9961404 43.5746187,13.500645 43.2748364,15.0566048"/>
        <path fill="#FFBC85" d="M31.9369494,9.01345538 L44.0304072,8.8329894 C44.4405571,8.82665072 44.7809816,9.15738073 44.7873203,9.56715782 L44.8656216,14.8029084 C44.8715874,15.2130584 44.5412303,15.5534828 44.1310803,15.5598215 L32.0372497,15.7402875 C31.6274726,15.7466262 31.2866753,15.4158962 31.2807094,15.0057462 L31.2024081,9.77036848 C31.1964423,9.36021853 31.5267994,9.0194212 31.9369494,9.01345538"/>
      </g>
      <polygon fill="#9B9794" points="29.287 31.83 41.59 20.617 26.561 5.588 0 31.83"/>
      <path fill="#ADADAD" d="M38.1480422,26.6431047 L42.9463075,21.8448395 L26.0658731,4.96487524 L17.4712143,13.5600041 L30.5538448,26.6431047 C32.6511466,28.7399363 36.0512107,28.7399363 38.1480422,26.6431047" transform="matrix(0 -1 -1 0 46.8 46.8)"/>
      <path fill="#686868" d="M23.5480651,14.0364428 C24.2598595,13.3251186 24.2598595,12.1713911 23.5480651,11.4600668 C22.8367409,10.7482724 21.6830134,10.7482724 20.9716891,11.4600668 C20.2603649,12.1713911 20.2603649,13.3251186 20.9716891,14.0364428 C21.6830134,14.7477671 22.8367409,14.7477671 23.5480651,14.0364428 Z"/>
    </g>
    <g transform="translate(35.858 .268)">
      <polygon fill="#00BFFF" points="0 55.642 88.962 55.642 44.538 9.764"/>
      <polygon fill="#1560FA" points="44.142 55.734 88.142 55.734 44.142 9.734"/>
      <polygon fill="#00EFE9" points="44.113 9.764 44.113 21.766 33.305 21.766"/>
      <polygon fill="#0CB6F4" points="55.731 21.675 44.212 9.764 44.212 21.675"/>
      <polygon fill="#ED588E" points="44.202 0 44.202 9.944 50.483 4.847"/>
    </g>
    <path fill="#FFBC85" d="M49.8545789,54.7512247 L67.8568061,54.4823901 C69.7438687,54.4540525 71.3110144,55.9749631 71.339352,57.8623986 L71.339352,57.8623986 C71.3673168,59.7494612 69.8464062,61.3166069 67.9593435,61.3449445 L49.9571163,61.6137792 C48.0700537,61.641744 46.502908,60.1208334 46.4745704,58.2337707 L46.4745704,58.2337707 C46.4466056,56.3467081 47.9675162,54.7795624 49.8545789,54.7512247" transform="rotate(-9 58.907 58.048)"/>
  </g>
</svg>
