<svg xmlns="http://www.w3.org/2000/svg" xmlns:xlink="http://www.w3.org/1999/xlink" width="128" height="82" viewBox="0 0 128 82">
  <defs>
    <polygon id="title-invest-a" points="0 .333 71.171 .333 71.171 55.699 0 55.699"/>
  </defs>
  <g fill="none" fill-rule="evenodd" transform="translate(0 -1)">
    <path fill="#E89456" d="M64.0024676,53.2955661 C64.1634193,54.9513977 62.9400024,56.437565 61.2846294,56.5985167 C59.6287978,56.75901 58.1426305,55.5360516 57.9816787,53.88022 L57.0847508,44.6436054 C56.923799,42.9882323 58.1467574,41.5016065 59.802589,41.3411133 C61.4584206,41.1801615 62.9445879,42.4031199 63.1055397,44.0589515 L64.0024676,53.2955661 Z"/>
    <path fill="#E89456" d="M59.4604175,54.3932022 L60.1665877,45.1400797 C60.293148,43.4814968 59.0399252,42.0205499 57.3808838,41.8939895 L57.3808838,41.8939895 C55.7223009,41.7674291 54.2618125,43.0211105 54.1352521,44.6796934 L53.4286233,53.9328159 C53.302063,55.5913988 54.5557444,57.0523457 56.2143273,57.1789061 L56.2143273,57.1789061 C57.8729101,57.3054665 59.3338571,56.0517851 59.4604175,54.3932022"/>
    <path fill="#E89456" d="M68.4539536,51.2932984 L64.7722389,42.7747763 C64.1123825,41.2477979 62.3226537,40.5384178 60.7956753,41.1987328 L60.7956753,41.1987328 C59.2686968,41.8585893 58.5593168,43.6478595 59.2196318,45.174838 L62.9013464,53.69336 C63.5612029,55.2203384 65.3504731,55.9297185 66.8774516,55.2694035 L66.8774516,55.2694035 C68.40443,54.6095471 69.1138101,52.8202768 68.4539536,51.2932984"/>
    <polygon fill="#FFBC85" points="32.458 75.804 53.786 57.816 44.981 47.376 23.653 65.364"/>
    <path fill="#FFBC85" d="M36.4061153 65.4127132C39.2775685 68.8174624 45.0998043 68.6303731 49.4106524 64.9945137 53.7215006 61.3591128 54.8885156 55.651515 52.0170625 52.2467658 49.1456093 48.8420165 43.322915 49.0295643 39.0120668 52.6649653 34.7012187 56.3008247 33.5346622 62.007964 36.4061153 65.4127132M64.4323143 42.6593129L64.4323143 42.6593129C64.5643773 41.1025286 63.4097431 39.7332921 61.8529588 39.6007705L48.6329022 38.4777765C47.0761179 38.3452549 45.7068814 39.5003476 45.5748184 41.057132L45.5748184 41.057132C45.4422968 42.6139163 46.5973895 43.9831528 48.1541739 44.1156743L61.3737719 45.2386684C62.9305562 45.37119 64.3002513 44.2160973 64.4323143 42.6593129"/>
    <g transform="translate(57.594 .59)">
      <mask id="title-invest-b" fill="#fff">
        <use xlink:href="#title-invest-a"/>
      </mask>
      <path fill="#E5E4CF" d="M4.07998238,50.4100521 C2.00402716,50.4100521 0.320161344,48.7196263 0.320161344,46.6355847 L0.320161344,4.18452697 C0.320161344,2.1004789 2.00402716,0.410052123 4.07998238,0.410052123 L66.6463353,0.410052123 C68.7233528,0.410052123 70.4061543,2.1004789 70.4061543,4.18452697 L70.4061543,46.6355847 C70.4061543,48.7196263 68.7233528,50.4100521 66.6463353,50.4100521 L4.07998238,50.4100521 Z" mask="url(#title-invest-b)"/>
      <path fill="#1560FA" d="M63.9394939,40.8255705 L63.9394939,40.4697116 C63.9394939,40.2062754 63.7378554,39.9853279 63.4743449,39.9608948 L63.4732773,39.9608948 C63.2449684,39.9396457 63.0582664,39.7696905 63.0166595,39.5455497 C63.0070514,39.4892568 62.9953176,39.434013 62.9835837,39.3787785 C62.9355715,39.1557052 63.0422623,38.9273221 63.2439008,38.8200371 L63.2449684,38.8200371 C63.4786151,38.696813 63.5799589,38.4153118 63.4775476,38.1720571 L63.3399161,37.8438247 C63.238563,37.60057 62.9665121,37.4741618 62.7136679,37.5527712 L62.7136679,37.5527712 C62.4960253,37.6196932 62.2591851,37.538958 62.1343644,37.3488119 C62.1066171,37.3063231 62.0778116,37.262776 62.0479479,37.2213455 C61.9188569,37.0343835 61.9337934,36.783693 62.0788792,36.6094861 L62.0799468,36.6094861 C62.2485188,36.405536 62.2346499,36.108105 62.0468803,35.9211431 L61.7950944,35.6704526 C61.6073248,35.4834999 61.3075359,35.4696867 61.1037715,35.6375254 L61.102704,35.6385837 C60.9266683,35.784115 60.6738241,35.7958025 60.4849869,35.6651426 C60.4380422,35.6332737 60.3910975,35.6024723 60.3430945,35.5706034 C60.1510547,35.4473793 60.0646382,35.2115604 60.1318572,34.9927388 L60.1318572,34.9927388 C60.2097333,34.7399224 60.0817099,34.4701087 59.8363293,34.3702595 L59.5055997,34.2342897 C59.261296,34.1344405 58.979637,34.2364156 58.8558838,34.4701087 C58.7502605,34.6698163 58.5240867,34.7792271 58.3021831,34.7335449 C58.2520358,34.722925 58.2008301,34.7123052 58.1496152,34.7038018 C57.9255765,34.6623806 57.7591488,34.4754186 57.7378069,34.2491613 L57.7378069,34.2491613 C57.7132716,33.9867833 57.4913588,33.7860174 57.2257131,33.7860174 L56.8693808,33.7860174 C56.6037259,33.7860174 56.3828899,33.9867833 56.3583546,34.2491613 L56.357287,34.2502196 C56.3359451,34.4775445 56.1663148,34.6634388 55.940141,34.7048694 C55.8846651,34.714431 55.8281216,34.7261092 55.7726457,34.7377966 C55.5485978,34.7855954 55.3202888,34.679378 55.2125397,34.4775445 L55.2125397,34.4775445 C55.0877097,34.2449096 54.80606,34.1440021 54.5606794,34.2459772 L54.232085,34.381947 C53.9867044,34.483922 53.8597485,34.7537357 53.9387014,35.0065428 L53.9387014,35.0065428 C54.0059112,35.2221802 53.9248324,35.4590668 53.7349277,35.5822908 C53.6911857,35.6109664 53.6485112,35.6396512 53.6058367,35.6683268 C53.4180672,35.7979283 53.1673581,35.7830568 52.9923899,35.6385837 L52.9913224,35.6375254 C52.7875487,35.4696867 52.4877598,35.4834999 52.3010578,35.6704526 L52.0482136,35.9211431 C51.860444,36.108105 51.8465751,36.405536 52.0162054,36.6094861 L52.0162054,36.6094861 C52.1634356,36.7858188 52.1741019,37.0375769 52.0439434,37.2255971 C52.0119445,37.2723283 51.9799363,37.3190688 51.9489957,37.3668769 C51.8241749,37.5580812 51.5873255,37.6441171 51.3686246,37.5771951 L51.3675571,37.5771951 C51.1147036,37.4996532 50.8437202,37.627129 50.7423671,37.871442 L50.6068801,38.1996744 C50.505527,38.4439967 50.6079476,38.7244303 50.8426526,38.8476544 C51.0442912,38.9528135 51.1541847,39.1769543 51.10724,39.39896 C51.0965737,39.4488846 51.0869656,39.4998767 51.0773669,39.5508689 C51.0368275,39.7728746 50.8479904,39.9396457 50.6218166,39.9608948 L50.6218166,39.9608948 C50.3572293,39.9853279 50.1555907,40.2062754 50.1555907,40.4697116 L50.1555907,40.8255705 C50.1555907,41.0890068 50.3572293,41.3099542 50.6218166,41.3343873 L50.6218166,41.3343873 C50.8501255,41.3556271 51.0368275,41.5255916 51.0784344,41.7507907 C51.0891007,41.8060253 51.099767,41.8623274 51.1115102,41.9175619 C51.1595132,42.1406351 51.0538992,42.3679601 50.8511931,42.475245 L50.8511931,42.475245 C50.6164788,42.5995274 50.5151258,42.879961 50.6175464,43.1232157 L50.7551778,43.4514574 C50.8565216,43.6957704 51.1285726,43.8221786 51.381426,43.7435784 L51.381426,43.7435784 C51.5990594,43.6755889 51.8369763,43.7573824 51.9607295,43.9464702 C51.9884675,43.9900173 52.017273,44.0325061 52.0471461,44.0749949 C52.1762371,44.2608893 52.1613005,44.5115891 52.0162054,44.685796 L52.0162054,44.6868543 C51.8465751,44.8897461 51.860444,45.1882354 52.0482136,45.3741297 L52.3010578,45.6258878 C52.4877598,45.8128405 52.7875487,45.8266537 52.9913224,45.6577567 L52.9923899,45.6577567 C53.1694932,45.5111671 53.4212699,45.5005379 53.610107,45.6301395 C53.6570517,45.6620084 53.7050547,45.6938681 53.7519994,45.7246787 C53.9450975,45.8489611 54.0304464,46.08478 53.9643042,46.3025433 L53.9632367,46.3025433 C53.8864189,46.5553588 54.0144516,46.8251706 54.2587554,46.9260846 L54.5894849,47.0609905 C54.8348655,47.1619054 55.1165152,47.0599285 55.2392101,46.8262336 L55.2392101,46.8262336 C55.3448241,46.6254676 55.5710072,46.516055 55.7929108,46.5627945 C55.8441257,46.5734172 55.8942638,46.582977 55.9454695,46.5925376 C56.1695175,46.6329034 56.3370127,46.8209218 56.3583546,47.046119 L56.3583546,47.046119 C56.3828899,47.308496 56.6037259,47.5103239 56.8693808,47.5103239 L57.2257131,47.5103239 C57.4913588,47.5103239 57.7132716,47.308496 57.7378069,47.046119 L57.7378069,47.046119 C57.7591488,46.8177349 57.9298467,46.6329034 58.1549529,46.5914756 C58.2114964,46.580853 58.2669723,46.5702303 58.3224482,46.5574837 C58.5464962,46.5107441 58.7758634,46.6159069 58.8825542,46.8177349 L58.8836218,46.8177349 C59.007375,47.0514308 59.2900922,47.1512827 59.5344053,47.0503688 L59.8640672,46.9133379 C60.1083802,46.811362 60.2353361,46.5415492 60.1563925,46.2897976 L60.1563925,46.2887301 C60.0891828,46.0730926 60.1702615,45.8362153 60.3612337,45.7129913 C60.4039082,45.6843157 60.4465827,45.6556309 60.4892572,45.6269461 C60.6770175,45.4984214 60.9277358,45.5132929 61.1037715,45.6577567 L61.1037715,45.6577567 C61.3075359,45.8266537 61.6073248,45.8128405 61.7950944,45.6258878 L62.0468803,45.3741297 C62.2346499,45.1882354 62.2485188,44.8897461 62.0799468,44.6868543 L62.0788792,44.685796 C61.9327258,44.5094633 61.9209827,44.2587728 62.0511413,44.069685 C62.084217,44.0240121 62.1151576,43.9762133 62.1460982,43.9284053 C62.270919,43.7372009 62.5077591,43.6511558 62.7264693,43.7180777 L62.7275369,43.7180777 C62.9814486,43.7956289 63.2513645,43.6681531 63.3527175,43.4238401 L63.4882139,43.0955985 C63.5895669,42.8512854 63.4871463,42.5708518 63.252432,42.448686 L63.252432,42.448686 C63.051861,42.3424686 62.9409092,42.1183278 62.987854,41.8963221 C62.9985203,41.8463883 63.008119,41.7954054 63.017727,41.7454808 C63.0593339,41.5224075 63.2471035,41.3556271 63.4732773,41.3343873 L63.4743449,41.3343873 C63.7378554,41.3099542 63.9394939,41.0890068 63.9394939,40.8255705" mask="url(#title-invest-b)"/>
      <polygon fill="#1560FA" points="60.701 56.032 57.069 50.552 53.28 56.032 54.395 44.471 59.586 44.471" mask="url(#title-invest-b)"/>
      <polygon fill="#666" points="47.089 9.097 23.351 9.097 23.351 5.91 47.089 5.91" mask="url(#title-invest-b)"/>
      <polygon fill="#666" points="55.249 22.812 14.439 22.812 14.439 21.499 55.249 21.499" mask="url(#title-invest-b)"/>
      <polygon fill="#666" points="55.249 26.131 14.439 26.131 14.439 24.818 55.249 24.818" mask="url(#title-invest-b)"/>
      <polygon fill="#666" points="55.249 29.318 14.439 29.318 14.439 28.005 55.249 28.005" mask="url(#title-invest-b)"/>
    </g>
    <path fill="#FFBC85" d="M49.7416353,39.0145575 L49.7416353,39.0145575 C48.4095415,38.1983348 46.6675021,38.6165343 45.8512794,39.9490867 L36.2767119,55.5765417 C35.4604892,56.9086355 35.8791473,58.6506749 37.2112411,59.4668976 L37.2112411,59.4668976 C38.5433349,60.2831203 40.2853742,59.8644622 41.101597,58.5323684 L50.6761645,42.9049134 C51.4923872,41.5723611 51.0737291,39.8307803 49.7416353,39.0145575"/>
    <path fill="#FFBC85" d="M48.1085479,52.9907207 L56.649539,45.787326 C57.0351813,45.4622125 57.084705,44.8807685 56.7595915,44.4951262 L53.6652821,40.826251 C53.3397101,40.4406087 52.7582661,40.391085 52.3726238,40.7161985 L43.8316326,47.9195932 C43.4459903,48.2447066 43.3969253,48.8266092 43.7220387,49.2122515 L46.8163482,52.8811267 C47.1414616,53.2663105 47.7229056,53.3158341 48.1085479,52.9907207"/>
    <polygon fill="#9B9794" points="32.578 82.989 44.073 72.5 30.367 56.76 .785 82.989"/>
    <path fill="#ADADAD" d="M40.2939492,78.1703658 L45.3187629,73.7944033 L29.9247109,56.1163034 L20.9233335,63.9547927 L32.8544002,77.6567875 C34.7670209,79.8527934 38.0979432,80.0829866 40.2939492,78.1703658"/>
    <path fill="#686868" d="M33.3317278,77.2461896 C33.980579,77.9913367 35.1104513,78.0692906 35.8555985,77.4204394 C36.6007456,76.7715882 36.679158,75.6417158 36.0303068,74.8965687 C35.3814556,74.1514216 34.2511247,74.0734677 33.5059776,74.7223189 C32.7608305,75.3711701 32.6828766,76.5010424 33.3317278,77.2461896"/>
    <path fill="#FFBC85" d="M52.9899828,54.9130069 L66.5608317,43.4675469 C67.9832603,42.2679747 68.165764,40.1219509 66.9657332,38.6995223 L66.9657332,38.6995223 C65.766161,37.2770938 63.6205958,37.09459 62.1977087,38.2946208 L48.6268598,49.7396223 C47.2044312,50.9396531 47.0219275,53.0852183 48.2219583,54.5081054 L48.2219583,54.5081054 C49.4215305,55.930534 51.5675543,56.1130377 52.9899828,54.9130069"/>
  </g>
</svg>
