<svg xmlns="http://www.w3.org/2000/svg" width="39" height="79" viewBox="0 0 39 79">
  <g fill="none" fill-rule="evenodd" transform="translate(.183 .302)">
    <polygon fill="#FFBC85" points="19.971 67.76 33.482 67.76 33.482 39.936 19.971 39.936"/>
    <g transform="translate(0 .08)">
      <path fill="#FFBC85" d="M25.2451803,57.9895917 C20.8034687,57.9895917 17.202896,53.4307472 17.202896,47.8070048 C17.202896,42.1832625 20.8034687,37.6242234 25.2451803,37.6242234 C29.6868919,37.6242234 33.2874645,42.1832625 33.2874645,47.8070048 C33.2874645,53.4307472 29.6868919,57.9895917 25.2451803,57.9895917"/>
      <path fill="#FFBC85" d="M25.0167711 54.4301712C22.9035141 56.5434281 17.9668089 55.0327636 13.9903213 51.056276 10.0138337 47.0795938 8.50316922 42.1428886 10.6164262 40.0296317 12.7294885 37.9165693 17.6661937 39.4270392 21.6428759 43.4037214 25.6193635 47.380209 27.130028 52.3169142 25.0167711 54.4301712M28.372318 4.57081074L28.372318 4.57081074C29.9298746 4.52683725 31.2280654 5.75400892 31.2720389 7.31156548L32.2631935 42.4784881C32.307167 44.0360446 31.0801899 45.3342354 29.5226334 45.3782089L29.5226334 45.3782089C27.9650768 45.4219878 26.666886 44.1950107 26.6229125 42.6374542L25.6315633 7.47053159C25.5877843 5.91297503 26.8147614 4.61478423 28.372318 4.57081074"/>
      <path fill="#FFBC85" d="M16.9343464,0.236639636 L16.9343464,0.236639636 C18.425359,-0.215547927 20.0008163,0.626563852 20.4530039,2.11757646 L30.5801374,35.5055185 C31.032325,36.9967256 30.1902132,38.5719883 28.699006,39.0243705 L28.699006,39.0243705 C27.2079934,39.476558 25.6325361,38.6344463 25.1803486,37.1434336 L15.0534096,3.75529708 C14.601222,2.26428447 15.4433338,0.6888272 16.9343464,0.236639636"/>
      <path fill="#FFBC85" d="M35.7559144 12.5767098L35.7559144 12.5767098C37.2932354 12.8308221 38.3334224 14.2831147 38.0793101 15.8204357L32.2390081 51.154691C31.9848958 52.692012 30.5326032 53.732199 28.9954768 53.4780868L28.9954768 53.4780868C27.4581559 53.224169 26.4177742 51.7718765 26.6718865 50.2345555L32.5123831 14.9001056C32.7663008 13.3627846 34.2185934 12.3225975 35.7559144 12.5767098M4.81412423 33.8507922L21.4847465 41.7271057C23.1629383 42.5199905 23.8871388 44.5416036 23.094254 46.2196008L23.094254 46.2196008C22.3015638 47.8977926 20.2799507 48.6219931 18.6017589 47.8291083L1.93113665 39.9527948C.253139424 39.15991-.471255714 37.1382969.321629106 35.4602997L.321629106 35.4602997C1.11451393 33.7823025 3.136127 33.0579073 4.81412423 33.8507922M6.55965773 19.1958291L25.6443467 27.9792417C27.3303214 28.7551987 28.0749522 30.7696126 27.2989952 32.4553927L27.2989952 32.4553927C26.5230382 34.1413674 24.5088189 34.8859981 22.8228442 34.1100412L3.7381552 25.3264339C2.05218049 24.5506715 1.30754976 22.5362577 2.08350673 20.8504775L2.08350673 20.8504775C2.85946371 19.1645028 4.87368301 18.4198721 6.55965773 19.1958291"/>
      <path fill="#FFBC85" d="M27.1759472,28.7154669 L27.9888731,36.8159284 C28.1743011,38.6626204 26.8150144,40.3252464 24.9683224,40.5104798 L24.9683224,40.5104798 C23.1216304,40.6959079 21.459199,39.3366212 21.273771,37.4899292 L20.4608452,29.3894676 C20.2756117,27.5427756 21.6348984,25.8801497 23.4813958,25.6949162 L23.4813958,25.6949162 C25.3280878,25.5094882 26.9907138,26.8687749 27.1759472,28.7154669"/>
      <path fill="#FFBC85" d="M12.0012603,39.9189391 C13.0916472,39.6463424 19.5921353,39.1892905 22.1190543,34.2763232 C25.9208154,26.8844964 28.1508161,39.5297932 28.1508161,39.5297932 L26.7888054,46.3398469 L21.5353354,48.6747224 L14.5307088,45.756128 L11.2229685,39.3352202"/>
      <polygon fill="#9B9794" points="17.817 78.618 17.817 57.618 35.817 57.618 35.817 78.618"/>
      <path fill="#ADADAD" d="M15.858415,57.720375 L36.8319834,57.720375 L36.8319834,68.6236953 L20.3974131,68.6236953 C17.890535,68.6236953 15.858415,66.5913807 15.858415,64.0846973 L15.858415,57.720375 Z"/>
      <path fill="#686868" d="M20.2320468,65.9301532 C19.3815684,65.9301532 18.6920018,65.2405866 18.6920018,64.3901082 C18.6920018,63.5396297 19.3815684,62.8502577 20.2320468,62.8502577 C21.0825252,62.8502577 21.7720918,63.5396297 21.7720918,64.3901082 C21.7720918,65.2405866 21.0825252,65.9301532 20.2320468,65.9301532"/>
    </g>
  </g>
</svg>
