<svg xmlns="http://www.w3.org/2000/svg" xmlns:xlink="http://www.w3.org/1999/xlink" width="117" height="86" viewBox="0 0 117 86">
  <defs>
    <polygon id="title-transfer-a" points=".117 .387 40.8 .387 40.8 45.987 .117 45.987"/>
  </defs>
  <g fill="none" fill-rule="evenodd" transform="translate(0 .379)">
    <path fill="#E89456" d="M63.2171825,56.1469513 C63.3781343,57.8027829 62.1547173,59.2889502 60.4993443,59.449902 C58.8435127,59.6103952 57.3573454,58.3874368 57.1963936,56.7316052 L56.2994658,47.4949906 C56.138514,45.8396176 57.3614724,44.3529917 59.017304,44.1924985 C60.6731355,44.0315467 62.1593028,45.2545051 62.3202546,46.9103367 L63.2171825,56.1469513 Z"/>
    <path fill="#E89456" d="M58.6751324,57.2445875 L59.3813026,47.991465 C59.507863,46.3328821 58.2546401,44.8719351 56.5955987,44.7453748 L56.5955987,44.7453748 C54.9370158,44.6188144 53.4765274,45.8724958 53.349967,47.5310787 L52.6433383,56.7842012 C52.5167779,58.442784 53.7704593,59.903731 55.4290422,60.0302914 L55.4290422,60.0302914 C57.0876251,60.1568517 58.548572,58.9031703 58.6751324,57.2445875"/>
    <path fill="#E89456" d="M67.6686686,54.1446837 L63.9869539,45.6261616 C63.3270974,44.0991832 61.5373686,43.3898031 60.0103902,44.0501181 L60.0103902,44.0501181 C58.4834118,44.7099745 57.7740317,46.4992448 58.4343467,48.0262232 L62.1160614,56.5447453 C62.7759178,58.0717237 64.565188,58.7811038 66.0921665,58.1207888 L66.0921665,58.1207888 C67.6191449,57.4609323 68.328525,55.6716621 67.6686686,54.1446837"/>
    <polygon fill="#FFBC85" points="31.673 78.655 53.001 60.668 44.196 50.227 22.868 68.215"/>
    <path fill="#FFBC85" d="M35.6208303 68.2640984C38.4922834 71.6688477 44.3145192 71.4817584 48.6253674 67.8458989 52.9362155 64.210498 54.1032305 58.5029002 51.2317774 55.098151 48.3603243 51.6934018 42.5376299 51.8809496 38.2267818 55.5163505 33.9159336 59.15221 32.7493771 64.8593492 35.6208303 68.2640984M63.6470292 45.5106982L63.6470292 45.5106982C63.7790922 43.9539139 62.6244581 42.5846773 61.0676737 42.4521558L47.8476172 41.3291617C46.2908328 41.1966402 44.9215963 42.3517329 44.7895333 43.9085172L44.7895333 43.9085172C44.6570118 45.4653015 45.8121045 46.8345381 47.3688888 46.9670596L60.5884868 48.0900537C62.1452711 48.2225752 63.5149662 47.0674825 63.6470292 45.5106982"/>
    <path fill="#FFBC85" d="M48.9563503,41.8659428 L48.9563503,41.8659428 C47.6242564,41.0497201 45.8822171,41.4679196 45.0659944,42.8004719 L35.4914269,58.427927 C34.6752042,59.7600208 35.0938622,61.5020601 36.425956,62.3182828 L36.425956,62.3182828 C37.7580498,63.1345055 39.5000892,62.7158475 40.3163119,61.3837537 L49.8908794,45.7562987 C50.7071021,44.4237463 50.2884441,42.6821655 48.9563503,41.8659428"/>
    <path fill="#FFBC85" d="M47.3232629,55.8421059 L55.864254,48.6387112 C56.2498963,48.3135978 56.2994199,47.7321538 55.9743065,47.3465115 L52.879997,43.6776362 C52.554425,43.2919939 51.972981,43.2424703 51.5873387,43.5675837 L43.0463476,50.7709784 C42.6607053,51.0960918 42.6116402,51.6779944 42.9367536,52.0636367 L46.0310631,55.732512 C46.3561765,56.1176957 46.9376206,56.1672193 47.3232629,55.8421059"/>
    <polygon fill="#9B9794" points="31.793 84.645 43.288 75.351 29.582 59.611 0 84.645"/>
    <path fill="#ADADAD" d="M39.5086641,81.0217511 L44.5334778,76.6457885 L29.1394258,58.9676886 L20.1380484,66.8061779 L32.0691151,80.5081727 C33.9817358,82.7041787 37.3126582,82.9343718 39.5086641,81.0217511"/>
    <path fill="#686868" d="M34.5464427,79.0975748 C35.1952939,79.842722 36.3251663,79.9206758 37.0703134,79.2718246 C37.8154605,78.6229734 37.8938729,77.4931011 37.2450217,76.747954 C36.5961705,76.0028068 35.4658397,75.924853 34.7206925,76.5737042 C33.9755454,77.2225554 33.8975915,78.3524277 34.5464427,79.0975748"/>
    <g transform="translate(71.993 .072)">
      <mask id="title-transfer-b" fill="#fff">
        <use xlink:href="#title-transfer-a"/>
      </mask>
      <path fill="#A3AA96" d="M41.7998092,0.386467696 L0.117068347,0.386467696 L0.117068347,45.9867211 C0.117068347,45.9867211 41.9717662,45.8147641 41.7998092,45.9867211 L41.7998092,0.386467696 Z" mask="url(#title-transfer-b)"/>
    </g>
    <path fill="#E5E4CF" d="M60.6331498,47.9979305 L69.5556562,9.65793228 L109.179142,18.8789561 L100.257094,57.2189544 L60.6331498,47.9979305 Z M60.6331498,47.9979305 L100.257094,57.2189544 C99.4972731,60.4838452 97.8052159,63.3186142 95.7660348,62.8440128 C95.6587336,62.819251 56.6318243,53.7986144 56.7042755,53.7536763 C58.6843034,52.5215468 60.0714235,50.3695619 60.6331498,47.9979305 Z"/>
    <g fill="#000" opacity=".5" transform="rotate(11 -61.227 395.964)">
      <path d="M10.316 1.688C11.3480052 2.52000416 11.864 3.64799288 11.864 5.072 11.864 6.00000464 11.6960017 6.79599668 11.36 7.46 11.0239983 8.12400332 10.5720028 8.6959976 10.004 9.176 9.43599716 9.6560024 8.69600456 10.1599974 7.784 10.688 6.79199504 11.2640029 6.04400252 11.7439981 5.54 12.128 5.03599748 12.5120019 4.68800096 12.8559985 4.496 13.16 4.30399904 13.4640015 4.20000008 13.7999982 4.184 14.168L12.272 14.168 12.272 17 .056 17C.03999992 16.8719994.032 16.6960011.032 16.472.032 15.3519944.15999872 14.392004.416 13.592.67200128 12.791996 1.13599664 12.0360036 1.808 11.324 2.48000336 10.6119964 3.43999376 9.8960036 4.688 9.176 5.5680044 8.66399744 6.25599752 8.22400184 6.752 7.856 7.24800248 7.48799816 7.62399872 7.09200212 7.88 6.668 8.13600128 6.24399788 8.264 5.76000272 8.264 5.216 8.264 4.63999712 8.08000184 4.17600176 7.712 3.824 7.34399816 3.47199824 6.83200328 3.296 6.176 3.296 4.575992 3.296 3.76000016 4.15999136 3.728 5.888L.248 5.888C.29600024 4.1279912.8399948 2.78000468 1.88 1.844 2.9200052.90799532 4.35199088.44 6.176.44 7.90400864.44 9.28399484.85599584 10.316 1.688zM15.704 16.112C14.7439952 15.2639958 14.2240004 14.0880075 14.144 12.584L17.648 12.584C17.7280004 13.2240032 17.9479982 13.7119983 18.308 14.048 18.6680018 14.3840017 19.143997 14.552 19.736 14.552 20.6640046 14.552 21.4199971 14.156004 22.004 13.364 22.5880029 12.571996 22.9039998 11.3520082 22.952 9.704L22.904 9.704C21.9599953 10.8240056 20.7280076 11.384 19.208 11.384 18.1679948 11.384 17.248004 11.1600022 16.448 10.712 15.647996 10.2639978 15.0280022 9.640004 14.588 8.84 14.1479978 8.039996 13.928 7.12800512 13.928 6.104 13.928 4.9839944 14.1839974 3.99600428 14.696 3.14 15.2080026 2.28399572 15.9239954 1.62000236 16.844 1.148 17.7640046.67599764 18.8159941.44 20 .44 22.00001.44 23.5359946 1.11199328 24.608 2.456 25.6800054 3.80000672 26.216 5.7919868 26.216 8.432 26.216 11.2960143 25.6360058 13.5039922 24.476 15.056 23.3159942 16.6080078 21.6720106 17.384 19.544 17.384 17.943992 17.384 16.6640048 16.9600042 15.704 16.112zM21.728 7.988C22.1760022 7.4679974 22.4 6.77600432 22.4 5.912 22.4 5.111996 22.1840022 4.4720024 21.752 3.992 21.3199978 3.5119976 20.7360037 3.272 20 3.272 19.2479962 3.272 18.6480022 3.51599756 18.2 4.004 17.7519978 4.49200244 17.528 5.15199584 17.528 5.984 17.528 6.83200424 17.7479978 7.50799748 18.188 8.012 18.6280022 8.51600252 19.2159963 8.768 19.952 8.768 20.6880037 8.768 21.2799978 8.5080026 21.728 7.988zM9.02 23.566C9.78800384 24.3060037 10.172 25.3599932 10.172 26.728 10.172 28.0960068 9.78800384 29.1499963 9.02 29.89 8.25199616 30.6300037 7.16000708 31 5.744 31L3.14 31 3.14 22.456 5.744 22.456C7.16000708 22.456 8.25199616 22.8259963 9.02 23.566zM4.244 30.016L5.732 30.016C6.79600532 30.016 7.6079972 29.7360028 8.168 29.176 8.7280028 28.6159972 9.008 27.8000054 9.008 26.728 9.008 25.6559946 8.7280028 24.8400028 8.168 24.28 7.6079972 23.7199972 6.79600532 23.44 5.732 23.44L4.244 23.44 4.244 30.016zM15.11 30.028C15.3940014 29.8119989 15.5719996 29.5280018 15.644 29.176L16.724 29.176C16.6119994 29.7440028 16.3220023 30.2179981 15.854 30.598 15.3859977 30.9780019 14.7800037 31.168 14.036 31.168 13.443997 31.168 12.9320022 31.0320014 12.5 30.76 12.0679978 30.4879986 11.7380011 30.1040025 11.51 29.608 11.2819989 29.1119975 11.168 28.5320033 11.168 27.868 11.168 27.267997 11.2819989 26.7300024 11.51 26.254 11.7380011 25.7779976 12.0659979 25.4060013 12.494 25.138 12.9220021 24.8699987 13.4239971 24.736 14 24.736 14.6800034 24.736 15.2539977 24.9239981 15.722 25.3 16.1900023 25.6760019 16.5039992 26.1959967 16.664 26.86 16.7440004 27.1880016 16.784 27.6239973 16.784 28.168L12.224 28.168C12.2480001 28.8880036 12.4259983 29.4319982 12.758 29.8 13.0900017 30.1680018 13.5159974 30.352 14.036 30.352 14.4680022 30.352 14.8259986 30.2440011 15.11 30.028zM12.788 26.026C12.4759984 26.3420016 12.2920003 26.7879971 12.236 27.364L15.74 27.364C15.6839997 26.7799971 15.5000016 26.3320016 15.188 26.02 14.8759984 25.7079984 14.4800024 25.552 14 25.552 13.5039975 25.552 13.1000016 25.7099984 12.788 26.026zM21.926 25.03C22.3060019 25.226001 22.6099989 25.4999982 22.838 25.852 23.0660011 26.2040018 23.1999998 26.6079977 23.24 27.064L22.136 27.064C22.0959998 26.6319978 21.9380014 26.2800014 21.662 26.008 21.3859986 25.7359986 21.0400021 25.6 20.624 25.6 20.0879973 25.6 19.6640016 25.8099979 19.352 26.23 19.0399984 26.6500021 18.884 27.2239964 18.884 27.952 18.884 28.6800036 19.0379985 29.2539979 19.346 29.674 19.6540015 30.0940021 20.0799973 30.304 20.624 30.304 21.0400021 30.304 21.3859986 30.1580015 21.662 29.866 21.9380014 29.5739985 22.0959998 29.2040022 22.136 28.756L23.24 28.756C23.1999998 29.2200023 23.0680011 29.6339982 22.844 29.998 22.6199989 30.3620018 22.3180019 30.647999 21.938 30.856 21.5579981 31.064001 21.1240024 31.168 20.636 31.168 20.0519971 31.168 19.5440022 31.0380013 19.112 30.778 18.6799978 30.5179987 18.3480012 30.1460024 18.116 29.662 17.8839988 29.1779976 17.768 28.6080033 17.768 27.952 17.768 27.2959967 17.8839988 26.7260024 18.116 26.242 18.3480012 25.7579976 18.6799978 25.3860013 19.112 25.126 19.5440022 24.8659987 20.0519971 24.736 20.636 24.736 21.1160024 24.736 21.5459981 24.833999 21.926 25.03z"/>
    </g>
    <polygon fill="#1560FA" points="72.11 7.521 112.792 7.521 112.792 .791 72.11 .791"/>
    <polygon fill="#888C7E" points="111.991 45.623 116.035 45.623 116.035 .643 111.991 .643"/>
    <polygon fill="#3666C9" points="111.987 7.608 115.999 7.608 115.999 .608 111.987 .608"/>
    <path fill="#FFBC85" d="M53.3049831,59.1800441 L66.875832,47.7345841 C68.2982606,46.5350118 68.4807643,44.3889881 67.2807335,42.9665595 L67.2807335,42.9665595 C66.0811612,41.544131 63.935596,41.3616272 62.5127089,42.561658 L48.94186,54.0066595 C47.5194314,55.2066903 47.3369277,57.3522555 48.5369585,58.7751426 L48.5369585,58.7751426 C49.7365308,60.1975712 51.8825545,60.3800749 53.3049831,59.1800441"/>
  </g>
</svg>
