<svg xmlns="http://www.w3.org/2000/svg" width="72" height="22" viewBox="0 0 72 22">
  <path fill="#FFF" fill-rule="evenodd" d="M711.438937,35.2112496 C712.345442,35.6440851 713.072268,36.2484124 713.619437,37.0242496 C714.166607,37.8000868 714.48102,38.6943279 714.562687,39.7069996 L710.348687,39.7069996 C710.283354,39.053663 710.075106,38.5432515 709.723937,38.1757496 C709.372769,37.8082478 708.919523,37.6244996 708.364187,37.6244996 C707.66185,37.6244996 707.110606,37.9348298 706.710437,38.5554996 C706.310269,39.1761694 706.110187,40.0418274 706.110187,41.1524996 C706.110187,42.2795053 706.310269,43.1533298 706.710437,43.7739996 C707.110606,44.3946694 707.670017,44.7049996 708.388687,44.7049996 C708.944023,44.7049996 709.397269,44.500835 709.748437,44.0924996 C710.099606,43.6841642 710.29152,43.1206699 710.324187,42.4019996 L714.562687,42.4019996 C714.43202,44.0516745 713.807276,45.3624114 712.688437,46.3342496 C711.569598,47.3060878 710.128196,47.7919996 708.364187,47.7919996 C707.057514,47.7919996 705.910109,47.518419 704.921937,46.9712496 C703.933766,46.4240802 703.174273,45.6523379 702.643437,44.6559996 C702.112601,43.6596613 701.847187,42.4918396 701.847187,41.1524996 C701.847187,39.829493 702.112601,38.6698379 702.643437,37.6734996 C703.174273,36.6771613 703.929682,35.9095023 704.909687,35.3704996 C705.889692,34.8314969 707.033014,34.5619996 708.339687,34.5619996 C709.49936,34.5619996 710.532433,34.7784141 711.438937,35.2112496 Z M723.755687,34.9049996 L723.755687,38.3839996 C723.298352,38.3023325 722.881856,38.2614996 722.506187,38.2614996 C721.477182,38.2614996 720.689107,38.5759131 720.141937,39.2047496 C719.594768,39.8335861 719.321187,40.7441603 719.321187,41.9364996 L719.321187,47.3999996 L715.254187,47.3999996 L715.254187,34.9539996 L719.027187,34.9539996 L719.027187,36.6689996 L719.076187,36.6689996 C719.500856,36.015663 719.999018,35.5338345 720.570687,35.2234996 C721.142357,34.9131647 721.812017,34.7579996 722.579687,34.7579996 C722.988023,34.7579996 723.380019,34.8069991 723.755687,34.9049996 Z M731.918937,50.1072496 C731.404435,50.8177532 730.783774,51.3281647 730.056937,51.6384996 C729.3301,51.9488345 728.427693,52.1039996 727.349687,52.1039996 C726.64735,52.1039996 725.945024,52.0305004 725.242687,51.8834996 L725.242687,48.7964996 C725.634689,48.9271669 726.051185,48.9924996 726.492187,48.9924996 C727.063857,48.9924996 727.521186,48.8495844 727.864187,48.5637496 C728.207189,48.2779149 728.378687,47.8818355 728.378687,47.3754996 C728.378687,47.1468318 728.337854,46.8895844 728.256187,46.6037496 C728.17452,46.3179149 727.986689,45.774837 727.692687,44.9744996 L724.042187,34.9539996 L728.427687,34.9539996 L729.628187,39.1189996 C730.150857,41.0463426 730.567352,42.7776586 730.877687,44.3129996 L730.926687,44.3129996 C731.269689,42.5653242 731.686185,40.8258416 732.176187,39.0944996 L733.327687,34.9539996 L737.468187,34.9539996 L733.327687,47.1794996 C732.903019,48.4208392 732.43344,49.3967461 731.918937,50.1072496 Z M748.143187,35.4194996 C748.943525,35.9585023 749.560102,36.722078 749.992937,37.7102496 C750.425773,38.6984212 750.642187,39.853993 750.642187,41.1769996 C750.642187,42.5000062 750.429856,43.655578 750.005187,44.6437496 C749.580519,45.6319212 748.976191,46.3954969 748.192187,46.9344996 C747.408183,47.4735023 746.493526,47.7429996 745.448187,47.7429996 C744.762184,47.7429996 744.117024,47.5960011 743.512687,47.3019996 C742.908351,47.0079981 742.418356,46.5915023 742.042687,46.0524996 L741.993687,46.0524996 L741.993687,51.9324996 L737.926687,51.9324996 L737.926687,34.9539996 L741.846687,34.9539996 L741.846687,36.4974996 L741.895687,36.4974996 C742.271356,35.8931633 742.765434,35.4276679 743.377937,35.1009996 C743.99044,34.7743313 744.647851,34.6109996 745.350187,34.6109996 C746.411859,34.6109996 747.34285,34.8804969 748.143187,35.4194996 Z M742.397937,38.6289996 C741.981435,39.2496694 741.773187,40.0989942 741.773187,41.1769996 C741.773187,42.255005 741.981435,43.1043298 742.397937,43.7249996 C742.814439,44.3456694 743.365684,44.6559996 744.051687,44.6559996 C744.754024,44.6559996 745.317519,44.3415861 745.742187,43.7127496 C746.166856,43.0839131 746.379187,42.2386716 746.379187,41.1769996 C746.379187,40.1153276 746.166856,39.2700861 745.742187,38.6412496 C745.317519,38.0124131 744.754024,37.6979996 744.051687,37.6979996 C743.365684,37.6979996 742.814439,38.0083298 742.397937,38.6289996 Z M759.185688,44.2639996 L759.185688,47.3264996 C758.908019,47.4081667 758.573189,47.4734994 758.181188,47.5224996 C757.789186,47.5714999 757.438022,47.5959996 757.127688,47.5959996 C755.55968,47.5959996 754.420441,47.2693362 753.709938,46.6159996 C752.999434,45.962663 752.644188,44.9091736 752.644188,43.4554996 L752.644188,37.9184996 L750.708688,37.9184996 L750.708688,34.9539996 L752.644188,34.9539996 L752.644188,31.5974996 L756.711188,31.5974996 L756.711188,34.9539996 L759.063188,34.9539996 L759.063188,37.9184996 L756.711188,37.9184996 L756.711188,42.5244996 C756.711188,43.1941696 756.833686,43.6719149 757.078688,43.9577496 C757.323689,44.2435844 757.723851,44.3864996 758.279188,44.3864996 C758.605856,44.3864996 758.908019,44.3456667 759.185688,44.2639996 Z M769.578938,35.3704996 C770.583443,35.9095023 771.359268,36.6771613 771.906438,37.6734996 C772.453607,38.6698379 772.727188,39.8376596 772.727188,41.1769996 C772.727188,42.5163396 772.453607,43.6841613 771.906438,44.6804996 C771.359268,45.6768379 770.583443,46.4444969 769.578938,46.9834996 C768.574433,47.5225023 767.402528,47.7919996 766.063188,47.7919996 C764.723848,47.7919996 763.551943,47.5225023 762.547438,46.9834996 C761.542933,46.4444969 760.767107,45.6768379 760.219938,44.6804996 C759.672768,43.6841613 759.399188,42.5163396 759.399188,41.1769996 C759.399188,39.8376596 759.672768,38.6698379 760.219938,37.6734996 C760.767107,36.6771613 761.542933,35.9095023 762.547438,35.3704996 C763.551943,34.8314969 764.723848,34.5619996 766.063188,34.5619996 C767.402528,34.5619996 768.574433,34.8314969 769.578938,35.3704996 Z M764.311438,38.5922496 C763.894936,39.2210861 763.686688,40.0826608 763.686688,41.1769996 C763.686688,42.2713384 763.894936,43.1329131 764.311438,43.7617496 C764.72794,44.3905861 765.31185,44.7049996 766.063188,44.7049996 C766.814525,44.7049996 767.398436,44.3905861 767.814938,43.7617496 C768.23144,43.1329131 768.439688,42.2713384 768.439688,41.1769996 C768.439688,40.0826608 768.23144,39.2210861 767.814938,38.5922496 C767.398436,37.9634131 766.814525,37.6489996 766.063188,37.6489996 C765.31185,37.6489996 764.72794,37.9634131 764.311438,38.5922496 Z" transform="translate(-701 -31)"/>
</svg>
